<?xml version="1.0" standalone="no"?>
<!DOCTYPE svg PUBLIC "-//W3C//DTD SVG 1.1//EN" "http://www.w3.org/Graphics/SVG/1.1/DTD/svg11.dtd">
<svg xmlns="http://www.w3.org/2000/svg">
<metadata>Generated by Fontastic.me</metadata>
<defs>
<font id="untitled-font-2" horiz-adv-x="512">
<font-face font-family="untitled-font-2" units-per-em="512" ascent="480" descent="-32"/>
<missing-glyph horiz-adv-x="512" />

<glyph glyph-name="ship" unicode="&#98;" d="M481 68c3 3 8 5 13 5 5 0 9-2 13-5l36-37-26-26-23 24-24-24c-3-3-8-5-13-5-5 0-9 2-13 5l-23 24-24-24c-4-3-8-5-13-5-5 0-9 2-13 5l-24 24-23-24c-4-3-8-5-13-5-5 0-9 2-13 5l-24 24-23-24c-4-3-8-5-13-5-5 0-10 2-13 5l-24 24-24-24c-3-3-7-5-12-5-5 0-10 2-13 5l-24 24-24-24c-3-3-8-5-13-5-5 0-9 2-12 5l-24 24-24-24c-3-3-8-5-13-5-5 0-9 2-13 5l-36 37 26 26 23-24 24 24c4 3 8 5 13 5 5 0 9-2 13-5l23-24 24 24c4 3 8 5 13 5 5 0 9-2 13-5l24-24 23 24c4 3 8 5 13 5 5 0 9-2 13-5l24-24 23 24c4 3 8 5 13 5 5 0 10-2 13-5l24-24 24 24c3 3 7 5 12 5 5 0 10-2 13-5l24-24 24 24c3 3 8 5 13 5 5 0 9-2 12-5l24-24z m-450 11c-3-4-8-6-13-6-5 0-9 2-13 6l-36 36 26 26 23-24 24 24c4 3 8 5 13 5 5 0 9-2 13-5l23-24 19 19 0 83-60 90c-4 5-4 10-2 16 2 6 5 10 11 12l51 16 0 86 36 0 0 36 73 0 0 37 74 0 0-37 73 0 0-36 36 0 0-86 51-16c6-2 9-6 11-12 2-6 2-11-2-16l-60-90 0-83 6 5c3 3 8 5 13 5 5 0 9-2 12-5l24-24 24 24c3 3 8 5 13 5 5 0 9-2 13-5l36-37-26-25-23 23-24-23c-3-4-8-6-13-6-5 0-9 2-13 6l-23 23-24-23c-4-4-8-6-13-6-5 0-9 2-13 6l-24 23-23-23c-4-4-8-6-13-6-5 0-9 2-13 6l-24 23-23-23c-4-4-8-6-13-6-5 0-10 2-13 6l-24 23-24-23c-3-4-7-6-12-6-5 0-10 2-13 6l-24 23-24-23c-3-4-8-6-13-6-5 0-9 2-12 6l-24 23z m115 323l0-36 110 36 110-36 0 36-37 0 0 37-146 0 0-37z"/>
<glyph glyph-name="phone" unicode="&#99;" d="M457 158c0-5-1-12-3-20-2-9-4-15-6-20-4-10-15-20-35-30-17-10-35-15-53-15-5 0-10 0-15 1-5 1-10 2-16 4-6 1-11 3-14 4-3 1-8 3-16 6-7 3-12 4-14 5-18 7-35 14-50 24-24 15-49 35-75 61-26 26-47 51-62 76-9 14-17 31-23 50-1 1-3 6-6 14-2 7-4 13-5 16-1 3-3 7-5 13-1 6-2 12-3 17-1 4-1 9-1 15 0 17 5 35 14 53 11 19 21 31 31 35 4 2 11 4 19 6 9 1 15 2 20 2 3 0 5 0 6 0 4-2 9-9 16-22 2-4 5-9 8-16 4-6 7-12 10-18 3-5 6-10 9-15 1-1 2-3 5-7 3-4 5-8 6-10 1-3 2-6 2-8 0-4-3-9-8-15-5-5-11-11-18-15-6-5-12-10-17-16-6-5-9-9-9-13 0-1 1-4 2-6 1-3 2-5 2-6 1-1 2-4 4-7 2-3 3-5 4-5 14-26 31-49 49-67 19-19 41-36 67-50 1 0 3-1 6-3 3-2 5-4 7-4 1-1 3-2 6-3 2-1 4-1 6-1 3 0 8 2 13 8 5 5 11 11 15 18 5 6 10 12 16 17 6 6 10 8 14 8 3 0 6 0 8-2 3-1 7-3 11-6 4-2 6-4 7-5 4-3 10-6 15-9 5-3 11-6 18-10 7-3 12-6 16-8 13-7 20-12 21-15 1-2 1-4 1-6z"/>
<glyph glyph-name="facebook-square" unicode="&#100;" d="M393 475c23 0 42-8 58-24 16-16 24-35 24-58l0-274c0-23-8-42-24-58-16-16-35-24-58-24l-54 0 0 170 57 0 9 66-66 0 0 42c0 11 3 19 7 24 5 5 13 8 26 8l35 0 0 60c-12 1-29 2-51 2-26 0-46-7-62-23-15-15-23-36-23-64l0-49-57 0 0-66 57 0 0-170-152 0c-23 0-42 8-58 24-16 16-24 35-24 58l0 274c0 23 8 42 24 58 16 16 35 24 58 24z"/>
<glyph glyph-name="twitter-square" unicode="&#101;" d="M402 338c-10-5-22-8-34-10 13 8 22 19 26 33-12-7-25-12-38-14-12 12-26 19-44 19-16 0-30-6-42-18-12-12-18-26-18-42 0-6 1-10 2-14-25 1-48 8-69 19-22 11-40 25-55 44-6-10-9-20-9-30 0-22 9-39 26-50-9 0-18 2-28 7l0-1c0-14 5-27 14-38 10-11 21-18 35-20-5-2-10-3-14-3-3 0-6 1-11 1 4-12 11-21 21-29 10-8 22-12 35-12-23-17-47-26-75-26-5 0-10 0-14 1 28-18 59-27 92-27 21 0 41 3 60 10 18 7 34 16 48 27 13 12 25 25 34 39 10 15 17 31 22 47 4 16 7 32 7 48 0 3-1 6-1 8 12 8 22 19 30 31z m73 55l0-274c0-23-8-42-24-58-16-16-35-24-58-24l-274 0c-23 0-42 8-58 24-16 16-24 35-24 58l0 274c0 23 8 42 24 58 16 16 35 24 58 24l274 0c23 0 42-8 58-24 16-16 24-35 24-58z"/>
<glyph glyph-name="home" unicode="&#102;" d="M421 229l0-138c0-5-2-9-6-12-3-4-8-6-13-6l-109 0 0 110-74 0 0-110-109 0c-5 0-10 2-13 6-4 3-6 7-6 12l0 138c0 0 0 0 0 0 0 1 0 1 0 1l164 136 165-136c0 0 0-1 0-1z m63 19l-17-21c-2-2-4-3-6-3l-1 0c-3 0-5 1-6 2l-198 165-198-165c-2-2-4-2-7-2-2 0-4 1-6 3l-17 21c-2 2-2 4-2 7 0 3 1 5 3 6l205 171c6 5 14 8 22 8 8 0 16-3 22-8l69-58 0 56c0 2 1 5 3 6 2 2 4 3 7 3l54 0c3 0 5-1 7-3 2-1 3-4 3-6l0-117 62-52c2-1 3-3 3-6 0-3 0-5-2-7z"/>
<glyph glyph-name="contacto" unicode="&#104;" d="M461 143l-130 36 0 38c38 29 64 78 64 135 0 88-62 160-139 160-76 0-138-72-138-160 0-56 25-106 63-134l0-39-131-36c-30-11-50-39-50-71l0-72 512 0 0 72c0 32-20 60-51 71z m-205 348c51 0 94-39 110-93-4-4-10-6-18-6-21 1-50 19-61 40l-10 17-9-18c-9-18-25-28-46-32-28-5-58 5-71 11 18 48 59 81 105 81z m-116-139c0 13 1 26 4 38 20-10 52-17 82-12 22 4 39 14 52 30 18-21 46-36 70-37 0 0 1 0 2 0 8 0 15 2 21 5 2-8 2-16 2-24 0-76-52-139-117-139-64 0-116 63-116 139z m350-331l-468 0 0 51c0 23 14 43 34 50l147 41 0 42c16-9 34-13 53-13 19 0 37 4 53 12l0-41 146-41c21-7 35-27 35-50z"/>
<glyph glyph-name="industry" unicode="&#105;" d="M128 512c5 0 9-2 13-5 3-4 5-8 5-13l0-255 153 123c4 2 7 4 12 4 5 0 9-2 13-6 3-3 5-8 5-13l0-108 153 123c4 2 7 4 12 4 5 0 9-2 13-6 3-3 5-8 5-13l0-329c0-5-2-9-5-13-4-3-8-5-13-5l-476 0c-5 0-9 2-13 5-3 4-5 8-5 13l0 476c0 5 2 9 5 13 4 3 8 5 13 5z"/>
<glyph glyph-name="envelope" unicode="&#116;" d="M512 309l0-227c0-12-4-23-13-32-9-9-20-13-33-13l-420 0c-13 0-24 4-33 13-9 9-13 20-13 32l0 227c8-9 18-17 29-25 69-47 116-79 142-98 11-8 20-15 26-19 7-4 16-9 27-14 12-4 22-7 32-7l0 0c10 0 20 3 32 7 11 5 20 10 27 14 6 4 15 11 26 19 33 23 80 56 142 98 11 8 21 16 29 25z m0 84c0-15-5-29-14-43-9-14-21-25-35-35-71-50-116-81-134-93-1-1-6-4-12-9-6-4-11-8-15-11-4-2-9-5-15-9-6-3-11-6-16-8-6-1-10-2-15-2l0 0c-5 0-9 1-15 2-5 2-10 5-16 8-6 4-11 7-15 9-4 3-9 7-15 11-6 5-11 8-12 9-18 12-43 30-75 52-33 23-52 36-59 41-12 8-23 19-33 33-11 14-16 27-16 39 0 15 4 27 12 37 8 10 19 15 34 15l420 0c13 0 23-5 32-14 9-9 14-19 14-32z"/>
<glyph glyph-name="map-marker" unicode="&#117;" d="M329 329c0 20-7 38-21 52-15 14-32 21-52 21-20 0-37-7-52-21-14-14-21-32-21-52 0-20 7-37 21-52 15-14 32-21 52-21 20 0 37 7 52 21 14 15 21 32 21 52z m73 0c0-21-3-38-9-51l-104-221c-3-6-8-11-14-15-6-4-12-5-19-5-7 0-13 1-19 5-6 4-11 9-14 15l-104 221c-6 13-9 30-9 51 0 41 14 75 43 104 28 28 63 42 103 42 40 0 75-14 103-42 29-29 43-63 43-104z"/>
<glyph glyph-name="web" unicode="&#119;" d="M256 448c-106 0-192-86-192-192 0-106 86-192 192-192 106 0 192 86 192 192 0 106-86 192-192 192z m-139-217l30 0c5-38 21-73 45-101-39 20-67 57-75 101z m30 50l-30 0c8 44 36 81 75 101-24-28-40-63-45-101z m84-117c-17 18-28 41-33 67l33 0z m0 117l-33 0c5 26 16 49 33 67z m164 0l-30 0c-5 38-21 73-45 101 39-20 67-57 75-101z m-114-117l0 67 33 0c-5-26-16-49-33-67z m0 117l0 67c17-18 28-41 33-67z m39-151c24 28 40 62 45 101l30 0c-8-44-36-81-75-101z"/>
<glyph glyph-name="soldador" unicode="&#121;" d="M156 511c-24 0-43-19-43-42 0-20 14-37 32-41l10 63c1 7 4 14 9 20-3 0-6 0-8 0z m237-67l-75 18 2 4c1 6-2 12-8 14-6 2-12-2-14-8l-2-5-19 5c-6 1-12-2-14-8-1-7 3-13 9-14l18-5c-17-56-2-4-16-53-1 0-2-1-3-2l-73-41-51 29 17-5c-5 3-10 7-13 12-6 8-9 17-8 26l-33 3c-17 2-32-11-34-28l-10-145c-1-10 0-19 1-29l10-65-32-116c-3-13 4-26 18-30 13-4 26 4 30 17l33 121c1 4 1 7 1 11l-11 72 10-1 29-78 8-120c1-13 12-23 25-23 14 0 25 12 24 26l-8 124c0 2 0 5-1 7l-23 61 6 69-59 55 61-35c6-3 14-3 20 1l49 27c0-5 3-9 8-11 1 0 2 0 4 0 4 0 9 3 10 8l6 19 6 4c10 5 13 18 8 28-1 1-2 3-3 4 3 11 9 30 16 53l76-18c6-2 12 2 13 8 2 6-2 12-8 14z m0 63c-1 4-5 6-9 5-5-2-7-6-5-10l15-48c0 55 0 51-1 53z m31-6c-6 0-10-4-10-9l-4-50 21 46c3 6-1 12-7 13z m42-36c-3 4-9 4-13 1l-39-31 47 15c6 2 9 10 5 15z m-8-49l-49 6 44-24c5-3 12 1 13 7 1 5-3 10-8 11z m-31-58l-27 55 10-60c1-6 7-10 13-7 4 2 6 8 4 12z m-206 148l-21 3c-13 2-26-7-28-20l-12-76c-2-13 7-26 21-28 0 0 21-3 21-3 2 0 4 1 5 3l9 58-25 4 5 31 25-4 4 27c1 2-1 4-4 5z"/>
<glyph glyph-name="cog" unicode="&#122;" d="M329 256c0 20-7 37-21 52-15 14-32 21-52 21-20 0-37-7-52-21-14-15-21-32-21-52 0-20 7-37 21-52 15-14 32-21 52-21 20 0 37 7 52 21 14 15 21 32 21 52z m146 31l0-63c0-3 0-5-2-7-1-2-3-3-6-4l-52-8c-4-10-8-19-12-26 7-9 17-22 31-39 2-2 3-5 3-7 0-3-1-5-3-7-5-7-14-17-28-31-14-13-23-20-27-20-2 0-5 1-7 3l-40 31c-8-5-17-8-26-11-3-26-6-44-8-53-1-6-5-8-10-8l-64 0c-2 0-5 0-7 2-2 2-3 4-3 6l-8 53c-9 3-18 6-26 10l-40-30c-2-2-4-3-7-3-3 0-5 1-7 3-24 22-40 38-47 48-2 2-2 4-2 7 0 2 0 4 2 6 3 4 8 11 14 19 7 9 12 16 16 21-5 9-9 19-12 28l-52 8c-3 0-5 1-6 3-2 2-2 4-2 7l0 63c0 3 0 5 2 7 1 2 3 3 5 4l53 8c3 8 7 17 12 26-8 11-18 24-31 39-2 3-3 5-3 7 0 2 1 4 3 7 5 7 14 17 28 30 14 14 23 21 27 21 2 0 5-1 7-3l40-31c8 5 17 8 26 11 3 26 6 44 8 53 1 6 5 8 10 8l64 0c2 0 5 0 7-2 2-2 3-4 3-6l8-53c9-3 18-6 26-10l40 30c2 2 4 3 7 3 3 0 5-1 7-3 25-23 41-39 47-49 2-1 2-3 2-6 0-2 0-4-2-6-3-4-8-11-14-19-7-9-12-16-16-21 5-9 9-18 12-28l52-8c3 0 5-1 6-3 2-2 2-4 2-7z"/>
<glyph glyph-name="v2" unicode="&#67;" d="M106 406l0-95 139 48 11 4 11-4 139-48 0 95z m328-366c-6-4-9-7-17-7-8 0-11 3-17 7-8 5-18 12-37 12-18 0-29-7-36-12-6-4-9-7-17-7-8 0-12 3-17 7-8 5-18 12-37 12-19 0-29-7-37-12-5-4-9-7-17-7-8 0-11 3-17 7-7 5-18 12-36 12-19 0-29-7-37-12-6-4-9-7-17-7-8 0-11 3-17 7-8 5-18 12-37 12l0-33c8 0 12-2 17-6 8-6 18-13 37-13 19 0 29 7 36 13 6 4 9 6 18 6 8 0 11-2 17-6 7-6 18-13 36-13 19 0 29 7 37 13 6 4 9 6 17 6 8 0 11-2 17-6 8-6 18-13 37-13 18 0 29 7 36 13 6 4 9 6 17 6 8 0 12-2 18-6 7-6 17-13 36-13 19 0 29 7 37 13 5 4 9 6 17 6l0 33c-19 0-29-7-37-12z m-161 446l0 26-34 0 0-26-79 0 0-47 193 0 0 47z m-225-230l71-175c8 3 18 5 30 5 27 0 44-11 53-17 8 5 20 12 37 15l0 238z m225 66l0-238c17-3 29-10 37-15 9 6 26 17 53 17 12 0 22-2 30-5l71 175z"/>
<glyph glyph-name="plataform" unicode="&#68;" d="M495 17l17 0 0-17-17 0z m17 313l0 17-165 0 0-17 16 0 0-74-16 0 0-17 16 0 0-74-25 0-32 297 16 0 0 50-99 0 0-50 16 0-32-297-13 0-128 152c-2 17-16 30-33 30-18 0-33-15-33-33 0-16 11-28 25-32l0-265-25 0 0-17 479 0 0 17-17 0 0 82 50 0 0 66-17 0 0 74 17 0 0 17-17 0 0 74z m-132 0l99 0 0-74-99 0z m0-91l99 0 0-74-99 0z m-59-69l-70 69 62 0z m-10 93l-53 59 47 0z m-60 158l4 41 35 0 4-41z m45-16l6-55-38 55z m-6-66l-48 0 6 59z m-51 156l67 0 0-16-67 0z m1-178l55-61-62 0z m-9-81l71-71-78 0z m-59-71l-36 0-11 17 33 0z m-52 62l24-29-30 0-4 6z m-12 15l-9-22-30 44 32-14z m-47 55l16-19-24 10c4 3 6 5 8 9z m-44 17c0 9 7 16 16 16 9 0 17-7 17-16 0-9-8-17-17-17-9 0-16 8-16 17z m90-297l-66 0 0 257 51-73-1 0 1 0 24-36-58 0 0-66 49 0z m83 33l-8 0 0-17 8 0 0-16-66 0 0 16 41 0 0 17-41 0 0 49 66 0z m173-33l-157 0 0 82 157 0z m83 33l-8 0 0-17 8 0 0-16-66 0 0 16 41 0 0 17-41 0 0 49 66 0z m49 66l-421 0 0 33 421 0z m-99 198l17 0 0-17-17 0z m33 0l17 0 0-17-17 0z m17-116l16 0 0-16-16 0z m-33 0l16 0 0-16-16 0z"/>
<glyph glyph-name="plataforma" unicode="&#69;" d="M491 119l-135 0 0 19c8 4 13 12 13 22 0 3 0 5-1 8l7 0c14 0 25 11 25 24 0 14-11 25-25 25l-6 0-5 29c0 4-4 7-8 7l-12 0-7 68c0 0 0 1 0 1l-10 94 110 0 0-23c0-9 6-17 14-20l0-97c-8-3-13-11-13-19 0-4 1-7 3-10l-18-24-1 0c-5 0-8-4-8-9l0-68c0-4 3-8 8-8l74 0c4 0 8 4 8 8l0 68c0 5-4 9-8 9l-1 0-18 24c1 3 2 6 2 10 0 8-5 16-12 19l0 96c9 2 17 11 17 21l0 23 8 0c11 0 20 9 20 20 0 11-9 19-20 19l-29 0c-4 0-8-3-8-8 0-4 4-8 8-8l29 0c2 0 4-1 4-3 0-2-2-4-4-4l-167 0-1 7 113 0c5 0 8 4 8 8 0 5-3 8-8 8l-114 0-2 17c-1 4-4 7-8 7l-19 0 0 25c0 4-3 8-8 8-4 0-8-4-8-8l0-25-18 0c-4 0-7-3-8-7l-24-219-16 0 0 15c0 5-3 8-8 8-4 0-8-3-8-8l0-51-123 0 0 95 5 0c0 0 0 0 0 0l113 0c0 0 0 0 0 0l5 0 0-18c0-5 4-8 8-8 5 0 8 3 8 8l0 26c0 5-3 8-8 8l-4 0 0 29c0 5-4 8-8 8l-49 0 0 25c0 4-3 8-8 8-4 0-8-4-8-8l0-25-49 0c-5 0-9-3-9-8l0-29-4 0c-4 0-8-3-8-8l0-103-5 0c-13 0-24-11-24-25 0-13 11-24 24-24l6 0c-1-3-2-5-2-8 0-10 6-18 14-22l0-19-49 0c-12 0-21-9-21-21l0-77c0-12 9-21 21-21l470 0c12 0 21 9 21 21l0 77c0 12-9 21-21 21z m-3 35l-58 0 0 8 58 0z m0 52l0-28-58 0 0 28z m-13 17l-32 0 11 14c0 0 0 0 0 0 1 0 1 0 1 0 0 0 1 0 2 0 0 0 0 0 0 0 1 0 1 0 2 0 0 0 0 0 0 0 0 0 0 0 0 0 1 0 1 0 2 0 0 0 0 0 0 0 1 0 1 0 2 0 0 0 0 0 0 0 0 0 0 0 1 0z m-21 34c0 2 2 4 5 4 2 0 4-2 4-4 0-1-1-3-2-3 0 0 0-1 0-1 0 0 0 0 0 0 0 0 0 0-1 0 0 0 0 0 0 0 0 0 0 0 0 0-1 0-1 0-1 0-1 0-1 0-1 0 0 0 0 0 0 0-1 0-1 0-1 0 0 0 0 0 0 0 0 0 0 0 0 0-1 0-1 1-1 1-1 0-2 2-2 3z m-1 159l15 0 0-23c0-3-3-5-6-5l-3 0c-3 0-6 2-6 5z m-367-67l98 0 0-21-98 0z m236-43l4-32-25 17z m-23 70l-13-11-12 11z m-29 16l16 16 16-16z m36-64l-39 0 19 16z m-3-16l-17-11-16 11z m13 56l3-29-20 16z m-4 37l-14 14 11 11z m-45 58l38 0 2-13-21-20-20 20z m-3-33l11-11-14-14z m-7-62l17-13-20-16z m-7-62l22-15-25-17z m36-25l42-28-83 0z m-74-44l137 0 3-20-140 0z m-160-53c-4 0-8 4-8 8 0 5 4 8 8 8l26 0c0 0 0 0 0 0l113 0c0 0 0 0 0 0l171 0c0 0 0 0 0 0 0 0 0 0 0 0l13 0c5 0 9-3 9-8 0-4-4-8-9-8l-102 0c-4 0-8-3-8-8 0-4 4-8 8-8l22 0c-1-3-1-5-1-8 0-10 5-18 13-22l0-19-189 0 0 19c8 4 14 12 14 22 0 3-1 5-2 8l116 0c5 0 8 4 8 8 0 5-3 8-8 8z m266-32c-4 0-8 3-8 8 0 4 4 8 8 8l27 0c5 0 8-4 8-8 0-5-3-8-8-8z m22-16l0-68-16 0 0 68z m-259 16c-5 0-8 3-8 8 0 4 3 8 8 8l27 0c4 0 8-4 8-8 0-5-4-8-8-8z m21-16l0-68-16 0 0 68z m394-115c0-3-2-5-5-5l-470 0c-3 0-5 2-5 5l0 77c0 3 2 5 5 5l49 0 0-35-11 0c-5 0-8-4-8-8 0-5 3-8 8-8l77 0c4 0 8 3 8 8 0 4-4 8-8 8l-18 0 0 35 189 0 0-35-25 0c-4 0-8-4-8-8 0-5 4-8 8-8l92 0c4 0 8 3 8 8 0 4-4 8-8 8l-18 0 0 35 135 0c3 0 5-2 5-5z m-87 47l-10 0c-4 0-8-4-8-8 0-5 4-8 8-8l10 0c5 0 8 3 8 8 0 4-3 8-8 8z m-238 232l-76 0c-4 0-8-4-8-9 0-4 4-8 8-8l76 0c5 0 8 4 8 8 0 5-3 9-8 9z m0-27l-76 0c-4 0-8-4-8-9 0-4 4-8 8-8l76 0c5 0 8 4 8 8 0 5-3 9-8 9z m0-27l-76 0c-4 0-8-4-8-8 0-5 4-9 8-9l76 0c5 0 8 4 8 9 0 4-3 8-8 8z"/>
<glyph glyph-name="ingeniero-1" unicode="&#71;" d="M94 299c-2-11 4-21 15-24l9-2 0 40c-11 3-21-4-24-14z m110-89l0-187c0-13 10-23 23-23 13 0 23 10 23 23l0 180z m56-7l0-180c0-13 11-23 24-23 13 0 23 10 23 23l0 187c0 0-47-7-47-7z m-36 194l-20 0c-21 0-38-14-44-33 13-2 72-10 82-11-2 4-16 39-18 44z m-9 50c2-21 19-37 40-37 22 0 39 16 41 37z m184-149l-5 0 0-39 5 0c11 0 19 9 19 20 0 11-8 19-19 19z m-91 99l-22 0c-4-11-13-35-17-44 8 1 75 10 83 11-6 19-24 33-44 33z m-40-29l-8 13 7 12c1 2 0 4-3 4l-18 0c-2 0-3-2-2-4l7-12-8-13c-1-2-1-4-1-5l2-11 12-1 10 1 2 10c1 2 1 4 0 6z m33 101l-2 0c-4 15-16 27-30 32l0-10c0-3-2-5-5-5l-3 0 0 20c0 4-3 6-6 6-3 0-5-2-5-6l0-20-4 0c-3 0-5 2-5 5l0 9c-14-4-25-16-29-31l-3 0c-3 0-5-2-5-5 0-4 2-6 5-6 42 0 50 0 92 0 3 0 6 2 6 6 0 3-3 5-6 5z m74-115l-119-17-119 17c-3 0-6-2-6-5l0-111c0-2 2-5 4-5l121-17 121 17c2 0 4 3 4 5l0 111c0 3-3 5-6 5z"/>
<glyph glyph-name="capacitar" unicode="&#73;" d="M474 20c0 20-23 48-55 56 13 9 22 26 22 42 0 23-18 41-40 41-22 0-41-18-41-41 0-16 10-33 23-42-32-8-56-36-56-56 0-24 147-24 147 0z m-342 400c18 0 33 21 33 39 0 19-15 33-33 33-18 0-33-14-33-33 0-18 15-39 33-39z m345-97l0 140c0 12-11 23-23 23l-90 0 0 17c0 5-4 9-9 9-5 0-9-4-9-9l0-17-90 0c-12 0-23-11-23-23l0-72-45 15c-3 1-28 10-51 11l-3-6 0 0 8-68-10-18-10 18 8 68 0 0-3 6c-24-1-50-10-51-11-1 0-1 0-2 0 0-1-1-1-2-2-1 0-1-1-2-1 0-1-1-2-1-2 0-1-1-2-1-3 0 0-1-1-1-1l-20-94c-2-7 2-14 9-15 1 0 2-1 3-1 6 0 12 5 13 11l19 86c1 0 3 1 5 1l0-88-11-129c0-5 2-10 5-13-14-6-24-20-24-37 0-16 10-33 23-42-32-8-55-36-55-56 0-24 146-24 146 0 0 20-23 48-55 56 13 9 23 26 23 42 0 20-15 37-34 40 1 2 2 5 2 7l10 117c2-1 4-2 6-2 2 0 4 1 6 2l10-117c0-8 7-14 15-14 1 0 1 0 2 0 8 1 15 8 14 17l-11 129 0 88c7-1 12-3 12-3 0 0 0 0 0 0 0 0 0 0 0 0l53-18 0-41c0-12 11-23 23-23l43 0-37-138c-1-1-1-3 0-4-3 1-5 1-8 1-22 0-41-18-41-41 0-16 10-33 23-42-32-8-55-36-55-56 0-24 146-24 146 0 0 20-23 48-55 56 13 9 23 26 23 42 0 15-8 28-20 35 2 1 3 2 4 4l38 143 29 0 0-101c0-5 4-9 9-9 5 0 9 4 9 9l0 101 29 0 39-143c1-3 4-6 8-6 1 0 2 0 2 0 5 2 8 6 7 11l-38 138 43 0c12 0 23 11 23 23z m-221-11c-6 0-11 5-11 11l0 38c0-1 1-1 2-1 5 0 10 4 12 9 2 7-2 14-8 17l-6 2 0 75c0 6 5 11 11 11l198 0c6 0 11-5 11-11l0-140c0-6-5-11-11-11z"/>
<glyph glyph-name="ingeniero-2" unicode="&#74;" d="M236 52l0-29c0-13 10-23 23-23 13 0 23 10 23 23l0 24-29 0c-6 0-12 2-17 5z m-5 352c17 0 32 11 37 27l-75 0c6-16 21-27 38-27z m135-227l-17 0c0 7 0 12-2 19-3 9-10 17-18 22l-1 128c0 25-21 46-46 46l-3 0-35-70 0 49 8 14c1 3-1 7-4 7l-34 0c-4 0-6-4-4-7l7-14 0-49-34 70-4 0c-25 0-45-21-45-46l-1-141c0-10 8-19 19-19 0 0 0 0 0 0 11 0 19 8 19 19l0 141c0 2 2 4 4 4 2 0 3-2 3-4l0-323c0-13 11-24 24-23 13 1 22 11 22 24l0 39c-3 4-4 10-4 16l0 85c0 6 1 12 4 16l0 22c0 3 2 5 5 5 3 1 5-2 5-5l0-11c5 3 11 5 17 5l20 0c-3-7-2-12-2-19l-18 0c-7 0-13-5-13-13l0-85c0-8 6-13 13-13l114 0c7 0 13 5 13 13l0 85c0 8-6 13-13 13z m-84 34c-1 0-1 1-1 1l0 134c0 2 2 4 4 4 3 0 4-2 4-4l1-128c-3-2-6-4-8-7z m40-33l-26 0c0 6 0 8 2 12 3-3 7-4 11-4 0 0 0 0 1 0 4 0 8 1 11 4 2-4 1-6 1-12z m-131 270l78 0c8 0 14 6 14 13 0 5-3 9-6 11-1 7-4 14-8 20-6 10-17 18-30 20l0-22c0-5-4-10-9-10-5 0-9 5-9 10l0 22c-12-3-22-10-29-20-4-6-6-12-7-19-4-2-7-7-7-12 0-7 6-13 13-13z"/>
<glyph glyph-name="down-open-mini" unicode="&#77;" d="M396 293c0 0-120-115-120-115-6-6-12-9-20-9-8 0-14 3-20 9 0 0-120 115-120 115-6 5-8 12-8 21 0 8 2 15 8 21 13 13 26 13 40 0 0 0 100-96 100-96 0 0 100 96 100 96 14 13 27 13 40 0 6-6 8-13 8-21 0-9-2-16-8-21"/>
<glyph glyph-name="pin" unicode="&#79;" d="M224 160l32-160 32 160c-10-1-21-2-32-2-10 0-22 1-32 2z m127 149c-16 9-31 30-31 43l0 32c0 11 6 19 12 26 7 6 12 14 12 22 0 27-31 48-88 48-57 0-87-21-87-48 0-8 4-16 12-22 5-7 11-15 11-26l0-32c0-13-14-34-31-43-19-9-35-27-35-44 0-37 51-74 130-74 80 0 130 37 130 74 0 17-15 34-35 44z"/>
<glyph glyph-name="up-open-big" unicode="&#66;" d="M446 143c0 0-190 184-190 184 0 0-189-184-189-184-9-7-18-7-26 0-8 9-8 17 0 26 0 0 203 200 203 200 9 9 17 9 24 0 0 0 203-200 203-200 8-9 8-17 0-26-9-7-17-7-25 0"/>
<glyph glyph-name="picture-o" unicode="&#72;" d="M165 347c0-15-6-28-16-38-11-11-24-16-39-16-16 0-28 5-39 16-11 10-16 23-16 38 0 16 5 29 16 39 11 11 23 16 39 16 15 0 28-5 39-16 10-10 16-23 16-39z m292-109l0-128-402 0 0 55 91 91 46-46 146 147z m28 201l-458 0c-2 0-4-1-6-3-2-2-3-4-3-6l0-348c0-2 1-4 3-6 2-2 4-3 6-3l458 0c2 0 4 1 6 3 2 2 3 4 3 6l0 348c0 2-1 4-3 6-2 2-4 3-6 3z m45-9l0-348c0-12-4-23-13-32-9-9-20-13-32-13l-458 0c-12 0-23 4-32 13-9 9-13 20-13 32l0 348c0 12 4 23 13 32 9 9 20 13 32 13l458 0c12 0 23-4 32-13 9-9 13-20 13-32z"/>
<glyph glyph-name="bloque-de-oficinas" unicode="&#80;" d="M483 385l-158 0 0 117c0 5-5 10-11 10l-285 0c-6 0-10-5-10-10l0-492c0-5 4-10 10-10l454 0c6 0 10 5 10 10l0 365c0 6-4 10-10 10z m-179-10l0-354-265 0 0 470 265 0z m169-354l-148 0 0 344 148 0z m-108 291l67 0c6 0 11 5 11 10 0 6-5 11-11 11l-67 0c-6 0-10-5-10-11 0-5 4-10 10-10z m0-52l67 0c6 0 11 5 11 10 0 6-5 11-11 11l-67 0c-6 0-10-5-10-11 0-5 4-10 10-10z m0-52l67 0c6 0 11 5 11 11 0 5-5 10-11 10l-67 0c-6 0-10-5-10-10 0-6 4-11 10-11z m0-52l67 0c6 0 11 5 11 11 0 5-5 10-11 10l-67 0c-6 0-10-5-10-10 0-6 4-11 10-11z m0-52l67 0c6 0 11 5 11 11 0 6-5 10-11 10l-67 0c-6 0-10-4-10-10 0-6 4-11 10-11z m0-52l67 0c6 0 11 5 11 11 0 6-5 10-11 10l-67 0c-6 0-10-4-10-10 0-6 4-11 10-11z m-278 359c6 0 11 4 11 10l0 23c0 6-5 10-11 10-5 0-10-4-10-10l0-23c0-6 5-10 10-10z m57 0c5 0 10 4 10 10l0 23c0 6-5 10-10 10-6 0-11-4-11-10l0-23c0-6 5-10 11-10z m56 0c5 0 10 4 10 10l0 23c0 6-5 10-10 10-6 0-11-4-11-10l0-23c0-6 5-10 11-10z m56 0c6 0 10 4 10 10l0 23c0 6-4 10-10 10-6 0-10-4-10-10l0-23c0-6 4-10 10-10z m-169-71c6 0 11 4 11 10l0 23c0 6-5 10-11 10-5 0-10-4-10-10l0-23c0-6 5-10 10-10z m57 0c5 0 10 4 10 10l0 23c0 6-5 10-10 10-6 0-11-4-11-10l0-23c0-6 5-10 11-10z m56 0c5 0 10 4 10 10l0 23c0 6-5 10-10 10-6 0-11-4-11-10l0-23c0-6 5-10 11-10z m56 0c6 0 10 4 10 10l0 23c0 6-4 10-10 10-6 0-10-4-10-10l0-23c0-6 4-10 10-10z m-169-71c6 0 11 5 11 10l0 23c0 6-5 11-11 11-5 0-10-5-10-11l0-23c0-5 5-10 10-10z m57 0c5 0 10 5 10 10l0 23c0 6-5 11-10 11-6 0-11-5-11-11l0-23c0-5 5-10 11-10z m56 0c5 0 10 5 10 10l0 23c0 6-5 11-10 11-6 0-11-5-11-11l0-23c0-5 5-10 11-10z m56 0c6 0 10 5 10 10l0 23c0 6-4 11-10 11-6 0-10-5-10-11l0-23c0-5 4-10 10-10z m-169-71c6 0 11 5 11 10l0 23c0 6-5 11-11 11-5 0-10-5-10-11l0-23c0-5 5-10 10-10z m57 0c5 0 10 5 10 10l0 23c0 6-5 11-10 11-6 0-11-5-11-11l0-23c0-5 5-10 11-10z m56 0c5 0 10 5 10 10l0 23c0 6-5 11-10 11-6 0-11-5-11-11l0-23c0-5 5-10 11-10z m56 0c6 0 10 5 10 10l0 23c0 6-4 11-10 11-6 0-10-5-10-11l0-23c0-5 4-10 10-10z m-169-71c6 0 11 5 11 11l0 23c0 5-5 10-11 10-5 0-10-5-10-10l0-23c0-6 5-11 10-11z m57 0c5 0 10 5 10 11l0 23c0 5-5 10-10 10-6 0-11-5-11-10l0-23c0-6 5-11 11-11z m56 0c5 0 10 5 10 11l0 23c0 5-5 10-10 10-6 0-11-5-11-10l0-23c0-6 5-11 11-11z m56 0c6 0 10 5 10 11l0 23c0 5-4 10-10 10-6 0-10-5-10-10l0-23c0-6 4-11 10-11z m-169-71c6 0 11 5 11 11l0 23c0 6-5 10-11 10-5 0-10-4-10-10l0-23c0-6 5-11 10-11z m57 0c5 0 10 5 10 11l0 23c0 6-5 10-10 10-6 0-11-4-11-10l0-23c0-6 5-11 11-11z m56 0c5 0 10 5 10 11l0 23c0 6-5 10-10 10-6 0-11-4-11-10l0-23c0-6 5-11 11-11z m56 0c6 0 10 5 10 11l0 23c0 6-4 10-10 10-6 0-10-4-10-10l0-23c0-6 4-11 10-11z"/>
<glyph glyph-name="right-dir" unicode="&#81;" d="M154 374c0 0 204-118 204-118 0 0-204-118-204-118 0 0 0 236 0 236"/>
<glyph glyph-name="barco-petrolero" unicode="&#82;" d="M510 282c-1 3-4 4-8 3l-72-13 0 19c0 5-4 8-8 8l-11 0 0 32c0 4-4 8-9 8l-49 0c-5 0-8-4-8-8l0-80-12-35-10 0 0 48c0 4-4 8-8 8l-27 0 0 72c0 4-3 8-8 8l-49 0c-3 0-5-1-7-3l-54-78 0 110c0 4-4 8-8 8l-143 0c-4 0-8-4-8-8l0-62c0-4 4-8 8-8l19 0 0-53-30 0c-4 0-8-4-8-8 0-5 4-8 8-8l8 0 21-87c4-19 20-32 39-32l322 0c18 0 34 9 43 24 0 0 0 0 0 0l70 126c2 3 1 7-1 9z m-96-13l-53-10 0 24 53 0z m-53 54l33 0 0-24-33 0z m-54-107l-53 0 0 39 53 0z m-61 56c-5 0-8-4-8-8l0-48-36 0 0 27 53 68 17 0 0-39z m-11 64l37 0 0-9-21 0c0 0-1 0-1 0 0 0 0 0 0 0 0 0 0 0 0 0-1 0-1 0-1 0 0 0 0 0 0 0 0 0 0 0 0 0-1 0-1 0-1 0 0 0 0 0 0 0 0 0-1 0-1 0 0 0 0 0 0 0 0-1 0-1 0-1 0 0-1 0-1 0 0 0 0 0 0 0 0 0 0 0 0 0 0 0-1 0-1-1 0 0 0 0 0 0 0 0 0 0 0 0 0 0 0 0 0 0-1 0-1-1-1-1 0 0 0 0 0 0l-54-71-13 0z m-180-62l41 0c4 0 8 4 8 8 0 5-4 8-8 8l-41 0 0 21 81 0c4 0 8 4 8 8 0 5-4 8-8 8l-108 0 0 46 126 0 0-144c0-5 3-8 8-8 4 0 8 3 8 8l0 8 16 0 0-21-76 0-11 36c0 0 0 0 0 0l0 0c0 0 0 0 0 0 0 1 0 1-1 1 0 0 0 0 0 0 0 1 0 1 0 1 0 0 0 1 0 1-1 0-1 0-1 0 0 0 0 0 0 0 0 1-1 1-1 1 0 0 0 0 0 0 0 1-1 1-1 1 0 0 0 0 0 0-1 0-1 0-1 0 0 0 0 0 0 0-1 1-1 1-1 1 0 0-1 0-1 0 0 0 0 0-1 0l-36 0z m372-119c-6-10-17-16-29-16l-322 0c-11 0-21 8-24 19 0 1 0 1 0 1l-3 14 359 0c4 0 8 3 8 8 0 4-4 8-8 8l-363 0-12 53 52 0 12-36c1-3 4-6 8-6l234 0c3 0 6 3 8 6l12 37 130 23z m-381 208l25 0 0-24-25 0z m37 0l25 0 0-24-25 0z m62-24l-25 0 0 24 25 0z"/>
<glyph glyph-name="ingeniero" unicode="&#83;" d="M188 442l3 0c-1-3-1-7-1-11-1-9-1-29 22-42 10-14 26-23 44-23 19 0 35 9 45 23 23 12 22 33 22 42 0 4 0 8-1 11l3 0c6 0 11 6 11 12 0 7-5 12-11 12l-5 0c-9 27-35 46-64 46-29 0-54-18-63-46l-5 0c-6 0-12-5-12-12 0-6 6-12 12-12z m10-11c1 4 1 8 2 11l12 0c-2-1-5-2-8-2-3-1-5-3-4-5 0-2 1-3 2-4l0-11c0-4 1-8 2-12-5 7-6 15-6 23z m58-56c-25 0-45 20-45 45l0 12c6 2 10 6 14 10l25 0c11-7 28-16 52-17l0-5c0-25-21-45-46-45z m58 56c0-6 1-15-5-23 1 4 2 8 2 12l0 6c1 0 2 2 2 4 0 2-2 4-4 4-17-1-31 3-42 8l46 0c1-3 1-7 1-11z m-30 65c0 0 0 0 0 0l0-20c0 0 0-1 0-1 0 0 0 1 0 1z m-27 7l0-20c0 0 0-1-1-1 0 0 0 1 0 1l0 20c0 0 0 0 0 0 1 0 1 0 1 0z m-29-7c1 0 1 0 1 1l0-21c0 0 0-1 0-1 0 0-1 1-1 1z m-8-6l0-14c0-5 4-9 9-9 5 0 9 4 9 9l0 24c3 1 6 2 9 2l0-19c0-5 4-9 9-9 6 0 10 4 10 9l0 19c3 0 6-1 9-2l0-24c0-5 4-9 9-9 5 0 9 4 9 9l0 14c8-6 14-14 18-24l-109 0c4 10 10 18 18 24z m-32-33l137 0c1 0 3-1 3-3 0-1-2-3-3-3l-137 0c-1 0-3 2-3 3 0 2 2 3 3 3z m70-48l-5 0c-11 0-19-9-19-19l0-6c0-2 2-4 4-4 2 0 4 2 4 4l0 6c0 5 5 10 11 10l5 0c6 0 10-5 10-10l0-6c0-2 2-4 4-4 3 0 5 2 5 4l0 6c0 10-9 19-19 19z m2-17l-10 0c-2 0-4-2-4-4 0-3 2-5 4-5l10 0c3 0 5 2 5 5 0 2-2 4-5 4z m143-120l-5 5c2 8 3 16 4 23 0 2 0 3-2 4-1 1-2 2-4 1-7-2-13-4-20-6 0 0-42 41-55 55-6 6-13 11-22 11l-24 0c-2 0-4-2-4-4-1-7-7-11-14-11-8 0-14 4-15 11 0 2-2 4-4 4l-24 0c-8 0-16-4-21-10 0 0 0 0 0 0-14-14-56-56-56-56-7 2-13 4-20 6-2 1-3 0-4-1-2-1-2-2-2-4 1-7 2-15 4-23l-6-6c-9-9-9-24 0-34 4-3 8-5 12-6 4-21 7-42 10-63 0-2 1-4 3-4 19-5 39-9 58-12l0-121c0-17 14-31 32-31 17 0 31 14 31 31l0 113 3 0 0-113c0-17 14-31 31-31 18 0 32 14 32 31l0 121c19 3 39 7 58 12 2 0 3 2 3 4 3 21 7 42 10 64 4 1 8 3 11 6 9 10 9 25 0 34z m-50 37l13-12c-10-3-21-5-31-7z m-26-14l0 40 20-19z m-93 61c3-9 12-15 23-15 10 0 19 6 22 15l20 0c11 0 20-9 20-20l0-49c-21-2-42-4-62-4-21 0-42 2-63 4l0 49c0 11 9 20 20 20z m-48-62l-21 21 21 20z m-27 15l18-19c-10 2-20 4-30 7z m-44-66c-6 6-6 16 1 22l0 1c1-9 3-17 4-26-2 1-3 2-5 3z m109-234c-13 0-23 10-23 22l0 1 31 0c2 0 4 2 4 5 0 2-2 4-4 4l-31 0 0 110c3-1 5-1 8-1l0-60c0-2 2-4 4-4 2 0 4 2 4 4l0 59c10-1 20-1 29-1l0-117c0-12-10-22-22-22z m88 48l-7 0c-3 0-5-2-5-4 0-3 2-5 5-5l7 0 0-7-31 0c-2 0-4-2-4-4 0-3 2-5 4-5l31 0 0-1c0-12-10-22-23-22-12 0-22 10-22 22l0 117c10 0 20 0 30 1l0-21c0-3 2-5 5-5 2 0 4 2 4 5l0 22c2 0 4 0 6 1z m-55 99c-40 0-80 5-118 16-5 34-10 68-15 102 19-6 38-10 57-14 0 0 1 0 1 0 2 0 4 2 4 4 1 2-1 5-3 5-21 3-41 8-61 14 0 4-1 8-1 12 44-14 89-21 136-21 37 0 75 5 112 14l-10-72c-1-2 1-5 4-5 0 0 0 0 0 0 2 0 4 2 5 4l10 76c5 1 9 2 14 4-5-34-10-68-15-102-21-6-45-11-67-14-3 0-4-2-4-4 0-3 2-4 4-4 0 0 1 0 1 0 21 2 44 7 65 12-1-4-2-8-2-11-38-11-78-16-117-16z m140 88c-1-1-3-1-4-2 1 8 3 16 4 24 6-6 5-16 0-22z m-126 52l14-10c1 0 2 0 3 0 1 0 2 0 2 0l15 10c1 1 2 3 2 4l0 19c0 2-2 4-5 4l-2 0 0 18c0 2-2 4-4 4-3 0-5-2-5-4l0-18-18 0c-2 0-4-2-4-4l0-19c0-1 1-3 2-4z m7 19l20 0 0-13-10-7-10 7z m22-137c-5 0-11 0-16-1-2 0-4-2-4-4 0-3 2-5 5-5 0 0 0 0 0 0 5 1 10 1 16 2 2 0 4 2 4 4-1 3-3 5-5 4z m-74 86c-10 1-21 2-31 3-3 1-5-1-5-3-1-3 1-5 3-5 11-2 22-3 33-4 0 0 0 0 0 0 2 0 4 2 5 4 0 3-2 5-5 5z m-50-58l-28 0c-3 0-5-2-5-5 0-2 2-4 5-4l28 0c2 0 4 2 4 4 0 3-2 5-4 5z"/>
<glyph glyph-name="saludo" unicode="&#115;" d="M256 342c47 0 85 38 85 85 0 47-38 85-85 85-47 0-85-38-85-85 0-47 38-85 85-85z m-30 34c4 2 8 4 13 5 1-9 3-18 5-25-7 4-13 11-18 20z m10 45c0-7 0-19 2-31-6-1-11-3-16-5-5 10-7 23-8 36l22 0z m-22 12c1 14 3 26 8 36 5-2 10-4 16-5-2-12-2-24-2-31z m43-78c0 0-1 0-1 0 0 0 0 0-1 0-2 4-5 13-7 28 3 0 5 0 8 0 3 0 6 0 8 0-2-15-5-24-7-28z m33 8c2 3 3 6 5 9 2-1 3-2 4-3-3-2-6-4-9-6z m-13 58l21 0c0-14-3-26-7-36-5 2-11 4-16 5 1 12 1 24 2 31z m-2 43c5 1 11 3 16 5 4-10 7-22 7-36l-21 0c-1 7-1 19-2 31z m32 15c12-12 20-28 21-46l-20 0c-1 15-4 29-9 41 3 1 5 3 8 5z m1-58l20 0c-1-18-9-34-21-46-3 2-5 4-8 5 5 12 8 26 9 41z m-9 64c-1-1-2-2-4-3-2 3-3 6-5 9 3-2 6-4 9-6z m-12-7c-4-2-9-4-13-5-2 9-3 18-6 25 7-4 14-11 19-20z m-13-97c4-1 9-3 13-5-5-9-12-16-19-20 3 7 4 16 6 25z m-19 118c1 0 1 0 1 0 0 0 1 0 1 0 2-3 5-13 7-27-2-1-5-1-8-1-3 0-5 0-8 1 2 14 5 24 7 27z m-8-37c3 0 6 0 9 0 3 0 6 0 9 0 1-8 2-18 2-29l-22 0c0 11 1 21 2 29z m20-41c0-11-1-21-2-29-3 0-6 1-9 1-3 0-6-1-9-1-1 8-2 18-2 29z m-23 77c-2-7-4-16-5-25-5 1-9 3-13 5 5 9 11 16 18 20z m-21-7c-2-3-4-5-6-9-1 1-3 2-4 3 3 2 6 4 10 6z m-6-119c2-3 4-6 6-9-4 2-7 4-10 6 1 1 3 2 4 3z m-11 107c2-2 4-4 7-5-5-12-8-26-9-41l-20 0c2 18 10 34 22 46z m-2-58c1-15 4-29 9-41-3-1-5-3-7-5-12 12-20 28-22 46z m293-274l-25 154-2 9-9-2-88-23c-8 1-40 20-58 30-25 16-34 21-40 21-7 0-28-10-46-22-3 2-6 4-7 4-19-3-74-48-85-45-11 3-99 25-99 25l-24-151c0 0 64-17 91-24l-8-12c-4-6-4-13-1-20 6-11 19-19 31-19 1 0 3 0 4 0 1-3 2-6 4-9 7-9 20-15 32-15 1 0 3 0 4 0 2-4 4-7 6-10 8-9 20-15 32-15 1 0 2 0 3 0 1-4 3-8 5-11 7-8 16-12 26-12 8 0 15 3 19 9 4 6 11 19 19 32 2 3 3 6 5 9 10-5 17-7 17-7 23-9 34 24 24 34l16-6c23-9 44 19 25 37 9-4 17-2 23 3l0-1 21 5 78 22 8 2z m-212-81c-8-13-24-43-31-52-2-4-6-6-11-6-12 0-26 11-23 27-3-2-7-3-11-3-16 0-33 13-30 28-4-2-8-4-12-4-16 0-33 13-28 29-4-3-8-4-12-4-15 0-29 16-23 25l16 23c3 5 7 6 11 6 11 0 24-11 22-21 7 11 14 20 22 21 2 1 3 1 5 1 14 0 27-14 27-25 5 10 13 13 20 13 17 0 33-17 28-29 3 2 7 3 11 3 14 0 30-15 19-32z m124 57c2 5 2 10 1 14 12 2 22 11 26 22 5 12 1 25-8 32l-2 1c0 1-66 37-128 75l-18 0c-4-2-16-8-17-14-2-7-11-40-16-56-1-4-5-6-11-6-16 0-43 14-40 26 3 17 10 57 14 68 3 12 55 42 65 42 9 0 80-50 98-50 1 0 1 0 2 0 14 4 88 23 88 23l25-155z"/>
<glyph glyph-name="casco" unicode="&#120;" d="M181 195l0 0c0 6-4 11-10 11-6 0-11-5-11-11l0 0c0-6 5-11 11-11 6 0 10 5 10 11z m214 122c-5-3-8-9-5-15 10-20 15-43 15-65l0-36c0-6 5-11 11-11 6 0 11 5 11 11l0 36c0 26-6 52-18 75-2 5-9 7-14 5z m-3 23l-1 1c-3 5-10 6-15 2-5-4-5-10-2-15l1-1c2-3 5-4 8-4 3 0 5 1 7 2 4 4 5 10 2 15z m120-143c0 25-19 46-43 50-2 38-13 74-34 106-21 32-49 57-83 74l0 17c0 4-3 8-7 10-17 7-36 12-55 15-4 0-7-1-9-3-2-2-4-5-4-8l0-9c-14 1-28 1-42 0l0 9c0 3-2 6-4 8-2 2-5 3-9 3-19-3-38-8-55-15-4-2-7-6-7-10l0-17c-34-17-62-42-83-74-21-32-32-68-34-106-24-4-43-25-43-50l0-39c0 0 0 0 0 0 0 0 0-1 0-1 0 0 0 0 0 0 0-1 0-1 0-1 0 0 0 0 0-1 0 0 0 0 0 0 14-49 38-78 79-94 41-15 98-18 177-18 79 0 136 3 177 18 41 16 65 45 79 94 0 0 0 0 0 0 0 1 0 1 0 1 0 0 0 0 0 1 0 0 0 0 0 0 0 0 0 1 0 1 0 0 0 0 0 0z m-160 206c59-34 96-98 96-166l0-68-96 0z m-117 24c14 2 28 2 42 0l0-86c0-11-9-21-21-21-12 0-21 10-21 21z m-171-190c0 68 37 132 96 166l0-177c0-6 5-10 11-10 6 0 10 4 10 10l0 211c11 3 21 7 32 9l0-105c0-23 19-42 43-42 24 0 43 19 43 42l0 105c11-2 21-6 32-9l0-268-267 0z m-43-40c0 14 9 25 22 28l0-56-22 0z m404-116c-37-14-92-17-169-17-77 0-132 3-169 17-32 12-50 32-62 66l462 0c-12-34-30-54-62-66z m66 88l-22 0 0 56c13-3 22-14 22-28z"/>
<glyph glyph-name="extintor-de-incendios" unicode="&#84;" d="M426 495c0 9-7 17-17 17l-153 0c-11 0-20-7-24-17l-44 0c-28 0-53-11-72-30-20-19-31-45-30-73 0-38 3-74 8-113 4-43 9-86 9-134l0-43c0-9 7-16 16-16l18 0 0-61c0-14 11-25 25-25l154 0c14 0 25 11 25 25l0 315c0 14-7 28-20 35l-40 26c-5 3-8 8-8 15l0 1 135-32c1 0 1 0 2 0 2 0 4 1 6 2 2 3 2 6 2 8l-9 26c-1 2-3 4-5 5l-98 33 106 19c8 1 14 8 14 17z m-187-16c14 0 26-12 26-26 0-15-12-27-26-27-15 0-26 12-26 27 0 14 11 26 26 26z m-60-1c3 1 6 1 9 1l18 0c-4-5-7-12-9-18l-9 0c-3 0-7-1-9-1l0 18z m-69-198c-5 39-8 75-8 112 0 23 9 45 25 62 10 10 22 17 35 21l0-19c-8-4-16-9-22-15-13-13-20-30-20-48 0-36 4-73 8-111 3-28 6-56 7-86l-18 0c-2 29-5 57-7 84z m8-100l18 0c0-6 1-12 1-19l-19 0c0 7 0 13 0 19z m19-78c0 0 0 0-1 0l-17 0c0 0 0 0 0 0l0 43c0 0 0 0 0 0l18 0c0 0 0 0 0 0l0-43z m1 245c-2 16-2 31-2 46 0 13 5 27 15 36 10 10 23 16 37 16l9 0c2-7 4-13 8-18l0-11c0-7-3-12-8-15l-40-26c-11-6-17-16-19-28z m175 15c7-5 12-13 12-22l0-315c0-5-4-9-9-9l-154 0c-5 0-9 4-9 9l0 315c0 9 4 17 12 22l40 25c10 6 16 16 16 27 6-2 12-4 18-4 6 0 12 2 18 4 0-11 6-21 15-27z m82 50l3-8-122 29c3 5 5 11 5 17z m14 81l-132-23c-5 11-15 20-27 23 1 2 4 3 6 3l153 0c1 0 1-1 1-1 0-1 0-1-1-2z m-170-32l0 0c-5 0-8-4-8-8 0-5 4-8 8-8 4 0 8 3 8 8 0 4-4 8-8 8z m43-206l-86 0c-14 0-25-11-25-25l0-102c0-14 11-25 25-25l86 0c14 0 25 11 25 25l0 102c0 14-11 25-25 25z m9-127c0-5-4-9-9-9l-86 0c-5 0-9 4-9 9l0 102c0 5 4 9 9 9l86 0c5 0 9-4 9-9z m-26 93l-52 0c-4 0-8-3-8-8 0-4 4-8 8-8l52 0c4 0 8 4 8 8 0 5-4 8-8 8z m34 128l-5 3c-3 2-8 1-11-3-2-4-1-8 3-11l4-3c1 0 1 0 1 0l0-53c0-5 3-8 8-8 4 0 8 3 8 8l0 53c0 6-3 11-8 14z m-30 19l-6 4c-2 1-4 2-6 4-3 2-8 2-11-2-3-3-2-8 1-11 2-2 5-3 7-5l6-4c2-1 3-1 5-1 2 0 5 1 6 4 3 4 2 8-2 11z m30-318l-17 0c-5 0-8-3-8-8 0-4 3-8 8-8l17 0c4 0 8 4 8 8 0 5-4 8-8 8z m-52 0l-68 0c-4 0-8-3-8-8 0-4 4-8 8-8l68 0c5 0 8 4 8 8 0 5-3 8-8 8z"/>
<glyph glyph-name="arrow-right" unicode="&#86;" d="M107 213l192 0 0-96 138 139-138 139 0-96-193 0c-23 0-42-19-42-43 0-24 20-43 43-43z"/>
<glyph glyph-name="contaminacion" unicode="&#85;" d="M203 35c-2 0-5 3-5 5 0 3 3 6 5 6 74 0 125 19 125 36 0 3 2 5 5 5 3 0 5-2 5-5 0-30-69-47-135-47z m281 29c0 0-1 0-1 0-19 5-39 8-56 11-35 6-60 10-64 26-2 10 5 19 12 28 5 7 11 15 10 20-1 4-6 8-13 11-36 15-119 11-137 10l2-33c1-3-2-5-4-5-3-1-6 2-6 4l-12 155-63 0-11-155c-1-2-3-5-6-4-3 0-5 2-5 5l2 28c-7 1-23 3-29 11-2 3-2 6-3 9 0 3 0 5-15 7-26 3-79 0-79 0-3-1-6 2-6 4 0 3 2 6 5 6 2 0 54 3 81 0 20-3 24-7 25-16 0-2 0-3 1-4 3-4 13-6 21-7l9 116-14 0c-3 0-5 2-5 5 0 3 2 5 5 5l9 0 0 80c0 47 38 85 85 85l72 0 0 6c0 2 2 5 5 5 3 0 5-3 5-5l0-6 122 0 0 6c0 2 2 5 5 5 3 0 5-3 5-5l0-6 71 0c3 0 5-3 5-5 0-3-2-6-5-6l-71 0 0-69 71 0c3 0 5-2 5-5 0-3-2-5-5-5l-71 0 0-3c0-3-2-5-5-5-3 0-5 2-5 5l0 3-122 0 0-3c0-3-2-5-5-5-3 0-5 2-5 5l0 3-30 0c-19 0-34-16-34-34l0-41 5 0c3 0 5-2 5-5 0-3-2-5-5-5l-9 0 8-110c19 1 103 5 142-11 11-5 17-11 19-18 3-11-5-20-12-30-5-7-10-14-9-19 1-9 28-13 55-18 17-3 37-6 57-11 2-1 4-4 3-7 0-2-3-3-5-3z m-337 237l73 0 0 41c0 24 20 44 44 44l30 0 0 69-72 0c-42 0-75-33-75-74z m157 85l122 0 0 69-122 0z m-119-322c-62 0-127 16-127 45 0 2 2 5 5 5 3 0 5-3 5-5 0-17 48-34 117-34 3 0 5-3 5-6 0-2-2-5-5-5z m0 25c-47 0-94 12-94 34 0 3 2 5 5 5 3 0 5-2 5-5 0-10 33-24 84-24 51 0 83 14 83 24 0 3 2 5 5 5 3 0 5-2 5-5 0-22-47-34-93-34z m13 66c-3 0-5 3-5 5l-2 61c0 2 2 5 5 5 3 0 5-2 5-5l2-60c0-3-2-5-5-6 0 0 0 0 0 0z m-34 47c0 0 0 0 0 0-3 0-5 3-5 5l4 69c1 3 3 5 6 5 3 0 5-2 5-5l-4-69c0-3-3-5-6-5z m-50 14c-1 0-1 0-2 0-3 2-4 5-2 7l6 12c1 3 4 4 7 2 3-1 4-4 2-7l-6-12c-1-1-3-2-5-2z m139 17c-2 0-4 0-5 2l-5 7c-2 2-1 5 1 7 3 2 6 1 8-1l5-7c2-2 1-6-1-7-1-1-2-1-3-1z m-165 18c-1 0-3 1-4 3-1 2-1 5 2 7l26 14c2 2 5 1 7-2 1-2 0-5-2-7l-26-14c-1-1-2-1-3-1z m156 17c-1 0-2 0-3 1l-8 5c-2 2-3 5-1 7 2 3 5 3 7 2l8-6c2-1 3-5 1-7-1-1-2-2-4-2z m41 0c0 0-1 0-1 0l-23 6c-3 1-5 4-4 6 1 3 4 5 6 4l23-6c3 0 5-3 4-6 0-2-2-4-5-4z m-184 16c-2 0-4 2-5 4 0 3 1 6 4 6l13 3c3 1 6-1 6-4 1-3-1-6-4-6l-13-3c0 0 0 0-1 0z"/>
<glyph glyph-name="analisis" unicode="&#87;" d="M137 208c0 42 17 82 47 112 26 26 60 42 96 46-28 50-62 100-84 132-6 9-16 14-27 14-10 0-20-5-26-14-46-65-135-201-135-267 0-89 72-162 161-162 14 0 28 2 40 5-9 6-17 13-25 21-30 30-47 70-47 113z m-24-68c-5-6-11-8-17-8-6 0-11 1-15 5-64 54-42 133-41 136 4 12 16 19 28 15 12-3 19-15 15-27 0-3-14-55 27-90 9-8 11-22 3-31z m176 14c-35 6-44 40-44 41-2 8-9 12-17 10-7-1-11-9-10-16 1-2 13-52 66-62 1 0 2 0 2 0 7 0 12 4 14 11 1 7-4 14-11 16z m207-89l-51 52c-8 8-21 8-29 0l-14 14c37 51 33 123-13 169-25 25-58 38-93 38-34 0-67-13-92-38-25-25-38-57-38-92 0-35 13-68 38-93 25-24 58-38 92-38 29 0 55 9 78 25l13-14c-7-8-7-21 0-29l52-51c8-8 22-8 30 0l27 27c4 4 6 9 6 15 0 6-2 11-6 15z m-136 79c-17-17-39-27-64-27-24 0-46 10-63 27-17 17-27 40-27 64 0 15 4 30 11 43 4 7 9 14 16 21 1 0 1 1 2 2 17 16 39 24 61 24 25 0 47-9 64-26 4-4 7-7 9-11 26-35 23-85-9-117z m-112 89c0-8-6-14-14-14-7 0-13 6-13 14 0 7 6 13 13 13 8 0 14-6 14-13z"/>
<glyph glyph-name="settings" unicode="&#89;" d="M213 331c44 0 79-33 85-75l75 0c-1 10-3 20-5 29l61 35-43 74-61-35c-19 19-42 33-69 40l0 70-85 0 0-70c-27-7-51-21-70-40l-60 35-43-74 61-35c-4-12-6-26-6-40 0-13 2-27 6-40l-61-35 43-74 60 35c19-18 43-32 70-40l0-70 85 0 0 151c-13-7-27-12-43-12-47 0-85 38-85 85 0 47 38 86 85 86z m278-203c0 8-2 15-4 23l40 23-22 36-39-22c-11 11-24 18-39 22l0 46-43 0 0-46c-15-4-29-11-40-22l-39 22-21-36 39-23c-2-8-3-15-3-23 0-8 1-15 3-23l-39-23 21-36 39 22c11-11 25-18 40-22l0-46 43 0 0 46c15 4 28 11 39 22l40-22 21 36-40 23c2 8 4 15 4 23z m-86-43c-23 0-42 19-42 43 0 24 19 43 42 43 24 0 43-19 43-43 0-24-19-43-43-43z"/>
<glyph glyph-name="plus" unicode="&#65;" d="M389 282c10 0 15-9 15-26 0-17-5-26-15-26 0 0-107 0-107 0 0 0 0-107 0-107 0-10-9-15-26-15-17 0-26 5-26 15 0 0 0 107 0 107 0 0-107 0-107 0-10 0-15 9-15 26 0 17 5 26 15 26 0 0 107 0 107 0 0 0 0 107 0 107 0 10 9 15 26 15 17 0 26-5 26-15 0 0 0-107 0-107 0 0 107 0 107 0"/>
<glyph glyph-name="salvavidas" unicode="&#88;" d="M510 221c0 2 0 4 0 5 0 1 0 1 0 2 1 1 1 3 1 4 0 1 0 2 0 2 0 1 0 3 0 4 0 1 0 2 1 3 0 1 0 2 0 3 0 1 0 2 0 4 0 0 0 1 0 2 0 2 0 4 0 6 0 2 0 4 0 6 0 1 0 2 0 2 0 2 0 3 0 4 0 1 0 2 0 3-1 1-1 2-1 3 0 1 0 3 0 4 0 0 0 1 0 2 0 1 0 3-1 4 0 1 0 1 0 2 0 1 0 3 0 5 0 0 0 0 0 0-8 55-33 106-73 146-48 48-113 75-181 75-68 0-133-27-181-75-48-48-75-113-75-181 0-68 27-133 75-181 48-48 113-75 181-75 68 0 133 27 181 75 40 40 65 91 73 146 0 0 0 0 0 0z m-30 121l-101-37c0 0 0 0 0 0 0 1-1 2-1 3-14 32-40 58-73 71l9 24c27-11 51-29 68-53 2-2 4-3 7-3 1 0 3 0 5 1 3 3 4 8 1 12-19 26-45 46-76 58 0 0 0 0 0 0l23 62c63-24 114-75 138-138z m-224-202c-64 0-116 52-116 116 0 64 52 116 116 116 64 0 116-52 116-116 0-64-52-116-116-116z m-86 340l37-101c-33-14-60-41-74-74l-24 9c11 27 29 51 53 68 4 3 4 8 2 12-3 3-8 4-12 1-26-19-46-45-58-76 0 0 0 0 0 0l-62 23c24 63 75 114 138 138z m-138-310l62 23c0 0 0 0 0 0 12-31 32-57 58-76 2-1 4-2 5-2 3 0 5 1 7 3 2 4 2 9-2 12-23 17-42 41-52 68l23 9c14-33 41-60 74-74l-37-101c-63 24-114 75-138 138z m310-138l-23 62c1 1 1 1 1 1 31 12 57 32 76 58 3 4 2 9-2 12-3 2-8 1-11-2-18-24-41-42-69-53 0 0 0 0 0-1l-9 24c33 13 59 39 73 71 0 1 1 2 1 3 0 0 0 0 0 0l101-37c-24-63-75-114-138-138z"/>
<glyph glyph-name="cancel" unicode="&#90;" d="M367 176c6-6 9-13 9-22 0-8-3-16-9-22-6-5-13-8-22-8-8 0-16 3-22 8 0 0-68 78-68 78 0 0-67-78-67-78-6-5-14-8-22-8-9 0-16 3-22 8-6 6-8 14-8 22 0 9 2 16 8 22 0 0 71 80 71 80 0 0-71 81-71 81-6 6-8 13-8 22 0 8 2 16 8 22 6 5 13 8 22 8 8 0 16-3 22-8 0 0 67-78 67-78 0 0 68 78 68 78 6 5 14 8 22 8 9 0 16-3 22-8 6-6 9-14 9-22 0-9-3-16-9-22 0 0-71-81-71-81 0 0 71-80 71-80"/>
<glyph glyph-name="mas" unicode="&#48;" d="M256 375c38 0 68 31 68 69 0 37-30 68-68 68-38 0-68-31-68-68 0-38 30-69 68-69z m0-238c-38 0-68-31-68-69 0-37 30-68 68-68 38 0 68 31 68 68 0 38-30 69-68 69z m0 187c-38 0-68-30-68-68 0-38 30-68 68-68 38 0 68 30 68 68 0 38-30 68-68 68z"/>
<glyph glyph-name="riesgo" unicode="&#50;" d="M414 87c1-10-5-19-15-20-10-1-18 6-20 16l-9 76-62 26 35-61c2-5 2-10 1-15l-37-95c-3-7-9-11-16-11-2 0-5 0-7 1-9 4-13 14-10 23l31 81-43 58-88 73-59-15c-2 0-3-1-5-1-4 0-8 2-11 4l-54 46c-8 7-9 18-3 25 7 7 18 8 25 2l47-40c0 0 62 12 84 26 22 15 73 41 73 41 6 5 13 7 20 4l75-34c8-3 12-14 8-23-3-9-14-13-23-9l-64 29-28-14 42-34 88-54c8-2 13-8 14-16z m-202 236c0-22-18-39-39-39-22 0-39 17-39 39 0 21 17 39 39 39 21 0 39-18 39-39z m27 21l-9 92 42-35 4 79 35-52 51 84 3-89 62 35-32-77 74 19-40-63 42-4-71-59 32 45-24 4 27 52-56-7 14 53-44-22-3 58-32-51-26 35-7-58-42 29z"/>
<glyph glyph-name="buque" unicode="&#51;" d="M17 250l127 0c3 0 5 2 5 5l0 39c0 3-2 5-5 5l-127 0c-3 0-6-2-6-5l0-39c0-3 3-5 6-5z m0 64l127 0c3 0 5 3 5 6l0 38c0 3-2 6-5 6l-127 0c-3 0-6-3-6-6l0-38c0-3 3-6 6-6z m485-164c11 12 7 47 7 47 0 3-3 5-5 5 0 0 0 0 0 0l-12 0c-1 0-2 0-3 0l0 7c0 4-3 6-6 6l-11 0 0 58c2 0 4 1 4 3l12 27c1 1 1 3-1 5-1 2-2 3-4 3l-11 0 0 9c0 3-2 6-5 6l-14 0 0 18c0 3-3 6-6 6l-47 0c-3 0-5-3-5-6l0-18-14 0c-3 0-6-3-6-6l0-9-10 0c-2 0-4-1-5-3-1-2-1-4 0-5l11-27c1-2 2-3 4-3l0-58-11 0c-3 0-5-2-5-6l0-15-8-7c-6 0-11 0-16 0l0 110 4 0c4 0 7 3 7 7l0 23c0 3-3 6-7 6l-21 0-136 71c-2 0-3 0-5 0-1-1-2-3-2-4l0-12c0-1 1-2 2-3l13-10 0-72-17 0c-2 0-4-2-4-5l0-28c0-3 2-5 4-5l43 0c2 0 4 2 4 5l0 28c0 3-2 5-4 5l-17 0 0 65 99-60 0-4c0-4 3-7 7-7l2 0 0-110c-39 0-107 0-107 0l-39 20 0 22c0 4-2 6-5 6l-150 0c-2 0-3 0-5-2-1-1-1-3-1-4l2-12c3-28 21-56 34-74-6-3-10-9-10-16 0-11 9-20 20-20l24 0c92 0 413 0 426 0 32 0 9 40 6 43z m-313-2c0-1-2-3-3-3l-19 0c-2 0-3 2-3 3l0 12c0 2 1 3 3 3l19 0c1 0 3-1 3-3z m81 0c0-1-2-3-3-3l-19 0c-2 0-3 2-3 3l0 12c0 2 1 3 3 3l19 0c1 0 3-1 3-3z m81 0c0-1-2-3-3-3l-19 0c-2 0-3 2-3 3l0 12c0 2 1 3 3 3l19 0c1 0 3-1 3-3z m61 138c0-2-1-3-2-3l-20 0c-1 0-2 1-2 3l0 12c0 2 1 3 2 3l20 0c1 0 2-1 2-3z m48 0c0-2-1-3-3-3l-19 0c-2 0-3 1-3 3l0 12c0 2 1 3 3 3l19 0c2 0 3-1 3-3z"/>
<glyph glyph-name="asterisk" unicode="&#52;" d="M442 212c8-5 14-12 17-22 2-10 1-19-4-28l-18-31c-5-9-12-15-22-17-10-3-19-2-28 3l-76 44 0-88c0-10-4-18-11-26-7-7-16-10-26-10l-36 0c-10 0-19 3-26 10-7 8-11 16-11 26l0 88-76-44c-9-5-18-6-28-3-10 2-17 8-22 17l-18 31c-5 9-6 18-4 28 3 10 9 17 17 22l76 44-76 44c-8 5-14 12-17 22-2 10-1 19 4 28l18 31c5 9 12 15 22 17 10 3 19 2 28-3l76-44 0 88c0 10 4 18 11 26 7 7 16 10 26 10l36 0c10 0 19-3 26-10 7-8 11-16 11-26l0-88 76 44c9 5 18 6 28 3 10-2 17-8 22-17l18-31c5-9 6-18 4-28-3-10-9-17-17-22l-76-44z"/>
<glyph glyph-name="check-1" unicode="&#103;" d="M477 350c0-7-2-14-8-19l-206-207-39-39c-6-5-12-8-20-8-7 0-14 3-19 8l-142 142c-6 6-8 12-8 20 0 7 2 14 8 19l38 39c6 5 12 8 20 8 7 0 14-3 19-8l84-84 188 188c5 5 12 8 19 8 8 0 14-3 20-8l38-39c6-6 8-12 8-20z"/>
<glyph glyph-name="right-open" unicode="&#53;" d="M195 169c0 0 81 87 81 87 0 0-81 88-81 88-9 9-9 17 0 25 9 9 17 9 24 0 0 0 99-100 99-100 8-9 8-17 0-25 0 0-99-100-99-100-7-8-15-8-24 0-9 8-9 16 0 25"/>
<glyph glyph-name="ojo" unicode="&#106;" d="M505 268c-51 89-147 144-249 144-102 0-198-55-249-144l-7-12 7-12c51-89 147-144 249-144 102 0 198 55 249 144l7 12z m-450-12c21 31 48 57 80 75-12-20-18-43-18-67 0-36 13-68 36-93-40 19-74 48-98 85z m302-86c23 24 37 57 37 94 0 9-1 18-3 27-4-12-11-22-21-30-7-6-16-10-25-13-5-1-11-2-17-2-37 0-67 30-67 67 0 15 5 29 13 40 3 4 6 7 9 10 15-2 29-5 43-9 17-5 34-13 49-21 7-4 13-8 19-12 25-18 46-39 63-65-25-38-60-68-100-86z"/>
<glyph glyph-name="grafico-de-lineas" unicode="&#97;" d="M35 131l0-83c0-5 4-9 9-9l64 0c5 0 9 4 9 9l0 146-46-47c-10-10-23-15-36-16z m114 64l0-147c0-5 4-9 10-9l64 0c5 0 9 4 9 9l0 86c-15 1-28 7-39 17z m115-51l0-96c0-5 4-9 9-9l64 0c5 0 10 4 10 9l0 176-74-73c-3-3-6-5-9-7z m191 189l-76-76 0-209c0-5 4-9 9-9l64 0c5 0 9 4 9 9l0 279c-2 2-3 4-4 5z m53 135c-3 4-8 5-14 5 0 0-1 0-2 0-29-1-59-2-89-4-4 0-10 0-14-5-1-1-2-2-3-4-5-10 2-16 5-19l7-8c5-5 10-10 16-15l-181-181-81 81c-5 5-11 8-18 8-7 0-14-3-18-8l-108-108c-11-10-11-26 0-36l4-5c5-5 12-8 19-8 7 0 13 3 18 8l85 85 81-81c5-5 11-8 18-8 7 0 14 3 19 8l203 203 23-23c3-2 7-6 12-6 3 0 5 1 8 2 2 1 3 2 4 3 5 5 6 10 6 15 1 19 2 39 3 58l1 29c0 6-1 11-4 14z"/>
<glyph glyph-name="reunion" unicode="&#107;" d="M256 312c55 0 100 45 100 100 0 55-45 100-100 100-55 0-100-45-100-100 0-55 45-100 100-100z m-48 111c5 5 15 5 21 0l14-15 40 40c6 6 16 6 21 0 6-6 6-16 0-22l-50-50c-3-3-7-4-11-4-3 0-7 1-10 4l-25 25c-6 6-6 16 0 22z m-149-57c32 0 59 26 59 59 0 32-27 58-59 58-33 0-59-26-59-58 0-33 26-59 59-59z m-53-85l0-122c0-28 23-51 51-51l66 0 0-90c0-7 6-13 12-13l59 0c7 0 13 6 13 13l0 130c0 24-20 43-43 43l-52 0 0 90c0 30-24 53-53 53-29 0-53-23-53-53z m447 85c33 0 59 26 59 59 0 32-26 58-59 58-32 0-59-26-59-58 0-33 27-59 59-59z m-53-85l0-90-52 0c-23 0-43-19-43-43l0-130c0-7 6-13 13-13l59 0c6 0 12 6 12 13l0 90 66 0c28 0 51 23 51 51l0 122c0 30-24 53-53 53-29 0-53-23-53-53z m-56-31c8 0 15 7 15 15 0 9-7 16-15 16l-176 0c-8 0-15-7-15-16 0-8 7-15 15-15l73 0 0-235c0-8 7-15 15-15 8 0 15 7 15 15l0 235z"/>
<glyph glyph-name="certificate" unicode="&#108;" d="M430 256l39-39c6-5 8-12 6-20-2-7-7-12-15-14l-54-14 15-53c3-8 1-14-5-20-6-6-12-8-20-5l-53 15-14-54c-2-8-7-13-14-15-3 0-5 0-6 0-6 0-11 2-14 6l-39 39-39-39c-5-6-12-8-20-6-7 2-12 7-14 15l-14 54-53-15c-8-3-14-1-20 5-6 6-8 12-5 20l15 53-54 14c-8 2-13 7-15 14-2 8 0 15 6 20l39 39-39 39c-6 5-8 12-6 20 2 7 7 12 15 14l54 14-15 53c-3 8-1 14 5 20 6 6 12 8 20 5l53-15 14 54c2 8 7 13 14 15 8 2 15 0 20-6l39-40 39 40c5 6 12 8 20 6 7-2 12-7 14-15l14-54 53 15c8 3 14 1 20-5 6-6 8-12 5-20l-15-53 54-14c8-2 13-7 15-14 2-8 0-15-6-20z"/>
<glyph glyph-name="aprobado" unicode="&#109;" d="M256 271c41 0 75 34 75 75 0 41-34 75-75 75-41 0-75-34-75-75 0-41 34-75 75-75z m-34 86l19-20 49 50 22-22-71-70-41 40z m-109-94c7-12 18-22 31-29 7-13 17-24 29-31 13-7 27-10 42-10 12-8 26-12 41-12 15 0 29 4 41 12 15 0 29 3 42 10 12 7 22 18 29 31 13 7 24 17 31 29 7 13 11 27 10 42 8 12 12 26 12 41 0 15-4 29-12 41 1 15-3 29-10 41-7 13-18 23-31 30-7 13-17 25-29 32-13 7-27 10-42 10-12 8-27 12-41 12-14 0-29-4-41-12-15 0-29-3-42-10-12-7-22-19-29-32-13-7-24-17-31-30-7-12-11-26-10-41-8-12-12-26-12-41 0-15 4-29 12-41-1-15 3-29 10-42z m143 188c58 0 105-47 105-105 0-58-47-105-105-105-58 0-105 47-105 105 0 58 47 105 105 105z m-41-451l4 33c4 41 13 81 28 119-14 1-28 5-40 11-17 1-34 5-49 14-9 5-16 12-23 20-14-40-33-78-56-113l-19-27 92 11z m139 177c-15-9-32-13-49-14-12-6-26-10-40-11 15-38 24-78 28-119l4-33 63 68 92-11-19 27c-23 35-42 73-56 113-7-8-14-15-23-20z"/>
<glyph glyph-name="coronavirus" unicode="&#111;" d="M493 260c-6 2-12 0-17-3-4-3-7-7-9-12l-26 12c0 1 0 3 0 5 0 15-2 31-6 46l12 8c7-7 18-9 28-5 13 6 19 21 14 34l-6 15c-5 14-19 21-33 16-7-2-12-7-15-13-2-4-3-8-3-12l-13-2c-2 4-4 7-6 11-3 3-7 4-11 2-3-2-4-7-2-10 2-4 5-8 7-12 2-4 6-7 11-6l24 3c2 1 4 2 5 4 1 2 2 4 1 6-1 3-1 6 0 9 2 3 4 5 7 6 6 2 12-1 14-7l6-15c2-6-1-13-6-15-5-2-11 0-14 5-1 1-3 3-5 3-2 0-4 0-6-1l-20-14c-4-2-5-7-4-11 4-15 6-30 6-45 0-3 0-5 0-8-1-4 2-8 6-10l37-16c3-1 5-1 7 0 2 1 3 3 4 5l1 6c0 2 2 4 3 5 2 2 4 2 6 2 5-1 8-5 7-10l-6-31c-1-2-2-4-4-5-2-2-4-2-6-2-4 2-7 6-6 10l0 1c1 2 0 5-2 6-1 2-3 3-6 3l-40-2c-5 0-8-3-10-7-3-11-8-22-15-33-2-3-1-8 1-12l18-21c2-2 4-3 6-3 2 0 4 1 5 2 4 4 10 5 15 1 2-2 4-4 4-7 1-3 0-6-2-9l-5-6c-4-5-11-7-16-3-4 3-6 8-4 13 1 3-1 7-4 9l-26 11c-4 2-9 1-12-2-12-13-25-24-40-32-3-2-5-7-5-11l7-40c0-3 2-5 4-6 2-1 4-1 6 0l6 2c2 1 4 1 6 0 2-1 4-3 4-5 2-4 0-8-5-10l-29-12c-2-1-4-1-6 0-2 1-4 3-4 5-2 4 0 9 5 10l0 1c3 1 4 2 5 5 0 2 0 4-1 6l-24 33c-2 4-7 5-11 4-14-3-28-5-42-5-12 0-23 1-34 3-4 1-9-1-11-4l-24-38c-1-1-1-4-1-6 1-2 3-4 5-5l1 0c3-1 5-3 6-6 2-3 2-6 1-9-1 0-1-1-1-2 0-3-1-5-2-6-2-1-4-1-7 0l-29 10c-5 2-9 9-7 15 1 2 3 5 6 6 3 1 7 2 10 1l0-1c2 0 5 0 7 1 2 1 3 3 3 6l5 43c1 4-2 8-5 10-18 10-34 22-47 36-3 3-8 4-12 3l-35-15c-2-1-4-2-5-4 0-2 0-4 1-6 2-4 1-10-3-12-4-3-10-2-13 3l-9 13c-3 4-2 9 2 12 1 2 4 3 6 2 3 0 5-1 7-3 1-2 3-3 5-3 2 0 5 1 6 2l25 29c3 3 4 8 1 12-2 4-5 9-7 15-2 4-6 5-10 4-4-2-5-6-4-10 2-5 4-9 7-14l-18-20c-3 2-6 3-10 3-6 1-13-1-18-5-10-8-12-22-4-33l9-13c7-11 22-14 33-7 8 6 12 15 11 24l26 11c13-14 29-26 46-35l-4-33c-4 0-8 0-12-2-7-3-11-9-14-15-4-14 3-29 16-34l29-10c3-2 6-2 9-2 4 0 8 1 12 3 5 4 8 10 8 18 2 6 2 13-1 19-2 3-4 7-8 9l18 28c25-5 52-4 77 2l17-24c-7-6-10-16-7-25 2-6 7-11 13-13 5-3 12-3 18-1l29 12c12 5 18 17 14 29-2 6-7 11-13 14-4 2-10 2-15 1l-4 28c14 9 27 19 38 31l17-7c0-9 4-18 12-24 11-8 27-5 36 6l5 7c4 6 6 13 5 20-1 7-4 13-10 17-8 6-19 7-27 3l-12 14c5 9 10 19 14 29l29 2c1-9 8-17 17-19 6-2 13-1 18 3 5 3 9 9 10 15l7 31c2 13-6 25-19 27z m-445-20l29-6c0-4 1-8 2-12 1-4 4-6 7-6 1 0 1 0 2 0 4 1 6 5 6 9-2 5-2 9-3 14-1 4-4 8-8 9l-40 9c-2 0-4 0-6-2-2-1-3-3-3-6l0-4c0-5-4-10-10-10-2 0-5 1-6 3-2 2-3 4-3 7l0 29c0 2 1 5 3 7 2 2 5 2 7 2 5 0 9-4 9-9 0-2 1-5 3-6 2-1 4-2 6-1l40 9c4 1 7 4 8 9 3 21 10 42 21 61 2 4 2 9-1 12l-19 22c-2 2-4 3-6 3-2 0-4-1-6-3l-1-2c-2-2-3-3-6-3-2 0-3 0-5 1-3 3-3 8-1 11l13 16c2 4 7 4 10 2 3-2 4-7 2-10-1-2-2-4-1-6 1-2 2-4 4-5l26-11c5-2 9-1 12 2 12 14 26 25 42 33 4 3 6 7 5 11l-6 41c0 2-2 4-4 5-2 1-4 1-6 0l-6-2c-2-1-4 0-6 0-2 1-4 3-5 5-1 4 1 9 6 10l29 12c2 1 4 0 6 0 2-1 4-3 5-5 1-4-1-9-6-10l0-1c-2-1-4-2-5-5-1-2 0-4 1-6l23-33c3-4 7-6 11-5 14 4 27 5 41 5l0 0c4 0 8 3 10 7l7 22c1 2 1 4 0 5-1 2-3 4-5 4-5 2-9 8-8 13 0 3 2 6 4 8 3 2 7 3 10 3l11-1c6-1 11-7 11-14-1-5-4-9-9-10-4-1-6-5-6-8l3-24c0-4 3-8 8-9 17-3 33-10 48-18 3-2 8-2 12 1l31 25c2 2 3 4 3 6 0 3-1 5-3 6l-5 4c-1 1-2 3-3 6 0 2 1 4 2 6 3 3 8 3 12 0l24-19c2-2 3-4 3-6 1-2 0-4-1-6-3-3-8-3-12-1l-1 1c-1 1-4 2-6 1-2 0-4-2-5-4l-17-37c-2-4-1-8 2-12 1-1 2-2 3-3 3-3 8-3 11-1 3 3 3 8 0 11 0 1-1 1-1 2l12 27c9-3 19-1 25 6 4 5 6 11 5 17 0 7-3 13-8 16l-25 20c-10 8-24 7-32-3-4-4-6-10-6-17 1-5 3-10 7-14l-23-18c-14 8-30 14-46 18l-1 15c7 4 13 12 14 21 1 14-10 28-25 30l-10 1c-7 1-15-1-21-6-6-4-9-11-10-18-1-10 4-20 12-26l-5-12c-12 0-25-2-37-4l-17 24c7 6 10 16 7 24-2 7-6 11-12 14-6 3-12 3-18 1l-30-12c-12-4-18-17-14-28 2-7 6-11 12-14 5-2 10-3 15-2l5-28c-15-9-29-20-41-32l-16 7c1 8-2 17-9 22-5 3-11 5-17 4-5-1-11-4-14-8l-13-17c-7-10-6-23 3-31 5-4 11-6 17-5 4 0 8 2 11 4l11-13c-10-19-17-40-20-61l-30-7c-3 9-12 15-22 15-6 1-12-2-17-6-5-5-8-12-8-18l0-29c0-7 2-13 7-18 5-4 11-7 17-7 12 0 22 9 24 20z m172 41c4 2 5 7 4 10-2 4-7 5-11 3-18-9-38-7-48 6-6 8-8 17-6 28 2 10 9 20 18 28 10 7 21 11 32 11 11 0 19-5 25-12 9-11 9-27 0-41-2-4-1-9 2-11 4-2 9-1 11 3 12 19 12 42-1 58-9 11-22 17-37 18-14 0-29-5-41-14-12-10-21-23-24-37-3-15 0-29 9-40 9-11 23-17 38-17 10 0 20 2 29 7z m146 67c0 16-14 29-32 29-18 0-32-13-32-29 0-15 14-28 32-28 18 0 32 13 32 28z m-49 0c0 8 7 14 17 14 9 0 17-6 17-14 0-7-8-13-17-13-10 0-17 6-17 13z m-38-129c0 19-16 35-35 35-19 0-34-16-34-35 0-19 15-34 34-34 19 0 35 15 35 34z m-54 0c0 11 9 20 19 20 11 0 20-9 20-20 0-10-9-19-20-19-10 0-19 9-19 19z m152 14c0 15-12 27-27 27-15 0-27-12-27-27 0-14 12-26 27-26 15 0 27 12 27 26z m-39 0c0 7 5 12 12 12 7 0 12-5 12-12 0-6-5-11-12-11-7 0-12 5-12 11z m-60-121c15 0 27 12 27 27 0 14-12 26-27 26-14 0-26-12-26-26 0-15 12-27 26-27z m0 38c7 0 12-5 12-11 0-7-5-12-12-12-6 0-11 5-11 12 0 6 5 11 11 11z m-118 7c15 0 27 12 27 27 0 15-12 27-27 27-15 0-27-12-27-27 0-15 12-27 27-27z m0 39c7 0 12-5 12-12 0-7-5-12-12-12-6 0-12 5-12 12 0 7 6 12 12 12z m153 82c0 4-3 7-7 7l-7 0c-4 0-7-3-7-7 0-4 3-8 7-8l7 0c4 0 7 4 7 8z m-103-139l7 0c4 0 8 3 8 8 0 4-4 7-8 7l-7 0c-4 0-7-3-7-7 0-5 3-8 7-8z m-63 109c4 0 8 4 8 8 0 4-4 8-8 8l-6 0c-5 0-8-4-8-8 0-4 3-8 8-8z m134 132c4 0 7 3 7 7 0 5-3 8-7 8l-9 0c-5 0-8-3-8-8 0-4 3-7 8-7z m50-201c-5 0-8-4-8-8 0-4 3-7 8-7l10 0c4 0 7 3 7 7 0 4-3 8-7 8z"/>
<glyph glyph-name="book-dowload-streamline" unicode="&#112;" d="M245 21l-170 0c-18 0-32 15-32 32l0 363c9-6 20-11 32-11l352 0 0-128c0-6 4-10 10-10 6 0 11 4 11 10l0 150-373 0c-18 0-32 14-32 32 0 17 14 32 32 32l362 0c6 0 11 4 11 10 0 6-5 11-11 11l-362 0c-30 0-54-24-54-53l0-406c0-29 24-53 54-53l170 0c6 0 11 5 11 11 0 6-5 10-11 10z m118 235c-71 0-128-57-128-128 0-71 57-128 128-128 70 0 128 57 128 128 0 71-58 128-128 128z m0-235c-59 0-107 48-107 107 0 59 48 107 107 107 58 0 106-48 106-107 0-59-48-107-106-107z m35 104l-25-25 0 81c0 6-4 11-10 11-6 0-11-5-11-11l0-81-24 25c-5 4-11 4-16 0-4-4-4-11 0-15l43-43c0 0 0 0 0 0l8-7 7 7c0 0 0 0 0 0l43 43c4 4 4 11 0 15-4 4-11 4-15 0z m-323 344l352 0 0-21-352 0z"/>
<glyph glyph-name="ingenieros" unicode="&#113;" d="M429 215l-33 0 0 115 17 17 16-17z m-322 124l-8 8-8-8-8-75 16-25 17 25z m182-91c-9 0-16 7-16 16 0 9 7 17 16 17l8 0 0 41-82 0 0-41 8 0c9 0 16-8 16-17 0-9-7-16-16-16l-8 0 0-25 82 0 0 25z m187 127l-30 4 0 11c15 11 25 28 25 48l0 8 16 0 0 16-16 0 0 9c0 22-19 41-42 41l-33 0c-22 0-41-19-41-41l0-9-16 0 0-16 16 0 0-8c0-20 10-37 25-48l0-11-30-4c-11-1-21-7-28-16l-33 3 0 12c15 10 25 28 25 47l0 8 16 0 0 17-16 0 0 8c0 23-19 41-41 41l-34 0c-22 0-41-18-41-41l0-8-16 0 0-17 16 0 0-8c0-19 10-37 25-47l0-12-33-3c-7 9-17 15-28 16l-30 4 0 11c15 11 25 28 25 48l0 8 16 0 0 16-16 0 0 9c0 22-19 41-41 41l-33 0c-23 0-42-19-42-41l0-9-16 0 0-16 16 0 0-8c0-20 10-37 25-48l0-11-30-4c-20-2-36-20-36-41l0-111c0-14 11-25 25-25 3 0 6 1 8 2l9-200 115 0 8 200c3-1 5-2 8-2 7 0 13 3 17 7l0-7 9-198 114 0 9 198 0 7c4-4 10-7 17-7 3 0 6 1 8 2l8-200 115 0 9 200c2-1 5-2 8-2 14 0 25 11 25 25l0 111c0 21-16 39-36 41z m-35-12l5-1-11-25-10 10z m13 108l0-9-23 0 5 32c11-3 18-12 18-23z m-48 24l14 0-6-33-2 0z m-34-24c0 11 7 20 18 23l5-32-23 0z m0-33l0 8 82 0 0-8c0-23-18-42-41-42-23 0-41 19-41 42z m41-58c6 0 11 1 16 2l0-7-16-16-17 16 0 7c6-1 11-2 17-2z m-28-17l16-16-10-10-11 25z m-88 91l0-8-23 0 5 32c11-3 18-13 18-24z m-48 25l14 0-6-33-2 0z m-34-25c0 11 7 21 18 24l5-32-23 0z m0-33l0 8 82 0 0-8c0-23-18-41-41-41-23 0-41 18-41 41z m41-58c6 0 11 1 17 3l0-6-17-11-17 11 0 6c6-2 11-3 17-3z m-27-16l27-18 27 18 42-5c12-2 22-12 22-25l0-53c0-4-4-8-8-8l-50 0c-5 0-8 4-8 8 0 5 3 9 8 9l41 0 0 49-16 0 0-33-25 0c-14 0-25-11-25-25 0-13 11-25 25-25l17 0 0-33-100 0 0 33 17 0c14 0 25 12 25 25 0 14-11 25-25 25l-25 0 0 33-16 0 0-49 41 0c5 0 8-4 8-9 0-4-3-8-8-8l-50 0c-4 0-8 4-8 8l0 53c0 13 10 23 22 25z m-94 15l-13-26-11 11 16 16z m5 109l0-9-23 0 5 32c11-3 18-12 18-23z m-48 24l14 0-6-33-2 0z m-34-24c0 11 7 20 18 23l5-32-23 0z m0-33l0 8 82 0 0-8c0-23-18-42-41-42-23 0-41 19-41 42z m41-58c6 0 11 1 17 2l0-7-17-16-16 16 0 7c5-1 10-2 16-2z m-28-17l16-16-10-11-13 26z m-46-148c-5 0-8 3-8 8l0 111c0 13 9 23 21 25l8 1 26-52 27 27 27-27 26 52 8-1c4-1 8-2 11-5-13-7-22-21-22-37l0-94-99 0 0 91-17 0 0-91c0-5-4-8-8-8z m25-9l41 0 0-189-34 0z m57-189l0 189 42 0-8-189z m66 198c-4 0-8 3-8 8l0 18c3-1 6-2 8-2l9 0 0-16c0-5-4-8-9-8z m34-25l41 0 0-173-34 0z m57-173l0 173 41 0-7-173z m75 198c-5 0-9 3-9 8l0 16 9 0c2 0 5 1 8 2l0-18c0-5-4-8-8-8z m24-9l42 0 0-189-34 0z m58-189l0 189 41 0-7-189z m74 206c0-5-3-8-8-8-4 0-8 3-8 8l0 91-17 0 0-91-99 0 0 94c0 16-9 30-22 37 3 3 7 4 11 5l11 1 22-52 28 27 27-27 23 52 11-1c12-2 21-12 21-25z m-90 99l16 0 0-16-16 0z m0-33l16 0 0-16-16 0z"/>
<glyph glyph-name="process" unicode="&#114;" d="M512 84l0 63-24 6c0 0 0 1 0 1l12 21-44 44-21-12c-1 0-1 0-1 0l-6 24-63 0-6-24c0 0-1 0-1 0l-21 12-44-44 12-21c0 0 0-1 0-1l-24-6 0-63 24-6c0 0 0 0 0-1l-12-21 44-44 21 12c0 0 1 0 1 0l6-24 63 0 6 24c0 0 0 0 1 0l21-12 44 44-12 21c0 1 0 1 0 1z m-33-25l-26-26-17 10-4-2c-3-1-5-2-8-3l-4-2-5-19-37 0-5 19-4 2c-3 1-6 2-8 3l-4 2-18-10-26 26 11 17-2 4c-1 3-2 5-3 8l-2 4-20 5 0 37 20 5 2 4c1 3 2 6 3 8l2 4-11 18 26 26 18-11 4 2c2 1 5 2 8 3l4 2 5 20 37 0 5-20 4-2c3-1 5-2 8-3l4-2 17 11 26-26-10-18 2-4c1-2 2-5 3-8l2-4 19-5 0-37-19-5-2-4c-1-3-2-5-3-8l-2-4z m-83 123c-36 0-66-30-66-66 0-37 30-66 66-66 37 0 66 29 66 66 0 36-29 66-66 66z m0-116c-27 0-49 22-49 50 0 27 22 49 49 49 28 0 50-22 50-49 0-28-22-50-50-50z m0 83c-18 0-33-15-33-33 0-19 15-33 33-33 19 0 33 14 33 33 0 18-14 33-33 33z m0-50c-9 0-16 8-16 17 0 9 7 16 16 16 9 0 17-7 17-16 0-9-8-17-17-17z m-187 273c3-8 8-15 14-21l0-7-39-14c-16-6-27-22-27-39l0-43 198 0 0 43c0 17-11 33-27 39l-39 14 0 7c6 6 11 13 14 21 15 3 27 16 27 33l0 33c0 41-33 74-74 74-41 0-74-33-74-74l0-33c0-17 12-30 27-33z m64-31l-17-28-17 28 0 0c6-1 11-2 17-2 6 0 11 1 17 2z m-45-13l16-27-16-9-11 32z m111-37l0-27-166 0 0 27c0 10 7 20 16 23l13 5 16-50 38 19 38-19 16 50 13-5c9-3 16-13 16-23z m-44 33l-11-32-16 9 16 27z m-39 31c-18 0-33 15-33 33l0 34c12 1 23 5 33 13 10-8 21-12 33-13l0-34c0-18-15-33-33-33z m50 35l0 29c4-3 8-8 8-14 0-6-4-12-8-15z m-50 105c32 0 58-25 58-57l0-5c-5 3-11 5-17 5l-1 0c-13 0-25 5-34 14l-6 6-6-6c-9-9-21-14-34-14l-1 0c-6 0-12-2-17-5l0 5c0 32 26 57 58 57z m-50-76l0-29c-4 3-8 9-8 15 0 6 4 11 8 14z m-206-419l165 0 0 215-165 0z m17 198l132 0 0-181-132 0z m16-16l99 0 0-17-99 0z m0-33l17 0 0-17-17 0z m33 0l66 0 0-17-66 0z m-33-33l99 0 0-17-99 0z m0-33l99 0 0-17-99 0z m83-33l16 0 0-17-16 0z m-83 0l66 0 0-17-66 0z m188 93l-12 11-39-38 39-39 12 11-19 19 62 0 0 17-62 0z m-130 237c0 4 4 8 8 8l38 0-19-19 12-11 39 38-39 39-12-11 19-19-38 0c-14 0-25-11-25-25l0-149 17 0z m305 0l0-104-19 19-11-12 39-39 39 39-12 12-19-19 0 104c0 14-11 25-25 25l-41 0 0-17 41 0c5 0 8-4 8-8z"/>
<glyph glyph-name="perfil-de-helicoptero" unicode="&#118;" d="M229 224c0-2 1-3 1-5 12-55 61-97 120-97 68 0 162 23 162 91 0 64-84 146-151 154l0 28 135 0c6 0 12 5 12 12 0 7-6 12-12 12l-135 0 0 17-36 0 0-17-139 0c-7 0-13-5-13-12 0-7 6-12 13-12l139 0 0-29c-37-8-68-32-85-65 0-2-1-3-2-4 0-2-1-3-2-5l-196-17 1 8 7 49-17 0-14-51-1-4-2-6-14-37 229-6c0-2 0-3 0-4z m78 42c1 5 2 9 4 14 13 32 41 61 72 52 25-6 81-39 104-108 14-41-60-25-104-25-32 0-60 2-72 21-2 2-3 5-4 8-2 5-3 11-3 17 0 7 1 14 3 21z m-290-92l19 0 12 51 1 3-27 1 0-3z m459-42c-20-38-93-32-129-31-40 0-79 6-119 7-16 0-16-25 0-25 52-1 104-8 156-7 38 1 93 6 113 44 7 14-14 26-21 12z"/>
<glyph glyph-name="file-text-o" unicode="&#110;" d="M456 403c5-5 10-12 14-21 4-9 5-18 5-25l0-330c0-7-2-14-8-19-5-5-11-8-19-8l-384 0c-8 0-14 3-19 8-6 5-8 12-8 19l0 458c0 7 2 14 8 19 5 5 11 8 19 8l256 0c8 0 16-2 25-6 9-4 17-8 22-13z m-127 70l0-107 108 0c-2 5-4 9-7 11l-89 90c-2 2-6 4-12 6z m110-436l0 292-119 0c-8 0-14 3-19 8-6 5-8 12-8 20l0 118-220 0 0-438z m-293 246c0 3 1 5 3 7 2 2 4 3 6 3l202 0c2 0 4-1 6-3 2-2 3-4 3-7l0-18c0-3-1-5-3-6-2-2-4-3-6-3l-202 0c-2 0-4 1-6 3-2 1-3 3-3 6z m211-64c2 0 4 0 6-2 2-2 3-4 3-7l0-18c0-3-1-5-3-7-2-1-4-2-6-2l-202 0c-2 0-4 1-6 2-2 2-3 4-3 7l0 18c0 3 1 5 3 7 2 2 4 2 6 2z m0-73c2 0 4-1 6-2 2-2 3-4 3-7l0-18c0-3-1-5-3-7-2-1-4-2-6-2l-202 0c-2 0-4 1-6 2-2 2-3 4-3 7l0 18c0 3 1 5 3 7 2 1 4 2 6 2z"/>
<glyph glyph-name="instructor" unicode="&#70;" d="M40 280l16 0 0-16-16 0z m32 0l72 0 0-16-72 0z m411 50c-5 4-11 6-17 7l-26 6 0 13c8 7 13 17 15 28l9 0c13 0 24 11 24 24 0 6-2 11-5 15 3 7 5 15 5 23l0 2c0 16-13 30-29 32-16 15-37 24-59 24l0 0-392 0 0-272 344 0 0-54c-14-9-24-24-24-42 0-17 4-34 12-49l1-2-18-6c-8-3-14-8-19-14-5 6-11 11-19 14l-18 6 1 2c8 15 12 32 12 49 0 26-22 48-48 48-26 0-48-22-48-48 0-17 4-34 12-49l1-2-18-6c-7-3-13-7-18-13-4 6-9 11-15 14l-10 5 0 51c0 26-22 48-48 48-26 0-48-22-48-48l0-51-10-5c-14-7-22-21-22-36l0-36 448 0 0 33c0 12-6 24-15 31l23 0 0 99c4-2 8-3 12-3 15 0 28 13 28 28l0 95c0 16-8 31-21 39z m-20-8c4-1 8-3 11-5 9-6 14-16 14-26l0-59-24 0 0 53c0 5 2 10 6 13l-12 12c-6-7-10-16-10-25l0-69-80 0 0 69c0 9-4 18-10 25l-12-12c2-1 3-3 4-4l-16-4c-18-5-37 0-51 12l-26 24 21 21 40-36 26 9c1 0 3 0 4 1l31 6 0-2c4-13 16-21 29-21 13 0 25 8 29 21l0 2z m-234 29c-3 3-5 7-5 11 0 8 6 14 14 14l2 0c3 0 6-1 9-4l17-15-21-21z m195-14l-3-7c-1-6-7-10-13-10-6 0-12 4-13 10l-3 7 0 10c5-2 10-3 16-3 6 0 11 1 16 3z m16 55c0-18-14-32-32-32-18 0-32 14-32 32l0 24c12 2 23 6 32 13 9-7 20-11 32-13z m24 8l-8 0 0 16 8 0c4 0 8-4 8-8 0-4-4-8-8-8z m-11 64l3 0c9 0 16-7 16-16l0-2c0-5-1-10-3-15-2 1-3 1-5 1l-8 0 0 0-9 0c-13 0-25 5-33 14l-6 5-6-5c-8-9-20-14-33-14l-9 0 0 0-8 0c-2 0-3 0-5-1-2 5-3 10-3 15l0 2c0 12 6 23 17 30 11 6 24 10 37 10 20 0 38-8 52-22z m-101-64c-4 0-8 4-8 8 0 4 4 8 8 8l8 0 0-16z m-328-152l0 240 324 0c-12-10-20-24-20-40l0-2c0-8 2-16 5-23-3-4-5-9-5-15 0-13 11-24 24-24l9 0c2-11 7-21 15-28l0-13-31-7c-2 0-4-1-6-1l-17-6-62 55c-6 5-13 8-20 8l-2 0c-16 0-30-14-30-30 0-9 4-17 10-23l55-49c13-12 30-18 47-18 6 0 12 1 17 2l15 4 0-30z m352-80c18 0 32-14 32-32 0-14-3-29-10-42l-3-6-38 0-3 6c-7 13-10 28-10 42 0 18 14 32 32 32z m-144 0c18 0 32-14 32-32 0-14-3-29-10-42l-3-6-38 0-3 6c-7 13-10 28-10 42 0 18 14 32 32 32z m-176-32c0 18 14 32 32 32 18 0 32-14 32-32l0-80-64 0z m96-112l-128 0 0 20c0 9 5 18 13 22l3 1 0-27 96 0 0 27 3-1c8-4 13-13 13-22z m144 0l-128 0 0 17c0 10 7 19 16 23l25 8 46 0 25-8c9-4 16-13 16-23z m144 0l-128 0 0 17c0 10 7 19 16 23l25 8 46 0 25-8c9-4 16-13 16-23z m8 64l-35 0c7 15 11 31 11 48 0 26-22 48-48 48-3 0-5 0-8-1l0 17 80 0z m28 96c-7 0-12 5-12 12l0 20 24 0 0-20c0-7-5-12-12-12z m-308 240l-16 0 0-32-16 0 0 64-16 0 0-64-16 0 0 48-16 0 0-48-16 0 0 32-16 0 0-32-16 0 0-16 144 0 0 16-16 0z m-128-64l16 0 0-16-16 0z m32 0l80 0 0-16-80 0z m96 0l16 0 0-16-16 0z"/>
<glyph glyph-name="frio" unicode="&#75;" d="M226 58c-3 3-8 2-10-2-17-26-46-41-77-41-51 0-92 41-92 92 0 30 14 58 38 75 2 2 3 4 3 6l0 171c0 4-3 7-7 7-4 0-8-3-8-7l0-167c-26-20-41-52-41-85 0-59 48-107 107-107 36 0 69 18 89 48 3 4 2 8-2 10z m-21 134l0 254c0 36-30 66-66 66-1 0-2 0-3 0-35-1-63-31-63-66l0-57c0-5 4-8 8-8 4 0 7 3 7 8l0 57c0 27 22 50 49 51 1 0 1 0 2 0 28 0 51-23 51-51l0-258c0-2 1-4 3-6 24-17 38-45 38-75 0-8-1-17-3-25-2-4 1-8 5-9 0 0 1-1 2-1 3 0 6 3 7 6 3 9 4 19 4 29 0 33-15 65-41 85z m-49 272c-5 5-11 7-18 7-14 0-24-12-24-25l0-266c0-6-3-12-9-15-20-12-32-34-32-58 0-36 29-66 66-66 37 0 66 30 66 66 0 24-12 46-32 58-6 3-9 9-9 15l0 36 5 0c4 0 8 4 8 8 0 4-4 7-8 7l-5 0 0 26 5 0c4 0 8 3 8 7 0 4-4 8-8 8l-5 0 0 25 5 0c4 0 8 3 8 8 0 4-4 7-8 7l-5 0 0 25 5 0c4 0 8 4 8 8 0 4-4 7-8 7l-5 0 0 26 5 0c4 0 8 3 8 7 0 4-4 8-8 8l-5 0 0 25 5 0c4 0 8 4 8 8 0 4-4 7-8 7l-5 0 0 13c0 7-3 13-8 18z m9-312c16-9 25-26 25-45 0-28-23-51-51-51-28 0-51 23-51 51 0 19 9 36 25 45 10 6 16 17 16 28l0 36 20 0 0-36c0-11 6-22 16-28z m-36 79l0 215c0 5 4 10 10 10 0 0 0 0 0 0 3 0 5-1 7-3 2-2 3-4 3-7l0-215z m344 121l-21 0 9 9c3 3 3 8 0 11-3 3-8 3-11 0l-20-20-46 0 33 33 28 0c4 0 7 3 7 7 0 4-3 8-7 8l-13 0 15 15c3 3 3 7 0 10-3 3-8 3-11 0l-15-15 0 13c0 4-3 8-7 8-4 0-8-4-8-8l0-28-32-32 0 45 20 20c3 3 3 8 0 11-3 2-8 2-11 0l-9-10 0 21c0 5-3 8-7 8-4 0-8-3-8-8l0-21-9 10c-3 2-8 2-11 0-2-3-2-8 0-11l20-20 0-45-31 31 0 27c0 5-3 8-7 8-4 0-8-3-8-8l0-12-15 15c-3 3-8 3-11 0-3-2-3-7 0-10l16-16-13 0c-4 0-8-3-8-8 0-4 4-7 8-7l28 0 31-31-44 0-19 20c-3 3-8 3-11 0-3-3-3-8 0-11l9-9-22 0c-4 0-8-3-8-8 0-4 4-7 8-7l22 0-9-9c-3-3-3-8 0-11 2-1 4-2 5-2 2 0 4 1 6 2l19 20 43 0-30-30-28 0c-4 0-8-3-8-8 0-4 4-7 8-7l13 0-16-16c-3-3-3-8 0-11 1-1 3-2 5-2 2 0 4 1 6 2l15 16 0-13c0-4 4-7 8-7 4 0 7 3 7 7l0 28 31 31 0-44-20-20c-2-2-2-7 0-10 2-2 4-2 6-2 2 0 4 0 5 2l9 9 0-23c0-4 4-7 8-7 4 0 7 3 7 7l0 23 9-9c2-2 4-2 6-2 2 0 3 0 5 2 3 3 3 8 0 10l-20 20 0 44 32-32 0-28c0-5 4-8 8-8 4 0 7 3 7 8l0 13 15-15c2-2 4-3 5-3 2 0 4 1 6 3 3 3 3 7 0 10l-15 15 13 0c4 0 7 3 7 8 0 4-3 7-7 7l-28 0-32 32 45 0 20-20c2-1 4-2 5-2 2 0 4 1 6 2 3 3 3 8 0 11l-9 9 21 0c4 0 7 3 7 7 0 5-3 8-7 8z"/>
<glyph glyph-name="ingenieros-1" unicode="&#76;" d="M429 215l-33 0 0 115 17 17 16-17z m-322 124l-8 8-8-8-8-75 16-25 17 25z m182-91c-9 0-16 7-16 16 0 9 7 17 16 17l8 0 0 41-82 0 0-41 8 0c9 0 16-8 16-17 0-9-7-16-16-16l-8 0 0-25 82 0 0 25z m187 127l-30 4 0 11c15 11 25 28 25 48l0 8 16 0 0 16-16 0 0 9c0 22-19 41-42 41l-33 0c-22 0-41-19-41-41l0-9-16 0 0-16 16 0 0-8c0-20 10-37 25-48l0-11-30-4c-11-1-21-7-28-16l-33 3 0 12c15 10 25 28 25 47l0 8 16 0 0 17-16 0 0 8c0 23-19 41-41 41l-34 0c-22 0-41-18-41-41l0-8-16 0 0-17 16 0 0-8c0-19 10-37 25-47l0-12-33-3c-7 9-17 15-28 16l-30 4 0 11c15 11 25 28 25 48l0 8 16 0 0 16-16 0 0 9c0 22-19 41-41 41l-33 0c-23 0-42-19-42-41l0-9-16 0 0-16 16 0 0-8c0-20 10-37 25-48l0-11-30-4c-20-2-36-20-36-41l0-111c0-14 11-25 25-25 3 0 6 1 8 2l9-200 115 0 8 200c3-1 5-2 8-2 7 0 13 3 17 7l0-7 9-198 114 0 9 198 0 7c4-4 10-7 17-7 3 0 6 1 8 2l8-200 115 0 9 200c2-1 5-2 8-2 14 0 25 11 25 25l0 111c0 21-16 39-36 41z m-35-12l5-1-11-25-10 10z m13 108l0-9-23 0 5 32c11-3 18-12 18-23z m-48 24l14 0-6-33-2 0z m-34-24c0 11 7 20 18 23l5-32-23 0z m0-33l0 8 82 0 0-8c0-23-18-42-41-42-23 0-41 19-41 42z m41-58c6 0 11 1 16 2l0-7-16-16-17 16 0 7c6-1 11-2 17-2z m-28-17l16-16-10-10-11 25z m-88 91l0-8-23 0 5 32c11-3 18-13 18-24z m-48 25l14 0-6-33-2 0z m-34-25c0 11 7 21 18 24l5-32-23 0z m0-33l0 8 82 0 0-8c0-23-18-41-41-41-23 0-41 18-41 41z m41-58c6 0 11 1 17 3l0-6-17-11-17 11 0 6c6-2 11-3 17-3z m-27-16l27-18 27 18 42-5c12-2 22-12 22-25l0-53c0-4-4-8-8-8l-50 0c-5 0-8 4-8 8 0 5 3 9 8 9l41 0 0 49-16 0 0-33-25 0c-14 0-25-11-25-25 0-13 11-25 25-25l17 0 0-33-100 0 0 33 17 0c14 0 25 12 25 25 0 14-11 25-25 25l-25 0 0 33-16 0 0-49 41 0c5 0 8-4 8-9 0-4-3-8-8-8l-50 0c-4 0-8 4-8 8l0 53c0 13 10 23 22 25z m-94 15l-13-26-11 11 16 16z m5 109l0-9-23 0 5 32c11-3 18-12 18-23z m-48 24l14 0-6-33-2 0z m-34-24c0 11 7 20 18 23l5-32-23 0z m0-33l0 8 82 0 0-8c0-23-18-42-41-42-23 0-41 19-41 42z m41-58c6 0 11 1 17 2l0-7-17-16-16 16 0 7c5-1 10-2 16-2z m-28-17l16-16-10-11-13 26z m-46-148c-5 0-8 3-8 8l0 111c0 13 9 23 21 25l8 1 26-52 27 27 27-27 26 52 8-1c4-1 8-2 11-5-13-7-22-21-22-37l0-94-99 0 0 91-17 0 0-91c0-5-4-8-8-8z m25-9l41 0 0-189-34 0z m57-189l0 189 42 0-8-189z m66 198c-4 0-8 3-8 8l0 18c3-1 6-2 8-2l9 0 0-16c0-5-4-8-9-8z m34-25l41 0 0-173-34 0z m57-173l0 173 41 0-7-173z m75 198c-5 0-9 3-9 8l0 16 9 0c2 0 5 1 8 2l0-18c0-5-4-8-8-8z m24-9l42 0 0-189-34 0z m58-189l0 189 41 0-7-189z m74 206c0-5-3-8-8-8-4 0-8 3-8 8l0 91-17 0 0-91-99 0 0 94c0 16-9 30-22 37 3 3 7 4 11 5l11 1 22-52 28 27 27-27 23 52 11-1c12-2 21-12 21-25z m-90 99l16 0 0-16-16 0z m0-33l16 0 0-16-16 0z"/>
<glyph glyph-name="ingeniero-3" unicode="&#78;" d="M440 352l-16 0c-13 0-24-11-24-24l0-1c-9-4-16-13-16-23l0-9c0-7 2-13 7-17l9-9-9-73c-23 38-61 65-105 75l-3 11c11 3 21 11 26 22l3 0c18 0 32 14 32 32l0 40c9 0 16 7 16 16l0 16c0 9-7 16-16 16l-1 0c-8 46-47 80-95 80-48 0-87-34-95-80l-1 0c-9 0-16-7-16-16l0-16c0-9 7-16 16-16l0-40c0-18 14-32 32-32l3 0c5-11 15-19 26-22l-3-11c-18-4-35-12-51-22l-15 48c-1 1-1 1-1 1-4 17-27 26-54 20-16-3-30-12-37-22-4-6-5-12-3-18 0-4 2-7 4-10l55-82c-8-18-12-38-12-58 0-34 20-64 48-78l0-10c0-18 14-32 32-32l176 0 0 105c12-16 30-25 50-25 34 0 62 28 62 62l0 178c0 13-11 24-24 24z m-40-48c0 4 4 8 8 8l8 0 0 16c0 4 4 8 8 8l16 0c4 0 8-4 8-8l0-48-37 0-9 9c-1 1-2 3-2 6z m-128-264l0-16-20 0c2 5 4 10 4 16z m8 16l-48 0 0 37 9 9c1 1 4 2 6 2l9 0c4 0 8-4 8-8l0-8 16 0c4 0 8-4 8-8l0-16c0-4-4-8-8-8z m-14 224l5-14-23-29-23 29 5 14 36 0z m-41-40c0 0-1 0-1 0l-48 0c0 0 0 0 0 0 11 7 24 12 37 15z m-49-16l20 0c-2-5-4-10-4-16l0-8 16 0 0 8c0 9 7 16 16 16 9 0 16-7 16-16 0-9-7-16-16-16l-48 0c-9 0-16 7-16 16 0 9 7 16 16 16z m-16-44c5-2 10-4 16-4l48 0c6 0 11 2 16 4l0-61c-4-1-7-3-10-6l-9-9-29 0c-11 0-22 3-32 8z m112-66c-4 4-10 6-16 6l0 88c0 4-1 7-2 11l18 22z m40 206l0 32c9 0 16-7 16-16 0-9-7-16-16-16z m16 44c-5 2-10 4-16 4l0 8 16 0z m-2 60l-54 0 0 60c27-8 49-31 54-60z m-70 64l0-64-16 0 0 64c3 0 5 0 8 0 3 0 5 0 8 0z m-32-4l0-60-54 0c5 29 27 52 54 60z m-72-76l192 0 0-16-192 0z m32-32l0-8c-6 0-11-2-16-4l0 12z m-16-40c0 9 7 16 16 16l0-32c-9 0-16 7-16 16z m32-16l0 56 96 0 0-56c0-13-11-24-24-24l-48 0c-13 0-24 11-24 24z m-134-32c4 6 14 12 26 15 5 1 9 1 13 1 11 0 19-4 22-8l1-2c0-2 0-4-2-6-4-6-14-12-26-15-17-3-29 0-34 5l-2 3c0 0 0 0 0 0 0 2 0 4 2 7z m21-32c5 0 11 1 16 2 13 2 24 8 31 15l16-47c-4-5-6-11-6-18l0-46-63 94c2 0 4 0 6 0z m25-128c0 15 2 29 7 42l25-37 0-11c-3 4-7 7-10 11l-12-10c16-22 42-35 70-35l24 0 0-32-32 0c-40 0-72 32-72 72z m88-104l-24 0c-9 0-16 7-16 16l0 3c8-2 16-3 24-3l56 0c0-9-7-16-16-16z m202 80c-18 0-34 10-42 26l-8 16 0 30-16 0 0-152-48 0 0 17c9 4 16 13 16 23l0 16c0 10-7 19-16 23l0 151c43-12 80-42 98-84l2-2-4-31 16-2 15 129 33 0 0-114c0-25-21-46-46-46z"/>
<glyph glyph-name="checkmark" unicode="&#49;" d="M235 22c-130 0-235 105-235 234 0 130 105 235 235 235 45 0 88-13 126-37 8-5 10-15 5-22-5-8-15-10-22-5-33 21-70 32-109 32-112 0-203-91-203-203 0-111 91-202 203-202 111 0 202 91 202 202 0 7 0 14-1 20 0 9 6 17 15 18 9 0 16-6 17-15 1-7 1-15 1-23 0-129-105-234-234-234z m26 181c-4 0-8 2-11 5l-96 96c-6 6-6 16 0 22 6 7 16 7 23 0l84-84 224 223c6 6 16 6 22 0 7-6 7-16 0-23l-234-234c-3-3-8-5-12-5z"/>
<glyph glyph-name="check-circle-o" unicode="&#54;" d="M371 280l-120-121c-4-3-8-5-13-5-5 0-10 2-13 5l-84 84c-4 4-6 8-6 13 0 5 2 9 6 13l29 29c4 4 8 5 13 5 5 0 9-1 13-5l42-42 78 79c4 3 8 5 13 5 5 0 9-2 13-5l29-30c4-3 6-7 6-12 0-5-2-10-6-13z m40-24c0 28-7 54-20 78-14 24-33 43-57 57-24 13-50 20-78 20-28 0-54-7-78-20-24-14-43-33-57-57-13-24-20-50-20-78 0-28 7-54 20-78 14-24 33-43 57-57 24-13 50-20 78-20 28 0 54 7 78 20 24 14 43 33 57 57 13 24 20 50 20 78z m64 0c0-40-9-77-29-110-20-34-46-60-80-80-33-20-70-29-110-29-40 0-77 9-110 29-34 20-60 46-80 80-20 33-29 70-29 110 0 40 9 77 29 110 20 34 46 60 80 80 33 20 70 29 110 29 40 0 77-9 110-29 34-20 60-46 80-80 20-33 29-70 29-110z"/>
<glyph glyph-name="check-circle" unicode="&#55;" d="M403 302c0 6-1 10-5 13l-26 26c-3 4-8 6-13 6-5 0-9-2-12-6l-117-116-65 64c-3 4-7 6-12 6-5 0-10-2-13-6l-26-25c-4-4-5-8-5-13 0-6 1-10 5-13l103-104c4-3 8-5 13-5 5 0 10 2 13 5l155 155c4 4 5 8 5 13z m72-46c0-40-9-77-29-110-20-34-46-60-80-80-33-20-70-29-110-29-40 0-77 9-110 29-34 20-60 46-80 80-20 33-29 70-29 110 0 40 9 77 29 110 20 34 46 60 80 80 33 20 70 29 110 29 40 0 77-9 110-29 34-20 60-46 80-80 20-33 29-70 29-110z"/>
<glyph glyph-name="checkmark-1" unicode="&#56;" d="M389 32l-330 0c-33 0-59 26-59 59l0 330c0 33 26 59 59 59l266 0c9 0 16-7 16-16 0-9-7-16-16-16l-266 0c-15 0-27-12-27-27l0-330c0-15 12-27 27-27l330 0c15 0 27 12 27 27l0 181c0 9 7 16 16 16 9 0 16-7 16-16l0-181c0-33-26-59-59-59z m-128 181c-4 0-8 2-11 5l-96 96c-6 6-6 16 0 23 6 6 16 6 23 0l84-85 224 223c6 7 16 7 22 0 7-6 7-16 0-22l-234-235c-3-3-8-5-12-5z"/>
<glyph glyph-name="deslizar-a-la-izquierda" unicode="&#34;" d="M358 469l-213 0c-6 0-11-4-11-10 0-6 5-11 11-11l213 0c6 0 11 5 11 11 0 6-5 10-11 10z m-198-10l35 35c4 4 4 11 0 15-4 4-11 4-15 0l-43-43c-4-4-4-11 0-15l43-43c2-2 5-3 8-3 2 0 5 1 7 3 4 5 4 11 0 16z m270-78c-15 14-38 16-54 4-2 6-5 12-10 17-16 16-42 16-58 0l-145-145-14 86c-3 23-23 41-47 41-17 0-32-14-32-32l0-201c0-31 12-61 35-83l33-34c22-22 52-34 83-34 29 0 57 11 79 30l88 81c16 16 16 41 0 57-5 6-11 9-18 11 13 16 11 39-3 53-5 5-11 9-18 11l81 80c16 16 16 42 0 58z m-15-43l-128-128c-2-2-3-5-3-7 0-3 1-6 3-8 4-4 11-4 15 0l22 22c8 8 20 8 28 0 7-7 7-20 0-27l-23-22c0 0 0 0 0-1-4-4-4-10 0-15 5-4 11-4 16 0l0 1c8 8 20 8 28 0 8-7 8-20 0-27l-87-80c-18-16-41-25-65-25-26 0-50 10-68 28l-33 34c-18 18-28 42-28 68l0 201c0 6 4 11 10 11 13 0 24-10 26-23l17-107c1-4 4-7 7-8 4-2 8-1 11 2l160 160c8 8 20 8 28 0 7-7 7-20 0-27l-107-107c-2-2-3-5-3-8 0-2 1-5 3-7 4-4 11-4 15 0l128 128c8 7 20 7 28 0 7-8 7-20 0-28z"/>
<glyph glyph-name="archivo-pdf" unicode="&#57;" d="M322 377l-233 0c-5 0-8-3-8-8 0-4 3-7 8-7l233 0c5 0 8 3 8 7 0 5-3 8-8 8z m-5 90l-49 0c-4 0-8-3-8-8 0-4 4-7 8-7l47 0 0-30-219 0 0 30 137 0c4 0 7 3 7 7 0 5-3 8-7 8l-139 0c-7 0-13-6-13-13l0-35c0-6 6-12 13-12l223 0c7 0 13 6 13 12l0 35c0 7-6 13-13 13z m5-120l-233 0c-5 0-8-3-8-8 0-4 3-7 8-7l233 0c5 0 8 3 8 7 0 5-3 8-8 8z m0-60l-83 0c-5 0-8-3-8-8 0-4 3-7 8-7l83 0c5 0 8 3 8 7 0 5-3 8-8 8z m0 30l-83 0c-5 0-8-3-8-8 0-4 3-7 8-7l83 0c5 0 8 3 8 7 0 5-3 8-8 8z m89-115l0 17c0 19-13 34-30 37l0 218c0 21-17 38-38 38l-275 0c-21 0-38-17-38-38l0-158c-17-3-30-18-30-37l0-106c0-4 3-7 8-7 4 0 7 3 7 7l0 106c0 13 10 23 23 23l146 0c8 0 16-6 18-14l5-21c4-15 17-25 32-25l135 0c12 0 22-10 22-23l0-18c-49-7-86-49-86-100 0-36 19-68 48-86l-320 0c-13 0-23 10-23 22l0 101c0 4-3 8-7 8-5 0-8-4-8-8l0-101c0-20 17-37 38-37l336 0c4 0 9 1 13 3 8-2 16-3 24-3 56 0 101 45 101 101 0 56-45 101-101 101z m-45 55l-127 0c-8 0-15 6-18 14l-5 21c-3 15-17 25-32 25l-139 0 0 157c0 13 10 23 23 23l275 0c13 0 23-10 23-23z m45-242c-48 0-86 39-86 86 0 48 38 86 86 86 47 0 86-38 86-86 0-47-39-86-86-86z m36 74l-11 0 0 60c0 7-6 13-13 13l-24 0c-7 0-13-6-13-13l0-60-11 0c-5 0-10-3-12-8-2-4-1-10 3-13l35-36c3-2 6-3 10-3 3 0 7 1 9 3l36 36c3 3 4 9 2 13-2 5-6 8-11 8z m-36-45l-30 30 7 0c7 0 13 6 13 13l0 60 20 0 0-60c0-7 6-13 13-13l6 0z m-123 110c4 0 7 3 7 8 0 4-3 7-7 7l-27 0c-5 0-8-3-8-7l0-67c0-4 3-8 8-8 4 0 7 4 7 8l0 26 17 0c5 0 8 4 8 8 0 4-3 7-8 7l-17 0 0 18z m-99-67l0 0c1 0 14 1 19 1 19 0 33 17 33 40 0 23-13 40-33 40l-19 0c-2 0-4-1-5-3-2-1-2-3-2-5l0-64c0-4 3-9 7-9z m19 66c13 0 18-13 18-25 0-17-9-25-18-25-3 0-7 0-11 0 0 7 0 42 0 50z m-77-58l0 22c4 0 9 0 11 0 15 0 27 12 27 26 0 15-12 27-27 27l-19 0c-3 0-7-4-7-8l0-67c0-4 3-8 7-8 5 0 8 4 8 8z m11 60c6 0 12-6 12-12 0-6-6-11-12-11-2 0-7 0-11 0 0 4 0 18 0 23z"/>
<glyph glyph-name="linkedin-square" unicode="&#33;" d="M104 108l66 0 0 198-66 0z m71 259c-1 10-4 19-11 25-6 6-15 10-26 10-11 0-20-4-27-10-7-6-11-15-11-25 0-9 4-17 10-24 7-7 16-10 27-10l0 0c11 0 20 3 27 10 7 7 11 15 11 24z m167-259l66 0 0 114c0 29-7 51-21 66-14 15-32 23-55 23-26 0-46-11-60-34l1 0 0 29-66 0c0-12 0-78 0-198l66 0 0 111c0 7 0 12 2 16 2 7 7 12 12 17 6 5 13 7 22 7 22 0 33-15 33-45z m133 285l0-274c0-23-8-42-24-58-16-16-35-24-58-24l-274 0c-23 0-42 8-58 24-16 16-24 35-24 58l0 274c0 23 8 42 24 58 16 16 35 24 58 24l274 0c23 0 42-8 58-24 16-16 24-35 24-58z"/>
<glyph glyph-name="instagrem" unicode="&#36;" d="M389 256c0 9-1 17-3 26 0 0 90 0 90 0 0 0 0-177 0-177 0-19-6-35-20-49-13-13-29-20-48-20 0 0-304 0-304 0-19 0-35 7-48 20-14 14-20 30-20 49 0 0 0 177 0 177 0 0 89 0 89 0-1-11-2-20-2-26 0-36 13-67 39-94 26-26 57-39 94-39 36 0 67 13 94 39 26 27 39 58 39 94m19 220c19 0 35-6 48-20 14-13 20-29 20-48 0 0 0-75 0-75 0 0-111 0-111 0-27 37-63 56-109 56-47 0-83-19-109-56 0 0-111 0-111 0 0 0 0 75 0 75 0 19 6 35 20 48 13 14 29 20 48 20 0 0 304 0 304 0m32-85c0 0 0 37 0 37 0 8-4 12-12 12 0 0-37 0-37 0-8 0-12-4-12-12 0 0 0-37 0-37 0-3 1-5 3-8 3-3 6-4 9-4 0 0 37 0 37 0 8 0 12 4 12 12m-102-135c0-23-8-42-24-58-16-16-35-24-58-24-23 0-42 8-58 24-16 16-24 35-24 58 0 23 8 43 24 58 16 16 35 24 58 24 23 0 42-8 58-24 16-15 24-35 24-58"/>
<glyph glyph-name="advertencia-1" unicode="&#35;" d="M501 128l-181 333c-29 48-99 49-128 0l-181-333c-30-50 6-113 64-113l362 0c58 0 94 63 64 113z m-245-53c-17 0-30 13-30 30 0 16 13 30 30 30 17 0 30-14 30-30 0-17-13-30-30-30z m30 120c0-17-13-30-30-30-17 0-30 13-30 30l0 150c0 16 13 30 30 30 17 0 30-14 30-30z"/>
<glyph glyph-name="whatsapp" unicode="&#37;" d="M318 234c2 0 12-4 28-13 16-8 24-13 25-15 1-1 1-2 1-4 0-7-2-14-5-22-3-7-10-14-20-19-11-5-20-7-29-7-11 0-29 6-55 17-18 9-34 20-48 34-14 14-28 32-42 53-14 20-21 39-21 55l0 3c1 17 8 32 21 45 5 4 10 6 15 6 1 0 3 0 5 0 3-1 5-1 6-1 3 0 6 0 7-2 2-1 3-3 5-7 1-4 5-13 9-26 5-13 7-20 7-21 0-4-3-9-9-16-7-7-10-12-10-14 0-1 0-2 1-4 7-14 16-27 29-39 11-10 25-20 43-29 3-1 5-2 7-2 3 0 8 5 15 14 8 9 13 14 15 14z m-58-152c24 0 47 5 70 15 22 9 41 22 57 38 16 16 29 35 38 57 10 22 14 46 14 70 0 24-4 47-14 69-9 22-22 42-38 58-16 16-35 28-57 38-23 9-46 14-70 14-24 0-47-5-70-14-22-10-41-22-57-38-16-16-29-36-38-58-10-22-14-45-14-69 0-39 11-74 34-105l-23-67 69 22c31-20 63-30 99-30z m0 395c29 0 57-6 84-17 26-11 49-27 68-46 20-19 35-42 46-69 12-26 17-54 17-83 0-29-5-57-17-84-11-26-26-49-46-69-19-19-42-34-68-46-27-11-55-17-84-17-37 0-72 9-104 27l-119-38 38 116c-20 33-30 71-30 111 0 29 5 57 17 83 11 27 26 50 46 69 19 19 42 35 68 46 27 11 55 17 84 17z"/>
</font>
</defs>
</svg>
