<?xml version="1.0" encoding="iso-8859-1"?>
<!-- Generator: Adobe Illustrator 19.0.0, SVG Export Plug-In . SVG Version: 6.00 Build 0)  -->
<svg version="1.1" id="Capa_1" xmlns="http://www.w3.org/2000/svg" xmlns:xlink="http://www.w3.org/1999/xlink" x="0px" y="0px"
	 viewBox="0 0 512.003 512.003" style="enable-background:new 0 0 512.003 512.003;" xml:space="preserve">
<g>
	<g transform="translate(1 1)">
		<circle style="fill:#A4C2F7;" cx="255" cy="255.002" r="247.467"/>
		<ellipse style="fill:#E3E7F2;" cx="242.2" cy="255.002" rx="234.667" ry="247.467"/>
		<circle style="fill:#A4C2F7;" cx="255" cy="255.002" r="213.333"/>
		<g>
			
				<ellipse transform="matrix(-0.0381 -0.9993 0.9993 -0.0381 -3.0094 506.1389)" style="fill:#E3E7F2;" cx="242.097" cy="254.518" rx="213.333" ry="200.626"/>
			<polyline style="fill:#E3E7F2;" points="333.677,220.868 426.776,381.38 445.208,413.295 462.019,442.394 428.312,431.642 
				390.68,419.524 377.368,415.258 373.699,432.239 363.885,477.21 358.509,502.127 348.184,484.292 330.947,454.34 229.4,279.066 
							"/>
			<polygon style="fill:#E3E7F2;" points="273.944,289.135 179.053,454.34 165.571,477.722 161.816,484.292 151.491,502.127 
				146.115,477.21 143.384,464.836 136.301,432.239 132.632,415.258 119.32,419.524 98.499,426.266 81.688,431.642 47.981,442.394 
				64.792,413.295 74.947,395.802 83.224,381.38 169.667,230.938 			"/>
		</g>
		<path style="fill:#A4C2F7;" d="M242.75,342.125l-0.035-0.056c-2.19-3.459-5.74-5.831-9.774-6.532
			c-4.033-0.701-8.175,0.335-11.404,2.851l-0.012,0.009c-3.913,3.067-9.127,3.907-13.805,2.223
			c-4.678-1.683-8.161-5.654-9.223-10.511l-0.001-0.005c-0.864-3.997-3.386-7.439-6.937-9.468
			c-3.551-2.028-7.797-2.452-11.679-1.165l-0.058,0.019c-4.702,1.579-9.885,0.614-13.704-2.55c-3.819-3.165-5.729-8.079-5.05-12.992
			l0.006-0.041c0.574-4.043-0.613-8.137-3.261-11.246c-2.648-3.109-6.501-4.932-10.584-5.009l-0.014,0
			c-4.955-0.077-9.511-2.732-12.02-7.006c-2.509-4.274-2.607-9.546-0.259-13.91l0.022-0.04c1.941-3.576,2.245-7.816,0.833-11.632
			c-1.411-3.816-4.401-6.838-8.202-8.29l-0.03-0.012c-4.628-1.763-7.993-5.824-8.864-10.699s0.879-9.85,4.61-13.107l0.012-0.011
			c3.071-2.671,4.834-6.541,4.834-10.611c0-4.07-1.762-7.94-4.832-10.612l-0.017-0.015c-3.731-3.257-5.48-8.232-4.608-13.107
			c0.872-4.875,4.236-8.936,8.864-10.698l0.035-0.014c3.801-1.452,6.79-4.474,8.202-8.29c1.412-3.816,1.108-8.055-0.832-11.632
			l-0.024-0.045c-2.348-4.364-2.249-9.637,0.26-13.91c2.509-4.273,7.065-6.928,12.02-7.005l0.018-0.001
			c4.082-0.076,7.936-1.9,10.584-5.008s3.835-7.203,3.262-11.245l-0.006-0.041c-0.678-4.913,1.232-9.828,5.052-12.992
			c3.819-3.164,9.003-4.129,13.705-2.549l0.055,0.018c3.882,1.287,8.128,0.864,11.68-1.164c3.552-2.028,6.074-5.47,6.938-9.468
			c1.061-4.857,4.545-8.827,9.223-10.511c4.678-1.683,9.893-0.843,13.806,2.224l0.008,0.006c3.229,2.517,7.372,3.553,11.405,2.852
			c4.034-0.701,7.584-3.074,9.774-6.533l0.032-0.051c2.657-4.199,7.28-6.744,12.249-6.744c4.969,0,9.592,2.545,12.249,6.743
			l0.035,0.056c2.19,3.459,5.74,5.831,9.774,6.532c4.033,0.701,8.175-0.335,11.404-2.851l0.012-0.009
			c3.913-3.067,9.127-3.907,13.805-2.223s8.161,5.654,9.223,10.511l0.001,0.005c0.864,3.997,3.386,7.439,6.937,9.468
			c3.551,2.028,7.797,2.452,11.679,1.165l0.058-0.019c4.702-1.579,9.885-0.614,13.704,2.55c3.819,3.165,5.729,8.079,5.05,12.992
			l-0.006,0.041c-0.574,4.043,0.613,8.137,3.261,11.246c2.648,3.109,6.501,4.932,10.584,5.009h0.014
			c4.955,0.077,9.511,2.732,12.02,7.006c2.509,4.274,2.607,9.546,0.259,13.91l-0.022,0.04c-1.941,3.576-2.245,7.816-0.833,11.632
			c1.411,3.816,4.401,6.838,8.202,8.29l0.03,0.012c4.628,1.763,7.993,5.824,8.864,10.699c0.871,4.875-0.879,9.85-4.61,13.107
			l-0.012,0.011c-3.071,2.671-4.834,6.541-4.834,10.611c0,4.07,1.762,7.94,4.832,10.612l0.017,0.015
			c3.731,3.257,5.48,8.232,4.608,13.107c-0.872,4.875-4.236,8.936-8.864,10.698l-0.035,0.014c-3.801,1.452-6.79,4.474-8.202,8.29
			c-1.412,3.816-1.108,8.055,0.832,11.632l0.024,0.045c2.348,4.364,2.249,9.637-0.26,13.91c-2.509,4.273-7.065,6.928-12.02,7.005
			l-0.018,0.001c-4.083,0.076-7.937,1.899-10.585,5.008s-3.836,7.203-3.262,11.246l0.006,0.041
			c0.678,4.913-1.232,9.828-5.052,12.992s-9.003,4.129-13.705,2.549l-0.055-0.018c-3.882-1.287-8.128-0.864-11.68,1.164
			c-3.552,2.028-6.074,5.47-6.938,9.468c-1.061,4.857-4.545,8.827-9.223,10.511c-4.678,1.683-9.893,0.843-13.806-2.224l-0.008-0.006
			c-3.229-2.517-7.372-3.553-11.405-2.852c-4.034,0.701-7.584,3.074-9.774,6.533l-0.032,0.051c-2.657,4.199-7.28,6.744-12.249,6.744
			C250.03,348.868,245.408,346.323,242.75,342.125z"/>
		<circle style="fill:#E3E7F2;" cx="255" cy="212.335" r="102.4"/>
		<path style="fill:#A4C2F7;" d="M262.645,156.367l11.46,23.114c1.246,2.513,3.647,4.253,6.424,4.655l25.561,3.697
			c3.219,0.466,5.894,2.721,6.896,5.815c1.003,3.094,0.159,6.49-2.176,8.755l-18.446,17.897c-2.022,1.962-2.946,4.796-2.467,7.573
			l4.361,25.311c0.551,3.199-0.76,6.434-3.384,8.346c-2.624,1.912-6.105,2.169-8.982,0.664l-22.937-12.003
			c-2.478-1.297-5.435-1.297-7.913,0l-22.937,12.003c-2.876,1.505-6.358,1.248-8.982-0.664c-2.624-1.912-3.936-5.147-3.384-8.346
			l4.361-25.311c0.478-2.777-0.445-5.611-2.467-7.573l-18.446-17.897c-2.334-2.265-3.178-5.66-2.176-8.755
			c1.003-3.094,3.677-5.35,6.896-5.815l25.561-3.697c2.776-0.402,5.178-2.142,6.424-4.655l11.46-23.114
			c1.44-2.905,4.403-4.743,7.645-4.743S261.205,153.462,262.645,156.367z"/>
		<g>
			<path style="fill:#FFFFFF;" d="M33.133,255.002c-0.215,50.025,14.329,99.001,41.813,140.8l-10.155,17.493
				C3.384,339.514-9.814,236.876,30.93,149.959S159.008,7.531,255,7.535c2.219,0,4.437,0,6.571,0.171
				C134.851,11.119,33.133,120.516,33.133,255.002z"/>
			<path style="fill:#FFFFFF;" d="M143.384,464.836l2.731,12.373c-23.815-11.577-45.577-26.97-64.427-45.568l16.811-5.376
				C111.759,440.98,126.842,453.941,143.384,464.836z"/>
			<path style="fill:#FFFFFF;" d="M261.571,502.298c-2.133,0.171-4.352,0.171-6.571,0.171c-31.948,0.065-63.602-6.109-93.184-18.176
				l3.755-6.571C195.321,493.014,228.132,501.413,261.571,502.298z"/>
		</g>
	</g>
	<g>
		<path style="fill:#FFFFFF;" d="M0,256.002c0.128-38.401,8.844-76.287,25.509-110.883c5.17-10.797,11.048-21.241,17.595-31.263
			c3.394-4.921,7.106-9.628,10.652-14.446c3.495-4.859,7.337-9.459,11.496-13.762c15.857-17.975,34.253-33.539,54.607-46.198
			C140.1,26.6,162.085,16.731,185.138,10.146C208.209,3.659,232.036,0.248,256,0.002v17.067
			c-22.368,0.247-44.607,3.434-66.144,9.481c-21.509,6.141-42.02,15.35-60.902,27.343c-19.007,11.81-36.181,26.341-50.977,43.128
			c-3.895,4.007-7.483,8.302-10.734,12.847c-3.302,4.503-6.781,8.886-9.954,13.477c-6.102,9.357-11.582,19.105-16.405,29.181
			c-15.553,32.286-23.691,67.64-23.818,103.477H0z"/>
		<g>
			<path style="fill:#428DFF;" d="M12.956,195.446c0.408,0.357,0.868,0.649,1.365,0.867c0.524,0.228,1.062,0.42,1.613,0.572
				c2.199,0.5,4.504,0.182,6.485-0.894c0.938-0.569,1.759-1.313,2.417-2.192c2.004-2.706,2.208-6.344,0.518-9.256
				c-0.552-0.951-1.267-1.798-2.113-2.502c-0.838-0.722-1.81-1.274-2.859-1.623c-2.19-0.669-4.553-0.474-6.604,0.545
				c-1.942,1.214-3.348,3.123-3.932,5.338c-0.557,2.255-0.26,4.636,0.835,6.684l0.979,1.33
				C12.038,194.75,12.474,195.13,12.956,195.446z"/>
			<path style="fill:#428DFF;" d="M256,0.002c-23.964,0.247-47.791,3.658-70.861,10.145c-23.053,6.585-45.038,16.454-65.279,29.303
				c-20.354,12.659-38.75,28.223-54.607,46.198c-4.16,4.304-8.002,8.903-11.496,13.762c-3.546,4.818-7.258,9.524-10.652,14.446
				c-6.547,10.022-12.424,20.466-17.595,31.263l-3.827,7.957c-0.976,2.096-1.038,4.503-0.173,6.648
				c0.865,2.144,2.58,3.834,4.737,4.667c4.282,1.624,9.093-0.31,11.06-4.445l3.579-7.42c4.823-10.076,10.304-19.824,16.405-29.181
				c3.172-4.591,6.652-8.974,9.954-13.477c3.251-4.545,6.839-8.84,10.734-12.847c14.795-16.788,31.97-31.318,50.976-43.129
				c18.881-11.993,39.393-21.202,60.902-27.342c21.537-6.046,43.776-9.234,66.144-9.481C346.453,16.961,429.192,68,469.685,148.883
				s31.778,177.707-22.506,250.059l-9.356-16.186c26.112-37.105,40.1-81.382,40.044-126.754
				c0-122.534-99.333-221.867-221.867-221.867S34.133,133.468,34.133,256.002c-0.056,45.372,13.932,89.649,40.044,126.754
				l-9.356,16.186c-30.91-41.253-47.661-91.392-47.755-142.941l0.841-16.464l0.432-8.23l1.252-8.143
				c0.566-4.602-2.593-8.834-7.167-9.599c-2.262-0.364-4.574,0.205-6.409,1.575c-1.835,1.37-3.037,3.426-3.331,5.698l-1.322,8.728
				l-0.481,8.809L0,256.002c0.05,57.761,19.607,113.813,55.501,159.068l-13.905,24.058c-1.762,3.052-1.467,6.872,0.743,9.617
				c2.21,2.745,5.88,3.849,9.237,2.778l28.983-9.292c17.558,16.644,37.435,30.658,59.011,41.604l4.581,21.093
				c0.743,3.447,3.531,6.081,7.014,6.629c3.483,0.548,6.945-1.103,8.711-4.155l6.679-11.571c57.682,21.561,121.21,21.561,178.892,0
				l6.679,11.571c1.766,3.052,5.228,4.703,8.711,4.154c3.483-0.548,6.27-3.182,7.014-6.629l4.581-21.093
				c21.576-10.946,41.453-24.959,59.011-41.604l28.983,9.292c3.357,1.07,7.027-0.034,9.236-2.779s2.505-6.565,0.743-9.617
				l-13.905-24.058c61.081-76.922,72.747-182.017,30.024-270.463C443.799,56.161,354.224-0.029,256,0.002z M51.2,256.002
				c0-113.108,91.692-204.8,204.8-204.8s204.8,91.692,204.8,204.8c0.059,39.147-11.213,77.474-32.456,110.355l-45.927-79.46
				c0.272-0.41,0.635-0.731,0.883-1.161c3.957-6.821,4.044-15.219,0.229-22.121c-0.766-1.384-0.892-3.032-0.346-4.517
				c0.576-1.564,1.805-2.8,3.367-3.383c7.405-2.851,12.777-9.371,14.159-17.184s-1.427-15.781-7.405-20.999
				c-1.222-1.054-1.924-2.59-1.921-4.204s0.711-3.147,1.938-4.196c5.972-5.221,8.775-13.186,7.39-20.997
				c-1.385-7.81-6.758-14.326-14.161-17.174l-0.179-0.071c-1.48-0.604-2.637-1.806-3.183-3.308c-0.55-1.5-0.416-3.166,0.367-4.558
				c3.795-6.893,3.701-15.27-0.25-22.075c-3.978-6.943-11.304-11.291-19.304-11.458c-1.698-0.029-3.3-0.795-4.388-2.1
				c-1.036-1.218-1.488-2.829-1.237-4.408c1.175-7.762-1.781-15.576-7.8-20.617c-6.114-5.188-14.492-6.811-22.1-4.279
				c-1.628,0.532-3.405,0.345-4.887-0.513c-1.404-0.8-2.398-2.164-2.729-3.746c-1.589-7.72-7.078-14.058-14.492-16.733
				c-7.484-2.777-15.873-1.468-22.154,3.458c-1.338,1.049-3.061,1.474-4.733,1.167c-1.657-0.284-3.111-1.268-3.992-2.7
				c-4.189-6.719-11.562-10.788-19.48-10.75h-0.004c-7.941-0.034-15.33,4.057-19.517,10.804c-0.884,1.405-2.326,2.366-3.963,2.642
				c-1.675,0.304-3.399-0.121-4.742-1.167c-6.277-4.922-14.659-6.231-22.138-3.458c-7.415,2.677-12.905,9.016-14.496,16.738
				c-0.332,1.58-1.326,2.943-2.729,3.742c-1.498,0.873-3.301,1.053-4.942,0.492c-7.593-2.515-15.949-0.887-22.042,4.296
				c-6.03,5.05-8.986,12.883-7.796,20.658c0.236,1.566-0.219,3.157-1.246,4.362c-1.093,1.307-2.7,2.075-4.404,2.104
				c-7.995,0.169-15.316,4.516-19.292,11.454c-3.957,6.821-4.044,15.219-0.229,22.121c0.766,1.384,0.892,3.032,0.346,4.517
				c-0.576,1.564-1.805,2.8-3.367,3.383c-7.405,2.851-12.777,9.371-14.159,17.184c-1.382,7.814,1.427,15.781,7.405,20.999
				c1.222,1.054,1.924,2.59,1.921,4.204c-0.003,1.614-0.711,3.147-1.938,4.196c-5.972,5.221-8.776,13.186-7.39,20.997
				c1.385,7.81,6.758,14.326,14.161,17.174l0.179,0.071c1.48,0.604,2.636,1.806,3.183,3.308c0.55,1.5,0.416,3.165-0.367,4.558
				c-3.795,6.893-3.701,15.27,0.25,22.075c0.25,0.433,0.616,0.758,0.89,1.17l-45.928,79.464
				C62.413,333.475,51.141,295.148,51.2,256.002z M341.483,306.214c0.289,1.912-0.447,3.835-1.937,5.067
				c-1.596,1.367-3.8,1.781-5.783,1.087c-6.244-2.033-13.058-1.317-18.742,1.971c-5.599,3.238-9.556,8.706-10.879,15.037
				c-0.406,1.938-1.795,3.523-3.663,4.179c-1.945,0.738-4.134,0.401-5.767-0.887c-5.142-4.012-11.743-5.656-18.166-4.526
				c-6.423,1.13-12.066,4.929-15.53,10.455c-1.097,1.705-2.986,2.737-5.013,2.737c-2.028,0.001-3.917-1.029-5.016-2.733
				l-0.038-0.058c-3.475-5.508-9.119-9.289-15.535-10.408c-6.416-1.119-13.006,0.529-18.14,4.537
				c-1.632,1.284-3.817,1.619-5.758,0.883c-1.87-0.657-3.261-2.243-3.667-4.183c-1.322-6.331-5.277-11.799-10.875-15.037
				c-5.702-3.296-12.538-4.007-18.796-1.954c-1.973,0.663-4.149,0.242-5.733-1.108c-1.5-1.242-2.234-3.184-1.929-5.108
				c0.945-6.398-0.893-12.895-5.05-17.85c-4.241-5.039-10.437-8.021-17.021-8.192c-2.051-0.022-3.938-1.129-4.958-2.908
				c-0.976-1.675-0.99-3.741-0.037-5.429c3.105-5.69,3.615-12.441,1.4-18.533c-2.252-6.156-7.042-11.046-13.15-13.425l-0.183-0.071
				c-1.802-0.725-3.1-2.332-3.429-4.246c-0.345-1.922,0.36-3.883,1.85-5.146c4.923-4.293,7.747-10.506,7.746-17.037
				c-0.002-6.532-2.829-12.743-7.754-17.033c-1.486-1.263-2.188-3.222-1.842-5.142c0.346-1.981,1.723-3.627,3.613-4.317
				c6.092-2.348,10.874-7.211,13.121-13.34c2.247-6.13,1.74-12.931-1.391-18.66c-0.933-1.678-0.91-3.724,0.062-5.379
				c1.022-1.787,2.916-2.898,4.975-2.917c6.578-0.172,12.768-3.152,17.004-8.187c4.167-4.967,6.004-11.483,5.046-17.896
				c-0.289-1.912,0.447-3.835,1.937-5.067c1.596-1.368,3.8-1.783,5.783-1.087c6.244,2.035,13.058,1.319,18.742-1.971
				c5.599-3.238,9.556-8.706,10.879-15.037c0.406-1.938,1.795-3.523,3.663-4.179c1.945-0.734,4.132-0.397,5.767,0.887
				c5.142,4.012,11.743,5.656,18.166,4.526c6.423-1.13,12.066-4.929,15.53-10.455c1.104-1.716,3.008-2.748,5.048-2.737
				c2.04,0.011,3.933,1.064,5.018,2.791c3.475,5.509,9.118,9.291,15.535,10.409c6.416,1.119,13.007-0.53,18.14-4.538
				c1.633-1.282,3.817-1.617,5.758-0.883c1.87,0.657,3.261,2.243,3.667,4.183c1.322,6.331,5.277,11.799,10.875,15.037
				c5.701,3.3,12.538,4.011,18.796,1.954c1.973-0.66,4.148-0.24,5.733,1.108c1.5,1.242,2.234,3.184,1.929,5.108
				c-0.945,6.398,0.893,12.895,5.05,17.85c4.241,5.039,10.437,8.021,17.021,8.192c2.051,0.022,3.938,1.129,4.958,2.908
				c0.976,1.675,0.99,3.741,0.037,5.429c-3.105,5.69-3.615,12.441-1.4,18.533c2.252,6.156,7.042,11.046,13.15,13.425l0.183,0.071
				c1.802,0.725,3.1,2.332,3.429,4.246c0.345,1.922-0.36,3.883-1.85,5.146c-4.923,4.293-7.747,10.506-7.746,17.037
				c0.002,6.532,2.829,12.743,7.754,17.034c1.486,1.263,2.188,3.222,1.842,5.142c-0.346,1.981-1.723,3.627-3.612,4.317
				c-6.092,2.348-10.874,7.211-13.121,13.34c-2.247,6.13-1.74,12.931,1.391,18.66c0.933,1.678,0.91,3.724-0.062,5.379
				c-1.022,1.787-2.916,2.898-4.975,2.917c-6.578,0.172-12.768,3.152-17.004,8.188C342.362,293.286,340.525,299.802,341.483,306.214
				z M247.03,356.421c2.823,1.258,5.872,1.931,8.962,1.98h0.004c3.094-0.049,6.146-0.724,8.971-1.986l54.335,94.127
				c-41.151,13.321-85.455,13.321-126.605,0L247.03,356.421z M143.73,296.523c1.4,0.352,2.829,0.572,4.27,0.658
				c1.698,0.029,3.3,0.795,4.387,2.1c1.036,1.218,1.488,2.829,1.237,4.408c-1.175,7.762,1.781,15.576,7.8,20.617
				c6.114,5.188,14.492,6.81,22.1,4.279c1.628-0.535,3.406-0.348,4.887,0.513c1.404,0.8,2.398,2.164,2.729,3.746
				c1.589,7.72,7.078,14.058,14.492,16.733c7.483,2.782,15.875,1.472,22.154-3.458c1.34-1.044,3.061-1.469,4.733-1.167
				c0.405,0.106,0.803,0.241,1.189,0.403l-77.535,134.372l-14.2-65.271c-0.508-2.354-1.987-4.383-4.071-5.588
				s-4.582-1.472-6.874-0.737L67.405,428.56L143.73,296.523z M99.297,436.222l27.982-8.971l7.53,34.67
				C122.192,454.488,110.303,445.883,99.297,436.222L99.297,436.222z M175.199,480.854l8.789-15.226
				c46.62,16.32,97.402,16.32,144.022,0l8.789,15.226C284.541,499.47,227.458,499.47,175.199,480.854L175.199,480.854z
				 M377.19,461.922l7.53-34.67l27.982,8.971C401.697,445.883,389.807,454.488,377.19,461.922z M380.971,408.131
				c-2.293-0.735-4.79-0.468-6.874,0.737c-2.085,1.205-3.564,3.234-4.071,5.588l-14.2,65.271l-77.553-134.403
				c0.388-0.161,0.791-0.284,1.203-0.368c1.675-0.307,3.4,0.118,4.742,1.167c6.276,4.923,14.659,6.233,22.138,3.458
				c7.415-2.677,12.905-9.016,14.496-16.738c0.332-1.58,1.326-2.943,2.729-3.742c1.497-0.874,3.301-1.054,4.942-0.492
				c7.594,2.51,15.947,0.882,22.042-4.296c6.03-5.05,8.986-12.883,7.796-20.658c-0.236-1.566,0.219-3.157,1.246-4.362
				c1.093-1.307,2.7-2.075,4.404-2.104c1.439-0.086,2.868-0.306,4.266-0.658l76.321,132.029L380.971,408.131z"/>
			<path style="fill:#428DFF;" d="M322.104,192.019c-1.981-6.204-7.342-10.724-13.792-11.629l-25.562-3.7l-11.458-23.113
				c-2.88-5.812-8.806-9.488-15.292-9.488c-6.486,0-12.412,3.677-15.292,9.488l-11.458,23.113l-25.562,3.7
				c-6.438,0.931-11.787,5.441-13.792,11.629c-2.005,6.188-0.318,12.978,4.35,17.508l18.446,17.896l-4.358,25.313
				c-1.121,6.403,1.498,12.886,6.751,16.714c5.253,3.828,12.227,4.335,17.978,1.307l22.942-12l22.929,11.996
				c5.752,3.013,12.716,2.501,17.965-1.323c5.249-3.823,7.872-10.295,6.768-16.694l-4.358-25.308l18.446-17.9
				C322.446,205.01,324.136,198.206,322.104,192.019z M287.429,215.173c-4.052,3.922-5.901,9.594-4.938,15.15l4.354,25.308
				l-22.925-11.996c-4.958-2.597-10.874-2.599-15.833-0.004l-22.938,12.004l4.358-25.313c0.963-5.554-0.884-11.225-4.933-15.146
				l-18.446-17.896l25.558-3.7c5.555-0.8,10.361-4.281,12.854-9.308l11.429-23.167l11.488,23.167
				c2.493,5.026,7.297,8.507,12.85,9.308l25.563,3.696L287.429,215.173z"/>
			<path style="fill:#428DFF;" d="M341.972,283.322c36.869-45.188,32.458-111.207-10.096-151.087s-108.72-40.006-151.424-0.287
				s-47.366,105.721-10.668,151.048c0.262,0.399,0.557,0.775,0.882,1.123c17.228,20.732,41.419,34.476,68.047,38.663
				c0.304,0.079,0.613,0.141,0.924,0.186l0.13-0.025c38.367,6.038,77.053-8.759,101.597-38.858
				C341.582,283.843,341.785,283.588,341.972,283.322z M256,307.202c-51.841,0-93.867-42.026-93.867-93.867
				s42.026-93.867,93.867-93.867s93.867,42.026,93.867,93.867C349.808,265.152,307.817,307.143,256,307.202z"/>
		</g>
	</g>
</g>
<g>
</g>
<g>
</g>
<g>
</g>
<g>
</g>
<g>
</g>
<g>
</g>
<g>
</g>
<g>
</g>
<g>
</g>
<g>
</g>
<g>
</g>
<g>
</g>
<g>
</g>
<g>
</g>
<g>
</g>
</svg>
