<?xml version="1.0" encoding="utf-8"?>
<!-- Generator: Adobe Illustrator 21.0.0, SVG Export Plug-In . SVG Version: 6.00 Build 0)  -->
<svg version="1.1" id="Capa_1" xmlns="http://www.w3.org/2000/svg" xmlns:xlink="http://www.w3.org/1999/xlink" x="0px" y="0px"
	 viewBox="0 0 700 900" style="enable-background:new 0 0 700 900;" xml:space="preserve">
<style type="text/css">
	.st0{fill:none;stroke:#757575;stroke-width:7;stroke-miterlimit:10;}
	.st1{fill:none;stroke:#A2A2A2;stroke-width:10;stroke-miterlimit:10;}
	.st2{fill:none;stroke:#757575;stroke-width:7;stroke-linecap:round;stroke-miterlimit:10;}
	.st3{fill:none;stroke:#A2A2A2;stroke-width:10;stroke-linecap:round;stroke-miterlimit:10;}
	.st4{fill:none;stroke:#A2A2A2;stroke-width:9;stroke-linecap:round;stroke-miterlimit:10;}
	.st5{enable-background:new    ;}
	.st6{fill:#3CFFCD;}
	.st7{fill:#4E4F4E;}
	.st8{fill:#2CA0E8;}
	.st9{fill:none;stroke:#2CA0E8;stroke-width:4;stroke-miterlimit:10;}
</style>
<line class="st0" x1="643.1" y1="473.8" x2="643.1" y2="473.8"/>
<line class="st1" x1="470.7" y1="96.9" x2="478.8" y2="750.6"/>
<line class="st2" x1="470.9" y1="111.9" x2="584.1" y2="33.8"/>
<line class="st3" x1="643.6" y1="102.9" x2="673.1" y2="750.6"/>
<line class="st2" x1="584.1" y1="33.8" x2="644.4" y2="120.7"/>
<line class="st2" x1="470.9" y1="111.9" x2="638.6" y2="112.4"/>
<line class="st2" x1="474.8" y1="241.9" x2="585.8" y2="76.3"/>
<line class="st2" x1="585.8" y1="76.3" x2="649.5" y2="233.3"/>
<line class="st2" x1="474.8" y1="241.9" x2="646" y2="155.9"/>
<line class="st2" x1="474.8" y1="258.5" x2="653.4" y2="335.8"/>
<line class="st2" x1="474.8" y1="426.8" x2="594.3" y2="288.9"/>
<line class="st2" x1="474.8" y1="426.8" x2="654.7" y2="347.3"/>
<line class="st2" x1="475" y1="440" x2="658.3" y2="530.9"/>
<line class="st2" x1="602.9" y1="503.4" x2="477.3" y2="631.8"/>
<line class="st2" x1="482" y1="631.9" x2="605.4" y2="567.6"/>
<line class="st2" x1="477.5" y1="644.4" x2="612.5" y2="744"/>
<line class="st2" x1="612.5" y1="744" x2="668.3" y2="646.9"/>
<line class="st2" x1="672.7" y1="742.6" x2="482.5" y2="640.4"/>
<line class="st2" x1="602.9" y1="503.4" x2="658.3" y2="440"/>
<line class="st2" x1="602.9" y1="503.4" x2="667.7" y2="633.4"/>
<line class="st2" x1="605.4" y1="567.6" x2="663.4" y2="538.7"/>
<line class="st2" x1="593.7" y1="273.5" x2="650.3" y2="249.5"/>
<line class="st2" x1="477" y1="254.9" x2="593.7" y2="273.5"/>
<line class="st2" x1="658.2" y1="423.8" x2="594.9" y2="305.1"/>
<line class="st4" x1="583.3" y1="14.5" x2="612.8" y2="750.6"/>
<g class="st5">
	<path class="st6" d="M16.7,947.5c1.4,0.9,3.5,1.6,5.8,1.6c3.3,0,5.2-1.7,5.2-4.1c0-2.3-1.3-3.6-4.7-4.8c-4.1-1.4-6.6-3.5-6.6-6.9
		c0-3.8,3.2-6.6,8-6.6c2.5,0,4.4,0.6,5.5,1.2l-0.9,2.6c-0.8-0.4-2.5-1.2-4.7-1.2c-3.4,0-4.7,2-4.7,3.6c0,2.3,1.5,3.4,4.9,4.7
		c4.2,1.6,6.3,3.6,6.3,7.1c0,3.7-2.8,7-8.7,7c-2.4,0-5-0.7-6.3-1.5L16.7,947.5z"/>
	<path class="st6" d="M37.2,943.1c0.1,4.3,2.9,6,6.1,6c2.3,0,3.7-0.4,4.9-0.9l0.6,2.3c-1.1,0.5-3.1,1.1-5.9,1.1
		c-5.5,0-8.8-3.5-8.8-8.8c0-5.3,3.2-9.4,8.4-9.4c5.8,0,7.4,5,7.4,8.2c0,0.6-0.1,1.2-0.1,1.5H37.2z M46.7,940.9c0-2-0.8-5.1-4.5-5.1
		c-3.3,0-4.7,3-5,5.1H46.7z"/>
	<path class="st6" d="M53.9,939.3c0-2.1,0-3.8-0.1-5.4h2.8l0.1,3.4h0.1c0.8-2.3,2.8-3.8,4.9-3.8c0.4,0,0.6,0,0.9,0.1v3
		c-0.3-0.1-0.7-0.1-1.1-0.1c-2.3,0-3.9,1.7-4.4,4.1c-0.1,0.4-0.1,0.9-0.1,1.5v9.3h-3.2V939.3z"/>
	<path class="st6" d="M68.1,933.9l3.5,9.8c0.6,1.6,1.1,3,1.4,4.5h0.1c0.4-1.4,0.9-2.9,1.5-4.5l3.5-9.8h3.4l-7,17.4h-3.1l-6.8-17.4
		H68.1z"/>
	<path class="st6" d="M88.2,929c0,1.1-0.8,1.9-2.1,1.9c-1.1,0-2-0.9-2-1.9c0-1.1,0.8-2,2-2C87.4,927,88.2,927.9,88.2,929z
		 M84.6,951.3v-17.4h3.2v17.4H84.6z"/>
	<path class="st6" d="M106,950.6c-0.8,0.4-2.7,1-5.1,1c-5.4,0-8.9-3.6-8.9-8.9c0-5.4,3.8-9.3,9.6-9.3c1.9,0,3.6,0.5,4.5,0.9
		l-0.7,2.4c-0.8-0.4-2-0.8-3.8-0.8c-4.1,0-6.3,3-6.3,6.6c0,4,2.7,6.5,6.2,6.5c1.8,0,3.1-0.5,4-0.9L106,950.6z"/>
	<path class="st6" d="M113.4,929c0,1.1-0.8,1.9-2.1,1.9c-1.1,0-2-0.9-2-1.9c0-1.1,0.8-2,2-2C112.6,927,113.4,927.9,113.4,929z
		 M109.8,951.3v-17.4h3.2v17.4H109.8z"/>
	<path class="st6" d="M134.5,942.4c0,6.4-4.6,9.3-8.9,9.3c-4.8,0-8.6-3.5-8.6-9c0-5.8,3.9-9.3,8.9-9.3
		C131.1,933.5,134.5,937.1,134.5,942.4z M120.4,942.6c0,3.8,2.3,6.7,5.4,6.7c3.1,0,5.4-2.8,5.4-6.8c0-3-1.5-6.7-5.3-6.7
		C122,935.8,120.4,939.3,120.4,942.6z"/>
	<path class="st6" d="M138.2,948c1,0.6,2.7,1.3,4.3,1.3c2.4,0,3.5-1.2,3.5-2.6c0-1.5-0.9-2.3-3.3-3.2c-3.2-1.1-4.7-2.8-4.7-4.9
		c0-2.8,2.3-5.1,6.2-5.1c1.8,0,3.4,0.5,4.4,1.1l-0.8,2.3c-0.7-0.4-2-1-3.7-1c-1.9,0-3,1.1-3,2.4c0,1.4,1.1,2.1,3.4,3
		c3.1,1.2,4.7,2.7,4.7,5.3c0,3.1-2.4,5.2-6.7,5.2c-2,0-3.8-0.5-5-1.2L138.2,948z"/>
	<path class="st6" d="M176.5,925.7v21.1c0,1.5,0,3.3,0.1,4.5h-2.9l-0.1-3h-0.1c-1,1.9-3.2,3.4-6.1,3.4c-4.3,0-7.6-3.6-7.6-8.9
		c0-5.8,3.7-9.4,8-9.4c2.7,0,4.6,1.3,5.4,2.7h0.1v-10.4H176.5z M173.2,941c0-0.4,0-0.9-0.1-1.3c-0.5-2-2.2-3.7-4.7-3.7
		c-3.4,0-5.3,2.9-5.3,6.7c0,3.5,1.8,6.4,5.3,6.4c2.2,0,4.2-1.4,4.8-3.8c0.1-0.4,0.1-0.9,0.1-1.4V941z"/>
	<path class="st6" d="M183.7,943.1c0.1,4.3,2.9,6,6.1,6c2.3,0,3.7-0.4,4.9-0.9l0.6,2.3c-1.1,0.5-3.1,1.1-5.9,1.1
		c-5.5,0-8.8-3.5-8.8-8.8c0-5.3,3.2-9.4,8.4-9.4c5.8,0,7.4,5,7.4,8.2c0,0.6-0.1,1.2-0.1,1.5H183.7z M193.2,940.9
		c0-2-0.8-5.1-4.5-5.1c-3.3,0-4.7,3-5,5.1H193.2z"/>
	<path class="st6" d="M212.3,943.7l-2.6,7.6h-3.3l8.4-24.3h3.9l8.5,24.3h-3.4l-2.7-7.6H212.3z M220.4,941.2l-2.4-7
		c-0.6-1.6-0.9-3-1.3-4.4h-0.1c-0.4,1.4-0.8,2.9-1.3,4.4l-2.4,7H220.4z"/>
	<path class="st6" d="M230,948c1,0.6,2.7,1.3,4.3,1.3c2.4,0,3.5-1.2,3.5-2.6c0-1.5-0.9-2.3-3.3-3.2c-3.2-1.1-4.7-2.8-4.7-4.9
		c0-2.8,2.3-5.1,6.2-5.1c1.8,0,3.4,0.5,4.4,1.1l-0.8,2.3c-0.7-0.4-2-1-3.7-1c-1.9,0-3,1.1-3,2.4c0,1.4,1.1,2.1,3.4,3
		c3.1,1.2,4.7,2.7,4.7,5.3c0,3.1-2.4,5.2-6.7,5.2c-2,0-3.8-0.5-5-1.2L230,948z"/>
	<path class="st6" d="M246.9,943.1c0.1,4.3,2.9,6,6.1,6c2.3,0,3.7-0.4,4.9-0.9l0.6,2.3c-1.1,0.5-3.1,1.1-5.9,1.1
		c-5.5,0-8.8-3.5-8.8-8.8c0-5.3,3.2-9.4,8.4-9.4c5.8,0,7.4,5,7.4,8.2c0,0.6-0.1,1.2-0.1,1.5H246.9z M256.4,940.9
		c0-2-0.8-5.1-4.5-5.1c-3.3,0-4.7,3-5,5.1H256.4z"/>
	<path class="st6" d="M263.1,948c1,0.6,2.7,1.3,4.3,1.3c2.4,0,3.5-1.2,3.5-2.6c0-1.5-0.9-2.3-3.3-3.2c-3.2-1.1-4.7-2.8-4.7-4.9
		c0-2.8,2.3-5.1,6.2-5.1c1.8,0,3.4,0.5,4.4,1.1l-0.8,2.3c-0.7-0.4-2-1-3.7-1c-1.9,0-3,1.1-3,2.4c0,1.4,1.1,2.1,3.4,3
		c3.1,1.2,4.7,2.7,4.7,5.3c0,3.1-2.4,5.2-6.7,5.2c-2,0-3.8-0.5-5-1.2L263.1,948z"/>
	<path class="st6" d="M294.3,942.4c0,6.4-4.6,9.3-8.9,9.3c-4.8,0-8.6-3.5-8.6-9c0-5.8,3.9-9.3,8.9-9.3
		C290.8,933.5,294.3,937.1,294.3,942.4z M280.2,942.6c0,3.8,2.3,6.7,5.4,6.7c3.1,0,5.4-2.8,5.4-6.8c0-3-1.5-6.7-5.3-6.7
		C281.8,935.8,280.2,939.3,280.2,942.6z"/>
	<path class="st6" d="M298.4,939.3c0-2.1,0-3.8-0.1-5.4h2.8l0.1,3.4h0.1c0.8-2.3,2.8-3.8,4.9-3.8c0.4,0,0.6,0,0.9,0.1v3
		c-0.3-0.1-0.7-0.1-1.1-0.1c-2.3,0-3.9,1.7-4.4,4.1c-0.1,0.4-0.1,0.9-0.1,1.5v9.3h-3.2V939.3z"/>
	<path class="st6" d="M317.2,926.3l-4.5,5.1h-2.3l3.2-5.1H317.2z M310.6,951.3v-17.4h3.2v17.4H310.6z"/>
	<path class="st6" d="M329.1,951.3l-0.3-2.2h-0.1c-1,1.4-2.9,2.6-5.5,2.6c-3.6,0-5.5-2.5-5.5-5c0-4.2,3.8-6.5,10.7-6.5v-0.4
		c0-1.4-0.4-4-4.1-4c-1.7,0-3.4,0.5-4.6,1.3l-0.7-2.1c1.5-0.9,3.6-1.5,5.9-1.5c5.5,0,6.8,3.6,6.8,7.1v6.5c0,1.5,0.1,3,0.3,4.2H329.1
		z M328.6,942.4c-3.5-0.1-7.6,0.5-7.6,3.9c0,2.1,1.4,3,3.1,3c2.3,0,3.8-1.4,4.3-2.9c0.1-0.3,0.2-0.7,0.2-1V942.4z"/>
	<path class="st6" d="M348.1,929.7h-7.6V927H359v2.7h-7.6v21.6h-3.2V929.7z"/>
	<path class="st6" d="M360.8,943.1c0.1,4.3,2.9,6,6.1,6c2.3,0,3.7-0.4,4.9-0.9l0.6,2.3c-1.1,0.5-3.1,1.1-5.9,1.1
		c-5.5,0-8.8-3.5-8.8-8.8c0-5.3,3.2-9.4,8.4-9.4c5.8,0,7.4,5,7.4,8.2c0,0.6-0.1,1.2-0.1,1.5H360.8z M370.3,940.9
		c0-2-0.8-5.1-4.5-5.1c-3.3,0-4.7,3-5,5.1H370.3z M371.1,926.3l-4.5,5.1h-2.3l3.2-5.1H371.1z"/>
	<path class="st6" d="M390.2,950.6c-0.8,0.4-2.7,1-5.1,1c-5.4,0-8.9-3.6-8.9-8.9c0-5.4,3.8-9.3,9.6-9.3c1.9,0,3.6,0.5,4.5,0.9
		l-0.7,2.4c-0.8-0.4-2-0.8-3.8-0.8c-4.1,0-6.3,3-6.3,6.6c0,4,2.7,6.5,6.2,6.5c1.8,0,3.1-0.5,4-0.9L390.2,950.6z"/>
	<path class="st6" d="M394,938.6c0-1.8,0-3.3-0.1-4.7h2.9l0.2,2.9h0.1c0.9-1.7,3-3.3,5.9-3.3c2.5,0,6.3,1.4,6.3,7.4v10.4H406v-10
		c0-2.8-1.1-5.1-4.1-5.1c-2.1,0-3.8,1.5-4.4,3.2c-0.1,0.4-0.2,0.9-0.2,1.5v10.5H394V938.6z"/>
	<path class="st6" d="M418.1,929c0,1.1-0.8,1.9-2.1,1.9c-1.1,0-2-0.9-2-1.9c0-1.1,0.8-2,2-2C417.3,927,418.1,927.9,418.1,929z
		 M414.5,951.3v-17.4h3.2v17.4H414.5z"/>
	<path class="st6" d="M435.8,950.6c-0.8,0.4-2.7,1-5.1,1c-5.4,0-8.9-3.6-8.9-8.9c0-5.4,3.8-9.3,9.6-9.3c1.9,0,3.6,0.5,4.5,0.9
		l-0.7,2.4c-0.8-0.4-2-0.8-3.8-0.8c-4.1,0-6.3,3-6.3,6.6c0,4,2.7,6.5,6.2,6.5c1.8,0,3.1-0.5,4-0.9L435.8,950.6z"/>
	<path class="st6" d="M449.5,951.3l-0.3-2.2h-0.1c-1,1.4-2.9,2.6-5.5,2.6c-3.6,0-5.5-2.5-5.5-5c0-4.2,3.8-6.5,10.7-6.5v-0.4
		c0-1.4-0.4-4-4.1-4c-1.7,0-3.4,0.5-4.6,1.3l-0.7-2.1c1.5-0.9,3.6-1.5,5.9-1.5c5.5,0,6.8,3.6,6.8,7.1v6.5c0,1.5,0.1,3,0.3,4.2H449.5
		z M449,942.4c-3.5-0.1-7.6,0.5-7.6,3.9c0,2.1,1.4,3,3.1,3c2.3,0,3.8-1.4,4.3-2.9c0.1-0.3,0.2-0.7,0.2-1V942.4z"/>
	<path class="st6" d="M466.4,933.9l3.9,10.3c0.4,1.2,0.8,2.5,1.1,3.6h0.1c0.3-1,0.7-2.4,1.1-3.6l3.5-10.2h3.4l-4.9,12.4
		c-2.3,6-3.9,9-6.1,10.9c-1.6,1.4-3.2,1.9-4,2.1l-0.8-2.7c0.8-0.3,1.9-0.8,2.8-1.5c0.9-0.7,2-1.9,2.7-3.5c0.1-0.3,0.3-0.6,0.3-0.8
		s-0.1-0.4-0.2-0.8l-6.6-16.1H466.4z"/>
</g>
<g class="st5">
	<path class="st7" d="M-325,750.4c-1.4,0.5-4.3,1.3-7.6,1.3c-3.8,0-6.9-0.9-9.3-3.2c-2.1-2-3.5-5.3-3.5-9c0-7.2,5.1-12.5,13.5-12.5
		c2.9,0,5.1,0.6,6.2,1.1l-0.8,2.6c-1.3-0.6-3-1-5.5-1c-6,0-10,3.7-10,9.8c0,6.2,3.8,9.8,9.6,9.8c2.1,0,3.5-0.3,4.3-0.6v-7.2h-5.1
		v-2.5h8.2V750.4z"/>
	<path class="st7" d="M-318.2,743.3c0.1,4.3,2.9,6,6.1,6c2.3,0,3.7-0.4,4.9-0.9l0.6,2.3c-1.1,0.5-3.1,1.1-5.9,1.1
		c-5.5,0-8.8-3.5-8.8-8.8c0-5.3,3.2-9.4,8.4-9.4c5.8,0,7.4,5,7.4,8.2c0,0.6-0.1,1.2-0.1,1.5H-318.2z M-308.7,741.1
		c0-2-0.8-5.1-4.5-5.1c-3.3,0-4.7,3-5,5.1H-308.7z"/>
	<path class="st7" d="M-301.9,748.2c1,0.6,2.7,1.3,4.3,1.3c2.4,0,3.5-1.2,3.5-2.6c0-1.5-0.9-2.3-3.3-3.2c-3.2-1.1-4.7-2.8-4.7-4.9
		c0-2.8,2.3-5.1,6.2-5.1c1.8,0,3.4,0.5,4.4,1.1l-0.8,2.3c-0.7-0.4-2-1-3.7-1c-1.9,0-3,1.1-3,2.4c0,1.4,1.1,2.1,3.4,3
		c3.1,1.2,4.7,2.7,4.7,5.3c0,3.1-2.4,5.2-6.7,5.2c-2,0-3.8-0.5-5-1.2L-301.9,748.2z"/>
	<path class="st7" d="M-283,729.1v5h4.6v2.4h-4.6v9.4c0,2.2,0.6,3.4,2.4,3.4c0.8,0,1.5-0.1,1.9-0.2l0.1,2.4
		c-0.6,0.3-1.6,0.4-2.9,0.4c-1.5,0-2.7-0.5-3.5-1.3c-0.9-0.9-1.3-2.5-1.3-4.5v-9.5h-2.8v-2.4h2.8v-4.2L-283,729.1z"/>
	<path class="st7" d="M-271.1,729.2c0,1.1-0.8,1.9-2.1,1.9c-1.1,0-2-0.9-2-1.9c0-1.1,0.8-2,2-2
		C-271.9,727.2-271.1,728.1-271.1,729.2z M-274.7,751.5v-17.4h3.2v17.4H-274.7z"/>
	<path class="st7" d="M-249.9,742.6c0,6.4-4.6,9.3-8.9,9.3c-4.8,0-8.6-3.5-8.6-9c0-5.8,3.9-9.3,8.9-9.3
		C-253.4,733.7-249.9,737.3-249.9,742.6z M-264.1,742.8c0,3.8,2.3,6.7,5.4,6.7c3.1,0,5.4-2.8,5.4-6.8c0-3-1.5-6.7-5.3-6.7
		C-262.4,736-264.1,739.5-264.1,742.8z"/>
	<path class="st7" d="M-245.8,738.8c0-1.8,0-3.3-0.1-4.7h2.9l0.2,2.9h0.1c0.9-1.7,3-3.3,5.9-3.3c2.5,0,6.3,1.4,6.3,7.4v10.4h-3.2
		v-10c0-2.8-1.1-5.1-4.1-5.1c-2.1,0-3.8,1.5-4.4,3.2c-0.1,0.4-0.2,0.9-0.2,1.5v10.5h-3.2V738.8z"/>
	<path class="st7" d="M-223.6,743.3c0.1,4.3,2.9,6,6.1,6c2.3,0,3.7-0.4,4.9-0.9l0.6,2.3c-1.1,0.5-3.1,1.1-5.9,1.1
		c-5.5,0-8.8-3.5-8.8-8.8c0-5.3,3.2-9.4,8.4-9.4c5.8,0,7.4,5,7.4,8.2c0,0.6-0.1,1.2-0.1,1.5H-223.6z M-214,741.1
		c0-2-0.8-5.1-4.5-5.1c-3.3,0-4.7,3-5,5.1H-214z"/>
	<path class="st7" d="M-207.3,748.2c1,0.6,2.7,1.3,4.3,1.3c2.4,0,3.5-1.2,3.5-2.6c0-1.5-0.9-2.3-3.3-3.2c-3.2-1.1-4.7-2.8-4.7-4.9
		c0-2.8,2.3-5.1,6.2-5.1c1.8,0,3.4,0.5,4.4,1.1l-0.8,2.3c-0.7-0.4-2-1-3.7-1c-1.9,0-3,1.1-3,2.4c0,1.4,1.1,2.1,3.4,3
		c3.1,1.2,4.7,2.7,4.7,5.3c0,3.1-2.4,5.2-6.7,5.2c-2,0-3.8-0.5-5-1.2L-207.3,748.2z"/>
	<path class="st7" d="M-163.4,740.8c-0.2-3.4-0.4-7.5-0.4-10.5h-0.1c-0.8,2.8-1.9,5.9-3.1,9.2l-4.4,11.8h-2.4l-4-11.6
		c-1.2-3.4-2.2-6.6-2.9-9.4h-0.1c-0.1,3-0.3,7.1-0.5,10.7l-0.7,10.4h-3.1l1.7-24.3h4.1l4.2,11.7c1,3,1.9,5.7,2.5,8.2h0.1
		c0.6-2.4,1.5-5.1,2.6-8.2l4.4-11.7h4.1l1.5,24.3h-3.1L-163.4,740.8z"/>
	<path class="st7" d="M-144.7,751.5l-0.3-2.2h-0.1c-1,1.4-2.9,2.6-5.5,2.6c-3.6,0-5.5-2.5-5.5-5c0-4.2,3.8-6.5,10.7-6.5V740
		c0-1.4-0.4-4-4.1-4c-1.7,0-3.4,0.5-4.6,1.3l-0.7-2.1c1.5-0.9,3.6-1.5,5.9-1.5c5.5,0,6.8,3.6,6.8,7.1v6.5c0,1.5,0.1,3,0.3,4.2
		H-144.7z M-145.2,742.6c-3.5-0.1-7.6,0.5-7.6,3.9c0,2.1,1.4,3,3.1,3c2.3,0,3.8-1.4,4.3-2.9c0.1-0.3,0.2-0.7,0.2-1V742.6z"/>
	<path class="st7" d="M-136.8,739.5c0-2.1,0-3.8-0.1-5.4h2.8l0.1,3.4h0.1c0.8-2.3,2.8-3.8,4.9-3.8c0.4,0,0.6,0,0.9,0.1v3
		c-0.3-0.1-0.7-0.1-1.1-0.1c-2.3,0-3.9,1.7-4.4,4.1c-0.1,0.4-0.1,0.9-0.1,1.5v9.3h-3.2V739.5z"/>
	<path class="st7" d="M-118,726.5l-4.5,5.1h-2.3l3.2-5.1H-118z M-124.6,751.5v-17.4h3.2v17.4H-124.6z"/>
	<path class="st7" d="M-112.1,729.1v5h4.6v2.4h-4.6v9.4c0,2.2,0.6,3.4,2.4,3.4c0.8,0,1.5-0.1,1.9-0.2l0.1,2.4
		c-0.6,0.3-1.6,0.4-2.9,0.4c-1.5,0-2.7-0.5-3.5-1.3c-0.9-0.9-1.3-2.5-1.3-4.5v-9.5h-2.8v-2.4h2.8v-4.2L-112.1,729.1z"/>
	<path class="st7" d="M-100.2,729.2c0,1.1-0.8,1.9-2.1,1.9c-1.1,0-2-0.9-2-1.9c0-1.1,0.8-2,2-2
		C-100.9,727.2-100.2,728.1-100.2,729.2z M-103.8,751.5v-17.4h3.2v17.4H-103.8z"/>
	<path class="st7" d="M-95.2,738.8c0-1.8,0-3.3-0.1-4.7h2.8l0.1,2.8h0.1c1-1.7,2.7-3.2,5.6-3.2c2.4,0,4.3,1.4,5.1,3.5h0.1
		c0.6-1,1.3-1.7,2-2.3c1.1-0.8,2.3-1.2,3.9-1.2c2.4,0,5.9,1.5,5.9,7.6v10.3h-3.2v-9.9c0-3.3-1.3-5.4-3.9-5.4c-1.8,0-3.3,1.3-3.8,2.9
		c-0.1,0.4-0.3,1-0.3,1.6v10.8H-84V741c0-2.8-1.3-4.8-3.7-4.8c-2,0-3.5,1.6-4,3.2c-0.2,0.5-0.3,1-0.3,1.5v10.5h-3.2V738.8z"/>
	<path class="st7" d="M-54.5,751.5l-0.3-2.2h-0.1c-1,1.4-2.9,2.6-5.5,2.6c-3.6,0-5.5-2.5-5.5-5c0-4.2,3.8-6.5,10.7-6.5V740
		c0-1.4-0.4-4-4.1-4c-1.7,0-3.4,0.5-4.6,1.3l-0.7-2.1c1.5-0.9,3.6-1.5,5.9-1.5c5.5,0,6.8,3.6,6.8,7.1v6.5c0,1.5,0.1,3,0.3,4.2H-54.5
		z M-55,742.6c-3.5-0.1-7.6,0.5-7.6,3.9c0,2.1,1.4,3,3.1,3c2.3,0,3.8-1.4,4.3-2.9c0.1-0.3,0.2-0.7,0.2-1V742.6z"/>
	<path class="st7" d="M-47.1,748.2c1,0.6,2.7,1.3,4.3,1.3c2.4,0,3.5-1.2,3.5-2.6c0-1.5-0.9-2.3-3.3-3.2c-3.2-1.1-4.7-2.8-4.7-4.9
		c0-2.8,2.3-5.1,6.2-5.1c1.8,0,3.4,0.5,4.4,1.1l-0.8,2.3c-0.7-0.4-2-1-3.7-1c-1.9,0-3,1.1-3,2.4c0,1.4,1.1,2.1,3.4,3
		c3.1,1.2,4.7,2.7,4.7,5.3c0,3.1-2.4,5.2-6.7,5.2c-2,0-3.8-0.5-5-1.2L-47.1,748.2z"/>
</g>
<g class="st5">
	<path class="st8" d="M706,915.2v24.3h-3.2v-24.3H706z"/>
	<path class="st8" d="M711.6,939.5v-24.3h3.5l8,12.3c1.8,2.8,3.3,5.4,4.5,7.9l0.1,0c-0.3-3.2-0.4-6.2-0.4-10v-10.2h3v24.3H727
		l-7.9-12.3c-1.7-2.7-3.4-5.5-4.6-8.1l-0.1,0c0.2,3.1,0.3,6,0.3,10v10.4H711.6z"/>
	<path class="st8" d="M739.9,931.9l-2.6,7.6H734l8.4-24.3h3.9l8.5,24.3h-3.4l-2.7-7.6H739.9z M748,929.4l-2.4-7
		c-0.6-1.6-0.9-3-1.3-4.4h-0.1c-0.4,1.4-0.8,2.9-1.3,4.4l-2.4,7H748z"/>
	<path class="st8" d="M765.8,935.7c1.4,0.9,3.5,1.6,5.8,1.6c3.3,0,5.2-1.7,5.2-4.1c0-2.3-1.3-3.6-4.7-4.8c-4.1-1.4-6.6-3.5-6.6-6.9
		c0-3.8,3.2-6.6,8-6.6c2.5,0,4.4,0.6,5.5,1.2l-0.9,2.6c-0.8-0.4-2.5-1.2-4.7-1.2c-3.4,0-4.7,2-4.7,3.6c0,2.3,1.5,3.4,4.9,4.7
		c4.2,1.6,6.3,3.6,6.3,7.1c0,3.7-2.8,7-8.7,7c-2.4,0-5-0.7-6.3-1.5L765.8,935.7z"/>
	<path class="st8" d="M783.6,937.6c0-1.3,0.9-2.3,2.2-2.3s2.2,0.9,2.2,2.3c0,1.3-0.8,2.3-2.2,2.3
		C784.4,939.9,783.6,938.9,783.6,937.6z"/>
	<path class="st8" d="M796.1,931.9l-2.6,7.6h-3.3l8.4-24.3h3.9l8.5,24.3h-3.4l-2.7-7.6H796.1z M804.2,929.4l-2.4-7
		c-0.6-1.6-0.9-3-1.3-4.4h-0.1c-0.4,1.4-0.8,2.9-1.3,4.4l-2.4,7H804.2z"/>
	<path class="st8" d="M837.8,913.9V935c0,1.5,0,3.3,0.1,4.5H835l-0.1-3h-0.1c-1,1.9-3.2,3.4-6.1,3.4c-4.3,0-7.6-3.6-7.6-8.9
		c0-5.8,3.7-9.4,8-9.4c2.7,0,4.6,1.3,5.4,2.7h0.1v-10.4H837.8z M834.5,929.2c0-0.4,0-0.9-0.1-1.3c-0.5-2-2.2-3.7-4.7-3.7
		c-3.4,0-5.3,2.9-5.3,6.7c0,3.5,1.8,6.4,5.3,6.4c2.2,0,4.2-1.4,4.8-3.8c0.1-0.4,0.1-0.9,0.1-1.4V929.2z"/>
	<path class="st8" d="M845,931.3c0.1,4.3,2.9,6,6.1,6c2.3,0,3.7-0.4,4.9-0.9l0.6,2.3c-1.1,0.5-3.1,1.1-5.9,1.1
		c-5.5,0-8.8-3.5-8.8-8.8c0-5.3,3.2-9.4,8.4-9.4c5.8,0,7.4,5,7.4,8.2c0,0.6-0.1,1.2-0.1,1.5H845z M854.5,929.1c0-2-0.8-5.1-4.5-5.1
		c-3.3,0-4.7,3-5,5.1H854.5z"/>
	<path class="st8" d="M886.9,938.7c-1.2,0.6-3.5,1.2-6.6,1.2c-7,0-12.3-4.3-12.3-12.3c0-7.6,5.3-12.7,13-12.7c3.1,0,5.1,0.6,5.9,1.1
		l-0.8,2.6c-1.2-0.6-3-1-5-1c-5.8,0-9.7,3.6-9.7,10c0,5.9,3.5,9.8,9.6,9.8c2,0,3.9-0.4,5.2-1L886.9,938.7z"/>
	<path class="st8" d="M890,937.6c0-1.3,0.9-2.3,2.2-2.3s2.2,0.9,2.2,2.3c0,1.3-0.8,2.3-2.2,2.3C890.9,939.9,890,938.9,890,937.6z"/>
	<path class="st8" d="M904,939.5l-8.1-24.3h3.5l3.9,12c1.1,3.3,2,6.2,2.7,9.1h0.1c0.7-2.8,1.7-5.9,2.8-9l4.2-12h3.4l-8.9,24.3H904z"
		/>
</g>
<path class="st9" d="M348.8,421.6c-19.4-0.8-38.8-1.9-58.1-3c-9.7-0.5-19.4-1.1-29.1-1.5c-4.9-0.2-20.9-4-22.7,2.4
	c-0.6,1.9-0.6,3.9-0.6,5.9c-0.1,18.9-0.1,37.9-0.5,56.8"/>
<g id="XMLID_1_">
	<g>
		<path class="st9" d="M233.5,564c-0.1,5.6-0.3,10.9-0.4,16c-0.5,18.5-0.9,33.4-1.1,43.8c0,1.1,0,2.2-0.1,3.2c0,0-0.5,20.5-1.7,33.3
			c-0.4,3.8-0.5,3.5-0.9,16.5c0,0-0.1,1.7-0.1,3.8c-0.2,3.7-0.6,9.3-1.7,17.1c-0.1,0.4-0.1,0.7-0.2,1.1c0,0.2-0.1,0.4-0.1,0.6"/>
		<path class="st9" d="M407,450c1,0,0.4,13.4-0.1,17.6c-0.4,3.7-1.1,7.3,1.3,10.5c1.8,2.4,5.1,1.8,5.8,2.9"/>
		<path class="st9" d="M58,519c2.8,0,5.6,0.1,8.5,0.1c6.7,0.1,13.6,0.3,20.5,0.6c51.1,2,106.7,7.4,155.6,7.8c4.1,0,8.1,0,12.1,0
			c17.1-0.1,33.3-0.8,49.1-1.6c9.2-0.5,18.4-1,27.5-1.5c7.8-0.4,15.7-0.9,23.7-1.2c7.5-0.3,15.1-0.7,22.9-0.9
			c7.1-0.2,14.3-0.3,21.7-0.3c2.9,0,5.8,0,8.7,0c0.3,0,0.5,0,0.8,0c-0.3,0-0.5-0.1-0.8-0.1c-2.8-0.4-5.5-0.7-8.3-1"/>
		<path class="st9" d="M270.3,696.9c4.5-0.3,9.1-0.5,13.9-0.8c65.3-4.3,82-8.9,95.6-18.7c9.7-7,24.5-21.4,31.6-41.1
			c3.3-9.1,3.9-16.6,4.2-20.6c1.5-19.2-0.4-35.3-2.7-50.4c-2.2-14.7-4.6-28.4-4.7-43.2c0,0,0-0.1,0-0.1c0-11.2,1.3-23,5.3-36.2
			c0.7-2.5,1-3.4,0.5-4.7"/>
		<path class="st9" d="M249.4,698c6.7-0.3,13.6-0.6,20.9-1.1"/>
		<path class="st9" d="M47.9,624.5c-0.2,5.3,0,14.8,3.3,24.8c2,6.1,5.3,12.5,10.3,18c8.8,9.7,22.3,16.4,50.7,23.1
			c16.5,3.9,40.4,8.2,86.8,8.5c8.6,0.1,18.1,0,28.4-0.3c6.9-0.2,14.3-0.4,22-0.7"/>
		<path class="st9" d="M67,461c-0.4,0-0.7,0-1,0c-0.1,0-0.2,0-0.3,0c-0.3,0-0.5,0-0.8-0.1c-1.2-0.1-2-0.2-2.5,0.1
			c-0.3,0.2-0.4,0.5-0.4,1c0,3.5-0.1,6.8-0.2,10.1c-0.8,19.1-3.3,35-3.8,46.9c0,0-0.5,8.1-1.2,19.6c-0.6,9.3-1.4,20.9-2.3,32.2
			c-1.1,13.6-2.3,26.7-3.5,34.8c-0.4,2.7-0.8,4.9-1.1,6.3c-0.3,1.2-1.2,4.4-1.7,8.7c-0.1,0.6-0.2,2-0.3,3.9"/>
		<path class="st9" d="M300.3,419.6c-11.6,17-19.8,32-25.4,43.1c-8.1,16.3-12.2,24.4-15,35.6c-0.9,3.4-1.8,7.6-2.6,12.3
			c-1,5.2-1.9,11-2.8,16.9c-0.6,4-1.1,8.2-1.6,12.2c-0.8,7.3-1.1,11.7-3.5,18.1c-3.8,10.2-11.6,17.4-16.5,22.1c0,0-0.1,0.1-0.1,0.1"
			/>
		<line class="st9" x1="62.4" y1="462.5" x2="64.5" y2="462.5"/>
		<path class="st9" d="M61.8,461c0.2,0,0.4,0,0.6,0c0.8,0,1.6-0.1,2.5-0.1c58-2.7,115.9-5.3,173.8-8"/>
		<path class="st9" d="M66.4,519.4c1.8,7.3,5,17.5,10.8,28.2c12.8,23.7,30.1,34,42,40.8c11.3,6.5,25.1,10.9,52.7,19.7
			c14.8,4.7,20.4,5.9,29.1,11.3C215,628,224.9,640,231,648.9"/>
		<path class="st9" d="M56,538c0.3,0.1,0.5,0.3,0.8,0.6c3,3.3,6,19,10.7,29.9c11.2,26.4,31.7,36.3,44.2,43.6
			c11.9,7,26.4,11.7,55.5,21c15.6,5,21.4,6.3,30.6,12c14.9,9.3,25.2,22,31.7,31.6"/>
		<path class="st9" d="M54,570c0.2,0.3,0.3,0.5,0.4,0.8c3.8,6.7,5.6,14.8,8.8,21.8c4.4,9.8,10.1,19.4,18,26.7
			c8.2,7.6,18,13.3,27.8,18.6c11.8,6.4,26.2,10.8,55.1,19.4c15.5,4.6,21.3,5.8,30.3,11.1c21.3,12.4,20.1,27.6,31.5,29.1
			c0.5,0.1,1,0.1,1.6,0.1c20.7,0.3,42.2-45.9,43.6-48.8c8.9-19.5,11.1-35.8,11.5-38.4c4-28.7,11.7-56.9,21.1-84.5
			c1.5-4.5,3.1-8.9,4.7-13.3c2.6-7.3,5.4-14.6,8.2-21.8c6-15.5,12.5-30.8,19.4-45.8c2.3-5,4.7-10,7.1-14.9c0.8-1.7,2.5-6.8,4.2-7.8
			c0.1,0,0.5-0.5,0.5-0.5c-0.1,5.6-3.2,10.8,0.1,16.3c2.5,4,7.4,5.8,12,6.8c0.6,0.1,1.1,0.2,1.7,0.3c13.1,2.4,26.8,0.7,39.9,2.9
			c1.8,0.3,3.7,0.8,4.9,2c0.2,0.2,0.4,0.4,0.6,0.6"/>
		<path class="st9" d="M50.8,604.9c0.1,0.2,0.2,0.4,0.2,0.7c1.9,5.2,5.2,12.4,10.9,19.8c13.3,17.2,31.3,24.7,43.5,29.6
			c11.8,4.7,26.1,7.9,54.7,14.3c15.4,3.4,21.1,4.3,30.2,8.2c14.6,6.3,24.9,15,31.3,21.4"/>
		<path class="st9" d="M47.9,624.5L47.9,624.5c1.8,4.2,5,10,10.8,16.2c12.9,13.6,30.3,19.5,42.2,23.4c11.4,3.7,25.3,6.3,53,11.3
			c14.9,2.7,20.5,3.4,29.2,6.5c14.2,5,24.1,11.8,30.3,17"/>
		<path class="st9" d="M50.8,648.9c0.1,0.1,0.3,0.3,0.4,0.4c3,3,4.3,6.3,9.3,10.2c11.6,8.9,27.1,12.8,37.8,15.3
			c10.2,2.5,22.6,4.1,47.5,7.4c13.3,1.8,18.4,2.2,26.2,4.2c12.7,3.3,21.4,9.2,27,12.6c0,0,0,0,0,0"/>
		<path class="st9" d="M66,461C66,461,66,461,66,461c-0.1-0.2-0.3-0.2-0.3-0.1c-0.5,0.7-0.8,4.9-0.9,10.9c-0.2,12.5,0.4,33,1.6,46.2
			c0,0.3,0.1,0.7,0.1,1c0,0.1,0,0.3,0,0.4"/>
		<polyline class="st9" points="60.8,472.2 61.8,472.1 64.8,471.9 78.2,470.8 238.9,457.7 		"/>
		<path class="st9" d="M85.7,515.5c0.1,0.2,0.1,0.4,0.2,0.7c0.3,1.1,0.6,2.3,1,3.6c1.7,5.6,4.3,12.4,8.4,19.5
			c11.5,20,26.9,28.6,37.5,34.4c10.1,5.5,22.4,9.2,47.1,16.6c13.2,4,18.2,5,25.9,9.5c12.1,7,20.7,16.6,26.3,24
			c0.2,0.3,0.4,0.6,0.6,0.9"/>
		<path class="st9" d="M78.2,470.8c2.5,14.9,5,29.8,7.5,44.7"/>
		<path class="st9" d="M231,698c7.6-0.9,32-3.3,52-21.2c21.6-19.4,23.5-45.2,24.6-55.7c2.4-22.3,8.8-52.9,23.6-96.6
			c1.1-3.3,2.3-6.6,3.5-10c7.1-20.2,16-43.1,27-69"/>
		<path class="st9" d="M249,698c0.1,0,0.2,0,0.4,0c0,0,0,0,0,0c7.6-1.1,37.5-6,57-23.3c21.3-19,23.2-44.2,24.3-54.5
			c2.4-22.2,8.9-52.9,24.2-96.9c0.8-2.3,1.6-4.6,2.4-6.9c7.1-19.9,15.9-42.4,26.9-68"/>
		<path class="st9" d="M269,697c0.4,0,0.8-0.1,1.3-0.1c0,0,0,0,0,0c9.9-0.9,39.8-5.5,58.6-22.2c21.3-18.8,23.2-44,24.4-54.2
			c3.7-33.5,13-66.3,24.5-98.2c0.5-1.3,0.9-2.6,1.4-3.8c6-16.4,12.5-32.6,19.1-48.5c2.7-6.6,5.5-13.1,8.3-19.6
			c0.1-0.2,0.2-0.5,0.3-0.7"/>
		<path class="st9" d="M316.3,693.5c5.8-0.7,23.9-3.8,39-18.7c16.3-16.1,17.7-37.6,18.6-46.4c2.2-22.7,8.5-55.8,25.7-106.4
			c0.1-0.4,0.3-0.8,0.4-1.1c4.1-12,8.8-24.9,14.1-38.9"/>
		<path class="st9" d="M337.5,689.8c4.5-0.4,18.6-2.3,30.3-11.2c12.7-9.6,13.8-22.4,14.5-27.6c2.1-16.7,8.6-42,30.6-85.9
			c0-0.1,0.1-0.1,0.1-0.2"/>
	</g>
</g>
</svg>
