<?xml version="1.0" encoding="iso-8859-1"?>
<!-- Generator: Adobe Illustrator 21.0.0, SVG Export Plug-In . SVG Version: 6.00 Build 0)  -->
<svg version="1.1" id="Capa_1" xmlns="http://www.w3.org/2000/svg" xmlns:xlink="http://www.w3.org/1999/xlink" x="0px" y="0px"
	 viewBox="0 0 640 480" style="enable-background:new 0 0 640 480;" xml:space="preserve">
<ellipse style="fill:#81F2EF;stroke:#DCF9F9;stroke-linecap:round;stroke-miterlimit:10;" cx="317.06" cy="234" rx="229.06" ry="228"/>
<ellipse style="opacity:0.99;fill:#FFFFFF;stroke:#DCF9F9;stroke-linecap:round;stroke-miterlimit:10;" cx="319.279" cy="234.471" rx="198.32" ry="197.402"/>
<g>
	
		<line style="fill:#FFFFFF;stroke:#757575;stroke-width:4;stroke-miterlimit:10;" x1="421.152" y1="226.328" x2="421.152" y2="226.328"/>
	
		<line style="fill:#FFFFFF;stroke:#A2A2A2;stroke-width:4;stroke-miterlimit:10;" x1="371.318" y1="104.61" x2="373.642" y2="315.76"/>
	<polyline style="fill:#FFFFFF;stroke:#757575;stroke-width:4;stroke-linecap:round;stroke-miterlimit:10;" points="
		371.371,109.441 387.726,96.836 404.081,84.231 	"/>
	
		<line style="fill:#FFFFFF;stroke:#A2A2A2;stroke-width:4;stroke-linecap:round;stroke-miterlimit:10;" x1="421.289" y1="106.545" x2="429.811" y2="315.76"/>
	
		<line style="fill:#FFFFFF;stroke:#757575;stroke-width:4;stroke-linecap:round;stroke-miterlimit:10;" x1="404.081" y1="84.231" x2="421.524" y2="112.312"/>
	
		<line style="fill:#FFFFFF;stroke:#757575;stroke-width:4;stroke-linecap:round;stroke-miterlimit:10;" x1="371.371" y1="109.441" x2="419.847" y2="109.612"/>
	
		<line style="fill:#FFFFFF;stroke:#757575;stroke-width:4;stroke-linecap:round;stroke-miterlimit:10;" x1="372.48" y1="151.456" x2="404.584" y2="97.941"/>
	
		<line style="fill:#FFFFFF;stroke:#757575;stroke-width:4;stroke-linecap:round;stroke-miterlimit:10;" x1="404.584" y1="97.941" x2="423.004" y2="148.65"/>
	
		<line style="fill:#FFFFFF;stroke:#757575;stroke-width:4;stroke-linecap:round;stroke-miterlimit:10;" x1="372.48" y1="151.456" x2="421.986" y2="123.654"/>
	
		<line style="fill:#FFFFFF;stroke:#757575;stroke-width:4;stroke-linecap:round;stroke-miterlimit:10;" x1="372.48" y1="156.79" x2="424.115" y2="181.773"/>
	
		<line style="fill:#FFFFFF;stroke:#757575;stroke-width:4;stroke-linecap:round;stroke-miterlimit:10;" x1="372.48" y1="211.152" x2="407.034" y2="166.62"/>
	
		<line style="fill:#FFFFFF;stroke:#757575;stroke-width:4;stroke-linecap:round;stroke-miterlimit:10;" x1="372.48" y1="211.152" x2="424.505" y2="185.487"/>
	
		<line style="fill:#FFFFFF;stroke:#757575;stroke-width:4;stroke-linecap:round;stroke-miterlimit:10;" x1="372.537" y1="215.424" x2="425.55" y2="244.774"/>
	
		<line style="fill:#FFFFFF;stroke:#757575;stroke-width:4;stroke-linecap:round;stroke-miterlimit:10;" x1="409.517" y1="235.897" x2="373.219" y2="277.376"/>
	
		<line style="fill:#FFFFFF;stroke:#757575;stroke-width:4;stroke-linecap:round;stroke-miterlimit:10;" x1="374.572" y1="277.405" x2="410.26" y2="256.637"/>
	
		<line style="fill:#FFFFFF;stroke:#757575;stroke-width:4;stroke-linecap:round;stroke-miterlimit:10;" x1="373.264" y1="281.443" x2="412.302" y2="313.608"/>
	
		<line style="fill:#FFFFFF;stroke:#757575;stroke-width:4;stroke-linecap:round;stroke-miterlimit:10;" x1="412.302" y1="313.608" x2="428.447" y2="282.256"/>
	
		<line style="fill:#FFFFFF;stroke:#757575;stroke-width:4;stroke-linecap:round;stroke-miterlimit:10;" x1="429.706" y1="313.169" x2="374.716" y2="280.151"/>
	
		<line style="fill:#FFFFFF;stroke:#757575;stroke-width:4;stroke-linecap:round;stroke-miterlimit:10;" x1="409.517" y1="235.897" x2="425.55" y2="215.419"/>
	<polyline style="fill:#FFFFFF;stroke:#757575;stroke-width:4;stroke-linecap:round;stroke-miterlimit:10;" points="
		409.517,235.897 426.249,273.364 428.269,277.888 	"/>
	
		<line style="fill:#FFFFFF;stroke:#757575;stroke-width:4;stroke-linecap:round;stroke-miterlimit:10;" x1="410.26" y1="256.637" x2="427.023" y2="247.31"/>
	
		<line style="fill:#FFFFFF;stroke:#757575;stroke-width:4;stroke-linecap:round;stroke-miterlimit:10;" x1="406.856" y1="161.655" x2="423.218" y2="153.892"/>
	
		<line style="fill:#FFFFFF;stroke:#757575;stroke-width:4;stroke-linecap:round;stroke-miterlimit:10;" x1="373.126" y1="155.639" x2="406.856" y2="161.655"/>
	
		<line style="fill:#FFFFFF;stroke:#757575;stroke-width:4;stroke-linecap:round;stroke-miterlimit:10;" x1="425.511" y1="210.185" x2="407.221" y2="171.854"/>
	<polyline style="fill:#FFFFFF;stroke:#A2A2A2;stroke-width:4;stroke-linecap:round;stroke-miterlimit:10;" points="403.857,77.996 
		409.517,235.897 412.38,315.76 	"/>
</g>
<path style="fill:none;stroke:#2CA0E8;stroke-width:3;stroke-miterlimit:10;" d="M310.773,179.115
	c-9.439-0.414-18.871-0.972-28.303-1.511c-4.718-0.27-9.436-0.535-14.155-0.772c-2.408-0.121-10.166-2.003-11.071,1.196
	c-0.273,0.964-0.286,1.983-0.29,2.987c-0.046,9.552-0.067,19.088-0.263,28.642"/>
<g id="XMLID_2_">
	<g>
	</g>
	<g>
		<path style="fill:none;stroke:#2CA0E8;stroke-width:3;stroke-miterlimit:10;" d="M258.636,239.967
			c-0.05,2.403-0.095,4.695-0.142,6.866c-0.161,7.966-0.289,14.351-0.345,18.817c-0.005,0.482-0.006,0.941-0.012,1.376
			c0,0-0.095,4.764-0.344,9.468c-0.091,1.699-0.201,3.389-0.33,4.843c-0.146,1.643-0.224,1.519-0.344,7.112
			c0,0-0.022,0.722-0.056,1.63c-0.056,1.608-0.219,3.991-0.71,7.352c-0.021,0.155-0.047,0.314-0.073,0.473
			c-0.008,0.082-0.021,0.163-0.034,0.245"/>
		<path style="fill:none;stroke:#2CA0E8;stroke-width:3;stroke-miterlimit:10;" d="M336.898,190.385
			c0.453-0.003,0.207,5.741-0.001,7.578c-0.174,1.583-0.47,3.137,0.628,4.492c0.819,1.012,2.327,0.734,2.648,1.231"/>
		<path style="fill:none;stroke:#2CA0E8;stroke-width:3;stroke-miterlimit:10;" d="M178.935,221.256
			c1.269-0.001,2.548,0.006,3.835,0.022c3.046,0.033,6.143,0.099,9.28,0.191c23.15,0.687,48.37,2.793,70.541,2.799
			c1.845-0.001,3.667-0.011,5.466-0.038c7.755-0.107,15.078-0.438,22.259-0.841c4.191-0.234,8.328-0.494,12.483-0.745
			c3.552-0.216,7.113-0.424,10.72-0.615c3.403-0.177,6.847-0.332,10.363-0.458c3.213-0.106,6.49-0.187,9.844-0.222
			c1.305-0.014,2.62-0.024,3.948-0.022c0.122-0.001,0.245-0.002,0.367-0.003c-0.122-0.012-0.245-0.028-0.367-0.04
			c-1.252-0.145-2.513-0.282-3.779-0.422"/>
		<path style="fill:none;stroke:#2CA0E8;stroke-width:3;stroke-miterlimit:10;" d="M275.75,296.981
			c2.048-0.123,4.15-0.264,6.316-0.414c29.598-2.062,37.148-4.119,43.262-8.37c4.369-3.034,11.016-9.283,14.183-17.793
			c1.452-3.906,1.695-7.14,1.818-8.856c0.589-8.258-0.316-15.167-1.381-21.659c-1.027-6.307-2.197-12.213-2.273-18.561
			c0-0.013,0-0.026,0-0.043c-0.051-4.814,0.527-9.882,2.279-15.578c0.323-1.056,0.438-1.443,0.22-2.022"/>
		<path style="fill:none;stroke:#2CA0E8;stroke-width:3;stroke-miterlimit:10;" d="M266.262,297.509
			c3.013-0.148,6.171-0.322,9.483-0.528"/>
		<path style="fill:none;stroke:#2CA0E8;stroke-width:3;stroke-miterlimit:10;" d="M174.696,266.66
			c-0.091,2.275,0.031,6.366,1.568,10.636c0.945,2.632,2.43,5.337,4.737,7.723c4.016,4.147,10.176,6.985,23.057,9.736
			c7.514,1.602,18.339,3.397,39.363,3.369c3.916-0.004,8.186-0.071,12.858-0.219c3.141-0.093,6.462-0.226,9.979-0.395"/>
		<path style="fill:none;stroke:#2CA0E8;stroke-width:3;stroke-miterlimit:10;" d="M181.884,196.246
			c-0.54-0.047-0.944-0.096-1.155,0.056c-0.113,0.083-0.171,0.221-0.169,0.44c0.011,1.492-0.009,2.94-0.057,4.346
			c-0.277,8.23-1.403,15.039-1.568,20.168c0,0-0.186,3.488-0.493,8.425c-0.255,4.021-0.584,9.001-0.95,13.844
			c-0.449,5.837-0.955,11.467-1.454,14.957c-0.168,1.179-0.333,2.113-0.496,2.729c-0.137,0.513-0.507,1.882-0.724,3.758
			c-0.03,0.262-0.089,0.852-0.123,1.686"/>
		<path style="fill:none;stroke:#2CA0E8;stroke-width:3;stroke-miterlimit:10;" d="M182.823,196.294
			c-0.163,0.001-0.317-0.002-0.467-0.014c-0.05,0-0.095-0.004-0.145-0.007c-0.109-0.008-0.213-0.016-0.318-0.028"/>
		<path style="fill:none;stroke:#2CA0E8;stroke-width:3;stroke-miterlimit:10;" d="M288.425,177.671
			c-5.211,7.352-8.874,13.802-11.358,18.597c-3.627,7.017-5.44,10.526-6.677,15.363c-0.374,1.473-0.764,3.29-1.142,5.313
			c-0.423,2.238-0.83,4.73-1.191,7.287c-0.245,1.743-0.472,3.511-0.662,5.249c-0.348,3.128-0.464,5.05-1.509,7.779
			c-1.684,4.397-5.2,7.537-7.392,9.574c-0.014,0.013-0.022,0.026-0.036,0.035"/>
		
			<line style="fill:none;stroke:#2CA0E8;stroke-width:3;stroke-miterlimit:10;" x1="180.747" y1="196.942" x2="181.695" y2="196.935"/>
		<path style="fill:none;stroke:#2CA0E8;stroke-width:3;stroke-miterlimit:10;" d="M180.48,196.317
			c0.082-0.005,0.168-0.01,0.249-0.015c0.385-0.016,0.77-0.036,1.155-0.056c0.005,0,0.005,0,0.009,0
			c26.24-1.349,52.485-2.689,78.725-4.034"/>
		<path style="fill:none;stroke:#2CA0E8;stroke-width:3;stroke-miterlimit:10;" d="M182.744,221.399
			c0.849,3.131,2.324,7.513,4.97,12.067c5.898,10.134,13.764,14.501,19.158,17.4c5.148,2.768,11.418,4.607,23.961,8.289
			c6.724,1.973,9.253,2.47,13.205,4.739c6.429,3.686,10.919,8.78,13.754,12.601"/>
		<path style="fill:none;stroke:#2CA0E8;stroke-width:3;stroke-miterlimit:10;" d="M178.091,229.43
			c0.118,0.042,0.232,0.127,0.351,0.251c1.371,1.438,2.787,8.133,4.926,12.824c5.159,11.304,14.488,15.484,20.16,18.579
			c5.421,2.955,12.018,4.92,25.217,8.851c7.079,2.108,9.734,2.638,13.901,5.06c6.762,3.937,11.49,9.377,14.473,13.455"/>
		<path style="fill:none;stroke:#2CA0E8;stroke-width:3;stroke-miterlimit:10;" d="M316.363,188.565
			c5.955,0.977,12.136,0.199,18.113,1.121c0.799,0.123,1.657,0.314,2.223,0.838c0.096,0.081,0.178,0.175,0.256,0.277"/>
		<path style="fill:none;stroke:#2CA0E8;stroke-width:3;stroke-miterlimit:10;" d="M177.294,243.196
			c0.069,0.107,0.138,0.218,0.197,0.329c1.726,2.871,2.591,6.321,4.056,9.331c2.031,4.184,4.642,8.299,8.251,11.423
			c3.756,3.251,8.216,5.654,12.68,7.911c5.374,2.723,11.925,4.53,25.021,8.147c7.023,1.941,9.66,2.428,13.789,4.657
			c9.7,5.243,9.215,11.806,14.36,12.399c0.236,0.028,0.467,0.039,0.703,0.038c9.402,0.07,18.995-19.88,19.588-21.136
			c3.961-8.4,4.922-15.444,5.077-16.533c1.719-12.35,5.125-24.502,9.299-36.373c0.674-1.918,1.371-3.828,2.082-5.729
			c1.177-3.156,2.4-6.286,3.65-9.395c2.678-6.662,5.546-13.261,8.651-19.758c1.031-2.153,2.079-4.302,3.192-6.416
			c0.38-0.721,1.115-2.94,1.896-3.355c0.027-0.017,0.239-0.208,0.239-0.208c-0.027,2.429-1.424,4.645,0.117,7.01
			c1.124,1.728,3.346,2.485,5.448,2.89c0.259,0.05,0.513,0.095,0.772,0.132"/>
		<path style="fill:none;stroke:#2CA0E8;stroke-width:3;stroke-miterlimit:10;" d="M175.927,258.195
			c0.037,0.094,0.074,0.189,0.111,0.287c0.892,2.246,2.398,5.295,5.019,8.451c6.099,7.338,14.25,10.487,19.842,12.576
			c5.337,1.997,11.843,3.314,24.854,5.952c6.978,1.417,9.596,1.771,13.697,3.407c6.661,2.661,11.313,6.344,14.244,9.107"/>
		<path style="fill:none;stroke:#2CA0E8;stroke-width:3;stroke-miterlimit:10;" d="M174.696,266.656l0,0.004
			c0.843,1.795,2.308,4.298,4.958,6.9c5.896,5.792,13.789,8.272,19.205,9.916c5.166,1.568,11.466,2.603,24.07,4.673
			c6.754,1.109,9.294,1.386,13.261,2.675c6.453,2.096,10.954,5.001,13.79,7.18"/>
		<path style="fill:none;stroke:#2CA0E8;stroke-width:3;stroke-miterlimit:10;" d="M176.072,277.121
			c0.068,0.06,0.132,0.115,0.192,0.175c1.352,1.275,1.974,2.71,4.24,4.331c5.269,3.781,12.344,5.386,17.189,6.449
			c4.627,1.018,10.271,1.684,21.559,3.016c6.052,0.71,8.325,0.886,11.88,1.723c5.763,1.353,9.748,3.889,12.289,5.309
			c0.005,0.004,0.014,0.008,0.018,0.013"/>
		<path style="fill:none;stroke:#2CA0E8;stroke-width:3;stroke-miterlimit:10;" d="M182.37,196.298
			c-0.005-0.004-0.009-0.013-0.014-0.017c-0.05-0.064-0.1-0.064-0.145-0.007c-0.224,0.294-0.346,2.105-0.372,4.701
			c-0.058,5.395,0.281,14.192,0.882,19.861c0.019,0.15,0.034,0.301,0.049,0.442c0.01,0.056,0.014,0.112,0.019,0.163"/>
		<polyline style="fill:none;stroke:#2CA0E8;stroke-width:3;stroke-miterlimit:10;" points="180.027,201.13 180.503,201.088 
			181.839,200.975 187.932,200.459 260.711,194.27 		"/>
		<path style="fill:none;stroke:#2CA0E8;stroke-width:3;stroke-miterlimit:10;" d="M191.483,219.651
			c0.028,0.094,0.056,0.189,0.084,0.287c0.14,0.48,0.298,0.991,0.483,1.531c0.793,2.393,2.008,5.323,3.867,8.335
			c5.256,8.535,12.278,12.208,17.088,14.647c4.596,2.329,10.193,3.877,21.386,6.972c6.001,1.656,8.252,2.073,11.78,3.985
			c5.521,2.988,9.442,7.076,11.978,10.242c0.101,0.124,0.197,0.244,0.293,0.363"/>
		<path style="fill:none;stroke:#2CA0E8;stroke-width:3;stroke-miterlimit:10;" d="M187.932,200.459
			c1.187,6.396,2.369,12.796,3.551,19.192"/>
		<path style="fill:none;stroke:#2CA0E8;stroke-width:3;stroke-miterlimit:10;" d="M257.94,297.595
			c3.456-0.409,14.503-1.521,23.5-9.31c9.709-8.405,10.489-19.501,10.967-24.027c1.01-9.585,3.801-22.769,10.392-41.612
			c0.497-1.409,1.007-2.849,1.544-4.323c3.174-8.72,7.119-18.581,12.02-29.757l0-0.004"/>
		<path style="fill:none;stroke:#2CA0E8;stroke-width:3;stroke-miterlimit:10;" d="M266.099,297.532
			c0.05-0.009,0.1-0.014,0.158-0.023c0,0,0,0,0.005,0c3.45-0.504,16.991-2.731,25.746-10.226
			c9.601-8.219,10.379-19.075,10.853-23.502c1.015-9.551,3.864-22.76,10.659-41.752c0.346-0.974,0.706-1.966,1.074-2.97
			c3.153-8.583,7.081-18.297,11.969-29.322"/>
		<path style="fill:none;stroke:#2CA0E8;stroke-width:3;stroke-miterlimit:10;" d="M275.161,297.033
			c0.172-0.014,0.367-0.033,0.584-0.052c0.005,0,0.005,0,0.005,0c4.466-0.434,18.026-2.502,26.511-9.729
			c9.606-8.176,10.385-18.976,10.858-23.377c1.548-14.429,5.665-28.543,10.763-42.303c0.204-0.552,0.413-1.104,0.622-1.655
			c2.661-7.07,5.568-14.047,8.502-20.926c1.207-2.833,2.445-5.654,3.693-8.466c0.045-0.104,0.094-0.207,0.138-0.311"/>
		<path style="fill:none;stroke:#2CA0E8;stroke-width:3;stroke-miterlimit:10;" d="M296.567,295.377
			c2.608-0.338,10.834-1.708,17.62-8.186c7.321-6.994,7.908-16.232,8.264-20c0.927-9.743,3.651-24.01,11.276-45.84
			c0.058-0.159,0.115-0.323,0.169-0.487c1.81-5.151,3.889-10.72,6.281-16.748"/>
		<path style="fill:none;stroke:#2CA0E8;stroke-width:3;stroke-miterlimit:10;" d="M306.168,293.717
			c2.029-0.205,8.428-1.032,13.715-4.898c5.702-4.175,6.172-9.672,6.454-11.918c0.91-7.194,3.764-18.07,13.61-37.012
			c0.018-0.03,0.031-0.065,0.049-0.095"/>
	</g>
</g>
<path id="XMLID_1538_" style="fill:#2CA0E8;" d="M321.475,304.307c-4.092,0.027-5.908-0.435-8.421-1.075
	c-3.068-0.781-6.886-1.753-13.987-1.706c-7.101,0.047-10.903,1.069-13.959,1.89c-2.503,0.673-4.312,1.159-8.403,1.186
	c-4.091,0.027-5.907-0.435-8.42-1.075c-3.068-0.781-6.886-1.753-13.986-1.706c-7.1,0.047-10.903,1.069-13.958,1.89
	c-2.503,0.673-4.311,1.159-8.402,1.186c-4.091,0.027-5.907-0.435-8.42-1.075c-3.068-0.781-6.886-1.753-13.986-1.706
	c-7.101,0.047-10.903,1.069-13.959,1.89c-2.503,0.673-4.311,1.159-8.402,1.186c-4.091,0.027-5.907-0.435-8.42-1.075
	c-3.068-0.781-6.885-1.753-13.986-1.706l0.034,4.393c4.091-0.027,5.906,0.435,8.42,1.075c3.068,0.781,6.885,1.753,13.986,1.706
	c7.101-0.047,10.903-1.069,13.958-1.89c2.503-0.673,4.311-1.159,8.403-1.186c4.091-0.027,5.907,0.435,8.42,1.075
	c3.068,0.781,6.885,1.753,13.986,1.706c7.1-0.047,10.903-1.069,13.958-1.89c2.503-0.673,4.311-1.159,8.402-1.186
	c4.091-0.027,5.907,0.435,8.42,1.075c3.068,0.781,6.885,1.753,13.986,1.706c7.101-0.047,10.903-1.069,13.959-1.89
	c2.503-0.673,4.312-1.159,8.403-1.186c4.092-0.027,5.908,0.435,8.421,1.075c3.068,0.781,6.886,1.753,13.987,1.706
	c7.101-0.047,10.903-1.069,13.959-1.89c2.503-0.673,4.312-1.159,8.404-1.186l-0.034-4.393c-7.101,0.047-10.903,1.069-13.959,1.89
	C327.375,303.794,325.566,304.28,321.475,304.307z"/>
<path id="XMLID_1539_" style="fill:#2CA0E8;" d="M277.734,314.612c-3.802,0-5.486-0.375-7.817-0.895
	c-2.845-0.634-6.387-1.423-12.986-1.423c-6.599,0-10.14,0.789-12.985,1.423c-2.331,0.519-4.015,0.895-7.817,0.895
	s-5.486-0.375-7.817-0.895c-2.845-0.634-6.387-1.423-12.986-1.423v3.477c3.802,0,5.486,0.375,7.817,0.895
	c2.845,0.634,6.386,1.423,12.985,1.423c6.599,0,10.14-0.789,12.985-1.423c2.331-0.519,4.015-0.895,7.817-0.895
	c3.802,0,5.486,0.375,7.817,0.895c2.845,0.634,6.386,1.423,12.985,1.423c6.599,0,10.14-0.789,12.986-1.423
	c2.331-0.519,4.015-0.895,7.818-0.895v-3.477c-6.599,0-10.14,0.789-12.986,1.423C283.221,314.236,281.537,314.612,277.734,314.612z"
	/>
<path id="XMLID_1_" style="fill:#2CA0E8;stroke:#2CA0E8;stroke-width:0.5;stroke-miterlimit:10;" d="M318.884,295.538
	c-3.977,0-5.738-0.519-8.176-1.238c-2.976-0.877-6.679-1.969-13.58-1.969c-6.901,0-10.605,1.092-13.58,1.969
	c-2.438,0.719-4.199,1.238-8.176,1.238c-3.976,0-5.737-0.519-8.175-1.238c-2.976-0.877-6.679-1.969-13.58-1.969
	c-6.901,0-10.604,1.092-13.579,1.969c-2.437,0.718-4.198,1.238-8.174,1.238c-3.976,0-5.737-0.519-8.175-1.238
	c-2.976-0.877-6.679-1.969-13.58-1.969c-6.901,0-10.604,1.092-13.58,1.969c-2.438,0.718-4.199,1.238-8.175,1.238
	s-5.737-0.519-8.175-1.238c-2.975-0.877-6.678-1.969-13.579-1.969v4.81c3.976,0,5.737,0.519,8.174,1.238
	c2.976,0.877,6.678,1.969,13.58,1.969s10.604-1.092,13.58-1.969c2.438-0.719,4.199-1.238,8.175-1.238
	c3.976,0,5.738,0.519,8.175,1.238c2.976,0.877,6.678,1.969,13.58,1.969c6.901,0,10.604-1.092,13.579-1.969
	c2.437-0.718,4.198-1.238,8.174-1.238c3.976,0,5.738,0.519,8.175,1.238c2.976,0.877,6.678,1.969,13.58,1.969
	c6.901,0,10.605-1.092,13.58-1.969c2.438-0.719,4.199-1.238,8.176-1.238c3.977,0,5.738,0.519,8.176,1.238
	c2.976,0.877,6.679,1.969,13.58,1.969c6.901,0,10.605-1.092,13.58-1.969c2.438-0.719,4.199-1.238,8.176-1.238v-4.81
	c-6.901,0-10.605,1.092-13.58,1.969C324.623,295.019,322.861,295.538,318.884,295.538z"/>
<g>
</g>
<g>
</g>
<g>
</g>
<g>
</g>
<g>
</g>
<g>
</g>
<g>
</g>
<g>
</g>
<g>
</g>
<g>
</g>
<g>
</g>
<g>
</g>
<g>
</g>
<g>
</g>
<g>
</g>
</svg>
