<svg id="Capa_1" data-name="Capa 1" xmlns="http://www.w3.org/2000/svg" viewBox="0 0 2808.86 345.77"><defs><style>.cls-1{fill:#81f2ef;}.cls-2{fill:#fff;}.cls-3{fill:#2ca0e8;}</style></defs><title>logomovil_head_nombre_ina</title><path class="cls-1" d="M34.35,726.28a58.53,58.53,0,0,0,29,7.92c16.52,0,26.17-8.46,26.17-20.7,0-11.34-6.68-17.82-23.57-24.12-20.41-7-33-17.28-33-34.38,0-18.9,16.15-32.94,40.46-32.94,12.8,0,22.08,2.88,27.65,5.94l-4.45,12.78A51,51,0,0,0,72.76,635c-17.07,0-23.57,9.9-23.57,18.18,0,11.34,7.61,16.92,24.87,23.4C95.21,684.52,106,694.42,106,712.24c0,18.72-14.29,34.92-43.8,34.92-12.06,0-25.24-3.42-31.92-7.74Z" transform="translate(-30.26 -617.56)"/><path class="cls-1" d="M137.71,704.68c.37,21.42,14.47,30.24,30.81,30.24,11.69,0,18.74-2,24.87-4.5l2.78,11.34c-5.75,2.52-15.59,5.4-29.88,5.4-27.65,0-44.17-17.64-44.17-43.92s16-47,42.13-47c29.32,0,37.12,25,37.12,41a58,58,0,0,1-.56,7.38Zm47.88-11.34c.19-10.08-4.27-25.74-22.64-25.74-16.52,0-23.75,14.76-25.05,25.74Z" transform="translate(-30.26 -617.56)"/><path class="cls-1" d="M221.59,685.42c0-10.26-.19-19.08-.74-27.18h14.29l.56,17.1h.74c4.08-11.7,13.92-19.08,24.87-19.08a18.19,18.19,0,0,1,4.64.54v14.94a25.27,25.27,0,0,0-5.57-.54c-11.51,0-19.67,8.46-21.9,20.34a43.29,43.29,0,0,0-.74,7.38v46.44H221.59Z" transform="translate(-30.26 -617.56)"/><path class="cls-1" d="M293.22,658.24l17.63,49a219.16,219.16,0,0,1,7.24,22.32h.56c2-7.2,4.64-14.4,7.61-22.32l17.44-49h17.07l-35.26,87.12H309.92l-34.15-87.12Z" transform="translate(-30.26 -617.56)"/><path class="cls-1" d="M394.36,633.76c.19,5.4-3.9,9.72-10.39,9.72a9.56,9.56,0,0,1-9.84-9.72,9.8,9.8,0,0,1,10.21-9.9C390.46,623.86,394.36,628.18,394.36,633.76Zm-18.19,111.6V658.24H392.5v87.12Z" transform="translate(-30.26 -617.56)"/><path class="cls-1" d="M483.62,742.12c-4.27,2.16-13.73,5-25.79,5-27.09,0-44.72-17.82-44.72-44.46,0-26.82,18.93-46.26,48.25-46.26,9.65,0,18.19,2.34,22.64,4.5l-3.71,12.24c-3.9-2.16-10-4.14-18.93-4.14-20.6,0-31.73,14.76-31.73,32.94,0,20.16,13.36,32.58,31.18,32.58a47.59,47.59,0,0,0,20-4.32Z" transform="translate(-30.26 -617.56)"/><path class="cls-1" d="M520.92,633.76c.19,5.4-3.9,9.72-10.39,9.72a9.56,9.56,0,0,1-9.84-9.72,9.8,9.8,0,0,1,10.21-9.9C517,623.86,520.92,628.18,520.92,633.76Zm-18.19,111.6V658.24h16.33v87.12Z" transform="translate(-30.26 -617.56)"/><path class="cls-1" d="M627.44,701.08c0,32.22-23,46.26-44.72,46.26-24.31,0-43.05-17.28-43.05-44.82,0-29.16,19.67-46.26,44.54-46.26C610,656.26,627.44,674.44,627.44,701.08Zm-71.26.9c0,19.08,11.32,33.48,27.28,33.48,15.59,0,27.28-14.22,27.28-33.84,0-14.76-7.61-33.48-26.91-33.48S556.18,685.42,556.18,702Z" transform="translate(-30.26 -617.56)"/><path class="cls-1" d="M645.81,729.16a43.75,43.75,0,0,0,21.53,6.3c11.88,0,17.44-5.76,17.44-13,0-7.56-4.64-11.7-16.7-16-16.15-5.58-23.75-14.22-23.75-24.66,0-14,11.69-25.56,31-25.56a45.92,45.92,0,0,1,22.08,5.4l-4.08,11.52a35.75,35.75,0,0,0-18.37-5c-9.65,0-15,5.4-15,11.88,0,7.2,5.38,10.44,17.07,14.76,15.59,5.76,23.57,13.32,23.57,26.28,0,15.3-12.25,26.1-33.59,26.1-9.83,0-18.93-2.34-25.24-5.94Z" transform="translate(-30.26 -617.56)"/><path class="cls-1" d="M838.44,617.56v105.3c0,7.74.19,16.56.74,22.5H824.52l-.74-15.12h-.37c-5,9.72-16,17.1-30.62,17.1-21.71,0-38.42-17.82-38.42-44.28-.19-29,18.37-46.8,40.27-46.8,13.73,0,23,6.3,27.09,13.32h.37v-52ZM822.11,693.7a27.11,27.11,0,0,0-.74-6.66,23.85,23.85,0,0,0-23.57-18.36c-16.89,0-26.91,14.4-26.91,33.66,0,17.64,8.91,32.22,26.54,32.22a24.39,24.39,0,0,0,23.94-18.9,26.68,26.68,0,0,0,.74-6.84Z" transform="translate(-30.26 -617.56)"/><path class="cls-1" d="M874.63,704.68c.37,21.42,14.47,30.24,30.81,30.24,11.69,0,18.74-2,24.87-4.5l2.78,11.34c-5.75,2.52-15.59,5.4-29.88,5.4-27.65,0-44.17-17.64-44.17-43.92s16-47,42.13-47c29.32,0,37.12,25,37.12,41a58,58,0,0,1-.56,7.38Zm47.88-11.34c.19-10.08-4.27-25.74-22.64-25.74-16.52,0-23.75,14.76-25.05,25.74Z" transform="translate(-30.26 -617.56)"/><path class="cls-1" d="M1018.63,707.2l-13,38.16h-16.7L1031.44,624h19.49l42.68,121.31h-17.26L1063,707.2Zm41-12.24L1047.4,660c-2.78-7.92-4.64-15.12-6.5-22.14h-.37c-1.86,7.2-3.9,14.58-6.31,22L1022,695Z" transform="translate(-30.26 -617.56)"/><path class="cls-1" d="M1108.08,729.16a43.75,43.75,0,0,0,21.53,6.3c11.88,0,17.44-5.76,17.44-13,0-7.56-4.64-11.7-16.7-16-16.15-5.58-23.75-14.22-23.75-24.66,0-14,11.69-25.56,31-25.56a45.92,45.92,0,0,1,22.08,5.4l-4.08,11.52a35.75,35.75,0,0,0-18.37-5c-9.65,0-15,5.4-15,11.88,0,7.2,5.38,10.44,17.07,14.76,15.59,5.76,23.57,13.32,23.57,26.28,0,15.3-12.25,26.1-33.59,26.1-9.83,0-18.93-2.34-25.24-5.94Z" transform="translate(-30.26 -617.56)"/><path class="cls-1" d="M1192.89,704.68c.37,21.42,14.47,30.24,30.81,30.24,11.69,0,18.74-2,24.87-4.5l2.78,11.34c-5.75,2.52-15.59,5.4-29.88,5.4-27.65,0-44.17-17.64-44.17-43.92s16-47,42.13-47c29.32,0,37.12,25,37.12,41a58,58,0,0,1-.56,7.38Zm47.88-11.34c.19-10.08-4.27-25.74-22.64-25.74-16.52,0-23.75,14.76-25.05,25.74Z" transform="translate(-30.26 -617.56)"/><path class="cls-1" d="M1274.54,729.16a43.75,43.75,0,0,0,21.53,6.3c11.88,0,17.44-5.76,17.44-13,0-7.56-4.64-11.7-16.7-16-16.15-5.58-23.75-14.22-23.75-24.66,0-14,11.69-25.56,31-25.56a45.92,45.92,0,0,1,22.08,5.4l-4.08,11.52a35.75,35.75,0,0,0-18.37-5c-9.65,0-15,5.4-15,11.88,0,7.2,5.38,10.44,17.07,14.76,15.59,5.76,23.57,13.32,23.57,26.28,0,15.3-12.25,26.1-33.59,26.1-9.83,0-18.93-2.34-25.24-5.94Z" transform="translate(-30.26 -617.56)"/><path class="cls-1" d="M1431.54,701.08c0,32.22-23,46.26-44.72,46.26-24.31,0-43.05-17.28-43.05-44.82,0-29.16,19.67-46.26,44.54-46.26C1414.1,656.26,1431.54,674.44,1431.54,701.08Zm-71.26.9c0,19.08,11.32,33.48,27.28,33.48,15.59,0,27.28-14.22,27.28-33.84,0-14.76-7.61-33.48-26.91-33.48S1360.28,685.42,1360.28,702Z" transform="translate(-30.26 -617.56)"/><path class="cls-1" d="M1452.14,685.42c0-10.26-.19-19.08-.74-27.18h14.29l.56,17.1h.74c4.08-11.7,13.92-19.08,24.87-19.08a18.2,18.2,0,0,1,4.64.54v14.94a25.28,25.28,0,0,0-5.57-.54c-11.51,0-19.67,8.46-21.9,20.34a43.29,43.29,0,0,0-.74,7.38v46.44h-16.15Z" transform="translate(-30.26 -617.56)"/><path class="cls-1" d="M1546.79,620.62l-22.64,25.74h-11.69l16.33-25.74Zm-33.22,124.73V658.24h16.33v87.12Z" transform="translate(-30.26 -617.56)"/><path class="cls-1" d="M1606.73,745.36l-1.3-11h-.56c-5,6.84-14.66,13-27.46,13-18.19,0-27.47-12.42-27.47-25,0-21.06,19.3-32.58,54-32.4v-1.8c0-7.2-2-20.16-20.41-20.16a45.78,45.78,0,0,0-23.38,6.48L1556.43,664c7.42-4.68,18.19-7.74,29.51-7.74,27.47,0,34.15,18.18,34.15,35.64v32.58a119.06,119.06,0,0,0,1.48,20.88Zm-2.41-44.46c-17.82-.36-38,2.7-38,19.62,0,10.26,7.05,15.12,15.4,15.12,11.69,0,19.12-7.2,21.71-14.58a16.09,16.09,0,0,0,.93-5Z" transform="translate(-30.26 -617.56)"/><path class="cls-1" d="M1702.48,637.36h-38V624H1757v13.32h-38.23v108h-16.33Z" transform="translate(-30.26 -617.56)"/><path class="cls-1" d="M1766.32,704.68c.37,21.42,14.47,30.24,30.81,30.24,11.69,0,18.74-2,24.87-4.5l2.78,11.34c-5.75,2.52-15.59,5.4-29.88,5.4-27.65,0-44.17-17.64-44.17-43.92s16-47,42.13-47c29.32,0,37.12,25,37.12,41a58,58,0,0,1-.56,7.38Zm47.88-11.34c.19-10.08-4.27-25.74-22.64-25.74-16.52,0-23.75,14.76-25.05,25.74Zm3.9-72.72-22.64,25.74h-11.69l16.33-25.74Z" transform="translate(-30.26 -617.56)"/><path class="cls-1" d="M1914.23,742.12c-4.27,2.16-13.73,5-25.79,5-27.09,0-44.72-17.82-44.72-44.46,0-26.82,18.93-46.26,48.25-46.26,9.65,0,18.19,2.34,22.64,4.5l-3.71,12.24c-3.9-2.16-10-4.14-18.93-4.14-20.6,0-31.73,14.76-31.73,32.94,0,20.16,13.36,32.58,31.18,32.58a47.59,47.59,0,0,0,20-4.32Z" transform="translate(-30.26 -617.56)"/><path class="cls-1" d="M1933.34,681.82c0-9-.19-16.38-.74-23.58h14.48l.93,14.4h.37c4.45-8.28,14.85-16.38,29.69-16.38,12.43,0,31.73,7.2,31.73,37.08v52h-16.33V695.14c0-14-5.38-25.74-20.78-25.74a23.1,23.1,0,0,0-21.9,16.2,22.15,22.15,0,0,0-1.11,7.38v52.38h-16.33Z" transform="translate(-30.26 -617.56)"/><path class="cls-1" d="M2054.52,633.76c.19,5.4-3.9,9.72-10.39,9.72a9.56,9.56,0,0,1-9.84-9.72,9.8,9.8,0,0,1,10.21-9.9C2050.63,623.86,2054.52,628.18,2054.52,633.76Zm-18.19,111.6V658.24h16.33v87.12Z" transform="translate(-30.26 -617.56)"/><path class="cls-1" d="M2143.78,742.12c-4.27,2.16-13.73,5-25.79,5-27.09,0-44.72-17.82-44.72-44.46,0-26.82,18.93-46.26,48.25-46.26,9.65,0,18.19,2.34,22.64,4.5l-3.71,12.24c-3.9-2.16-10-4.14-18.93-4.14-20.6,0-31.73,14.76-31.73,32.94,0,20.16,13.36,32.58,31.18,32.58a47.59,47.59,0,0,0,20-4.32Z" transform="translate(-30.26 -617.56)"/><path class="cls-1" d="M2212.63,745.36l-1.3-11h-.56c-5,6.84-14.66,13-27.46,13-18.19,0-27.47-12.42-27.47-25,0-21.06,19.3-32.58,54-32.4v-1.8c0-7.2-2-20.16-20.41-20.16a45.78,45.78,0,0,0-23.38,6.48L2162.34,664c7.42-4.68,18.19-7.74,29.51-7.74,27.47,0,34.15,18.18,34.15,35.64v32.58a119.06,119.06,0,0,0,1.48,20.88Zm-2.41-44.46c-17.82-.36-38,2.7-38,19.62,0,10.26,7.05,15.12,15.4,15.12,11.69,0,19.12-7.2,21.71-14.58a16.09,16.09,0,0,0,.93-5Z" transform="translate(-30.26 -617.56)"/><path class="cls-1" d="M2297.63,658.24l19.67,51.48c2,5.76,4.27,12.6,5.75,17.82h.37c1.67-5.22,3.53-11.88,5.75-18.18L2347,658.24h17.26l-24.5,62.1c-11.69,29.88-19.67,45.18-30.81,54.54-8,6.84-16,9.54-20,10.26l-4.08-13.32a43.6,43.6,0,0,0,14.29-7.74,48.24,48.24,0,0,0,13.73-17.64,11.13,11.13,0,0,0,1.3-3.78,13.48,13.48,0,0,0-1.11-4.14l-33.22-80.28Z" transform="translate(-30.26 -617.56)"/><path class="cls-2" d="M249.8,956a119.74,119.74,0,0,1-38.41,6.66c-18.93,0-34.52-4.68-46.77-16-10.76-10.08-17.44-26.28-17.44-45.18.19-36.18,25.8-62.64,67.74-62.64,14.48,0,25.8,3.06,31.18,5.58l-3.9,12.78c-6.68-2.88-15-5.22-27.65-5.22-30.43,0-50.29,18.36-50.29,48.78,0,30.78,19.11,49,48.25,49,10.58,0,17.82-1.44,21.53-3.24V910.24H208.6v-12.6h41.2Z" transform="translate(-30.26 -617.56)"/><path class="cls-2" d="M283.94,920.68c.37,21.42,14.48,30.24,30.81,30.24,11.69,0,18.74-2,24.87-4.5l2.78,11.34c-5.75,2.52-15.59,5.4-29.88,5.4-27.65,0-44.17-17.64-44.17-43.92s16-47,42.13-47c29.32,0,37.12,25,37.12,41a58,58,0,0,1-.56,7.38Zm47.88-11.34c.19-10.08-4.27-25.74-22.64-25.74-16.52,0-23.75,14.76-25.05,25.74Z" transform="translate(-30.26 -617.56)"/><path class="cls-2" d="M365.59,945.16a43.75,43.75,0,0,0,21.53,6.3c11.88,0,17.44-5.76,17.44-13,0-7.56-4.64-11.7-16.7-16-16.15-5.58-23.75-14.22-23.75-24.66,0-14,11.69-25.56,31-25.56a45.92,45.92,0,0,1,22.08,5.4l-4.08,11.52a35.74,35.74,0,0,0-18.37-5c-9.65,0-15,5.4-15,11.88,0,7.2,5.38,10.44,17.07,14.76,15.59,5.76,23.57,13.32,23.57,26.28,0,15.3-12.25,26.1-33.59,26.1-9.83,0-18.93-2.34-25.24-5.94Z" transform="translate(-30.26 -617.56)"/><path class="cls-2" d="M461,849.22v25h23.38V886.3H461v47c0,10.8,3.15,16.92,12.25,16.92a37.39,37.39,0,0,0,9.46-1.08l.74,11.88c-3.15,1.26-8.17,2.16-14.47,2.16-7.61,0-13.73-2.34-17.63-6.66-4.64-4.68-6.31-12.42-6.31-22.68V886.3H431.1V874.24H445V853.36Z" transform="translate(-30.26 -617.56)"/><path class="cls-2" d="M520.92,849.76c.19,5.4-3.9,9.72-10.39,9.72a9.56,9.56,0,0,1-9.84-9.72,9.8,9.8,0,0,1,10.21-9.9C517,839.86,520.92,844.18,520.92,849.76Zm-18.19,111.6V874.24h16.33v87.12Z" transform="translate(-30.26 -617.56)"/><path class="cls-2" d="M627.44,917.08c0,32.22-23,46.26-44.72,46.26-24.31,0-43.05-17.28-43.05-44.82,0-29.16,19.67-46.26,44.54-46.26C610,872.26,627.44,890.44,627.44,917.08Zm-71.26.9c0,19.08,11.32,33.48,27.28,33.48,15.59,0,27.28-14.22,27.28-33.84,0-14.76-7.61-33.48-26.91-33.48S556.18,901.42,556.18,918Z" transform="translate(-30.26 -617.56)"/><path class="cls-2" d="M648,897.82c0-9-.19-16.38-.74-23.58h14.48l.93,14.4h.37c4.45-8.28,14.85-16.38,29.69-16.38,12.43,0,31.73,7.2,31.73,37.08v52H708.17V911.14c0-14-5.38-25.74-20.78-25.74a23.1,23.1,0,0,0-21.9,16.2,22.15,22.15,0,0,0-1.11,7.38v52.38H648Z" transform="translate(-30.26 -617.56)"/><path class="cls-2" d="M760.13,920.68c.37,21.42,14.47,30.24,30.81,30.24,11.69,0,18.74-2,24.87-4.5l2.78,11.34c-5.75,2.52-15.59,5.4-29.88,5.4-27.65,0-44.17-17.64-44.17-43.92s16-47,42.13-47c29.32,0,37.12,25,37.12,41a57.93,57.93,0,0,1-.56,7.38ZM808,909.34c.19-10.08-4.27-25.74-22.64-25.74-16.52,0-23.75,14.76-25.05,25.74Z" transform="translate(-30.26 -617.56)"/><path class="cls-2" d="M841.78,945.16a43.75,43.75,0,0,0,21.53,6.3c11.88,0,17.44-5.76,17.44-13,0-7.56-4.64-11.7-16.7-16-16.15-5.58-23.75-14.22-23.75-24.66,0-14,11.69-25.56,31-25.56a45.92,45.92,0,0,1,22.08,5.4l-4.08,11.52a35.74,35.74,0,0,0-18.37-5c-9.65,0-15,5.4-15,11.88,0,7.2,5.38,10.44,17.07,14.76,15.59,5.76,23.57,13.32,23.57,26.28,0,15.3-12.25,26.1-33.59,26.1-9.83,0-18.93-2.34-25.24-5.94Z" transform="translate(-30.26 -617.56)"/><path class="cls-2" d="M1062.8,908.08c-.93-16.92-2-37.26-1.86-52.38h-.56c-4.27,14.22-9.46,29.34-15.77,46.08l-22.08,58.86h-12.25l-20.23-57.78c-5.94-17.1-10.95-32.76-14.48-47.16h-.37c-.37,15.12-1.3,35.46-2.41,53.64l-3.34,52h-15.4L962.77,840h20.6l21.34,58.68c5.2,14.94,9.46,28.26,12.62,40.86h.56c3.15-12.24,7.61-25.56,13.18-40.86L1053.34,840h20.6l7.79,121.32H1066Z" transform="translate(-30.26 -617.56)"/><path class="cls-2" d="M1156.89,961.36l-1.3-11H1155c-5,6.84-14.66,13-27.46,13-18.19,0-27.47-12.42-27.47-25,0-21.06,19.3-32.58,54-32.4v-1.8c0-7.2-2-20.16-20.41-20.16a45.78,45.78,0,0,0-23.38,6.48L1106.59,880c7.42-4.68,18.19-7.74,29.51-7.74,27.47,0,34.15,18.18,34.15,35.64v32.58a119.05,119.05,0,0,0,1.48,20.88Zm-2.41-44.46c-17.82-.36-38,2.7-38,19.62,0,10.26,7.05,15.12,15.4,15.12,11.69,0,19.12-7.2,21.71-14.58a16.09,16.09,0,0,0,.93-5Z" transform="translate(-30.26 -617.56)"/><path class="cls-2" d="M1196.6,901.42c0-10.26-.19-19.08-.74-27.18h14.29l.56,17.1h.74c4.08-11.7,13.92-19.08,24.87-19.08a18.21,18.21,0,0,1,4.64.54v14.94a25.31,25.31,0,0,0-5.57-.54c-11.51,0-19.67,8.46-21.9,20.34a43.28,43.28,0,0,0-.74,7.38v46.44H1196.6Z" transform="translate(-30.26 -617.56)"/><path class="cls-2" d="M1291.24,836.62l-22.64,25.74h-11.69l16.33-25.74ZM1258,961.36V874.24h16.33v87.12Z" transform="translate(-30.26 -617.56)"/><path class="cls-2" d="M1321.12,849.22v25h23.38V886.3h-23.38v47c0,10.8,3.15,16.92,12.25,16.92a37.39,37.39,0,0,0,9.46-1.08l.74,11.88c-3.15,1.26-8.17,2.16-14.47,2.16-7.61,0-13.73-2.34-17.63-6.66-4.64-4.68-6.31-12.42-6.31-22.68V886.3h-13.92V874.24h13.92V853.36Z" transform="translate(-30.26 -617.56)"/><path class="cls-2" d="M1381.06,849.76c.19,5.4-3.9,9.72-10.39,9.72a9.56,9.56,0,0,1-9.84-9.72,9.8,9.8,0,0,1,10.21-9.9C1377.16,839.86,1381.06,844.18,1381.06,849.76Zm-18.19,111.6V874.24h16.33v87.12Z" transform="translate(-30.26 -617.56)"/><path class="cls-2" d="M1406.3,897.82c0-9-.19-16.38-.74-23.58h14.29l.74,14h.56c5-8.28,13.36-16,28.21-16a26.51,26.51,0,0,1,25.42,17.46h.37a36.21,36.21,0,0,1,10-11.34c5.38-4,11.32-6.12,19.86-6.12,11.88,0,29.51,7.56,29.51,37.8v51.3h-16V912c0-16.74-6.31-26.82-19.49-26.82-9.28,0-16.52,6.66-19.3,14.4a25.38,25.38,0,0,0-1.3,7.92v53.82h-16v-52.2c0-13.86-6.31-23.94-18.74-23.94-10.21,0-17.63,7.92-20.23,15.84a21.24,21.24,0,0,0-1.3,7.74v52.56h-16Z" transform="translate(-30.26 -617.56)"/><path class="cls-2" d="M1610.8,961.36l-1.3-11h-.56c-5,6.84-14.66,13-27.46,13-18.19,0-27.47-12.42-27.47-25,0-21.06,19.3-32.58,54-32.4v-1.8c0-7.2-2-20.16-20.41-20.16a45.78,45.78,0,0,0-23.38,6.48L1560.51,880c7.42-4.68,18.19-7.74,29.51-7.74,27.47,0,34.15,18.18,34.15,35.64v32.58a119.05,119.05,0,0,0,1.48,20.88Zm-2.41-44.46c-17.82-.36-38,2.7-38,19.62,0,10.26,7.05,15.12,15.4,15.12,11.69,0,19.12-7.2,21.71-14.58a16.09,16.09,0,0,0,.93-5Z" transform="translate(-30.26 -617.56)"/><path class="cls-2" d="M1648.29,945.16a43.75,43.75,0,0,0,21.53,6.3c11.88,0,17.44-5.76,17.44-13,0-7.56-4.64-11.7-16.7-16-16.15-5.58-23.75-14.22-23.75-24.66,0-14,11.69-25.56,31-25.56a45.92,45.92,0,0,1,22.08,5.4l-4.08,11.52a35.74,35.74,0,0,0-18.37-5c-9.65,0-15,5.4-15,11.88,0,7.2,5.38,10.44,17.07,14.76,15.59,5.76,23.57,13.32,23.57,26.28,0,15.3-12.25,26.1-33.59,26.1-9.83,0-18.93-2.34-25.24-5.94Z" transform="translate(-30.26 -617.56)"/><path class="cls-3" d="M1780,840V961.36H1763.9V840Z" transform="translate(-30.26 -617.56)"/><path class="cls-3" d="M1808.25,961.36V840h17.63L1866,901.42a340.46,340.46,0,0,1,22.46,39.42l.37-.18c-1.48-16.2-1.86-31-1.86-49.86V840h15.22V961.36h-16.33l-39.71-61.56c-8.72-13.5-17.07-27.36-23.38-40.5l-.56.18c.93,15.3,1.3,29.88,1.3,50v51.84Z" transform="translate(-30.26 -617.56)"/><path class="cls-3" d="M1950.59,923.2l-13,38.16h-16.7L1963.4,840h19.49l42.68,121.32h-17.26l-13.36-38.16Zm41-12.24L1979.36,876c-2.78-7.92-4.64-15.12-6.5-22.14h-.37c-1.86,7.2-3.9,14.58-6.31,22L1953.93,911Z" transform="translate(-30.26 -617.56)"/><path class="cls-3" d="M2081.05,942.28a58.54,58.54,0,0,0,29,7.92c16.52,0,26.17-8.46,26.17-20.7,0-11.34-6.68-17.82-23.57-24.12-20.41-7-33-17.28-33-34.38,0-18.9,16.14-32.94,40.46-32.94,12.8,0,22.08,2.88,27.65,5.94l-4.45,12.78a51,51,0,0,0-23.75-5.76c-17.07,0-23.57,9.9-23.57,18.18,0,11.34,7.61,16.92,24.87,23.4,21.16,7.92,31.92,17.82,31.92,35.64,0,18.72-14.29,34.92-43.8,34.92-12.06,0-25.24-3.42-31.92-7.74Z" transform="translate(-30.26 -617.56)"/><path class="cls-3" d="M2170.31,952c0-6.66,4.64-11.34,11.13-11.34s10.95,4.68,10.95,11.34c0,6.48-4.27,11.34-11.13,11.34C2174.77,963.33,2170.31,958.48,2170.31,952Z" transform="translate(-30.26 -617.56)"/><path class="cls-3" d="M2233.41,923.2l-13,38.16h-16.7L2246.21,840h19.49l42.68,121.32h-17.26l-13.36-38.16Zm41-12.24L2262.17,876c-2.78-7.92-4.64-15.12-6.5-22.14h-.37c-1.86,7.2-3.9,14.58-6.31,22L2236.75,911Z" transform="translate(-30.26 -617.56)"/><path class="cls-3" d="M2443.11,833.56v105.3c0,7.74.19,16.56.74,22.5h-14.66l-.74-15.12h-.37c-5,9.72-16,17.1-30.62,17.1-21.71,0-38.42-17.82-38.42-44.28-.19-29,18.37-46.8,40.27-46.8,13.73,0,23,6.3,27.09,13.32h.37v-52Zm-16.33,76.14A27.11,27.11,0,0,0,2426,903a23.85,23.85,0,0,0-23.57-18.36c-16.89,0-26.91,14.4-26.91,33.66,0,17.64,8.91,32.22,26.54,32.22a24.39,24.39,0,0,0,23.94-18.9,26.67,26.67,0,0,0,.74-6.84Z" transform="translate(-30.26 -617.56)"/><path class="cls-3" d="M2479.3,920.68c.37,21.42,14.47,30.24,30.81,30.24,11.69,0,18.74-2,24.87-4.5l2.78,11.34c-5.75,2.52-15.59,5.4-29.88,5.4-27.65,0-44.17-17.64-44.17-43.92s16-47,42.13-47c29.32,0,37.12,25,37.12,41a57.93,57.93,0,0,1-.56,7.38Zm47.88-11.34c.19-10.08-4.27-25.74-22.64-25.74-16.52,0-23.75,14.76-25.05,25.74Z" transform="translate(-30.26 -617.56)"/><path class="cls-3" d="M2690.48,957.4c-5.94,2.88-17.82,5.76-33,5.76-35.26,0-61.8-21.6-61.8-61.38,0-38,26.54-63.72,65.32-63.72,15.59,0,25.42,3.24,29.69,5.4l-3.9,12.78c-6.12-2.88-14.85-5-25.24-5-29.32,0-48.81,18.18-48.81,50,0,29.7,17.63,48.78,48.06,48.78,9.84,0,19.86-2,26.35-5Z" transform="translate(-30.26 -617.56)"/><path class="cls-3" d="M2706.25,952c0-6.66,4.64-11.34,11.13-11.34s10.95,4.68,10.95,11.34c0,6.48-4.27,11.34-11.13,11.34C2710.71,963.33,2706.25,958.48,2706.25,952Z" transform="translate(-30.26 -617.56)"/><path class="cls-3" d="M2776.58,961.36,2735.76,840h17.44l19.49,59.76c5.38,16.38,10,31.14,13.36,45.36h.37c3.53-14,8.72-29.34,14.29-45.18L2821.86,840h17.26L2794.4,961.36Z" transform="translate(-30.26 -617.56)"/></svg>