<svg xmlns="http://www.w3.org/2000/svg" viewBox="0 0 632.26 745.64"><defs><style>.cls-1{isolation:isolate;}.cls-2{fill:none;stroke:#075b99;stroke-width:4px;}.cls-2,.cls-3,.cls-4,.cls-5,.cls-6,.cls-7{stroke-miterlimit:10;}.cls-3,.cls-4,.cls-5,.cls-6,.cls-7{fill:#fff;}.cls-3,.cls-5{stroke:#757575;stroke-width:7px;}.cls-4,.cls-6,.cls-7{stroke:#a2a2a2;}.cls-4,.cls-6{stroke-width:10px;}.cls-4{mix-blend-mode:multiply;}.cls-5,.cls-6,.cls-7{stroke-linecap:round;}.cls-7{stroke-width:9px;}</style></defs><title>logoina</title><g class="cls-1"><g id="Capa_1" data-name="Capa 1"><path class="cls-2" d="M122.11,531.32l175,1.46,179.21,1.5a1484.56,1484.56,0,0,0-354.2-3Z" transform="translate(-111.81 -22)"/><path class="cls-2" d="M128.42,474.47l-.14.78A375,375,0,0,0,122.5,531s-3.14,79.36-6.65,92.87a61.09,61.09,0,0,0-1.66,8.73c-.38,3.28-3,28.76,13.3,46.75,8.79,9.73,22.33,16.44,50.7,23.06,24.59,5.74,65.29,12.58,172.06,5.61,65.34-4.27,82-8.91,95.59-18.7,9.68-7,24.46-21.4,31.59-41.14a74.26,74.26,0,0,0,4.16-20.57c3.92-52.05-11.64-80.09-2.09-129.93.43-2.25.82-4,1-5" transform="translate(-111.81 -22)"/><path class="cls-2" d="M299.52,576c-.76,28.25-1.35,49.94-1.56,62.93,0,0-.54,20.53-1.72,33.29-.36,3.82-.52,3.53-.88,16.54,0,0-.06,1.68-.15,3.8a170.53,170.53,0,0,1-1.94,18.75" transform="translate(-111.81 -22)"/><path class="cls-2" d="M366.29,431.56a367.12,367.12,0,0,0-25.37,43.06c-8.12,16.26-12.19,24.39-15,35.62-2.45,9.8-5.2,26.14-6.92,41.47-.82,7.28-1.11,11.74-3.46,18.07a60.68,60.68,0,0,1-15,22.33" transform="translate(-111.81 -22)"/><path class="cls-2" d="M414.8,433.58,306.3,429l-2.61,65.13" transform="translate(-111.81 -22)"/><line class="cls-2" x1="193.05" y1="442.89" x2="193.05" y2="442.89"/><line class="cls-2" x1="16.61" y1="452.47" x2="18.69" y2="452.47"/><line class="cls-2" x1="18.69" y1="452.47" x2="193.05" y2="442.89"/><line class="cls-2" x1="14.94" y1="462.2" x2="193.05" y2="447.68"/><path class="cls-2" d="M151.72,527.49a97.69,97.69,0,0,0,9.6,23.71c11.46,19.94,26.88,28.62,37.45,34.38,10.1,5.5,22.42,9.2,47.06,16.6,13.21,4,18.18,5,25.93,9.48,12.6,7.32,21.37,17.37,26.89,24.89" transform="translate(-111.81 -22)"/><path class="cls-2" d="M132.41,531.4a120.13,120.13,0,0,0,10.76,28.15c12.84,23.68,30.12,34,42,40.82,11.31,6.53,25.12,10.92,52.72,19.71,14.8,4.71,20.37,5.91,29.05,11.26C281,640,290.85,652,297,660.91" transform="translate(-111.81 -22)"/><path class="cls-2" d="M122.11,550.46a129.39,129.39,0,0,0,11.32,30.05c13.51,25.28,31.69,36.28,44.16,43.58,11.9,7,26.43,11.66,55.48,21,15.58,5,21.43,6.31,30.57,12,14.86,9.28,25.19,22,31.7,31.56" transform="translate(-111.81 -22)"/><path class="cls-2" d="M472.88,461.6a83.13,83.13,0,0,1,0,18c-.42,3.68-1.1,7.3,1.3,10.47a12.43,12.43,0,0,0,6.52,4.07" transform="translate(-111.81 -22)"/><path class="cls-2" d="M120,582a114.11,114.11,0,0,0,11.24,27.71c13.41,23.31,31.45,33.45,43.83,40.18,11.81,6.43,26.23,10.75,55.06,19.4,15.46,4.64,21.27,5.82,30.34,11.08,21.3,12.37,20.13,27.62,31.46,29.1,21.2,2.76,43.76-45.74,45.12-48.72a142.54,142.54,0,0,0,11.48-38.37c11.53-82.7,63.78-189.38,65.56-188.82.55.17-4.47,10.48.58,17.58,3.47,4.88,10,5.86,17.5,6.88,11.31,1.54,24.83,3.16,40.26,4.59" transform="translate(-111.81 -22)"/><path class="cls-2" d="M116.75,616.88a73.31,73.31,0,0,0,11.17,20.42c13.32,17.18,31.26,24.65,43.56,29.61,11.74,4.73,26.07,7.92,54.73,14.29,15.37,3.42,21.14,4.29,30.16,8.17a99,99,0,0,1,31.27,21.44" transform="translate(-111.81 -22)"/><path class="cls-2" d="M113.88,636.54a55.58,55.58,0,0,0,10.82,16.15c12.91,13.58,30.29,19.49,42.2,23.41,11.38,3.74,25.26,6.26,53,11.3,14.89,2.7,20.48,3.39,29.21,6.46a98.64,98.64,0,0,1,30.3,17" transform="translate(-111.81 -22)"/><path class="cls-2" d="M116.75,660.91a37.77,37.77,0,0,0,9.7,10.56c11.57,8.88,27.14,12.75,37.81,15.31,10.19,2.45,22.63,4.1,47.51,7.39,13.34,1.77,18.35,2.22,26.18,4.22a100.53,100.53,0,0,1,27.15,11.09" transform="translate(-111.81 -22)"/><path class="cls-2" d="M131,474l1,54.53" transform="translate(-111.81 -22)"/><path class="cls-2" d="M142.68,473.67l9,53.82" transform="translate(-111.81 -22)"/><path class="cls-2" d="M297.33,711.26c7.63-.89,31.69-4.54,51.67-22.5,21.56-19.38,23.47-45.18,24.6-55.7,3.63-33.81,16.45-86.83,54.13-175.68" transform="translate(-111.81 -22)"/><path class="cls-2" d="M321.23,708.62c7.55-.87,31.35-4.44,51.11-22,21.32-19,23.22-44.19,24.34-54.48,3.59-33.07,16.27-84.93,53.54-171.83" transform="translate(-111.81 -22)"/><path class="cls-2" d="M343.81,708.62c7.55-.86,31.37-4.42,51.14-21.89,21.34-18.86,23.23-44,24.35-54.2,3.59-32.89,16.28-84.49,53.57-170.94" transform="translate(-111.81 -22)"/><path class="cls-2" d="M382.25,705.53c5.76-.74,23.93-3.78,39-18.73,16.28-16.13,17.72-37.61,18.57-46.37,2.74-28.15,12.42-72.29,40.86-146.26" transform="translate(-111.81 -22)"/><path class="cls-2" d="M403.46,701.84c4.48-.44,18.61-2.25,30.34-11.15,12.66-9.6,13.78-22.39,14.45-27.61,2.13-16.76,9.66-43,31.78-87.07" transform="translate(-111.81 -22)"/><line class="cls-3" x1="597.3" y1="463.75" x2="597.3" y2="463.75"/><line class="cls-4" x1="424.93" y1="86.9" x2="432.97" y2="740.64"/><line class="cls-5" x1="425.12" y1="101.86" x2="538.26" y2="23.8"/><line class="cls-6" x1="597.78" y1="92.89" x2="627.26" y2="740.64"/><line class="cls-5" x1="538.26" y1="23.8" x2="598.59" y2="110.75"/><line class="cls-5" x1="425.12" y1="101.86" x2="592.79" y2="102.38"/><line class="cls-5" x1="428.95" y1="231.94" x2="540" y2="66.25"/><line class="cls-5" x1="540" y1="66.25" x2="603.71" y2="223.25"/><line class="cls-5" x1="428.95" y1="231.94" x2="600.19" y2="145.86"/><line class="cls-5" x1="428.95" y1="248.45" x2="607.55" y2="325.8"/><line class="cls-5" x1="428.95" y1="416.76" x2="548.47" y2="278.89"/><line class="cls-5" x1="428.95" y1="416.76" x2="608.9" y2="337.3"/><line class="cls-5" x1="429.15" y1="429.99" x2="612.52" y2="520.86"/><line class="cls-5" x1="557.06" y1="493.38" x2="431.51" y2="621.8"/><line class="cls-5" x1="436.19" y1="621.89" x2="559.63" y2="557.59"/><line class="cls-5" x1="431.67" y1="634.39" x2="566.7" y2="733.97"/><line class="cls-5" x1="566.7" y1="733.97" x2="622.54" y2="636.91"/><line class="cls-5" x1="626.89" y1="732.62" x2="436.69" y2="630.39"/><line class="cls-5" x1="557.06" y1="493.38" x2="612.52" y2="429.97"/><line class="cls-5" x1="557.06" y1="493.38" x2="621.92" y2="623.38"/><line class="cls-5" x1="559.63" y1="557.59" x2="617.61" y2="528.71"/><line class="cls-5" x1="547.86" y1="263.52" x2="604.45" y2="239.48"/><line class="cls-5" x1="431.19" y1="244.89" x2="547.86" y2="263.52"/><line class="cls-5" x1="612.38" y1="413.77" x2="549.12" y2="295.09"/><line class="cls-7" x1="537.48" y1="4.5" x2="566.96" y2="740.64"/></g></g></svg>