<svg xmlns="http://www.w3.org/2000/svg" viewBox="0 0 1078.12 314.35"><defs><style>.cls-1{isolation:isolate;}.cls-2{fill:none;stroke-width:4px;}.cls-2,.cls-3,.cls-4,.cls-5,.cls-6,.cls-7{stroke:#fff;stroke-miterlimit:10;}.cls-3,.cls-4,.cls-5,.cls-6,.cls-7,.cls-9{fill:#fff;}.cls-3,.cls-5{stroke-width:7px;}.cls-4,.cls-6{stroke-width:10px;}.cls-4{mix-blend-mode:multiply;}.cls-5,.cls-6,.cls-7{stroke-linecap:round;}.cls-7{stroke-width:9px;}.cls-8{fill:#09ce09;}</style></defs><title>logoina2</title><g class="cls-1"><g id="Capa_1" data-name="Capa 1"><path class="cls-2" d="M175.08,393.84l75.1.6,76.91.62a660.16,660.16,0,0,0-152-1.22Z" transform="translate(-169.52 -180.29)"/><path class="cls-2" d="M177.79,370.3l-.06.32a150,150,0,0,0-2.48,23.09s-1.35,32.86-2.85,38.46a24.51,24.51,0,0,0-.71,3.61c-.16,1.36-1.27,11.91,5.71,19.36,3.77,4,9.58,6.81,21.76,9.55,10.55,2.38,28,5.21,73.84,2.32,28-1.77,35.2-3.69,41-7.74,4.16-2.89,10.5-8.86,13.56-17a29.8,29.8,0,0,0,1.78-8.52c1.68-21.56-5-33.17-.9-53.81.18-.93.35-1.68.45-2.09" transform="translate(-169.52 -180.29)"/><path class="cls-2" d="M251.22,412.33c-.32,11.7-.58,20.68-.67,26.06,0,0-.23,8.5-.74,13.78a63,63,0,0,0-.38,6.85s0,.7-.06,1.57a68.22,68.22,0,0,1-.83,7.77" transform="translate(-169.52 -180.29)"/><path class="cls-2" d="M279.88,352.53A150.88,150.88,0,0,0,269,370.36c-3.49,6.73-5.23,10.1-6.43,14.75a143.81,143.81,0,0,0-3,17.17,27,27,0,0,1-1.48,7.49,25.12,25.12,0,0,1-6.43,9.25" transform="translate(-169.52 -180.29)"/><path class="cls-2" d="M300.7,353.37l-46.57-1.88-1.12,27" transform="translate(-169.52 -180.29)"/><line class="cls-2" x1="84" y1="186.05" x2="84" y2="186.05"/><line class="cls-2" x1="8.27" y1="190.02" x2="9.16" y2="190.02"/><line class="cls-2" x1="9.16" y1="190.02" x2="84" y2="186.05"/><line class="cls-2" x1="7.56" y1="194.05" x2="84" y2="188.03"/><path class="cls-2" d="M187.79,392.26a39.64,39.64,0,0,0,4.12,9.82c4.92,8.26,11.54,11.85,16.07,14.24,4.33,2.28,9.62,3.81,20.2,6.87,5.67,1.64,7.8,2.06,11.13,3.93a38.22,38.22,0,0,1,11.54,10.31" transform="translate(-169.52 -180.29)"/><path class="cls-2" d="M179.5,393.88a48.68,48.68,0,0,0,4.62,11.66c5.51,9.81,12.93,14.07,18,16.91,4.86,2.7,10.78,4.52,22.63,8.16,6.35,2,8.74,2.45,12.47,4.66a43.82,43.82,0,0,1,12.93,12.24" transform="translate(-169.52 -180.29)"/><path class="cls-2" d="M175.08,401.77a52.41,52.41,0,0,0,4.86,12.45c5.8,10.47,13.6,15,19,18,5.11,2.89,11.34,4.83,23.81,8.71,6.69,2.08,9.2,2.61,13.12,5A46.41,46.41,0,0,1,249.43,459" transform="translate(-169.52 -180.29)"/><path class="cls-2" d="M325.63,365a33.23,33.23,0,0,1,0,7.47c-.18,1.52-.47,3,.56,4.33a5.37,5.37,0,0,0,2.8,1.69" transform="translate(-169.52 -180.29)"/><path class="cls-2" d="M174.18,414.84A46.31,46.31,0,0,0,179,426.31c5.75,9.65,13.5,13.85,18.81,16.64,5.07,2.66,11.26,4.45,23.63,8,6.64,1.92,9.13,2.41,13,4.59,9.14,5.12,8.64,11.44,13.5,12.05,9.1,1.14,18.78-18.94,19.37-20.18a57.44,57.44,0,0,0,4.93-15.89c5-34.25,27.38-78.43,28.14-78.2.24.07-1.92,4.34.25,7.28,1.49,2,4.28,2.43,7.51,2.85,4.85.64,10.66,1.31,17.28,1.9" transform="translate(-169.52 -180.29)"/><path class="cls-2" d="M172.78,429.28a30,30,0,0,0,4.79,8.46c5.72,7.11,13.42,10.21,18.7,12.26,5,2,11.19,3.28,23.49,5.92,6.59,1.42,9.07,1.78,12.94,3.38a42.56,42.56,0,0,1,13.42,8.88" transform="translate(-169.52 -180.29)"/><path class="cls-2" d="M171.55,437.42a23,23,0,0,0,4.64,6.69c5.54,5.62,13,8.07,18.11,9.7,4.88,1.55,10.84,2.59,22.76,4.68,6.39,1.12,8.79,1.4,12.54,2.67a42.75,42.75,0,0,1,13,7" transform="translate(-169.52 -180.29)"/><path class="cls-2" d="M172.78,447.51a15.85,15.85,0,0,0,4.16,4.37c5,3.68,11.65,5.28,16.23,6.34,4.37,1,9.71,1.7,20.39,3.06,5.72.73,7.88.92,11.24,1.75a44,44,0,0,1,11.65,4.59" transform="translate(-169.52 -180.29)"/><path class="cls-2" d="M178.91,370.09l.45,22.58" transform="translate(-169.52 -180.29)"/><path class="cls-2" d="M183.91,370l3.88,22.29" transform="translate(-169.52 -180.29)"/><path class="cls-2" d="M250.29,468.36c3.27-.37,13.6-1.88,22.17-9.32,9.25-8,10.08-18.71,10.56-23.07,1.56-14,7.06-36,23.23-72.75" transform="translate(-169.52 -180.29)"/><path class="cls-2" d="M260.54,467.27c3.24-.36,13.45-1.84,21.93-9.11,9.15-7.85,10-18.3,10.44-22.56,1.54-13.69,7-35.17,23-71.16" transform="translate(-169.52 -180.29)"/><path class="cls-2" d="M270.23,467.27c3.24-.36,13.46-1.83,21.95-9.06,9.16-7.81,10-18.2,10.45-22.45,1.54-13.62,7-35,23-70.79" transform="translate(-169.52 -180.29)"/><path class="cls-2" d="M286.73,466a29.88,29.88,0,0,0,16.74-7.76c7-6.68,7.61-15.58,8-19.21,1.17-11.66,5.33-29.94,17.54-60.57" transform="translate(-169.52 -180.29)"/><path class="cls-2" d="M295.83,464.46a27.19,27.19,0,0,0,13-4.62,15.33,15.33,0,0,0,6.2-11.43c.91-6.94,4.15-17.82,13.64-36.06" transform="translate(-169.52 -180.29)"/><line class="cls-3" x1="257.5" y1="194.69" x2="257.5" y2="194.69"/><line class="cls-4" x1="183.52" y1="38.62" x2="186.97" y2="309.35"/><line class="cls-5" x1="183.6" y1="44.82" x2="232.15" y2="12.49"/><line class="cls-6" x1="257.7" y1="41.1" x2="270.35" y2="309.35"/><line class="cls-5" x1="232.15" y1="12.49" x2="258.05" y2="48.5"/><line class="cls-5" x1="183.6" y1="44.82" x2="255.56" y2="45.04"/><line class="cls-5" x1="185.24" y1="98.69" x2="232.9" y2="30.07"/><line class="cls-5" x1="232.9" y1="30.07" x2="260.25" y2="95.09"/><line class="cls-5" x1="185.24" y1="98.69" x2="258.74" y2="63.04"/><line class="cls-5" x1="185.24" y1="105.53" x2="261.9" y2="137.56"/><line class="cls-5" x1="185.24" y1="175.23" x2="236.54" y2="118.13"/><line class="cls-5" x1="185.24" y1="175.23" x2="262.47" y2="142.32"/><line class="cls-5" x1="185.33" y1="180.71" x2="264.03" y2="218.34"/><line class="cls-5" x1="240.22" y1="206.96" x2="186.34" y2="260.14"/><line class="cls-5" x1="188.35" y1="260.18" x2="241.33" y2="233.55"/><line class="cls-5" x1="186.41" y1="265.35" x2="244.36" y2="306.59"/><line class="cls-5" x1="244.36" y1="306.59" x2="268.33" y2="266.4"/><line class="cls-5" x1="270.2" y1="306.03" x2="188.56" y2="263.7"/><line class="cls-5" x1="240.22" y1="206.96" x2="264.03" y2="180.7"/><line class="cls-5" x1="240.22" y1="206.96" x2="268.06" y2="260.8"/><line class="cls-5" x1="241.33" y1="233.55" x2="266.21" y2="221.59"/><line class="cls-5" x1="236.27" y1="111.77" x2="260.56" y2="101.81"/><line class="cls-5" x1="186.2" y1="104.05" x2="236.27" y2="111.77"/><line class="cls-5" x1="263.97" y1="173.99" x2="236.82" y2="124.84"/><line class="cls-7" x1="231.82" y1="4.5" x2="244.47" y2="309.35"/><path class="cls-8" d="M465,387.68a19.85,19.85,0,0,0,9.6,2.55c5.48,0,8.68-2.73,8.68-6.67,0-3.65-2.22-5.74-7.82-7.77-6.77-2.26-11-5.57-11-11.07,0-6.09,5.36-10.61,13.42-10.61A19.8,19.8,0,0,1,487,356l-1.48,4.12a17.32,17.32,0,0,0-7.88-1.86c-5.66,0-7.82,3.19-7.82,5.86,0,3.65,2.52,5.45,8.25,7.54,7,2.55,10.59,5.74,10.59,11.48,0,6-4.74,11.25-14.53,11.25-4,0-8.37-1.1-10.59-2.49Z" transform="translate(-169.52 -180.29)"/><path class="cls-8" d="M499.23,380.72c.12,6.9,4.8,9.74,10.22,9.74A20.64,20.64,0,0,0,517.7,389l.92,3.65a25.42,25.42,0,0,1-9.91,1.74c-9.17,0-14.65-5.68-14.65-14.15s5.29-15.13,14-15.13c9.73,0,12.31,8.06,12.31,13.22a18.15,18.15,0,0,1-.18,2.38Zm15.88-3.65c.06-3.25-1.42-8.29-7.51-8.29-5.48,0-7.88,4.75-8.31,8.29Z" transform="translate(-169.52 -180.29)"/><path class="cls-8" d="M527.05,374.52c0-3.3-.06-6.15-.25-8.76h4.74l.18,5.51H532a8.86,8.86,0,0,1,8.25-6.15,6.21,6.21,0,0,1,1.54.17v4.81a8.63,8.63,0,0,0-1.85-.17c-3.82,0-6.52,2.73-7.26,6.55a13.56,13.56,0,0,0-.25,2.38v15h-5.35Z" transform="translate(-169.52 -180.29)"/><path class="cls-8" d="M550.81,365.77l5.85,15.77a69.19,69.19,0,0,1,2.4,7.19h.18c.68-2.32,1.54-4.64,2.52-7.19l5.79-15.77h5.66l-11.69,28.06h-5.17L545,365.77Z" transform="translate(-169.52 -180.29)"/><path class="cls-8" d="M584.35,357.88c.06,1.74-1.29,3.13-3.45,3.13a3.13,3.13,0,0,1-3.26-3.13,3.21,3.21,0,0,1,3.39-3.19A3.12,3.12,0,0,1,584.35,357.88Zm-6,35.95V365.77h5.42v28.06Z" transform="translate(-169.52 -180.29)"/><path class="cls-8" d="M614,392.79a21,21,0,0,1-8.56,1.62c-9,0-14.83-5.74-14.83-14.32s6.28-14.9,16-14.9a19.05,19.05,0,0,1,7.51,1.45l-1.23,3.94a13.19,13.19,0,0,0-6.28-1.33c-6.83,0-10.53,4.75-10.53,10.61,0,6.49,4.43,10.49,10.34,10.49A16.17,16.17,0,0,0,613,389Z" transform="translate(-169.52 -180.29)"/><path class="cls-8" d="M626.32,357.88c.06,1.74-1.29,3.13-3.45,3.13a3.13,3.13,0,0,1-3.26-3.13,3.21,3.21,0,0,1,3.39-3.19A3.12,3.12,0,0,1,626.32,357.88Zm-6,35.95V365.77h5.42v28.06Z" transform="translate(-169.52 -180.29)"/><path class="cls-8" d="M661.65,379.57c0,10.38-7.63,14.9-14.83,14.9-8.06,0-14.28-5.57-14.28-14.44,0-9.39,6.52-14.9,14.77-14.9C655.87,365.13,661.65,371,661.65,379.57Zm-23.64.29c0,6.15,3.75,10.78,9,10.78s9-4.58,9-10.9c0-4.75-2.52-10.79-8.92-10.79S638,374.52,638,379.85Z" transform="translate(-169.52 -180.29)"/><path class="cls-8" d="M667.74,388.61a14.82,14.82,0,0,0,7.14,2c3.94,0,5.79-1.86,5.79-4.17s-1.54-3.77-5.54-5.16c-5.36-1.8-7.88-4.58-7.88-7.94,0-4.52,3.88-8.23,10.28-8.23a15.59,15.59,0,0,1,7.33,1.74l-1.35,3.71a12.12,12.12,0,0,0-6.09-1.62c-3.2,0-5,1.74-5,3.83,0,2.32,1.79,3.36,5.66,4.75,5.17,1.86,7.82,4.29,7.82,8.47,0,4.93-4.06,8.41-11.14,8.41a17.82,17.82,0,0,1-8.37-1.91Z" transform="translate(-169.52 -180.29)"/><path class="cls-8" d="M731.63,352.66v33.92c0,2.49.06,5.33.25,7.25H727l-.25-4.87h-.12c-1.66,3.13-5.29,5.51-10.16,5.51-7.2,0-12.74-5.74-12.74-14.26-.06-9.34,6.09-15.08,13.36-15.08,4.55,0,7.63,2,9,4.29h.12V352.66Zm-5.42,24.53A8.47,8.47,0,0,0,726,375a7.87,7.87,0,0,0-7.82-5.91c-5.6,0-8.93,4.64-8.93,10.84,0,5.68,3,10.38,8.8,10.38a8,8,0,0,0,7.94-6.09,8.33,8.33,0,0,0,.25-2.2Z" transform="translate(-169.52 -180.29)"/><path class="cls-8" d="M743.63,380.72c.12,6.9,4.8,9.74,10.22,9.74A20.64,20.64,0,0,0,762.1,389l.92,3.65a25.43,25.43,0,0,1-9.91,1.74c-9.17,0-14.65-5.68-14.65-14.15s5.29-15.13,14-15.13c9.73,0,12.31,8.06,12.31,13.22a18.12,18.12,0,0,1-.19,2.38Zm15.88-3.65c.06-3.25-1.42-8.29-7.51-8.29-5.48,0-7.88,4.75-8.31,8.29Z" transform="translate(-169.52 -180.29)"/><path class="cls-8" d="M791.39,381.54l-4.31,12.29h-5.54l14.1-39.08h6.46l14.16,39.08h-5.72l-4.43-12.29Zm13.6-3.94-4.06-11.25c-.92-2.55-1.54-4.87-2.15-7.13h-.12c-.62,2.32-1.29,4.7-2.09,7.07l-4.06,11.31Z" transform="translate(-169.52 -180.29)"/><path class="cls-8" d="M821.05,388.61a14.82,14.82,0,0,0,7.14,2c3.94,0,5.79-1.86,5.79-4.17s-1.54-3.77-5.54-5.16c-5.36-1.8-7.88-4.58-7.88-7.94,0-4.52,3.88-8.23,10.28-8.23a15.59,15.59,0,0,1,7.33,1.74l-1.35,3.71a12.12,12.12,0,0,0-6.09-1.62c-3.2,0-5,1.74-5,3.83,0,2.32,1.79,3.36,5.66,4.75,5.17,1.86,7.82,4.29,7.82,8.47,0,4.93-4.06,8.41-11.14,8.41a17.82,17.82,0,0,1-8.37-1.91Z" transform="translate(-169.52 -180.29)"/><path class="cls-8" d="M849.18,380.72c.12,6.9,4.8,9.74,10.22,9.74a20.64,20.64,0,0,0,8.25-1.45l.92,3.65a25.43,25.43,0,0,1-9.91,1.74c-9.17,0-14.65-5.68-14.65-14.15s5.29-15.13,14-15.13c9.73,0,12.31,8.06,12.31,13.22a18.12,18.12,0,0,1-.19,2.38Zm15.88-3.65c.06-3.25-1.42-8.29-7.51-8.29-5.48,0-7.88,4.75-8.31,8.29Z" transform="translate(-169.52 -180.29)"/><path class="cls-8" d="M876.26,388.61a14.82,14.82,0,0,0,7.14,2c3.94,0,5.79-1.86,5.79-4.17s-1.54-3.77-5.54-5.16c-5.36-1.8-7.88-4.58-7.88-7.94,0-4.52,3.88-8.23,10.28-8.23a15.59,15.59,0,0,1,7.33,1.74L892,370.58a12.12,12.12,0,0,0-6.09-1.62c-3.2,0-5,1.74-5,3.83,0,2.32,1.79,3.36,5.66,4.75,5.17,1.86,7.82,4.29,7.82,8.47,0,4.93-4.06,8.41-11.14,8.41a17.82,17.82,0,0,1-8.37-1.91Z" transform="translate(-169.52 -180.29)"/><path class="cls-8" d="M928.33,379.57c0,10.38-7.63,14.9-14.83,14.9-8.06,0-14.28-5.57-14.28-14.44,0-9.39,6.52-14.9,14.77-14.9C922.55,365.13,928.33,371,928.33,379.57Zm-23.64.29c0,6.15,3.75,10.78,9,10.78s9-4.58,9-10.9c0-4.75-2.52-10.79-8.92-10.79S904.7,374.52,904.7,379.85Z" transform="translate(-169.52 -180.29)"/><path class="cls-8" d="M935.16,374.52c0-3.3-.06-6.15-.25-8.76h4.74l.18,5.51h.25a8.86,8.86,0,0,1,8.25-6.15,6.22,6.22,0,0,1,1.54.17v4.81a8.64,8.64,0,0,0-1.85-.17c-3.82,0-6.52,2.73-7.26,6.55a13.56,13.56,0,0,0-.25,2.38v15h-5.36Z" transform="translate(-169.52 -180.29)"/><path class="cls-8" d="M966.55,353.65,959,361.94h-3.88l5.42-8.29Zm-11,40.18V365.77H961v28.06Z" transform="translate(-169.52 -180.29)"/><path class="cls-8" d="M986.43,393.83l-.43-3.54h-.18a11.33,11.33,0,0,1-9.11,4.17c-6,0-9.11-4-9.11-8.06,0-6.78,6.4-10.5,17.91-10.44v-.58c0-2.32-.68-6.49-6.77-6.49A15.53,15.53,0,0,0,971,371l-1.23-3.36a19.36,19.36,0,0,1,9.79-2.49c9.11,0,11.33,5.86,11.33,11.48v10.5a37.28,37.28,0,0,0,.49,6.73Zm-.8-14.32c-5.91-.12-12.62.87-12.62,6.32,0,3.31,2.34,4.87,5.11,4.87a7.39,7.39,0,0,0,7.2-4.7,5,5,0,0,0,.31-1.62Z" transform="translate(-169.52 -180.29)"/><path class="cls-8" d="M1018.19,359h-12.62v-4.29h30.72V359h-12.68v34.79h-5.42Z" transform="translate(-169.52 -180.29)"/><path class="cls-8" d="M1039.36,380.72c.12,6.9,4.8,9.74,10.22,9.74a20.64,20.64,0,0,0,8.25-1.45l.92,3.65a25.43,25.43,0,0,1-9.91,1.74c-9.17,0-14.65-5.68-14.65-14.15s5.29-15.13,14-15.13c9.73,0,12.31,8.06,12.31,13.22a18.11,18.11,0,0,1-.19,2.38Zm15.88-3.65c.06-3.25-1.42-8.29-7.51-8.29-5.48,0-7.88,4.75-8.31,8.29Zm1.29-23.43-7.51,8.29h-3.88l5.42-8.29Z" transform="translate(-169.52 -180.29)"/><path class="cls-8" d="M1088.41,392.79a21,21,0,0,1-8.56,1.62c-9,0-14.83-5.74-14.83-14.32s6.28-14.9,16-14.9a19.06,19.06,0,0,1,7.51,1.45l-1.23,3.94a13.19,13.19,0,0,0-6.28-1.33c-6.83,0-10.53,4.75-10.53,10.61,0,6.49,4.43,10.49,10.34,10.49a16.18,16.18,0,0,0,6.65-1.39Z" transform="translate(-169.52 -180.29)"/><path class="cls-8" d="M1094.75,373.36c0-2.9-.06-5.28-.25-7.6h4.8l.31,4.64h.12a11.07,11.07,0,0,1,9.85-5.28c4.12,0,10.53,2.32,10.53,11.94v16.76h-5.42V377.65c0-4.52-1.78-8.29-6.89-8.29a7.64,7.64,0,0,0-7.26,5.22,7,7,0,0,0-.37,2.38v16.87h-5.42Z" transform="translate(-169.52 -180.29)"/><path class="cls-8" d="M1134.94,357.88c.06,1.74-1.29,3.13-3.45,3.13a3.13,3.13,0,0,1-3.26-3.13,3.21,3.21,0,0,1,3.39-3.19A3.12,3.12,0,0,1,1134.94,357.88Zm-6,35.95V365.77h5.42v28.06Z" transform="translate(-169.52 -180.29)"/><path class="cls-8" d="M1164.55,392.79a21,21,0,0,1-8.56,1.62c-9,0-14.83-5.74-14.83-14.32s6.28-14.9,16-14.9a19.06,19.06,0,0,1,7.51,1.45l-1.23,3.94a13.19,13.19,0,0,0-6.28-1.33c-6.83,0-10.53,4.75-10.53,10.61,0,6.49,4.43,10.49,10.34,10.49a16.18,16.18,0,0,0,6.65-1.39Z" transform="translate(-169.52 -180.29)"/><path class="cls-8" d="M1187.38,393.83l-.43-3.54h-.18a11.33,11.33,0,0,1-9.11,4.17c-6,0-9.11-4-9.11-8.06,0-6.78,6.4-10.5,17.91-10.44v-.58c0-2.32-.68-6.49-6.77-6.49a15.53,15.53,0,0,0-7.76,2.09l-1.23-3.36a19.36,19.36,0,0,1,9.79-2.49c9.11,0,11.33,5.86,11.33,11.48v10.5a37.28,37.28,0,0,0,.49,6.73Zm-.8-14.32c-5.91-.12-12.62.87-12.62,6.32,0,3.31,2.34,4.87,5.11,4.87a7.39,7.39,0,0,0,7.2-4.7,5,5,0,0,0,.31-1.62Z" transform="translate(-169.52 -180.29)"/><path class="cls-8" d="M1215.57,365.77l6.53,16.58c.68,1.86,1.42,4.06,1.91,5.74h.12c.55-1.68,1.17-3.83,1.91-5.86l5.91-16.47h5.72l-8.13,20c-3.88,9.63-6.52,14.55-10.22,17.57a15,15,0,0,1-6.65,3.31l-1.35-4.29a14.6,14.6,0,0,0,4.74-2.49,15.63,15.63,0,0,0,4.55-5.68A3.51,3.51,0,0,0,1221,393a4.24,4.24,0,0,0-.37-1.33l-11-25.86Z" transform="translate(-169.52 -180.29)"/><path class="cls-9" d="M485.14,462.42a22.47,22.47,0,0,1-7.39,1.33,12.78,12.78,0,0,1-9.79-3.83c-3-3-5-8.41-5-15.54C463,429.19,471.29,424,478.62,424a13.82,13.82,0,0,1,5.91,1.1l-1,3.83a10.92,10.92,0,0,0-4.8-.93c-5.17,0-10.77,3.88-10.77,16s4.86,15.95,9.85,15.95a7.14,7.14,0,0,0,2.89-.46V446.7h-5.35V443h9.85Z" transform="translate(-169.52 -180.29)"/><path class="cls-9" d="M494.68,449.78c.06,8.58,3.63,10.44,7.08,10.44a10.51,10.51,0,0,0,4.92-1.1l.74,3.31a15.12,15.12,0,0,1-6.52,1.33c-7.14,0-10.83-5.51-10.83-14.09,0-9.1,4.06-14.79,10-14.79s8.49,6,8.49,12.41c0,1,0,1.8-.06,2.49Zm9.36-3.31c.12-5.62-2.15-8.12-4.43-8.12-3.08,0-4.68,4.29-4.86,8.12Z" transform="translate(-169.52 -180.29)"/><path class="cls-9" d="M512.89,458.76a9.83,9.83,0,0,0,4.8,1.45c2.71,0,4.37-1.57,4.37-4.06,0-2.15-.8-3.59-3.82-5.51-3.88-2.38-6-4.75-6-8,0-4.52,3.57-7.77,8.19-7.77a10.7,10.7,0,0,1,5.36,1.45l-1.29,3.36a7.29,7.29,0,0,0-3.94-1.22,3.55,3.55,0,0,0-3.88,3.54c0,1.91.74,3,3.69,4.87,3.45,2.09,6.16,4.64,6.16,8.52,0,5.63-4.06,8.35-8.93,8.35a10.64,10.64,0,0,1-5.91-1.62Z" transform="translate(-169.52 -180.29)"/><path class="cls-9" d="M537.27,427.92v7.42H543v3.42h-5.72V455.4c0,3.65,1.42,4.64,3.14,4.64a9.22,9.22,0,0,0,1.91-.17l.19,3.42a11,11,0,0,1-3.51.46,6.24,6.24,0,0,1-4.68-1.68c-1.17-1.28-1.79-3.19-1.79-7.07V438.76H528.9v-3.42h3.63v-6.15Z" transform="translate(-169.52 -180.29)"/><path class="cls-9" d="M552.28,428.09a2.8,2.8,0,1,1-5.6,0,2.75,2.75,0,0,1,2.77-2.9A2.69,2.69,0,0,1,552.28,428.09Zm-5.11,35.31V435.34h4.74V463.4Z" transform="translate(-169.52 -180.29)"/><path class="cls-9" d="M576.78,449.37c0,10.84-5.36,14.5-9.91,14.5-5.36,0-9.66-4.58-9.66-14.44,0-10.26,4.86-14.55,10-14.55C572.47,434.88,576.78,439.57,576.78,449.37Zm-14.83,0c0,4.64.86,11,5.17,11,4.06,0,4.86-6.61,4.86-11s-.8-10.9-5-10.9S561.94,445.08,561.94,449.37Z" transform="translate(-169.52 -180.29)"/><path class="cls-9" d="M582.07,442.59c0-3.3-.18-5-.25-7.25h4.12l.25,3.36h.12a7.63,7.63,0,0,1,6.83-3.83c4.12,0,7.2,2.9,7.2,9.68V463.4h-4.74V445.31c0-3.3-.68-6.67-4.12-6.67-2,0-3.88,1.57-4.49,4.58a14.85,14.85,0,0,0-.18,2.49V463.4h-4.74Z" transform="translate(-169.52 -180.29)"/><path class="cls-9" d="M610.32,449.78c.06,8.58,3.63,10.44,7.08,10.44a10.51,10.51,0,0,0,4.92-1.1l.74,3.31a15.12,15.12,0,0,1-6.52,1.33c-7.14,0-10.83-5.51-10.83-14.09,0-9.1,4.06-14.79,10-14.79s8.49,6,8.49,12.41c0,1,0,1.8-.06,2.49Zm9.36-3.31c.12-5.62-2.15-8.12-4.43-8.12-3.08,0-4.68,4.29-4.86,8.12Z" transform="translate(-169.52 -180.29)"/><path class="cls-9" d="M628.54,458.76a9.83,9.83,0,0,0,4.8,1.45c2.71,0,4.37-1.57,4.37-4.06,0-2.15-.8-3.59-3.82-5.51-3.88-2.38-6-4.75-6-8,0-4.52,3.57-7.77,8.19-7.77a10.7,10.7,0,0,1,5.36,1.45l-1.29,3.36a7.29,7.29,0,0,0-3.94-1.22,3.55,3.55,0,0,0-3.88,3.54c0,1.91.74,3,3.69,4.87,3.45,2.09,6.16,4.64,6.16,8.52,0,5.63-4.06,8.35-8.93,8.35a10.64,10.64,0,0,1-5.91-1.62Z" transform="translate(-169.52 -180.29)"/><path class="cls-9" d="M682.27,446.59c-.31-5.16-.62-10.9-.43-15.31h-.25c-.92,4.35-2,9-3.32,13.57l-5.11,18.32h-3l-4.86-17.57c-1.35-5-2.58-9.8-3.39-14.32h-.18c0,4.58-.25,10-.49,15.6l-.8,16.53h-4.25l2.46-39.08h5.11l4.86,17.86c1.42,5.16,2.46,9,3.32,13.45h.18c.8-4.46,1.72-8.18,3.08-13.45l4.68-17.86h5.29l2.4,39.08h-4.43Z" transform="translate(-169.52 -180.29)"/><path class="cls-9" d="M705.41,463.4l-.31-3h-.18a6.74,6.74,0,0,1-5.91,3.42c-4,0-7.08-3.19-7.08-8,0-7,6-10.15,12.68-10.21v-.87c0-3.77-1-6.38-4.74-6.38a9.36,9.36,0,0,0-4.92,1.45l-1-3.13a13.39,13.39,0,0,1,7-1.86c6,0,8.56,3.71,8.56,10V457a41.94,41.94,0,0,0,.31,6.38Zm-.68-14.5c-2.46,0-8.19.41-8.19,6.49,0,3.65,2,5,3.63,5,2.09,0,3.88-1.45,4.43-4.23a7,7,0,0,0,.12-1.57Z" transform="translate(-169.52 -180.29)"/><path class="cls-9" d="M716,442.59c0-2.38-.18-5.16-.25-7.25H720l.25,4.41h.12c1-2.67,3.51-4.87,6.28-4.87.37,0,.68.06,1,.06v4.58a5.23,5.23,0,0,0-1-.06c-3,0-5.23,2.61-5.72,5.86a16.12,16.12,0,0,0-.18,2.55V463.4H716Z" transform="translate(-169.52 -180.29)"/><path class="cls-9" d="M740.92,423.86l-6.46,7.83h-3.14l4.74-7.83Zm-9.6,39.54V435.34h4.74V463.4Z" transform="translate(-169.52 -180.29)"/><path class="cls-9" d="M748.43,427.92v7.42h5.72v3.42h-5.72V455.4c0,3.65,1.42,4.64,3.14,4.64a9.21,9.21,0,0,0,1.91-.17l.18,3.42a11,11,0,0,1-3.51.46,6.24,6.24,0,0,1-4.68-1.68c-1.17-1.28-1.79-3.19-1.79-7.07V438.76h-3.63v-3.42h3.63v-6.15Z" transform="translate(-169.52 -180.29)"/><path class="cls-9" d="M763.45,428.09a2.8,2.8,0,1,1-5.6,0,2.75,2.75,0,0,1,2.77-2.9A2.69,2.69,0,0,1,763.45,428.09Zm-5.11,35.31V435.34h4.74V463.4Z" transform="translate(-169.52 -180.29)"/><path class="cls-9" d="M769.66,442.59c0-3.3-.18-5-.25-7.25h4.12l.25,3.48h.12a7.52,7.52,0,0,1,6.71-3.94,6.19,6.19,0,0,1,6.22,4.29H787a9.12,9.12,0,0,1,3-3.19,7.52,7.52,0,0,1,4.12-1.1c4,0,7.14,2.78,7.14,9.92V463.4H796.5V445.83c0-3.65-.55-7.19-4.19-7.19-2,0-3.69,1.57-4.37,4.17a16.11,16.11,0,0,0-.18,2.55v18h-4.68V445c0-3.13-.62-6.38-4.12-6.38-1.91,0-3.88,1.57-4.43,4.52a15.13,15.13,0,0,0-.18,2.44v17.8h-4.68Z" transform="translate(-169.52 -180.29)"/><path class="cls-9" d="M819.58,463.4l-.31-3h-.18a6.74,6.74,0,0,1-5.91,3.42c-4,0-7.08-3.19-7.08-8,0-7,6-10.15,12.68-10.21v-.87c0-3.77-1-6.38-4.74-6.38a9.36,9.36,0,0,0-4.92,1.45l-1-3.13a13.39,13.39,0,0,1,7-1.86c6,0,8.56,3.71,8.56,10V457a41.94,41.94,0,0,0,.31,6.38Zm-.68-14.5c-2.46,0-8.19.41-8.19,6.49,0,3.65,2,5,3.63,5,2.09,0,3.88-1.45,4.43-4.23a7,7,0,0,0,.12-1.57Z" transform="translate(-169.52 -180.29)"/><path class="cls-9" d="M829.42,458.76a9.83,9.83,0,0,0,4.8,1.45c2.71,0,4.37-1.57,4.37-4.06,0-2.15-.8-3.59-3.82-5.51-3.88-2.38-6-4.75-6-8,0-4.52,3.57-7.77,8.19-7.77a10.7,10.7,0,0,1,5.36,1.45l-1.29,3.36a7.29,7.29,0,0,0-3.94-1.22,3.55,3.55,0,0,0-3.88,3.54c0,1.91.74,3,3.69,4.87,3.45,2.09,6.16,4.64,6.16,8.52,0,5.63-4.06,8.35-8.92,8.35a10.64,10.64,0,0,1-5.91-1.62Z" transform="translate(-169.52 -180.29)"/><path class="cls-9" d="M873.25,424.32V463.4h-9.42V424.32Z" transform="translate(-169.52 -180.29)"/><path class="cls-9" d="M881.37,463.4V424.32h11l8.62,14.32A110.55,110.55,0,0,1,907.72,452h.19a136.53,136.53,0,0,1-.8-16.29V424.32h8.62V463.4h-9.85L897,448.33a141.75,141.75,0,0,1-7.2-13.8l-.18.06c.25,5.16.37,10.67.37,17V463.4Z" transform="translate(-169.52 -180.29)"/><path class="cls-9" d="M933.5,453.37l-3,10h-9.72l12.68-39.08h12.31l12.87,39.08H948.58l-3.2-10ZM944,446.76l-2.58-8.29c-.74-2.32-1.48-5.22-2.09-7.54h-.12c-.62,2.32-1.23,5.28-1.91,7.54l-2.46,8.29Z" transform="translate(-169.52 -180.29)"/><path class="cls-9" d="M977,454.3a25.11,25.11,0,0,0,10.4,2.44c4.31,0,6.59-1.68,6.59-4.23s-2-3.83-7-5.51c-6.89-2.26-11.39-5.86-11.39-11.54,0-6.67,5.91-11.77,15.7-11.77a26.76,26.76,0,0,1,10.59,2l-2.09,7.13a20.72,20.72,0,0,0-8.68-1.86c-4.06,0-6,1.74-6,3.77,0,2.49,2.34,3.6,7.69,5.51,7.33,2.55,10.77,6.15,10.77,11.65,0,6.55-5.36,12.12-16.74,12.12A28.55,28.55,0,0,1,975,461.6Z" transform="translate(-169.52 -180.29)"/><path class="cls-9" d="M1008.9,458.71a5.25,5.25,0,0,1,5.54-5.39,5.37,5.37,0,1,1-5.54,5.39Z" transform="translate(-169.52 -180.29)"/><path class="cls-9" d="M1035.55,453.37l-3,10h-9.72l12.68-39.08h12.31l12.87,39.08h-10.09l-3.2-10Zm10.53-6.61-2.58-8.29c-.74-2.32-1.48-5.22-2.09-7.54h-.12c-.62,2.32-1.23,5.28-1.91,7.54l-2.46,8.29Z" transform="translate(-169.52 -180.29)"/><path class="cls-9" d="M1107.56,422.23v32.7c0,3.19.12,6.55.25,8.47h-8.31l-.43-4.17h-.12c-1.91,3.19-5.54,4.81-9.42,4.81-7.14,0-12.87-5.74-12.87-14.55-.06-9.57,6.28-15.08,13.48-15.08,3.69,0,6.59,1.22,7.94,3.19h.12V422.23Zm-9.36,24.82a13.41,13.41,0,0,0-.12-1.57,5.53,5.53,0,0,0-5.48-4.35c-4.25,0-6.46,3.59-6.46,8.06,0,4.81,2.52,7.83,6.4,7.83a5.4,5.4,0,0,0,5.42-4.23,7.09,7.09,0,0,0,.25-2Z" transform="translate(-169.52 -180.29)"/><path class="cls-9" d="M1122.26,452c.31,3.65,4.12,5.39,8.49,5.39a28,28,0,0,0,8.31-1.16l1.23,6a31.35,31.35,0,0,1-10.9,1.74c-10.22,0-16.07-5.57-16.07-14.44,0-7.19,4.74-15.13,15.2-15.13,9.73,0,13.42,7.13,13.42,14.15a19.73,19.73,0,0,1-.31,3.48Zm11-6c0-2.15-1-5.74-5.29-5.74-3.94,0-5.54,3.36-5.79,5.74Z" transform="translate(-169.52 -180.29)"/><path class="cls-9" d="M1190.77,462.3c-1.72.81-5.6,1.68-10.65,1.68-14.34,0-21.73-8.41-21.73-19.54,0-13.34,10.09-20.76,22.65-20.76a25.78,25.78,0,0,1,10.22,1.74l-1.91,7a21.34,21.34,0,0,0-7.88-1.45c-7.45,0-13.23,4.23-13.23,12.93,0,7.83,4.92,12.76,13.3,12.76a24.72,24.72,0,0,0,7.82-1.28Z" transform="translate(-169.52 -180.29)"/><path class="cls-9" d="M1195.93,458.71a5.25,5.25,0,0,1,5.54-5.39,5.37,5.37,0,1,1-5.54,5.39Z" transform="translate(-169.52 -180.29)"/><path class="cls-9" d="M1222.71,463.4l-13.3-39.08h10.28l5,16.53c1.42,4.64,2.71,9.1,3.69,14h.18c1-4.7,2.34-9.33,3.75-13.8l5.29-16.7h10l-14,39.08Z" transform="translate(-169.52 -180.29)"/></g></g></svg>