<svg xmlns="http://www.w3.org/2000/svg" viewBox="0 0 1147.53 745.64"><defs><style>.cls-1{isolation:isolate;}.cls-2{fill:none;stroke:#075b99;stroke-width:4px;}.cls-2,.cls-3,.cls-4,.cls-5,.cls-6,.cls-7{stroke-miterlimit:10;}.cls-3,.cls-4,.cls-5,.cls-6,.cls-7{fill:#fff;}.cls-3,.cls-5{stroke:#757575;stroke-width:7px;}.cls-4,.cls-6,.cls-7{stroke:#a2a2a2;}.cls-4,.cls-6{stroke-width:10px;}.cls-4{mix-blend-mode:multiply;}.cls-5,.cls-6,.cls-7{stroke-linecap:round;}.cls-7{stroke-width:9px;}.cls-8{fill:#09ce09;}.cls-9{fill:#4e4f4e;}</style></defs><title>logoina</title><g class="cls-1"><g id="Capa_1" data-name="Capa 1"><path class="cls-2" d="M122.11,531.32l175,1.46,179.21,1.5a1484.56,1484.56,0,0,0-354.2-3Z" transform="translate(-111.81 -22)"/><path class="cls-2" d="M128.42,474.47l-.14.78A375,375,0,0,0,122.5,531s-3.14,79.36-6.65,92.87a61.09,61.09,0,0,0-1.66,8.73c-.38,3.28-3,28.76,13.3,46.75,8.79,9.73,22.33,16.44,50.7,23.06,24.59,5.74,65.29,12.58,172.06,5.61,65.34-4.27,82-8.91,95.59-18.7,9.68-7,24.46-21.4,31.59-41.14a74.26,74.26,0,0,0,4.16-20.57c3.92-52.05-11.64-80.09-2.09-129.93.43-2.25.82-4,1-5" transform="translate(-111.81 -22)"/><path class="cls-2" d="M299.52,576c-.76,28.25-1.35,49.94-1.56,62.93,0,0-.54,20.53-1.72,33.29-.36,3.82-.52,3.53-.88,16.54,0,0-.06,1.68-.15,3.8a170.53,170.53,0,0,1-1.94,18.75" transform="translate(-111.81 -22)"/><path class="cls-2" d="M366.29,431.56a367.12,367.12,0,0,0-25.37,43.06c-8.12,16.26-12.19,24.39-15,35.62-2.45,9.8-5.2,26.14-6.92,41.47-.82,7.28-1.11,11.74-3.46,18.07a60.68,60.68,0,0,1-15,22.33" transform="translate(-111.81 -22)"/><path class="cls-2" d="M414.8,433.58,306.3,429l-2.61,65.13" transform="translate(-111.81 -22)"/><line class="cls-2" x1="193.05" y1="442.89" x2="193.05" y2="442.89"/><line class="cls-2" x1="16.61" y1="452.47" x2="18.69" y2="452.47"/><line class="cls-2" x1="18.69" y1="452.47" x2="193.05" y2="442.89"/><line class="cls-2" x1="14.94" y1="462.2" x2="193.05" y2="447.68"/><path class="cls-2" d="M151.72,527.49a97.69,97.69,0,0,0,9.6,23.71c11.46,19.94,26.88,28.62,37.45,34.38,10.1,5.5,22.42,9.2,47.06,16.6,13.21,4,18.18,5,25.93,9.48,12.6,7.32,21.37,17.37,26.89,24.89" transform="translate(-111.81 -22)"/><path class="cls-2" d="M132.41,531.4a120.13,120.13,0,0,0,10.76,28.15c12.84,23.68,30.12,34,42,40.82,11.31,6.53,25.12,10.92,52.72,19.71,14.8,4.71,20.37,5.91,29.05,11.26C281,640,290.85,652,297,660.91" transform="translate(-111.81 -22)"/><path class="cls-2" d="M122.11,550.46a129.39,129.39,0,0,0,11.32,30.05c13.51,25.28,31.69,36.28,44.16,43.58,11.9,7,26.43,11.66,55.48,21,15.58,5,21.43,6.31,30.57,12,14.86,9.28,25.19,22,31.7,31.56" transform="translate(-111.81 -22)"/><path class="cls-2" d="M472.88,461.6a83.13,83.13,0,0,1,0,18c-.42,3.68-1.1,7.3,1.3,10.47a12.43,12.43,0,0,0,6.52,4.07" transform="translate(-111.81 -22)"/><path class="cls-2" d="M120,582a114.11,114.11,0,0,0,11.24,27.71c13.41,23.31,31.45,33.45,43.83,40.18,11.81,6.43,26.23,10.75,55.06,19.4,15.46,4.64,21.27,5.82,30.34,11.08,21.3,12.37,20.13,27.62,31.46,29.1,21.2,2.76,43.76-45.74,45.12-48.72a142.54,142.54,0,0,0,11.48-38.37c11.53-82.7,63.78-189.38,65.56-188.82.55.17-4.47,10.48.58,17.58,3.47,4.88,10,5.86,17.5,6.88,11.31,1.54,24.83,3.16,40.26,4.59" transform="translate(-111.81 -22)"/><path class="cls-2" d="M116.75,616.88a73.31,73.31,0,0,0,11.17,20.42c13.32,17.18,31.26,24.65,43.56,29.61,11.74,4.73,26.07,7.92,54.73,14.29,15.37,3.42,21.14,4.29,30.16,8.17a99,99,0,0,1,31.27,21.44" transform="translate(-111.81 -22)"/><path class="cls-2" d="M113.88,636.54a55.58,55.58,0,0,0,10.82,16.15c12.91,13.58,30.29,19.49,42.2,23.41,11.38,3.74,25.26,6.26,53,11.3,14.89,2.7,20.48,3.39,29.21,6.46a98.64,98.64,0,0,1,30.3,17" transform="translate(-111.81 -22)"/><path class="cls-2" d="M116.75,660.91a37.77,37.77,0,0,0,9.7,10.56c11.57,8.88,27.14,12.75,37.81,15.31,10.19,2.45,22.63,4.1,47.51,7.39,13.34,1.77,18.35,2.22,26.18,4.22a100.53,100.53,0,0,1,27.15,11.09" transform="translate(-111.81 -22)"/><path class="cls-2" d="M131,474l1,54.53" transform="translate(-111.81 -22)"/><path class="cls-2" d="M142.68,473.67l9,53.82" transform="translate(-111.81 -22)"/><path class="cls-2" d="M297.33,711.26c7.63-.89,31.69-4.54,51.67-22.5,21.56-19.38,23.47-45.18,24.6-55.7,3.63-33.81,16.45-86.83,54.13-175.68" transform="translate(-111.81 -22)"/><path class="cls-2" d="M321.23,708.62c7.55-.87,31.35-4.44,51.11-22,21.32-19,23.22-44.19,24.34-54.48,3.59-33.07,16.27-84.93,53.54-171.83" transform="translate(-111.81 -22)"/><path class="cls-2" d="M343.81,708.62c7.55-.86,31.37-4.42,51.14-21.89,21.34-18.86,23.23-44,24.35-54.2,3.59-32.89,16.28-84.49,53.57-170.94" transform="translate(-111.81 -22)"/><path class="cls-2" d="M382.25,705.53c5.76-.74,23.93-3.78,39-18.73,16.28-16.13,17.72-37.61,18.57-46.37,2.74-28.15,12.42-72.29,40.86-146.26" transform="translate(-111.81 -22)"/><path class="cls-2" d="M403.46,701.84c4.48-.44,18.61-2.25,30.34-11.15,12.66-9.6,13.78-22.39,14.45-27.61,2.13-16.76,9.66-43,31.78-87.07" transform="translate(-111.81 -22)"/><line class="cls-3" x1="597.3" y1="463.75" x2="597.3" y2="463.75"/><line class="cls-4" x1="424.93" y1="86.9" x2="432.97" y2="740.64"/><line class="cls-5" x1="425.12" y1="101.86" x2="538.26" y2="23.8"/><line class="cls-6" x1="597.78" y1="92.89" x2="627.26" y2="740.64"/><line class="cls-5" x1="538.26" y1="23.8" x2="598.59" y2="110.75"/><line class="cls-5" x1="425.12" y1="101.86" x2="592.79" y2="102.38"/><line class="cls-5" x1="428.95" y1="231.94" x2="540" y2="66.25"/><line class="cls-5" x1="540" y1="66.25" x2="603.71" y2="223.25"/><line class="cls-5" x1="428.95" y1="231.94" x2="600.19" y2="145.86"/><line class="cls-5" x1="428.95" y1="248.45" x2="607.55" y2="325.8"/><line class="cls-5" x1="428.95" y1="416.76" x2="548.47" y2="278.89"/><line class="cls-5" x1="428.95" y1="416.76" x2="608.9" y2="337.3"/><line class="cls-5" x1="429.15" y1="429.99" x2="612.52" y2="520.86"/><line class="cls-5" x1="557.06" y1="493.38" x2="431.51" y2="621.8"/><line class="cls-5" x1="436.19" y1="621.89" x2="559.63" y2="557.59"/><line class="cls-5" x1="431.67" y1="634.39" x2="566.7" y2="733.97"/><line class="cls-5" x1="566.7" y1="733.97" x2="622.54" y2="636.91"/><line class="cls-5" x1="626.89" y1="732.62" x2="436.69" y2="630.39"/><line class="cls-5" x1="557.06" y1="493.38" x2="612.52" y2="429.97"/><line class="cls-5" x1="557.06" y1="493.38" x2="621.92" y2="623.38"/><line class="cls-5" x1="559.63" y1="557.59" x2="617.61" y2="528.71"/><line class="cls-5" x1="547.86" y1="263.52" x2="604.45" y2="239.48"/><line class="cls-5" x1="431.19" y1="244.89" x2="547.86" y2="263.52"/><line class="cls-5" x1="612.38" y1="413.77" x2="549.12" y2="295.09"/><line class="cls-7" x1="537.48" y1="4.5" x2="566.96" y2="740.64"/><path class="cls-8" d="M781.73,588.4a11.79,11.79,0,0,0,5.86,1.61c3.34,0,5.29-1.72,5.29-4.22,0-2.31-1.35-3.63-4.77-4.91-4.13-1.43-6.68-3.52-6.68-7,0-3.85,3.27-6.71,8.19-6.71a11.73,11.73,0,0,1,5.6,1.21l-.9,2.6a10.28,10.28,0,0,0-4.81-1.17c-3.46,0-4.77,2-4.77,3.7,0,2.31,1.54,3.45,5,4.77,4.28,1.61,6.46,3.63,6.46,7.26,0,3.81-2.89,7.11-8.86,7.11a13.33,13.33,0,0,1-6.46-1.58Z" transform="translate(-111.81 -22)"/><path class="cls-8" d="M802.65,584c.08,4.36,2.93,6.16,6.23,6.16a12.21,12.21,0,0,0,5-.92l.56,2.31a15,15,0,0,1-6,1.1c-5.59,0-8.94-3.59-8.94-8.95s3.23-9.57,8.52-9.57c5.93,0,7.51,5.1,7.51,8.36a11.75,11.75,0,0,1-.11,1.5Zm9.69-2.31c0-2.05-.86-5.24-4.58-5.24-3.34,0-4.81,3-5.07,5.24Z" transform="translate(-111.81 -22)"/><path class="cls-8" d="M819.62,580.07c0-2.09,0-3.89-.15-5.54h2.89l.11,3.48h.15a5.43,5.43,0,0,1,5-3.89,3.65,3.65,0,0,1,.94.11v3a5.08,5.08,0,0,0-1.13-.11c-2.33,0-4,1.72-4.43,4.14a8.88,8.88,0,0,0-.15,1.5v9.46h-3.27Z" transform="translate(-111.81 -22)"/><path class="cls-8" d="M834.12,574.54l3.57,10a44.77,44.77,0,0,1,1.46,4.55h.11c.41-1.47.94-2.93,1.54-4.55l3.53-10h3.45l-7.13,17.75H837.5l-6.91-17.75Z" transform="translate(-111.81 -22)"/><path class="cls-8" d="M854.59,569.55a2,2,0,0,1-4.09,0,2,2,0,0,1,2.07-2A1.94,1.94,0,0,1,854.59,569.55Zm-3.68,22.73V574.54h3.3v17.75Z" transform="translate(-111.81 -22)"/><path class="cls-8" d="M872.65,591.62a12.41,12.41,0,0,1-5.22,1c-5.48,0-9-3.63-9-9.06s3.83-9.42,9.76-9.42a11.26,11.26,0,0,1,4.58.92l-.75,2.49a7.8,7.8,0,0,0-3.83-.84c-4.17,0-6.42,3-6.42,6.71,0,4.11,2.7,6.64,6.31,6.64a9.58,9.58,0,0,0,4.06-.88Z" transform="translate(-111.81 -22)"/><path class="cls-8" d="M880.2,569.55a2,2,0,0,1-4.09,0,2,2,0,0,1,2.07-2A1.94,1.94,0,0,1,880.2,569.55Zm-3.68,22.73V574.54h3.3v17.75Z" transform="translate(-111.81 -22)"/><path class="cls-8" d="M901.76,583.26c0,6.56-4.66,9.42-9.05,9.42-4.92,0-8.71-3.52-8.71-9.13,0-5.94,4-9.42,9-9.42C898.23,574.13,901.76,577.84,901.76,583.26Zm-14.42.18c0,3.89,2.29,6.82,5.52,6.82s5.52-2.9,5.52-6.89c0-3-1.54-6.82-5.45-6.82S887.34,580.07,887.34,583.45Z" transform="translate(-111.81 -22)"/><path class="cls-8" d="M905.48,589a8.81,8.81,0,0,0,4.36,1.28c2.4,0,3.53-1.17,3.53-2.64s-.94-2.38-3.38-3.26c-3.27-1.14-4.81-2.9-4.81-5,0-2.86,2.37-5.21,6.27-5.21a9.24,9.24,0,0,1,4.47,1.1l-.83,2.35a7.2,7.2,0,0,0-3.72-1c-2,0-3,1.1-3,2.42s1.09,2.13,3.46,3c3.15,1.17,4.77,2.71,4.77,5.35,0,3.12-2.48,5.32-6.8,5.32a10.56,10.56,0,0,1-5.11-1.21Z" transform="translate(-111.81 -22)"/><path class="cls-8" d="M944.46,566.25V587.7c0,1.58,0,3.37.15,4.58h-3l-.15-3.08h-.08a6.75,6.75,0,0,1-6.2,3.48c-4.39,0-7.77-3.63-7.77-9,0-5.9,3.72-9.53,8.15-9.53a6.12,6.12,0,0,1,5.48,2.71h.08v-10.6Zm-3.3,15.51a5.58,5.58,0,0,0-.15-1.36,4.83,4.83,0,0,0-4.77-3.74c-3.42,0-5.44,2.93-5.44,6.86,0,3.59,1.8,6.56,5.37,6.56a4.94,4.94,0,0,0,4.84-3.85,5.5,5.5,0,0,0,.15-1.39Z" transform="translate(-111.81 -22)"/><path class="cls-8" d="M951.79,584c.08,4.36,2.93,6.16,6.23,6.16a12.21,12.21,0,0,0,5-.92l.56,2.31a15,15,0,0,1-6,1.1c-5.59,0-8.94-3.59-8.94-8.95s3.23-9.57,8.52-9.57c5.93,0,7.51,5.1,7.51,8.36a11.75,11.75,0,0,1-.11,1.5Zm9.69-2.31c0-2.05-.86-5.24-4.58-5.24-3.34,0-4.81,3-5.07,5.24Z" transform="translate(-111.81 -22)"/><path class="cls-8" d="M980.93,584.51l-2.63,7.77h-3.38l8.6-24.71h3.94l8.64,24.71h-3.49l-2.7-7.77Zm8.3-2.49-2.48-7.11c-.56-1.61-.94-3.08-1.31-4.51h-.08c-.37,1.47-.79,3-1.28,4.47L981.61,582Z" transform="translate(-111.81 -22)"/><path class="cls-8" d="M999,589a8.81,8.81,0,0,0,4.36,1.28c2.4,0,3.53-1.17,3.53-2.64s-.94-2.38-3.38-3.26c-3.27-1.14-4.81-2.9-4.81-5,0-2.86,2.37-5.21,6.27-5.21a9.24,9.24,0,0,1,4.47,1.1l-.83,2.35a7.2,7.2,0,0,0-3.72-1c-2,0-3,1.1-3,2.42s1.09,2.13,3.46,3c3.15,1.17,4.77,2.71,4.77,5.35,0,3.12-2.48,5.32-6.8,5.32a10.56,10.56,0,0,1-5.11-1.21Z" transform="translate(-111.81 -22)"/><path class="cls-8" d="M1016.2,584c.08,4.36,2.93,6.16,6.23,6.16a12.21,12.21,0,0,0,5-.92l.56,2.31a15,15,0,0,1-6,1.1c-5.59,0-8.94-3.59-8.94-8.95s3.23-9.57,8.52-9.57c5.93,0,7.51,5.1,7.51,8.36a11.75,11.75,0,0,1-.11,1.5Zm9.69-2.31c0-2.05-.86-5.24-4.58-5.24-3.34,0-4.81,3-5.07,5.24Z" transform="translate(-111.81 -22)"/><path class="cls-8" d="M1032.72,589a8.81,8.81,0,0,0,4.36,1.28c2.4,0,3.53-1.17,3.53-2.64s-.94-2.38-3.38-3.26c-3.27-1.14-4.81-2.9-4.81-5,0-2.86,2.37-5.21,6.27-5.21a9.24,9.24,0,0,1,4.47,1.1l-.83,2.35a7.2,7.2,0,0,0-3.72-1c-2,0-3,1.1-3,2.42s1.09,2.13,3.46,3c3.15,1.17,4.77,2.71,4.77,5.35,0,3.12-2.48,5.32-6.8,5.32a10.56,10.56,0,0,1-5.11-1.21Z" transform="translate(-111.81 -22)"/><path class="cls-8" d="M1064.5,583.26c0,6.56-4.66,9.42-9.05,9.42-4.92,0-8.71-3.52-8.71-9.13,0-5.94,4-9.42,9-9.42C1061,574.13,1064.5,577.84,1064.5,583.26Zm-14.42.18c0,3.89,2.29,6.82,5.52,6.82s5.52-2.9,5.52-6.89c0-3-1.54-6.82-5.45-6.82S1050.08,580.07,1050.08,583.45Z" transform="translate(-111.81 -22)"/><path class="cls-8" d="M1068.67,580.07c0-2.09,0-3.89-.15-5.54h2.89l.11,3.48h.15a5.43,5.43,0,0,1,5-3.89,3.65,3.65,0,0,1,.94.11v3a5.08,5.08,0,0,0-1.13-.11c-2.33,0-4,1.72-4.43,4.14a8.88,8.88,0,0,0-.15,1.5v9.46h-3.27Z" transform="translate(-111.81 -22)"/><path class="cls-8" d="M1087.82,566.87l-4.58,5.24h-2.37l3.3-5.24Zm-6.72,25.41V574.54h3.3v17.75Z" transform="translate(-111.81 -22)"/><path class="cls-8" d="M1100,592.28l-.26-2.24h-.11a6.83,6.83,0,0,1-5.56,2.64c-3.68,0-5.56-2.53-5.56-5.1,0-4.29,3.91-6.64,10.93-6.6v-.37c0-1.47-.41-4.11-4.13-4.11a9.21,9.21,0,0,0-4.73,1.32l-.75-2.13a11.49,11.49,0,0,1,6-1.58c5.56,0,6.91,3.7,6.91,7.26V588a24.37,24.37,0,0,0,.3,4.25Zm-.49-9.06c-3.61-.07-7.7.55-7.7,4a2.89,2.89,0,0,0,3.12,3.08,4.51,4.51,0,0,0,4.39-3,3.28,3.28,0,0,0,.19-1Z" transform="translate(-111.81 -22)"/><path class="cls-8" d="M1119.33,570.28h-7.7v-2.71h18.74v2.71h-7.74v22h-3.3Z" transform="translate(-111.81 -22)"/><path class="cls-8" d="M1132.25,584c.08,4.36,2.93,6.16,6.23,6.16a12.21,12.21,0,0,0,5-.92l.56,2.31a15,15,0,0,1-6,1.1c-5.59,0-8.94-3.59-8.94-8.95s3.23-9.57,8.52-9.57c5.93,0,7.51,5.1,7.51,8.36a11.75,11.75,0,0,1-.11,1.5Zm9.69-2.31c0-2.05-.86-5.24-4.58-5.24-3.34,0-4.81,3-5.07,5.24Zm.79-14.81-4.58,5.24h-2.37l3.3-5.24Z" transform="translate(-111.81 -22)"/><path class="cls-8" d="M1162.18,591.62a12.41,12.41,0,0,1-5.22,1c-5.48,0-9-3.63-9-9.06s3.83-9.42,9.76-9.42a11.26,11.26,0,0,1,4.58.92l-.75,2.49a7.8,7.8,0,0,0-3.83-.84c-4.17,0-6.42,3-6.42,6.71,0,4.11,2.7,6.64,6.31,6.64a9.58,9.58,0,0,0,4.06-.88Z" transform="translate(-111.81 -22)"/><path class="cls-8" d="M1166.05,579.34c0-1.83,0-3.34-.15-4.8h2.93l.19,2.93h.08a6.71,6.71,0,0,1,6-3.34c2.52,0,6.42,1.47,6.42,7.55v10.6h-3.3V582.05c0-2.86-1.09-5.24-4.21-5.24a4.68,4.68,0,0,0-4.43,3.3,4.54,4.54,0,0,0-.23,1.5v10.67h-3.3Z" transform="translate(-111.81 -22)"/><path class="cls-8" d="M1190.58,569.55a2,2,0,0,1-4.09,0,2,2,0,0,1,2.07-2A1.94,1.94,0,0,1,1190.58,569.55Zm-3.68,22.73V574.54h3.3v17.75Z" transform="translate(-111.81 -22)"/><path class="cls-8" d="M1208.64,591.62a12.41,12.41,0,0,1-5.22,1c-5.48,0-9-3.63-9-9.06s3.83-9.42,9.76-9.42a11.26,11.26,0,0,1,4.58.92l-.75,2.49a7.8,7.8,0,0,0-3.83-.84c-4.17,0-6.42,3-6.42,6.71,0,4.11,2.7,6.64,6.31,6.64a9.58,9.58,0,0,0,4.06-.88Z" transform="translate(-111.81 -22)"/><path class="cls-8" d="M1222.58,592.28l-.26-2.24h-.11a6.83,6.83,0,0,1-5.56,2.64c-3.68,0-5.56-2.53-5.56-5.1,0-4.29,3.91-6.64,10.93-6.6v-.37c0-1.47-.41-4.11-4.13-4.11a9.21,9.21,0,0,0-4.73,1.32l-.75-2.13a11.49,11.49,0,0,1,6-1.58c5.56,0,6.91,3.7,6.91,7.26V588a24.37,24.37,0,0,0,.3,4.25Zm-.49-9.06c-3.61-.07-7.7.55-7.7,4a2.89,2.89,0,0,0,3.12,3.08,4.51,4.51,0,0,0,4.39-3,3.28,3.28,0,0,0,.19-1Z" transform="translate(-111.81 -22)"/><path class="cls-8" d="M1239.78,574.54l4,10.49c.41,1.17.86,2.57,1.16,3.63h.08c.34-1.06.71-2.42,1.16-3.7l3.6-10.41h3.49l-5,12.65c-2.37,6.09-4,9.2-6.23,11.11a9,9,0,0,1-4.06,2.09l-.83-2.71a8.79,8.79,0,0,0,2.89-1.58,9.82,9.82,0,0,0,2.78-3.59,2.27,2.27,0,0,0,.26-.77,2.76,2.76,0,0,0-.23-.84l-6.72-16.35Z" transform="translate(-111.81 -22)"/><path class="cls-9" d="M794,635.66a13.29,13.29,0,0,1-4.51.84,7.65,7.65,0,0,1-6-2.42c-1.84-1.91-3.08-5.32-3-9.83,0-9.61,5.07-12.91,9.54-12.91a8.17,8.17,0,0,1,3.6.7l-.64,2.42a6.46,6.46,0,0,0-2.93-.59c-3.15,0-6.57,2.46-6.57,10.12s3,10.08,6,10.08a4.25,4.25,0,0,0,1.77-.29v-8.07H788v-2.35h6Z" transform="translate(-111.81 -22)"/><path class="cls-9" d="M799.87,627.67c0,5.43,2.22,6.6,4.32,6.6a6.23,6.23,0,0,0,3-.7l.45,2.09a8.94,8.94,0,0,1-4,.84c-4.36,0-6.61-3.48-6.61-8.91,0-5.76,2.48-9.35,6.12-9.35s5.18,3.81,5.18,7.85c0,.66,0,1.14,0,1.58Zm5.71-2.09c.08-3.56-1.31-5.13-2.7-5.13-1.88,0-2.85,2.71-3,5.13Z" transform="translate(-111.81 -22)"/><path class="cls-9" d="M811,633.35a5.84,5.84,0,0,0,2.93.92,2.43,2.43,0,0,0,2.67-2.57c0-1.36-.49-2.27-2.33-3.48-2.37-1.5-3.64-3-3.64-5.06a4.83,4.83,0,0,1,5-4.91,6.36,6.36,0,0,1,3.27.92l-.79,2.13a4.34,4.34,0,0,0-2.4-.77,2.2,2.2,0,0,0-2.37,2.24c0,1.21.45,1.87,2.25,3.08,2.1,1.32,3.75,2.93,3.75,5.39,0,3.56-2.48,5.28-5.45,5.28a6.32,6.32,0,0,1-3.6-1Z" transform="translate(-111.81 -22)"/><path class="cls-9" d="M825.86,613.84v4.69h3.49v2.16h-3.49v10.52c0,2.31.86,2.93,1.92,2.93a5.45,5.45,0,0,0,1.16-.11l.11,2.16a6.47,6.47,0,0,1-2.14.29,3.73,3.73,0,0,1-2.85-1.06c-.71-.81-1.09-2-1.09-4.47V620.7h-2.22v-2.16H823v-3.89Z" transform="translate(-111.81 -22)"/><path class="cls-9" d="M835,614a1.71,1.71,0,1,1-3.42,0,1.71,1.71,0,0,1,1.69-1.83A1.68,1.68,0,0,1,835,614Zm-3.12,22.33V618.54h2.89v17.75Z" transform="translate(-111.81 -22)"/><path class="cls-9" d="M850,627.41c0,6.86-3.27,9.17-6,9.17-3.27,0-5.9-2.9-5.9-9.13,0-6.49,3-9.2,6.08-9.2S850,621.21,850,627.41Zm-9,0c0,2.93.53,6.93,3.15,6.93,2.48,0,3-4.18,3-6.93s-.49-6.89-3-6.89S840.92,624.7,840.92,627.41Z" transform="translate(-111.81 -22)"/><path class="cls-9" d="M853.2,623.12c0-2.09-.11-3.15-.15-4.58h2.52l.15,2.13h.08a4.63,4.63,0,0,1,4.17-2.42c2.52,0,4.39,1.83,4.39,6.12v11.92h-2.89V624.84c0-2.09-.41-4.22-2.52-4.22-1.2,0-2.37,1-2.74,2.9a9.7,9.7,0,0,0-.11,1.58v11.18H853.2Z" transform="translate(-111.81 -22)"/><path class="cls-9" d="M870.44,627.67c0,5.43,2.22,6.6,4.32,6.6a6.23,6.23,0,0,0,3-.7l.45,2.09a8.94,8.94,0,0,1-4,.84c-4.36,0-6.61-3.48-6.61-8.91,0-5.76,2.48-9.35,6.12-9.35s5.18,3.81,5.18,7.85c0,.66,0,1.14,0,1.58Zm5.71-2.09c.08-3.56-1.31-5.13-2.7-5.13-1.88,0-2.85,2.71-3,5.13Z" transform="translate(-111.81 -22)"/><path class="cls-9" d="M881.55,633.35a5.84,5.84,0,0,0,2.93.92,2.43,2.43,0,0,0,2.67-2.57c0-1.36-.49-2.27-2.33-3.48-2.37-1.5-3.64-3-3.64-5.06a4.83,4.83,0,0,1,5-4.91,6.36,6.36,0,0,1,3.27.92l-.79,2.13a4.34,4.34,0,0,0-2.4-.77,2.2,2.2,0,0,0-2.37,2.24c0,1.21.45,1.87,2.25,3.08,2.1,1.32,3.75,2.93,3.75,5.39,0,3.56-2.48,5.28-5.45,5.28a6.32,6.32,0,0,1-3.6-1Z" transform="translate(-111.81 -22)"/><path class="cls-9" d="M914.34,625.65c-.19-3.26-.37-6.89-.26-9.68h-.15c-.56,2.75-1.24,5.68-2,8.58l-3.12,11.59h-1.84L904,625c-.83-3.15-1.58-6.2-2.07-9.06h-.11c0,2.9-.15,6.34-.3,9.86L901,636.28h-2.59l1.5-24.71H903l3,11.29c.86,3.26,1.5,5.68,2,8.51h.11c.49-2.82,1.05-5.17,1.88-8.51l2.85-11.29h3.23l1.46,24.71h-2.7Z" transform="translate(-111.81 -22)"/><path class="cls-9" d="M928.46,636.28l-.19-1.87h-.11a4.09,4.09,0,0,1-3.6,2.16c-2.44,0-4.32-2-4.32-5.06,0-4.44,3.64-6.42,7.74-6.45v-.55c0-2.38-.6-4-2.89-4a5.57,5.57,0,0,0-3,.92l-.64-2a8,8,0,0,1,4.24-1.17c3.64,0,5.22,2.35,5.22,6.34v7.66a27.37,27.37,0,0,0,.19,4Zm-.41-9.17c-1.5,0-5,.26-5,4.11,0,2.31,1.2,3.15,2.22,3.15,1.28,0,2.37-.92,2.7-2.68a4.56,4.56,0,0,0,.08-1Z" transform="translate(-111.81 -22)"/><path class="cls-9" d="M934.92,623.12c0-1.5-.11-3.26-.15-4.58h2.59l.15,2.79h.08a4.4,4.4,0,0,1,3.83-3.08c.23,0,.41,0,.6,0v2.9a3.08,3.08,0,0,0-.6,0c-1.84,0-3.19,1.65-3.49,3.7a10.54,10.54,0,0,0-.11,1.61v9.83h-2.89Z" transform="translate(-111.81 -22)"/><path class="cls-9" d="M947.39,614a1.71,1.71,0,1,1-3.42,0,1.71,1.71,0,0,1,1.69-1.83A1.68,1.68,0,0,1,947.39,614Zm-3.12,22.33V618.54h2.89v17.75Z" transform="translate(-111.81 -22)"/><path class="cls-9" d="M954.71,613.84v4.69h3.49v2.16h-3.49v10.52c0,2.31.86,2.93,1.92,2.93a5.45,5.45,0,0,0,1.16-.11l.11,2.16a6.47,6.47,0,0,1-2.14.29,3.73,3.73,0,0,1-2.85-1.06c-.71-.81-1.09-2-1.09-4.47V620.7h-2.22v-2.16h2.22v-3.89Z" transform="translate(-111.81 -22)"/><path class="cls-9" d="M963.88,614a1.71,1.71,0,1,1-3.42,0,1.71,1.71,0,0,1,1.69-1.83A1.68,1.68,0,0,1,963.88,614Zm-3.12,22.33V618.54h2.89v17.75Z" transform="translate(-111.81 -22)"/><path class="cls-9" d="M967.67,623.12c0-2.09-.11-3.15-.15-4.58H970l.15,2.2h.08a4.57,4.57,0,0,1,4.09-2.49,3.78,3.78,0,0,1,3.79,2.71h.08a5.69,5.69,0,0,1,1.8-2,4.47,4.47,0,0,1,2.52-.7c2.44,0,4.36,1.76,4.36,6.27v11.77H984V625.17c0-2.31-.34-4.55-2.55-4.55-1.2,0-2.25,1-2.67,2.64a10.53,10.53,0,0,0-.11,1.61v11.4h-2.85V624.66c0-2-.37-4-2.52-4-1.16,0-2.37,1-2.7,2.86a9.9,9.9,0,0,0-.11,1.54v11.26h-2.85Z" transform="translate(-111.81 -22)"/><path class="cls-9" d="M998.13,636.28l-.19-1.87h-.11a4.09,4.09,0,0,1-3.6,2.16c-2.44,0-4.32-2-4.32-5.06,0-4.44,3.64-6.42,7.74-6.45v-.55c0-2.38-.6-4-2.89-4a5.57,5.57,0,0,0-3,.92l-.64-2a8,8,0,0,1,4.24-1.17c3.64,0,5.22,2.35,5.22,6.34v7.66a27.37,27.37,0,0,0,.19,4Zm-.41-9.17c-1.5,0-5,.26-5,4.11,0,2.31,1.2,3.15,2.22,3.15,1.28,0,2.37-.92,2.7-2.68a4.56,4.56,0,0,0,.08-1Z" transform="translate(-111.81 -22)"/><path class="cls-9" d="M1004.14,633.35a5.84,5.84,0,0,0,2.93.92,2.43,2.43,0,0,0,2.67-2.57c0-1.36-.49-2.27-2.33-3.48-2.37-1.5-3.64-3-3.64-5.06a4.83,4.83,0,0,1,5-4.91,6.36,6.36,0,0,1,3.27.92l-.79,2.13a4.34,4.34,0,0,0-2.4-.77,2.2,2.2,0,0,0-2.37,2.24c0,1.21.45,1.87,2.25,3.08,2.1,1.32,3.75,2.93,3.75,5.39,0,3.56-2.48,5.28-5.45,5.28a6.32,6.32,0,0,1-3.6-1Z" transform="translate(-111.81 -22)"/><path class="cls-9" d="M1030.89,611.57v24.71h-5.75V611.57Z" transform="translate(-111.81 -22)"/><path class="cls-9" d="M1035.84,636.28V611.57h6.68l5.26,9.06a71,71,0,0,1,4.13,8.47h.11a89.7,89.7,0,0,1-.49-10.3v-7.22h5.26v24.71h-6l-5.41-9.53A91,91,0,0,1,1041,618l-.11,0c.15,3.26.22,6.75.22,10.78v7.44Z" transform="translate(-111.81 -22)"/><path class="cls-9" d="M1067.65,629.94l-1.8,6.34h-5.93l7.74-24.71h7.51l7.85,24.71h-6.16l-2-6.34Zm6.42-4.18-1.58-5.24c-.45-1.47-.9-3.3-1.28-4.77h-.08c-.37,1.47-.75,3.34-1.16,4.77l-1.5,5.24Z" transform="translate(-111.81 -22)"/><path class="cls-9" d="M1094.17,630.53a14.88,14.88,0,0,0,6.35,1.54c2.63,0,4-1.06,4-2.68s-1.2-2.42-4.24-3.48c-4.21-1.43-6.95-3.7-6.95-7.3,0-4.22,3.61-7.44,9.58-7.44a15.83,15.83,0,0,1,6.46,1.25l-1.28,4.51a12.27,12.27,0,0,0-5.29-1.17c-2.48,0-3.68,1.1-3.68,2.38,0,1.58,1.43,2.27,4.69,3.48,4.47,1.61,6.57,3.89,6.57,7.37,0,4.14-3.27,7.66-10.21,7.66a16.89,16.89,0,0,1-7.17-1.5Z" transform="translate(-111.81 -22)"/><path class="cls-9" d="M1113.66,633.31a3.26,3.26,0,0,1,3.38-3.41,3.39,3.39,0,1,1-3.38,3.41Z" transform="translate(-111.81 -22)"/><path class="cls-9" d="M1129.92,629.94l-1.8,6.34h-5.93l7.74-24.71h7.51l7.85,24.71h-6.16l-2-6.34Zm6.42-4.18-1.58-5.24c-.45-1.47-.9-3.3-1.28-4.77h-.08c-.37,1.47-.75,3.34-1.16,4.77l-1.5,5.24Z" transform="translate(-111.81 -22)"/><path class="cls-9" d="M1173.86,610.25v20.68c0,2,.08,4.14.15,5.35h-5.07l-.26-2.64h-.08a6.45,6.45,0,0,1-5.75,3c-4.36,0-7.85-3.63-7.85-9.2,0-6,3.83-9.53,8.22-9.53,2.25,0,4,.77,4.84,2h.08v-9.72Zm-5.71,15.69a8.87,8.87,0,0,0-.08-1,3.41,3.41,0,0,0-3.34-2.75c-2.59,0-3.94,2.27-3.94,5.1,0,3,1.54,5,3.91,5a3.32,3.32,0,0,0,3.3-2.68,4.65,4.65,0,0,0,.15-1.28Z" transform="translate(-111.81 -22)"/><path class="cls-9" d="M1182.84,629.1c.19,2.31,2.52,3.41,5.18,3.41a16.53,16.53,0,0,0,5.07-.73l.75,3.78a18.51,18.51,0,0,1-6.65,1.1c-6.23,0-9.8-3.52-9.8-9.13,0-4.55,2.89-9.57,9.28-9.57,5.93,0,8.19,4.51,8.19,8.95a12.91,12.91,0,0,1-.19,2.2Zm6.72-3.81c0-1.36-.6-3.63-3.23-3.63-2.4,0-3.38,2.13-3.53,3.63Z" transform="translate(-111.81 -22)"/><path class="cls-9" d="M1224.64,635.59a16.67,16.67,0,0,1-6.5,1.06c-8.75,0-13.26-5.32-13.26-12.36,0-8.43,6.16-13.13,13.82-13.13a15.23,15.23,0,0,1,6.23,1.1l-1.16,4.44a12.62,12.62,0,0,0-4.81-.92c-4.54,0-8.07,2.68-8.07,8.18,0,5,3,8.07,8.11,8.07a14.63,14.63,0,0,0,4.77-.81Z" transform="translate(-111.81 -22)"/><path class="cls-9" d="M1227.8,633.31a3.26,3.26,0,0,1,3.38-3.41,3.39,3.39,0,1,1-3.38,3.41Z" transform="translate(-111.81 -22)"/><path class="cls-9" d="M1244.14,636.28,1236,611.57h6.27l3.08,10.45c.86,2.93,1.65,5.76,2.25,8.84h.11c.64-3,1.43-5.9,2.29-8.73l3.23-10.56h6.08l-8.52,24.71Z" transform="translate(-111.81 -22)"/></g></g></svg>