<svg xmlns="http://www.w3.org/2000/svg" viewBox="0 0 2785.38 1041.1"><defs><style>.cls-1{isolation:isolate;}.cls-2,.cls-5{fill:#81f2ef;}.cls-10,.cls-3,.cls-6,.cls-7,.cls-8,.cls-9{fill:#fff;}.cls-12,.cls-4{fill:#2ca0e8;}.cls-5,.cls-6{stroke:#dcf9f9;}.cls-10,.cls-5,.cls-6,.cls-9{stroke-linecap:round;}.cls-10,.cls-11,.cls-12,.cls-5,.cls-6,.cls-7,.cls-8,.cls-9{stroke-miterlimit:10;}.cls-6{opacity:0.99;}.cls-7,.cls-9{stroke:#757575;}.cls-10,.cls-7,.cls-8,.cls-9{stroke-width:4px;}.cls-10,.cls-8{stroke:#a2a2a2;}.cls-8{mix-blend-mode:multiply;}.cls-11{fill:none;stroke-width:3px;}.cls-11,.cls-12{stroke:#2ca0e8;}.cls-12{stroke-width:0.5px;}</style></defs><title>logoina2</title><g class="cls-1"><g id="Capa_1" data-name="Capa 1"><path class="cls-2" d="M1135.41,949.39a42.28,42.28,0,0,0,20.91,5.72c11.93,0,18.9-6.11,18.9-15,0-8.19-4.83-12.87-17-17.42-14.74-5.07-23.86-12.48-23.86-24.83,0-13.65,11.66-23.79,29.22-23.79,9.25,0,15.95,2.08,20,4.29l-3.22,9.23a36.85,36.85,0,0,0-17.16-4.16c-12.33,0-17,7.15-17,13.13,0,8.19,5.5,12.22,18,16.9,15.28,5.72,23.05,12.87,23.05,25.74,0,13.52-10.32,25.22-31.63,25.22-8.71,0-18.23-2.47-23.05-5.59Z" transform="translate(-32.74 -412.4)"/><path class="cls-2" d="M1210.07,933.79c.27,15.47,10.45,21.84,22.25,21.84,8.44,0,13.54-1.43,18-3.25l2,8.19c-4.16,1.82-11.26,3.9-21.58,3.9-20,0-31.9-12.74-31.9-31.72s11.53-33.93,30.43-33.93c21.18,0,26.81,18.07,26.81,29.64a41.91,41.91,0,0,1-.4,5.33Zm34.58-8.19c.13-7.28-3.08-18.59-16.35-18.59-11.93,0-17.16,10.66-18.09,18.59Z" transform="translate(-32.74 -412.4)"/><path class="cls-2" d="M1270.65,919.87c0-7.41-.13-13.78-.54-19.63h10.32l.4,12.35h.54c2.95-8.45,10.05-13.78,18-13.78a13.15,13.15,0,0,1,3.35.39V910a18.26,18.26,0,0,0-4-.39c-8.31,0-14.21,6.11-15.82,14.69a31.26,31.26,0,0,0-.54,5.33v33.54h-11.66Z" transform="translate(-32.74 -412.4)"/><path class="cls-2" d="M1322.38,900.24l12.73,35.36a158,158,0,0,1,5.23,16.12h.4c1.47-5.2,3.35-10.4,5.5-16.12l12.6-35.36h12.33l-25.47,62.92h-11.26l-24.66-62.92Z" transform="translate(-32.74 -412.4)"/><path class="cls-2" d="M1395.42,882.56c.13,3.9-2.81,7-7.51,7a6.91,6.91,0,0,1-7.1-7,7.08,7.08,0,0,1,7.37-7.15A6.89,6.89,0,0,1,1395.42,882.56Zm-13.14,80.6V900.24h11.79v62.92Z" transform="translate(-32.74 -412.4)"/><path class="cls-2" d="M1459.89,960.83c-3.08,1.56-9.92,3.64-18.63,3.64-19.57,0-32.3-12.87-32.3-32.11s13.67-33.41,34.85-33.41a40.47,40.47,0,0,1,16.35,3.25l-2.68,8.84c-2.81-1.56-7.24-3-13.67-3-14.88,0-22.92,10.66-22.92,23.79,0,14.56,9.65,23.53,22.52,23.53a34.37,34.37,0,0,0,14.48-3.12Z" transform="translate(-32.74 -412.4)"/><path class="cls-2" d="M1486.83,882.56c.13,3.9-2.82,7-7.51,7a6.91,6.91,0,0,1-7.1-7,7.08,7.08,0,0,1,7.37-7.15A6.89,6.89,0,0,1,1486.83,882.56Zm-13.14,80.6V900.24h11.79v62.92Z" transform="translate(-32.74 -412.4)"/><path class="cls-2" d="M1563.76,931.18c0,23.27-16.62,33.41-32.3,33.41-17.56,0-31.1-12.48-31.1-32.37,0-21.06,14.21-33.41,32.17-33.41C1551.16,898.81,1563.76,911.94,1563.76,931.18Zm-51.47.65c0,13.78,8.18,24.18,19.7,24.18,11.26,0,19.7-10.27,19.7-24.44,0-10.66-5.5-24.18-19.43-24.18S1512.29,919.87,1512.29,931.83Z" transform="translate(-32.74 -412.4)"/><path class="cls-2" d="M1577,951.47a31.6,31.6,0,0,0,15.55,4.55c8.58,0,12.6-4.16,12.6-9.36,0-5.46-3.35-8.45-12.06-11.57-11.66-4-17.16-10.27-17.16-17.81,0-10.14,8.44-18.46,22.38-18.46a33.17,33.17,0,0,1,16,3.9l-2.95,8.32a25.81,25.81,0,0,0-13.27-3.64c-7,0-10.86,3.9-10.86,8.58,0,5.2,3.89,7.54,12.33,10.66,11.26,4.16,17,9.62,17,19,0,11.05-8.85,18.85-24.26,18.85-7.1,0-13.67-1.69-18.23-4.29Z" transform="translate(-32.74 -412.4)"/><path class="cls-2" d="M1716.15,870.86v76.05c0,5.59.13,12,.54,16.25H1706.1l-.54-10.92h-.27c-3.62,7-11.53,12.35-22.12,12.35-15.68,0-27.74-12.87-27.74-32-.13-20.93,13.27-33.8,29.08-33.8,9.92,0,16.62,4.55,19.57,9.62h.27V870.86Zm-11.79,55a19.64,19.64,0,0,0-.54-4.81,17.23,17.23,0,0,0-17-13.26c-12.2,0-19.43,10.4-19.43,24.31,0,12.74,6.43,23.27,19.17,23.27a17.62,17.62,0,0,0,17.29-13.65,19.33,19.33,0,0,0,.54-4.94Z" transform="translate(-32.74 -412.4)"/><path class="cls-2" d="M1742.29,933.79c.27,15.47,10.45,21.84,22.25,21.84,8.44,0,13.54-1.43,18-3.25l2,8.19c-4.16,1.82-11.26,3.9-21.58,3.9-20,0-31.9-12.74-31.9-31.72s11.53-33.93,30.43-33.93c21.18,0,26.81,18.07,26.81,29.64a41.73,41.73,0,0,1-.4,5.33Zm34.58-8.19c.13-7.28-3.08-18.59-16.35-18.59-11.93,0-17.16,10.66-18.09,18.59Z" transform="translate(-32.74 -412.4)"/><path class="cls-2" d="M1846.29,935.61l-9.38,27.56h-12.06l30.69-87.62h14.07l30.83,87.62H1888l-9.65-27.56Zm29.62-8.84-8.85-25.22c-2-5.72-3.35-10.92-4.69-16h-.27c-1.34,5.2-2.81,10.53-4.56,15.86l-8.85,25.35Z" transform="translate(-32.74 -412.4)"/><path class="cls-2" d="M1910.89,951.47a31.6,31.6,0,0,0,15.55,4.55c8.58,0,12.6-4.16,12.6-9.36,0-5.46-3.35-8.45-12.06-11.57-11.66-4-17.16-10.27-17.16-17.81,0-10.14,8.44-18.46,22.38-18.46a33.17,33.17,0,0,1,16,3.9L1945.2,911a25.81,25.81,0,0,0-13.27-3.64c-7,0-10.86,3.9-10.86,8.58,0,5.2,3.89,7.54,12.33,10.66,11.26,4.16,17,9.62,17,19,0,11.05-8.85,18.85-24.26,18.85-7.1,0-13.67-1.69-18.23-4.29Z" transform="translate(-32.74 -412.4)"/><path class="cls-2" d="M1972.14,933.79c.27,15.47,10.45,21.84,22.25,21.84,8.44,0,13.54-1.43,18-3.25l2,8.19c-4.16,1.82-11.26,3.9-21.58,3.9-20,0-31.9-12.74-31.9-31.72s11.53-33.93,30.43-33.93c21.18,0,26.81,18.07,26.81,29.64a41.73,41.73,0,0,1-.4,5.33Zm34.58-8.19c.13-7.28-3.08-18.59-16.35-18.59-11.93,0-17.16,10.66-18.09,18.59Z" transform="translate(-32.74 -412.4)"/><path class="cls-2" d="M2031.11,951.47a31.6,31.6,0,0,0,15.55,4.55c8.58,0,12.6-4.16,12.6-9.36,0-5.46-3.35-8.45-12.06-11.57-11.66-4-17.16-10.27-17.16-17.81,0-10.14,8.44-18.46,22.38-18.46a33.17,33.17,0,0,1,16,3.9l-2.95,8.32a25.81,25.81,0,0,0-13.27-3.64c-7,0-10.86,3.9-10.86,8.58,0,5.2,3.89,7.54,12.33,10.66,11.26,4.16,17,9.62,17,19,0,11.05-8.85,18.85-24.26,18.85-7.1,0-13.67-1.69-18.23-4.29Z" transform="translate(-32.74 -412.4)"/><path class="cls-2" d="M2144.5,931.18c0,23.27-16.62,33.41-32.3,33.41-17.56,0-31.1-12.48-31.1-32.37,0-21.06,14.21-33.41,32.17-33.41C2131.9,898.81,2144.5,911.94,2144.5,931.18Zm-51.47.65c0,13.78,8.18,24.18,19.7,24.18,11.26,0,19.7-10.27,19.7-24.44,0-10.66-5.5-24.18-19.43-24.18S2093,919.87,2093,931.83Z" transform="translate(-32.74 -412.4)"/><path class="cls-2" d="M2159.38,919.87c0-7.41-.13-13.78-.54-19.63h10.32l.4,12.35h.54c2.95-8.45,10.05-13.78,18-13.78a13.15,13.15,0,0,1,3.35.39V910a18.26,18.26,0,0,0-4-.39c-8.31,0-14.21,6.11-15.82,14.69a31.31,31.31,0,0,0-.54,5.33v33.54h-11.66Z" transform="translate(-32.74 -412.4)"/><path class="cls-2" d="M2227.73,873.07l-16.35,18.59h-8.44l11.79-18.59Zm-24,90.09V900.24h11.79v62.92Z" transform="translate(-32.74 -412.4)"/><path class="cls-2" d="M2271,963.17l-.94-7.93h-.4c-3.62,4.94-10.59,9.36-19.84,9.36-13.14,0-19.84-9-19.84-18.07,0-15.21,13.94-23.53,39-23.4v-1.3c0-5.2-1.47-14.56-14.74-14.56a33.06,33.06,0,0,0-16.89,4.68l-2.68-7.54c5.36-3.38,13.14-5.59,21.31-5.59,19.84,0,24.66,13.13,24.66,25.74v23.53a86,86,0,0,0,1.07,15.08Zm-1.74-32.11c-12.87-.26-27.48,2-27.48,14.17,0,7.41,5.09,10.92,11.12,10.92,8.44,0,13.81-5.2,15.68-10.53a11.64,11.64,0,0,0,.67-3.64Z" transform="translate(-32.74 -412.4)"/><path class="cls-2" d="M2340.18,885.16H2312.7v-9.62h66.88v9.62H2352v78h-11.79Z" transform="translate(-32.74 -412.4)"/><path class="cls-2" d="M2386.29,933.79c.27,15.47,10.46,21.84,22.25,21.84,8.44,0,13.54-1.43,18-3.25l2,8.19c-4.15,1.82-11.26,3.9-21.58,3.9-20,0-31.9-12.74-31.9-31.72s11.53-33.93,30.42-33.93c21.18,0,26.81,18.07,26.81,29.64a42,42,0,0,1-.4,5.33Zm34.58-8.19c.13-7.28-3.08-18.59-16.35-18.59-11.93,0-17.16,10.66-18.09,18.59Zm2.81-52.52-16.35,18.59h-8.44l11.79-18.59Z" transform="translate(-32.74 -412.4)"/><path class="cls-2" d="M2493.11,960.83c-3.08,1.56-9.92,3.64-18.63,3.64-19.57,0-32.3-12.87-32.3-32.11s13.67-33.41,34.85-33.41a40.47,40.47,0,0,1,16.35,3.25l-2.68,8.84c-2.81-1.56-7.24-3-13.67-3-14.88,0-22.92,10.66-22.92,23.79,0,14.56,9.65,23.53,22.52,23.53a34.37,34.37,0,0,0,14.48-3.12Z" transform="translate(-32.74 -412.4)"/><path class="cls-2" d="M2506.91,917.27c0-6.5-.13-11.83-.54-17h10.46l.67,10.4h.27c3.22-6,10.72-11.83,21.45-11.83,9,0,22.92,5.2,22.92,26.78v37.57h-11.79V926.89c0-10.14-3.89-18.59-15-18.59a16.68,16.68,0,0,0-15.82,11.7,16,16,0,0,0-.8,5.33v37.83h-11.79Z" transform="translate(-32.74 -412.4)"/><path class="cls-2" d="M2594.43,882.56c.13,3.9-2.82,7-7.51,7a6.91,6.91,0,0,1-7.1-7,7.08,7.08,0,0,1,7.37-7.15A6.89,6.89,0,0,1,2594.43,882.56Zm-13.14,80.6V900.24h11.79v62.92Z" transform="translate(-32.74 -412.4)"/><path class="cls-2" d="M2658.9,960.83c-3.08,1.56-9.92,3.64-18.63,3.64-19.57,0-32.3-12.87-32.3-32.11s13.67-33.41,34.85-33.41a40.47,40.47,0,0,1,16.35,3.25l-2.68,8.84c-2.81-1.56-7.24-3-13.67-3-14.88,0-22.92,10.66-22.92,23.79,0,14.56,9.65,23.53,22.52,23.53a34.37,34.37,0,0,0,14.48-3.12Z" transform="translate(-32.74 -412.4)"/><path class="cls-2" d="M2708.62,963.17l-.94-7.93h-.4c-3.62,4.94-10.59,9.36-19.84,9.36-13.14,0-19.84-9-19.84-18.07,0-15.21,13.94-23.53,39-23.4v-1.3c0-5.2-1.47-14.56-14.74-14.56a33.06,33.06,0,0,0-16.89,4.68l-2.68-7.54c5.36-3.38,13.14-5.59,21.31-5.59,19.84,0,24.66,13.13,24.66,25.74v23.53a86,86,0,0,0,1.07,15.08Zm-1.74-32.11c-12.87-.26-27.48,2-27.48,14.17,0,7.41,5.09,10.92,11.12,10.92,8.44,0,13.81-5.2,15.68-10.53a11.64,11.64,0,0,0,.67-3.64Z" transform="translate(-32.74 -412.4)"/><path class="cls-2" d="M2770,900.24l14.21,37.18c1.47,4.16,3.08,9.1,4.16,12.87h.27c1.21-3.77,2.55-8.58,4.16-13.13l12.87-36.92h12.46l-17.69,44.85c-8.44,21.58-14.21,32.63-22.25,39.39a32.34,32.34,0,0,1-14.47,7.41l-2.95-9.62a31.46,31.46,0,0,0,10.32-5.59,34.84,34.84,0,0,0,9.92-12.74,8,8,0,0,0,.94-2.73,9.75,9.75,0,0,0-.8-3l-24-58Z" transform="translate(-32.74 -412.4)"/><path class="cls-3" d="M1217.39,1091.87a73.16,73.16,0,0,1-23.47,4.07c-11.57,0-21.09-2.86-28.58-9.79-6.58-6.16-10.66-16.06-10.66-27.61.11-22.11,15.76-38.28,41.39-38.28,8.85,0,15.76,1.87,19.05,3.41l-2.38,7.81a40.67,40.67,0,0,0-16.9-3.19c-18.6,0-30.73,11.22-30.73,29.81,0,18.81,11.68,29.92,29.48,29.92,6.46,0,10.89-.88,13.15-2v-22.11h-15.54v-7.7h25.18Z" transform="translate(-32.74 -412.4)"/><path class="cls-3" d="M1238.26,1070.31c.23,13.09,8.85,18.48,18.82,18.48a37.05,37.05,0,0,0,15.2-2.75l1.7,6.93c-3.52,1.54-9.53,3.3-18.26,3.3-16.9,0-27-10.78-27-26.84s9.75-28.71,25.74-28.71c17.92,0,22.68,15.29,22.68,25.08a35.37,35.37,0,0,1-.34,4.51Zm29.26-6.93c.11-6.16-2.61-15.73-13.83-15.73-10.09,0-14.52,9-15.31,15.73Z" transform="translate(-32.74 -412.4)"/><path class="cls-3" d="M1288.15,1085.27a26.73,26.73,0,0,0,13.15,3.85c7.26,0,10.66-3.52,10.66-7.92,0-4.62-2.83-7.15-10.21-9.79-9.87-3.41-14.52-8.69-14.52-15.07,0-8.58,7.14-15.62,18.94-15.62a28.06,28.06,0,0,1,13.5,3.3l-2.5,7A21.84,21.84,0,0,0,1306,1048c-5.9,0-9.19,3.3-9.19,7.26,0,4.4,3.29,6.38,10.43,9,9.53,3.52,14.4,8.14,14.4,16.06,0,9.35-7.48,15.95-20.53,15.95a32.07,32.07,0,0,1-15.42-3.63Z" transform="translate(-32.74 -412.4)"/><path class="cls-3" d="M1346.45,1026.64v15.29h14.29v7.37h-14.29V1078c0,6.6,1.93,10.34,7.48,10.34a22.85,22.85,0,0,0,5.78-.66l.45,7.26a25.13,25.13,0,0,1-8.85,1.32c-4.65,0-8.39-1.43-10.77-4.07-2.83-2.86-3.86-7.59-3.86-13.86v-29h-8.5v-7.37h8.5v-12.76Z" transform="translate(-32.74 -412.4)"/><path class="cls-3" d="M1383.08,1027c.11,3.3-2.38,5.94-6.35,5.94a5.84,5.84,0,0,1-6-5.94,6,6,0,0,1,6.24-6A5.83,5.83,0,0,1,1383.08,1027Zm-11.11,68.2v-53.24h10v53.24Z" transform="translate(-32.74 -412.4)"/><path class="cls-3" d="M1448.17,1068.11c0,19.69-14.06,28.27-27.33,28.27-14.86,0-26.31-10.56-26.31-27.39,0-17.82,12-28.27,27.22-28.27C1437.51,1040.72,1448.17,1051.83,1448.17,1068.11Zm-43.55.55c0,11.66,6.92,20.46,16.67,20.46,9.53,0,16.67-8.69,16.67-20.68,0-9-4.65-20.46-16.44-20.46S1404.62,1058.54,1404.62,1068.66Z" transform="translate(-32.74 -412.4)"/><path class="cls-3" d="M1460.76,1056.34c0-5.5-.11-10-.45-14.41h8.84l.57,8.8h.23c2.72-5.06,9.07-10,18.14-10,7.6,0,19.39,4.4,19.39,22.66v31.79h-10v-30.69c0-8.58-3.29-15.73-12.7-15.73a14.11,14.11,0,0,0-13.38,9.9,13.52,13.52,0,0,0-.68,4.51v32h-10Z" transform="translate(-32.74 -412.4)"/><path class="cls-3" d="M1529.26,1070.31c.23,13.09,8.85,18.48,18.83,18.48a37.06,37.06,0,0,0,15.2-2.75l1.7,6.93c-3.52,1.54-9.53,3.3-18.26,3.3-16.9,0-27-10.78-27-26.84s9.75-28.71,25.74-28.71c17.92,0,22.68,15.29,22.68,25.08a35.48,35.48,0,0,1-.34,4.51Zm29.26-6.93c.11-6.16-2.61-15.73-13.84-15.73-10.09,0-14.52,9-15.31,15.73Z" transform="translate(-32.74 -412.4)"/><path class="cls-3" d="M1579.16,1085.27a26.73,26.73,0,0,0,13.15,3.85c7.26,0,10.66-3.52,10.66-7.92,0-4.62-2.83-7.15-10.21-9.79-9.87-3.41-14.52-8.69-14.52-15.07,0-8.58,7.14-15.62,18.94-15.62a28.06,28.06,0,0,1,13.49,3.3l-2.49,7A21.84,21.84,0,0,0,1597,1048c-5.9,0-9.19,3.3-9.19,7.26,0,4.4,3.29,6.38,10.43,9,9.53,3.52,14.4,8.14,14.4,16.06,0,9.35-7.48,15.95-20.53,15.95a32.07,32.07,0,0,1-15.42-3.63Z" transform="translate(-32.74 -412.4)"/><path class="cls-3" d="M1714.22,1062.61c-.57-10.34-1.25-22.77-1.13-32h-.34c-2.61,8.69-5.78,17.93-9.64,28.16l-13.5,36h-7.48l-12.36-35.31c-3.63-10.45-6.69-20-8.85-28.82h-.23c-.23,9.24-.79,21.67-1.47,32.78l-2,31.79h-9.41l5.33-74.14h12.59l13,35.86c3.18,9.13,5.78,17.27,7.71,25h.34c1.93-7.48,4.65-15.62,8.05-25l13.61-35.86H1721l4.76,74.14h-9.64Z" transform="translate(-32.74 -412.4)"/><path class="cls-3" d="M1771.72,1095.17l-.79-6.71h-.34a20.66,20.66,0,0,1-16.78,7.92c-11.11,0-16.78-7.59-16.78-15.29,0-12.87,11.79-19.91,33-19.8v-1.1c0-4.4-1.25-12.32-12.47-12.32a28,28,0,0,0-14.29,4l-2.27-6.38a34.87,34.87,0,0,1,18-4.73c16.78,0,20.87,11.11,20.87,21.78v19.91a72.73,72.73,0,0,0,.91,12.76Zm-1.47-27.17c-10.89-.22-23.25,1.65-23.25,12,0,6.27,4.31,9.24,9.41,9.24a13.63,13.63,0,0,0,13.27-8.91,9.82,9.82,0,0,0,.57-3.08Z" transform="translate(-32.74 -412.4)"/><path class="cls-3" d="M1796,1058.54c0-6.27-.11-11.66-.45-16.61h8.73l.34,10.45h.45c2.5-7.15,8.5-11.66,15.2-11.66a11.12,11.12,0,0,1,2.83.33v9.13a15.45,15.45,0,0,0-3.4-.33c-7,0-12,5.17-13.38,12.43a26.49,26.49,0,0,0-.45,4.51v28.38H1796Z" transform="translate(-32.74 -412.4)"/><path class="cls-3" d="M1853.83,1018.94,1840,1034.67h-7.14l10-15.73Zm-20.3,76.23v-53.24h10v53.24Z" transform="translate(-32.74 -412.4)"/><path class="cls-3" d="M1872.09,1026.64v15.29h14.29v7.37h-14.29V1078c0,6.6,1.93,10.34,7.49,10.34a22.84,22.84,0,0,0,5.78-.66l.45,7.26a25.12,25.12,0,0,1-8.84,1.32c-4.65,0-8.39-1.43-10.77-4.07-2.83-2.86-3.86-7.59-3.86-13.86v-29h-8.51v-7.37h8.51v-12.76Z" transform="translate(-32.74 -412.4)"/><path class="cls-3" d="M1908.72,1027c.11,3.3-2.38,5.94-6.35,5.94a5.84,5.84,0,0,1-6-5.94,6,6,0,0,1,6.24-6A5.83,5.83,0,0,1,1908.72,1027Zm-11.11,68.2v-53.24h10v53.24Z" transform="translate(-32.74 -412.4)"/><path class="cls-3" d="M1924.14,1056.34c0-5.5-.11-10-.45-14.41h8.73l.45,8.58h.34c3.06-5.06,8.17-9.79,17.24-9.79a16.2,16.2,0,0,1,15.54,10.67h.23a22.14,22.14,0,0,1,6.12-6.93,19.12,19.12,0,0,1,12.13-3.74c7.26,0,18,4.62,18,23.1v31.35h-9.75V1065c0-10.23-3.86-16.39-11.91-16.39-5.67,0-10.09,4.07-11.79,8.8a15.49,15.49,0,0,0-.79,4.84v32.89h-9.75v-31.9c0-8.47-3.86-14.63-11.45-14.63-6.24,0-10.77,4.84-12.36,9.68a13,13,0,0,0-.79,4.73v32.12h-9.75Z" transform="translate(-32.74 -412.4)"/><path class="cls-3" d="M2049.12,1095.17l-.79-6.71H2048a20.66,20.66,0,0,1-16.78,7.92c-11.11,0-16.78-7.59-16.78-15.29,0-12.87,11.79-19.91,33-19.8v-1.1c0-4.4-1.25-12.32-12.47-12.32a28,28,0,0,0-14.29,4l-2.27-6.38a34.87,34.87,0,0,1,18-4.73c16.78,0,20.87,11.11,20.87,21.78v19.91a72.73,72.73,0,0,0,.91,12.76Zm-1.47-27.17c-10.89-.22-23.25,1.65-23.25,12,0,6.27,4.31,9.24,9.41,9.24a13.63,13.63,0,0,0,13.27-8.91,9.82,9.82,0,0,0,.57-3.08Z" transform="translate(-32.74 -412.4)"/><path class="cls-3" d="M2072,1085.27a26.73,26.73,0,0,0,13.15,3.85c7.26,0,10.66-3.52,10.66-7.92,0-4.62-2.83-7.15-10.21-9.79-9.87-3.41-14.52-8.69-14.52-15.07,0-8.58,7.14-15.62,18.94-15.62a28.06,28.06,0,0,1,13.49,3.3l-2.49,7a21.84,21.84,0,0,0-11.23-3.08c-5.9,0-9.19,3.3-9.19,7.26,0,4.4,3.29,6.38,10.43,9,9.53,3.52,14.4,8.14,14.4,16.06,0,9.35-7.48,15.95-20.53,15.95a32.07,32.07,0,0,1-15.42-3.63Z" transform="translate(-32.74 -412.4)"/><path class="cls-4" d="M2152.54,1021v74.14h-9.87V1021Z" transform="translate(-32.74 -412.4)"/><path class="cls-4" d="M2169.78,1095.17V1021h10.77l24.5,37.51a207.94,207.94,0,0,1,13.72,24.09l.23-.11c-.91-9.9-1.13-18.92-1.13-30.47v-31h9.3v74.14h-10l-24.27-37.62a233.5,233.5,0,0,1-14.29-24.75l-.34.11c.57,9.35.79,18.26.79,30.58v31.68Z" transform="translate(-32.74 -412.4)"/><path class="cls-4" d="M2256.76,1071.85l-7.94,23.32h-10.21l26-74.14h11.91l26.08,74.14H2292l-8.17-23.32Zm25.06-7.48-7.49-21.34c-1.7-4.84-2.83-9.24-4-13.53h-.23c-1.13,4.4-2.38,8.91-3.86,13.42l-7.49,21.45Z" transform="translate(-32.74 -412.4)"/><path class="cls-4" d="M2336.49,1083.51a35.77,35.77,0,0,0,17.69,4.84c10.09,0,16-5.17,16-12.65,0-6.93-4.08-10.89-14.4-14.74-12.47-4.29-20.19-10.56-20.19-21,0-11.55,9.87-20.13,24.72-20.13,7.83,0,13.5,1.76,16.9,3.63l-2.72,7.81a31.17,31.17,0,0,0-14.52-3.52c-10.43,0-14.4,6.05-14.4,11.11,0,6.93,4.65,10.34,15.2,14.3,12.93,4.84,19.5,10.89,19.5,21.78,0,11.44-8.73,21.34-26.76,21.34-7.37,0-15.42-2.09-19.51-4.73Z" transform="translate(-32.74 -412.4)"/><path class="cls-4" d="M2391,1089.45a6.6,6.6,0,0,1,6.8-6.93c4,0,6.69,2.86,6.69,6.93s-2.61,6.93-6.8,6.93A6.57,6.57,0,0,1,2391,1089.45Z" transform="translate(-32.74 -412.4)"/><path class="cls-4" d="M2429.6,1071.85l-7.94,23.32h-10.21l26-74.14h11.91l26.08,74.14h-10.55l-8.17-23.32Zm25.06-7.48-7.49-21.34c-1.7-4.84-2.83-9.24-4-13.53H2443c-1.13,4.4-2.38,8.91-3.86,13.42l-7.49,21.45Z" transform="translate(-32.74 -412.4)"/><path class="cls-4" d="M2557.75,1017.07v64.35c0,4.73.11,10.12.45,13.75h-9l-.45-9.24h-.23c-3.06,5.94-9.75,10.45-18.71,10.45-13.27,0-23.47-10.89-23.47-27.06-.11-17.71,11.23-28.6,24.61-28.6,8.39,0,14.06,3.85,16.56,8.14h.23v-31.79Zm-10,46.53a16.62,16.62,0,0,0-.45-4.07,14.58,14.58,0,0,0-14.4-11.22c-10.32,0-16.44,8.8-16.44,20.57,0,10.78,5.44,19.69,16.22,19.69a14.91,14.91,0,0,0,14.63-11.55,16.34,16.34,0,0,0,.45-4.18Z" transform="translate(-32.74 -412.4)"/><path class="cls-4" d="M2579.86,1070.31c.23,13.09,8.85,18.48,18.83,18.48a37.06,37.06,0,0,0,15.2-2.75l1.7,6.93c-3.52,1.54-9.53,3.3-18.26,3.3-16.9,0-27-10.78-27-26.84s9.75-28.71,25.74-28.71c17.92,0,22.68,15.29,22.68,25.08a35.48,35.48,0,0,1-.34,4.51Zm29.26-6.93c.11-6.16-2.61-15.73-13.84-15.73-10.09,0-14.52,9-15.31,15.73Z" transform="translate(-32.74 -412.4)"/><path class="cls-4" d="M2708.92,1092.75c-3.63,1.76-10.89,3.52-20.19,3.52-21.55,0-37.76-13.2-37.76-37.51,0-23.21,16.22-38.94,39.92-38.94,9.53,0,15.54,2,18.14,3.3l-2.38,7.81a36.88,36.88,0,0,0-15.42-3.08c-17.92,0-29.83,11.11-29.83,30.58,0,18.15,10.77,29.81,29.37,29.81,6,0,12.13-1.21,16.1-3.08Z" transform="translate(-32.74 -412.4)"/><path class="cls-4" d="M2718.56,1089.45a6.6,6.6,0,0,1,6.8-6.93c4,0,6.69,2.86,6.69,6.93s-2.61,6.93-6.8,6.93A6.57,6.57,0,0,1,2718.56,1089.45Z" transform="translate(-32.74 -412.4)"/><path class="cls-4" d="M2761.54,1095.17,2736.59,1021h10.66l11.91,36.52c3.29,10,6.12,19,8.17,27.72h.23c2.15-8.58,5.33-17.93,8.73-27.61l12.93-36.63h10.55l-27.33,74.14Z" transform="translate(-32.74 -412.4)"/><ellipse class="cls-5" cx="523.94" cy="520.55" rx="523.44" ry="520.05"/><ellipse class="cls-6" cx="529.01" cy="521.62" rx="453.19" ry="450.26"/><line class="cls-7" x1="761.81" y1="503.05" x2="761.81" y2="503.05"/><line class="cls-8" x1="647.93" y1="225.42" x2="653.24" y2="707.03"/><polyline class="cls-9" points="648.05 236.44 685.42 207.69 722.8 178.94"/><line class="cls-10" x1="762.12" y1="229.83" x2="781.6" y2="707.03"/><line class="cls-9" x1="722.8" y1="178.94" x2="762.66" y2="242.99"/><line class="cls-9" x1="648.05" y1="236.44" x2="758.82" y2="236.83"/><line class="cls-9" x1="650.58" y1="332.27" x2="723.95" y2="210.21"/><line class="cls-9" x1="723.95" y1="210.21" x2="766.04" y2="325.87"/><line class="cls-9" x1="650.58" y1="332.27" x2="763.71" y2="268.86"/><line class="cls-9" x1="650.58" y1="344.44" x2="768.58" y2="401.42"/><line class="cls-9" x1="650.58" y1="468.43" x2="729.54" y2="366.86"/><line class="cls-9" x1="650.58" y1="468.43" x2="769.47" y2="409.89"/><line class="cls-9" x1="650.71" y1="478.18" x2="771.86" y2="545.12"/><line class="cls-9" x1="735.22" y1="524.87" x2="652.27" y2="619.48"/><line class="cls-9" x1="655.36" y1="619.55" x2="736.92" y2="572.18"/><line class="cls-9" x1="652.38" y1="628.76" x2="741.58" y2="702.13"/><line class="cls-9" x1="741.58" y1="702.13" x2="778.48" y2="630.62"/><line class="cls-9" x1="781.35" y1="701.13" x2="655.69" y2="625.81"/><line class="cls-9" x1="735.22" y1="524.87" x2="771.86" y2="478.16"/><polyline class="cls-9" points="735.22 524.88 773.45 610.33 778.07 620.65"/><line class="cls-9" x1="736.92" y1="572.18" x2="775.22" y2="550.91"/><line class="cls-9" x1="729.14" y1="355.54" x2="766.53" y2="337.83"/><line class="cls-9" x1="652.06" y1="341.81" x2="729.14" y2="355.54"/><line class="cls-9" x1="771.77" y1="466.23" x2="729.97" y2="378.8"/><polyline class="cls-10" points="722.28 164.72 735.22 524.88 741.76 707.03"/><path class="cls-11" d="M542.31,807.76c-21.57-.94-43.12-2.22-64.68-3.45q-16.17-.92-32.35-1.76c-5.5-.28-23.23-4.57-25.3,2.73a25.38,25.38,0,0,0-.66,6.81c-.11,21.79-.15,43.54-.6,65.33" transform="translate(-32.74 -412.4)"/><path class="cls-11" d="M423.13,946.57c-.16,5.47-.3,10.7-.45,15.65-.52,18.17-.91,32.74-1.12,42.92,0,1.1,0,2.15-.06,3.14,0,0-.3,10.87-.94,21.59-.24,3.87-.52,7.73-.84,11-.37,3.76-.54,3.46-.91,16.22,0,0-.06,1.65-.16,3.73a154,154,0,0,1-1.75,16.75c-.05.35-.11.72-.18,1.08,0,.19-.05.37-.08.56" transform="translate(-32.74 -412.4)"/><path class="cls-11" d="M602.83,834.85c1,0,.37,13.1-.12,17.29-.44,3.61-1.14,7.15,1.35,10.27,1.86,2.31,5.31,1.71,6,2.84" transform="translate(-32.74 -412.4)"/><path class="cls-11" d="M241.32,902.5q4.35,0,8.76.12c7,.13,14,.33,21.21.6,52.9,2,110.48,7.23,161.13,7.62q6.32,0,12.49,0c17.72-.11,34.46-.74,50.89-1.53,9.58-.46,19-1,28.55-1.48,8.11-.43,16.25-.84,24.49-1.22,7.78-.34,15.66-.64,23.7-.86,7.34-.19,14.82-.31,22.5-.33,3,0,6,0,9,0h.83l-.83-.1c-2.86-.35-5.74-.69-8.63-1" transform="translate(-32.74 -412.4)"/><path class="cls-11" d="M461.24,1076.91q7-.37,14.44-.83c67.67-4.19,84.95-8.74,99-18.33,10-6.84,25.34-21,32.72-40.34a69.38,69.38,0,0,0,4.3-20.17c1.5-18.83-.46-34.62-2.77-49.44-2.24-14.39-4.81-27.87-4.87-42.35v-.1a114,114,0,0,1,5.48-35.49c.76-2.4,1-3.28.53-4.61" transform="translate(-32.74 -412.4)"/><path class="cls-11" d="M439.54,1078q10.35-.43,21.69-1" transform="translate(-32.74 -412.4)"/><path class="cls-11" d="M248.5,845.51c-1.23-.12-2.15-.24-2.64.12a1.1,1.1,0,0,0-.39,1q0,5.1-.21,9.93c-.78,18.76-3.46,34.27-3.94,46,0,0-.49,8-1.27,19.2-.64,9.17-1.48,20.52-2.41,31.56-1.12,13.3-2.37,26.14-3.57,34.1a59.51,59.51,0,0,1-1.18,6.22,56.44,56.44,0,0,0-1.72,8.56,65.6,65.6,0,0,0,3.08,28.13,48.8,48.8,0,0,0,10.7,17.71c9.1,9.53,23.13,16.11,52.52,22.61,17.14,3.78,41.84,8.07,89.88,8.37q10.91.07,23.49-.15l5.9-.13q10.77-.24,22.8-.73" transform="translate(-32.74 -412.4)"/><path class="cls-11" d="M250.65,845.64c-.37,0-.73,0-1.07,0l-.33,0-.73-.07" transform="translate(-32.74 -412.4)"/><path class="cls-11" d="M492.29,805A357.63,357.63,0,0,0,466,847.23c-8.41,15.94-12.63,23.91-15.53,34.92-.89,3.36-1.81,7.5-2.71,12.1-1,5.1-2,10.77-2.85,16.6-.59,4-1.14,8-1.61,12-.84,7.14-1.15,11.51-3.58,17.72-3.92,10-12,17.09-17,21.7l-.09.09" transform="translate(-32.74 -412.4)"/><line class="cls-11" x1="213.16" y1="434.68" x2="215.33" y2="434.68"/><path class="cls-11" d="M245.3,845.65l.56,0,2.64-.12h0l180-7.81" transform="translate(-32.74 -412.4)"/><path class="cls-11" d="M250,902.9a113.83,113.83,0,0,0,11.15,27.6c13.3,23.22,31.2,33.33,43.46,40,11.73,6.4,26,10.71,54.62,19.32,15.33,4.62,21.09,5.79,30.09,11,14.63,8.53,24.8,20.23,31.21,29" transform="translate(-32.74 -412.4)"/><path class="cls-11" d="M239.25,921.13a2.24,2.24,0,0,1,.8.57c3.11,3.28,6.23,18.6,11,29.35,11.59,25.87,32.83,35.57,45.74,42.72,12.33,6.83,27.38,11.43,57.47,20.63,16.14,4.93,22.2,6.19,31.67,11.78,15.39,9.1,26.1,21.59,32.85,30.94" transform="translate(-32.74 -412.4)"/><path class="cls-11" d="M555.94,830.34c13.59,2.33,27.73.68,41.37,2.87a9.59,9.59,0,0,1,5.07,2,3.9,3.9,0,0,1,.58.64" transform="translate(-32.74 -412.4)"/><path class="cls-11" d="M237.2,952.52q.23.37.44.74c3.91,6.57,5.82,14.46,9.1,21.36,4.58,9.58,10.46,19,18.67,26.21,8.52,7.47,18.68,13,28.84,18.26,12.23,6.3,27.17,10.54,57,19,16,4.55,22,5.71,31.43,10.86,22.07,12.13,20.85,27.09,32.6,28.53a12.6,12.6,0,0,0,1.61.1c21.48.32,43.75-45,45.13-47.86a133.91,133.91,0,0,0,11.88-37.62c4.15-28.14,12.14-55.8,21.9-82.8q2.36-6.54,4.85-13c2.74-7.17,5.6-14.29,8.51-21.35q9.35-22.74,20.12-44.92c2.39-4.89,4.83-9.77,7.41-14.58.88-1.63,2.59-6.69,4.39-7.62.06,0,.54-.46.54-.47-.1,5.54-3.32,10.58.16,16,2.54,4,7.6,5.74,12.4,6.69.59.12,1.17.23,1.76.31" transform="translate(-32.74 -412.4)"/><path class="cls-11" d="M233.81,986.7l.25.66a70.87,70.87,0,0,0,11.32,19.36c13.8,16.84,32.38,24.17,45.12,29,12.16,4.65,27,7.77,56.69,14,15.91,3.34,21.9,4.2,31.23,8a102.83,102.83,0,0,1,32.4,21" transform="translate(-32.74 -412.4)"/><path class="cls-11" d="M230.85,1006a54.25,54.25,0,0,0,11.21,15.82c13.36,13.31,31.36,19.11,43.71,23,11.78,3.68,26.15,6.15,54.91,11.09,15.42,2.65,21.21,3.31,30.27,6.32a103.82,103.82,0,0,1,31.39,16.63" transform="translate(-32.74 -412.4)"/><path class="cls-11" d="M233.81,1029.87l.42.39c3.07,2.93,4.47,6.22,9.62,10,12,8.72,28.1,12.5,39.16,15,10.56,2.4,23.44,4,49.21,7.25,13.81,1.74,19,2.18,27.11,4.14,13.14,3.2,22.22,9,28,12.32l0,0" transform="translate(-32.74 -412.4)"/><path class="cls-11" d="M249.61,845.64l0,0c-.11-.15-.23-.15-.33,0-.52.67-.83,4.79-.93,10.73-.22,12.3.4,32.37,1.67,45.31,0,.34.07.69.1,1,0,.13,0,.25,0,.37" transform="translate(-32.74 -412.4)"/><polyline class="cls-11" points="211.44 444.22 212.52 444.14 215.57 443.9 229.52 442.83 395.93 429.98"/><path class="cls-11" d="M270,899.06l.19.67c.31,1.1.66,2.26,1.08,3.49A90.73,90.73,0,0,0,280,922.31c11.87,19.55,27.84,28.06,38.8,33.7,10.45,5.39,23.21,9,48.74,16.28,13.68,3.89,18.83,4.88,26.86,9.29a91,91,0,0,1,27.19,23.57l.66.84" transform="translate(-32.74 -412.4)"/><path class="cls-11" d="M262.26,855.24q3.88,21.91,7.78,43.83" transform="translate(-32.74 -412.4)"/><path class="cls-11" d="M420.52,1078c7.9-.86,33.18-3.22,53.87-20.82,22.32-19,24.31-44.29,25.48-54.61,2.48-21.83,9.09-51.87,24.49-94.73Q526.09,903,528,898c7.4-19.83,16.59-42.26,28-67.66h0" transform="translate(-32.74 -412.4)"/><path class="cls-11" d="M439.17,1078l.36,0h0c7.89-1.09,38.88-5.92,59-22.87,22.08-18.58,24.05-43.33,25.2-53.41,2.5-21.77,9.24-51.85,25.09-95q1.21-3.32,2.52-6.76c7.35-19.52,16.5-41.61,27.85-66.67" transform="translate(-32.74 -412.4)"/><path class="cls-11" d="M459.88,1077l1.35-.11h0c10.2-.91,41.23-5.39,60.74-21.72,22.1-18.49,24.07-43.1,25.23-53.14,3.79-32.88,13.44-65,25.34-96.3.48-1.25,1-2.51,1.45-3.76,6.2-16.08,13-31.94,19.79-47.58q4.21-9.65,8.59-19.25l.32-.71" transform="translate(-32.74 -412.4)"/><path class="cls-11" d="M508.84,1073.62c6-.73,24.78-3.71,40.4-18.36,16.86-15.81,18.37-36.87,19.25-45.46,2.29-22.22,8.76-54.71,26.57-104.37.12-.36.26-.74.39-1.11,4.22-11.72,9.07-24.38,14.64-38.09" transform="translate(-32.74 -412.4)"/><path class="cls-11" d="M530.81,1070c4.64-.43,19.28-2.21,31.42-10.93,13.11-9.41,14.28-22,15-27.07,2.21-16.39,8.92-41.14,31.75-84.2l.1-.2" transform="translate(-32.74 -412.4)"/><path id="_Trazado_" data-name="&lt;Trazado&gt;" class="cls-4" d="M566.77,1093.32a63.14,63.14,0,0,1-19.24-2.45c-7-1.78-15.74-4-32-3.89s-24.92,2.44-31.9,4.31a72.93,72.93,0,0,1-38.44.25c-7-1.78-15.74-4-32-3.89s-24.91,2.44-31.9,4.31a72.92,72.92,0,0,1-38.44.25c-7-1.78-15.74-4-32-3.89s-24.92,2.44-31.9,4.31a63.07,63.07,0,0,1-19.2,2.71,63.12,63.12,0,0,1-19.24-2.45c-7-1.78-15.73-4-32-3.89l.08,10a63.12,63.12,0,0,1,19.24,2.45c7,1.78,15.73,4,32,3.89s24.91-2.44,31.9-4.31a72.93,72.93,0,0,1,38.44-.25c7,1.78,15.73,4,32,3.89s24.91-2.44,31.9-4.31a72.92,72.92,0,0,1,38.44-.25c7,1.78,15.73,4,32,3.89s24.92-2.44,31.9-4.31a72.94,72.94,0,0,1,38.45-.25c7,1.78,15.74,4,32,3.89s24.92-2.44,31.9-4.31a63.08,63.08,0,0,1,19.2-2.71l-.08-10c-16.23.11-24.92,2.44-31.9,4.31A63.08,63.08,0,0,1,566.77,1093.32Z" transform="translate(-32.74 -412.4)"/><path id="_Trazado_2" data-name="&lt;Trazado&gt;" class="cls-4" d="M466.81,1116.82a68.2,68.2,0,0,1-17.86-2,137.26,137.26,0,0,0-59.35,0,79.2,79.2,0,0,1-35.73,0,120.26,120.26,0,0,0-29.67-3.25v7.93a68.2,68.2,0,0,1,17.86,2,120.25,120.25,0,0,0,29.67,3.25,120.25,120.25,0,0,0,29.67-3.25,79.21,79.21,0,0,1,35.73,0,137.27,137.27,0,0,0,59.35,0,68.21,68.21,0,0,1,17.86-2v-7.93a120.26,120.26,0,0,0-29.67,3.25A68.21,68.21,0,0,1,466.81,1116.82Z" transform="translate(-32.74 -412.4)"/><path id="_Trazado_3" data-name="&lt;Trazado&gt;" class="cls-12" d="M560.85,1073.32a55,55,0,0,1-18.68-2.82c-6.8-2-15.26-4.49-31-4.49s-24.23,2.49-31,4.49a63.22,63.22,0,0,1-37.36,0c-6.8-2-15.26-4.49-31-4.49s-24.23,2.49-31,4.49a63.21,63.21,0,0,1-37.36,0c-6.8-2-15.26-4.49-31-4.49s-24.23,2.49-31,4.49a63.22,63.22,0,0,1-37.36,0c-6.8-2-15.26-4.49-31-4.49v11a54.94,54.94,0,0,1,18.68,2.82c6.8,2,15.26,4.49,31,4.49s24.23-2.49,31-4.49a63.22,63.22,0,0,1,37.36,0c6.8,2,15.26,4.49,31,4.49s24.23-2.49,31-4.49a63.22,63.22,0,0,1,37.36,0c6.8,2,15.26,4.49,31,4.49s24.23-2.49,31-4.49a63.23,63.23,0,0,1,37.37,0c6.8,2,15.26,4.49,31,4.49s24.23-2.49,31-4.49a55,55,0,0,1,18.68-2.82v-11c-15.77,0-24.23,2.49-31,4.49A55,55,0,0,1,560.85,1073.32Z" transform="translate(-32.74 -412.4)"/></g></g></svg>