<svg id="Capa_1" enable-background="new 0 0 512 512" height="512" viewBox="0 0 512 512" width="512" xmlns="http://www.w3.org/2000/svg"><g><path d="m385.585 479.563h-224.266c-23.077 0-41.785-18.708-41.785-41.785v-395.993c0-23.077 18.708-41.785 41.785-41.785h290.642c23.077 0 41.785 18.708 41.785 41.785v329.616c.001 59.736-48.425 108.162-108.161 108.162z" fill="#f9efcd"/><path d="m292.341 392.501-153.312-153.311c-5.604-5.603-12.247-9.789-19.495-12.377v210.965c0 23.077 18.708 41.785 41.785 41.785h174.005c-7.177-36.796-21.246-65.324-42.983-87.062z" fill="#f8debb"/><path d="m385.585 479.563c59.736 0 108.162-48.426 108.162-108.162v-27.158c0 39.434-38.505 41.292-52.243 41.292-23.077 0-41.785 18.708-41.785 41.785 0 13.738-1.858 52.243-41.293 52.243z" fill="#f8debb"/><g><path d="m302.458 150.967c2.707.958 5.656.958 8.364 0 13.468-4.765 38.797-18.949 38.797-41.617v-43.577c0-3.001-1.579-5.797-4.18-7.294-9.389-5.403-24.609-8.911-38.799-8.911s-29.41 3.507-38.799 8.911c-2.601 1.497-4.18 4.293-4.18 7.294v43.577c0 22.669 25.33 36.852 38.797 41.617z" fill="#f5ed85"/></g><g><path d="m306.641 159.182c-2.265 0-4.529-.381-6.684-1.144-20.203-7.148-43.795-24.188-43.795-48.687v-43.578c0-5.69 3.042-10.976 7.939-13.794 10.623-6.113 26.923-9.911 42.54-9.911 15.618 0 31.918 3.797 42.54 9.91 4.897 2.818 7.939 8.104 7.939 13.795v43.577c0 12.072-5.853 23.545-16.925 33.18-10.488 9.126-22.286 13.885-26.871 15.507-2.155.763-4.42 1.145-6.683 1.145zm-.001-102.114c-12.746 0-26.835 3.179-35.058 7.911-.255.147-.421.459-.421.794v43.577c0 7.711 3.961 15.067 11.772 21.864 8.785 7.644 19.081 11.64 22.027 12.682 1.084.383 2.277.383 3.36 0 2.947-1.042 13.243-5.038 22.028-12.682 7.811-6.797 11.771-14.153 11.771-21.864v-43.577c0-.335-.165-.646-.421-.794-8.222-4.731-22.311-7.911-35.058-7.911z" fill="#efb060"/></g><g fill="#4f5c6f"><path d="m409.362 213.734h-205.443c-4.142 0-7.5-3.358-7.5-7.5s3.358-7.5 7.5-7.5h205.443c4.142 0 7.5 3.358 7.5 7.5s-3.358 7.5-7.5 7.5z"/><path d="m409.362 259.07h-205.443c-4.142 0-7.5-3.358-7.5-7.5s3.358-7.5 7.5-7.5h205.443c4.142 0 7.5 3.358 7.5 7.5s-3.358 7.5-7.5 7.5z"/><path d="m306.64 304.406h-102.721c-4.142 0-7.5-3.358-7.5-7.5s3.358-7.5 7.5-7.5h102.721c4.142 0 7.5 3.358 7.5 7.5s-3.358 7.5-7.5 7.5z"/></g><g><path d="m270.487 414.355-62.138 62.138-153.311-153.311c-8.508-8.508-8.508-22.301 0-30.809l31.329-31.329c8.507-8.507 22.301-8.507 30.809 0z" fill="#7ca0db"/><path d="m126.81 419.612c6.809-6.809 6.809-17.849 0-24.657l-71.773-71.773-5.61 5.61c-10.52 10.52-10.52 27.576 0 38.095l52.725 52.725c6.81 6.809 17.849 6.809 24.658 0z" fill="#4f5c6f"/><path d="m270.487 414.355-62.138 62.138-153.311-153.311c-8.508-8.508-8.508-22.301 0-30.809l31.329-31.329c8.507-8.507 22.301-8.507 30.809 0z" fill="#8cade0"/><path d="m38.276 228.148-16.135 16.135c-5.184 5.184-5.184 13.59 0 18.774l35.744 35.743 34.909-34.909-35.743-35.743c-5.185-5.185-13.59-5.185-18.775 0z" fill="#4f5c6f"/><path d="m147.947 291.815-30.771-30.771c-8.508-8.507-22.301-8.507-30.809 0l-31.329 31.329c-8.508 8.508-8.508 22.301 0 30.809l98.768 98.768c-20.993-40.862-35.595-105.048-5.859-130.135z" fill="#7c91db"/><path d="m270.487 414.355c21.232 21.232 30.442 48.021 35.199 74.714 2.371 13.303-9.32 24.994-22.623 22.623-26.693-4.758-53.482-13.967-74.714-35.199z" fill="#4f5c6f"/></g><g fill="#efb060"><path d="m215.217 108.127h-20.88c-4.142 0-7.5-3.358-7.5-7.5s3.358-7.5 7.5-7.5h20.88c4.142 0 7.5 3.358 7.5 7.5s-3.358 7.5-7.5 7.5z"/><path d="m418.943 108.127h-20.88c-4.142 0-7.5-3.358-7.5-7.5s3.358-7.5 7.5-7.5h20.88c4.142 0 7.5 3.358 7.5 7.5s-3.358 7.5-7.5 7.5z"/></g></g></svg>