<svg id="Layer_1" data-name="Layer 1" xmlns="http://www.w3.org/2000/svg" viewBox="0 0 860.94 646.01"><defs><style>.cls-1{fill:#ffc75f;}.cls-2{fill:#dd370b;}</style></defs><title>protocolo sanitario</title><path class="cls-1" d="M796.22,91.29l-10.12,3.91c.48,2.22.38,4.57,2.85,6.07,1.81,1.1,2.05,4.21.83,6-1.1,1.62-4.06,2.23-6,1.24a4.17,4.17,0,0,1-1.7-5.76c1.64-2.52.7-4.66,0-7.18l-5.12.34c0,.75,0,1.29,0,1.82a72.05,72.05,0,0,1-8.24,39.9,70.19,70.19,0,0,1-18.5,22.21,75.29,75.29,0,0,1-40,16.29,78.58,78.58,0,0,1-37.27-5,74,74,0,0,1-36.24-30.87,69.48,69.48,0,0,1-9.39-28.41,71.59,71.59,0,0,1,5.74-38.45A69.45,69.45,0,0,1,646.18,54a75.53,75.53,0,0,1,14.23-11.84,74.49,74.49,0,0,1,32.89-11.52,83.54,83.54,0,0,1,22.64.7,72.42,72.42,0,0,1,20.92,7c2.45,1.26,4.88,2.56,7.42,3.89l1-1.42c-1.8-1.22-3.52-2.41-5.25-3.57-.92-.62-1.92-1.12-2.8-1.79A6.37,6.37,0,0,0,732.89,34c-2.68.08-4.09-1.11-4.39-3.26-.4-2.8.88-4.69,3.43-5.07,3.1-.47,4.69.68,5.36,3.71a3.46,3.46,0,0,0,1.18,2c2.88,2,5.85,3.86,8.91,5.86l7.52-7.1c-1.28-1.95-2.49-3.91-3.85-5.76a3.23,3.23,0,0,0-1.83-.94c-2.84-.62-4-2.24-3.6-5.19.32-2.36,2.06-3.55,4.88-3.32,2.56.2,4.21,1.81,3.77,4.43-.35,2,.5,3.34,1.49,4.78l2.71,3.89c1.77-.79,3.34-1.57,5-2.19s3.14-1,5-1.66L766,12.52c-2.62-.71-3.6-2.56-3.23-5.22C763.14,5,764.44,4,767.09,4S771.3,5,771.47,7.2a13.89,13.89,0,0,1-.64,3.71c-.14.68-.6,1.38-.5,2,.56,3.46,1.26,6.9,1.93,10.49h10.52c.58-1.89,1.78-3.67,0-5.92a4.48,4.48,0,0,1,1.11-6.16c1.89-1.19,5.11-.67,6.3,1a4.52,4.52,0,0,1-.94,6.2c-2.16,1.5-1.55,3.71-2.13,5.68l9.75,4.11c2.07-3,4.2-6,6.15-9.15a5.56,5.56,0,0,0,.28-2.66c0-3,1.26-4.32,4.09-4.48,2.5-.15,4.25,1.15,4.63,3.42a4.24,4.24,0,0,1-3.4,5.17,3.54,3.54,0,0,0-1.88.87c-2.23,2.92-4.34,5.92-6.46,8.85l7.33,7.41c.53-.28,1.19-.56,1.78-.93,1.88-1.18,3.69-2.48,5.61-3.57,1.63-.93,3-1.78,3.38-4s2.39-2.89,5.15-2.49a3.44,3.44,0,0,1,3.24,3.51c.31,3.26-1.12,4.95-4.47,4.76a7.78,7.78,0,0,0-5.1,1.58c-2.35,1.61-4.81,3.05-7.25,4.58l3.81,9.7c2.74-.47,5.54-.94,8.33-1.44,2-.35,3.87-.5,5-2.68.79-1.46,3.66-1.56,5.35-.68A4.14,4.14,0,0,1,834.68,51a4.25,4.25,0,0,1-4.11,3.1,4.09,4.09,0,0,1-2.41-.4c-1.7-1.34-3.43-.94-5.26-.57-2.71.55-5.44,1-8.52,1.6V65.17c2.11.49,4.4,1.06,6.72,1.51.44.09,1-.35,1.48-.53a12.8,12.8,0,0,1,2.59-.86,4.13,4.13,0,0,1,4.54,2.42,4.82,4.82,0,0,1-1.41,5.51c-1.51,1-4.81,1.15-5.68-.3-1.94-3.27-5.21-3-8.14-3.71a9.15,9.15,0,0,0-1-.12l-4,9.48c1.64,1.12,3.43,2.36,5.24,3.58.77.51,1.62.9,2.34,1.47A6.2,6.2,0,0,0,821.71,85c2.69-.21,4.12,1,4.45,3.13.43,2.77-.63,4.59-3,5.12-3,.68-4.9-.44-5.72-3.29a3.53,3.53,0,0,0-.91-1.87c-3-2.09-6.14-4.06-9.35-6.16l-7.56,7.13c1.87,2.84,3.74,5.77,5.74,8.6.34.47,1.3.54,2,.71,2.37.56,3.41,2,3.22,4.71-.16,2.37-1.47,3.62-3.93,3.76-3.34.19-5.2-1.51-4.8-4.8a5.16,5.16,0,0,0-1-3.82C799.28,96,797.78,93.65,796.22,91.29ZM740.94,68.48a2.93,2.93,0,0,0-.82-.1c-3.46.59-6.92,1.15-10.36,1.85a2.8,2.8,0,0,0-1.56,1.35c-1.22,2.19-4.06,2.23-5.66,1.72-1.92-.62-2.8-2.13-2.65-4.34a3.81,3.81,0,0,1,3.37-3.77,5.18,5.18,0,0,1,4,.73,2.6,2.6,0,0,0,1.7.62c3.8-.63,7.58-1.37,11.38-2.08V54.1c-1.51-.31-3-.61-4.54-1-2.32-.53-4.63-1.24-6.83.44a3,3,0,0,1-1.6.33c-2.82.12-4.48-1.56-4.43-4.43a3.94,3.94,0,0,1,4.68-4.17c1.49.17,3,.59,3.67,2.11A2.84,2.84,0,0,0,733.7,49c1.72.33,3.44.71,5.17,1a22.78,22.78,0,0,0,2.47.15l1.19-4c-8.39-5.32-17.07-9.29-26.93-11a16.1,16.1,0,0,1-3.34,10.37,22.25,22.25,0,0,1-7.36,6.21c-2.39,1.18-4.87,2.2-7.37,3.15-3.72,1.41-7,3.27-9,7a5.59,5.59,0,0,1-3.82,3c-3,.57-5.82.39-8.45-1.53-3.67-2.68-6.2-6.31-8.67-10-1.37-2.05-.89-4.26.46-6.24.36-.53.89-.95,1.26-1.47,1-1.44,1-1.79-.59-3.62-10,4.79-18,12.15-24.74,20.82-4.47,5.74-7.6,12.27-10.21,19.46,1.31-.14,2.12-.24,2.93-.3,3.22-.26,6.44-.63,9.67-.72s4.85,1.07,5.87,4.06c1.46,4.27,1.21,8.4-1.74,12a10.8,10.8,0,0,0-2.21,5,23.32,23.32,0,0,1-13.8,17.55c-.57.26-1.09.61-1.71,1,.21.82.33,1.55.57,2.23,3,8.59,7,16.6,12.9,23.67a72,72,0,0,0,39.37,24.3,70.64,70.64,0,0,0,37-1.09c.92-.27,1.8-.7,2.81-1.1a12.74,12.74,0,0,1-.28-12,27.74,27.74,0,0,1,14.26-14.11c3-1.38,6.18-2.46,9.29-3.64,4.83-1.84,9.72-3,14.89-.71a75.22,75.22,0,0,0,5.9-12,57,57,0,0,0,3.71-16.16c.33-4.41.11-8.86,0-13.29,0-.44-.7-.87-1.07-1.31-.32.4-.82.75-.94,1.21-.63,2.41-1.15,4.85-1.74,7.27a4.29,4.29,0,0,0,.48,3.62,4.51,4.51,0,0,1-.79,5.59c-1.77,1.46-5.25,1.19-6.59-.51a4.61,4.61,0,0,1,1.19-6.53,3.31,3.31,0,0,0,1.67-2.34c.25-1.08.51-2.16.75-3.24.43-1.95.85-3.9,1.25-5.79l-9.76-4c-1.88,2.75-3.62,5.35-5.43,7.91a5.35,5.35,0,0,0-1.08,3.58,6.25,6.25,0,0,1-.81,3.37c-.87,1.43-3.51,1.81-5.34,1.08a4,4,0,0,1-2.5-4.21,4,4,0,0,1,3.29-3.92,4.17,4.17,0,0,0,2.1-1c2.25-2.91,4.37-5.93,6.36-8.68l-7.34-7.78c-2.54,2.22-6.2,2.84-7.1,6.89-.39,1.75-2.51,2.25-4.42,2.12-1.61-.12-3-.73-3.46-2.32-1-3.26.29-6.44,4.29-6.14a5.22,5.22,0,0,0,2.66-.21c2-1.07,3.89-2.38,5.77-3.57Zm69.76-11.3a30.47,30.47,0,0,0-5.94-15.83,34.12,34.12,0,0,0-19.49-13.26A33.31,33.31,0,0,0,747.8,44.58c-6.23,11.44-5.36,22.81,2.27,33.63,7.42,10.51,22.69,17.21,37.38,12.35C800.82,86.14,810.81,73.69,810.7,57.18ZM670.45,50.85c2.43,2.87,4.78,5.7,7.2,8.46a7.81,7.81,0,0,0,2,1.49,4,4,0,0,0,5.62-1.08,16.69,16.69,0,0,0,1.08-1.61,12.92,12.92,0,0,1,6.7-5.53c2.93-1.11,5.87-2.25,8.7-3.59a18.55,18.55,0,0,0,9.77-10.81,12.77,12.77,0,0,0,.3-3.36c-10.7-2.81-31.23.56-38.79,5.45C675.09,45.38,674,45.8,670.45,50.85Zm-38.61,65.82a9.45,9.45,0,0,0,1.27-.39c6-3,9.87-7.7,11.14-14.3a15.66,15.66,0,0,1,3.21-7.21,10.2,10.2,0,0,0,1.88-3.94c.88-3.62-1.36-6.21-5-5.89-3,.26-6.06.64-9.08,1-2.64.36-2.64.41-3.2,2.86a66.89,66.89,0,0,0-1.19,22C631.06,112.78,631.5,114.66,631.84,116.67Zm129.51,25.21a6.16,6.16,0,0,0-4.94-1.05,30.46,30.46,0,0,0-4.51,1.26c-2.43.86-4.78,2-7.24,2.72-6.7,2-11.54,6.4-15.17,12.17a18.36,18.36,0,0,0-2,5.37,4.46,4.46,0,0,0,1.73,4.42c1.18,1,2.27-.12,3.27-.6A83.85,83.85,0,0,0,745.91,158c5.1-3.76,9.22-8.46,13.37-13.14A30,30,0,0,0,761.36,141.88ZM825.94,69.7c0-.05-.08-.14-.14-.15s-.11.06-.17.09l.23.24Zm-4.38,19.44c0,.06,0,.16.06.18a.78.78,0,0,0,.25.05l-.08-.33Zm.92-58.38-.38.21c.06.05.13.16.16.15a2.06,2.06,0,0,0,.36-.18Zm-56.41,79.09-.12-.16-.16.29c.06,0,.14.07.16,0S766,109.91,766.07,109.85Zm-16-90.71-.19.11a1.25,1.25,0,0,0,.11.16,3,3,0,0,0,.29-.19Zm57.5-2.61.18.07-.12-.22ZM736.07,85.92l-.16-.18c-.06.06-.17.12-.17.18s.1.13.16.19Zm70.31,16.45-.2.17c.06.07.11.18.18.18s.13-.1.2-.16ZM724.27,69.45l.19-.16c-.05-.06-.11-.17-.16-.17s-.12.09-.19.15Zm22.68,33.7.1-.14-.15,0ZM786,104.67c-.05,0-.11-.09-.15-.08s-.12.09-.17.14l.31.1Zm.38-89.59.18-.14c0-.06-.09-.16-.14-.17a.21.21,0,0,0-.17.13C786.25,15,786.34,15,786.38,15.08ZM767.2,8.22c-.06-.07-.12-.18-.18-.19s-.14.1-.21.16.12.18.18.19S767.13,8.28,767.2,8.22ZM733.28,29.87c-.05-.06-.11-.16-.17-.16s-.12.09-.18.15.11.16.17.16S733.22,29.92,733.28,29.87ZM830.21,50l.2-.16c-.06-.07-.11-.18-.17-.18s-.13.09-.2.15Z" transform="translate(0 0)"/><path class="cls-1" d="M471.42,152.57a71.26,71.26,0,0,1-17.85,11.5l8.94,20.7c5.37,1.35,6.85,2.63,7.11,6.07.22,3-1.08,5.37-3.47,6.34-2.89,1.18-6.22.58-7.95-1.43-2.23-2.61-2.1-5.39.52-9.5l-8.87-20.66a70.27,70.27,0,0,1-21.14,3.9,17.64,17.64,0,0,0-.32,2.23c0,2.87,0,5.73,0,8.6a2.37,2.37,0,0,0,1.47,2.63c3,1.33,4.19,5.83,2.14,9.17-1.7,2.77-6.21,3.6-9.16,1.74-3.65-2.29-3.8-8.27-.07-10.58a3.47,3.47,0,0,0,1.84-3.57c-.08-3.3,0-6.61,0-10.16a70.68,70.68,0,0,1-21.46-4L393.68,186c2.39,4.36,2.48,7.65.37,9.92-1.66,1.78-5.27,2.4-7.75,1.32s-3.87-3.74-3.46-6.9,2.08-4.5,7.14-5.59l9.17-20.64c-6.48-3.34-12.65-6.81-17.8-11.86-.64.53-1.09.85-1.48,1.23-4.88,4.79-9.71,9.63-14.64,14.37a4,4,0,0,0-1.31,3.89c.5,3.31-.81,5.45-3.7,6.65-2.67,1.11-6.48.29-8.1-1.9a6.66,6.66,0,0,1-.57-6.86c1-2.37,3.18-3.25,5.61-3.4a22.85,22.85,0,0,1,3.46.37l17.59-17.1c-4.59-5.53-9.1-10.88-11.87-17.73l-16,6.51c-.37,2.06-.45,4.37-2.46,5.6a8.63,8.63,0,0,1-3.59,1.19c-3.29.31-5.55-1-6.54-3.53a6.89,6.89,0,0,1,1.68-7.63c2.36-2,5.89-1.77,9.69.61l15.47-6.37c-1-3.52-2.22-6.9-2.95-10.37s-1-6.91-1.42-10.53H335.65c-2.55,3.81-5.32,5.09-8.76,4.07-3.11-.92-4.55-2.88-4.52-6.14a5.68,5.68,0,0,1,4.43-5.94c3.45-1.07,6.35.25,8.83,4.07h24.92c0-7.16,1.76-13.91,4.17-20.58a12.36,12.36,0,0,0-1.56-.92c-4.81-1.88-9.66-3.7-14.45-5.63a3.7,3.7,0,0,0-4,.29c-2.14,1.52-6,1.13-7.84-.39a6.6,6.6,0,0,1-1.9-7.07c.81-2.76,2.95-4.23,6.1-4.2,3.31,0,5.32,1.37,6.14,4.13.24.79.37,1.62.6,2.67l18.46,7.18c3-6.59,7.15-12.16,12-17.65-1.89-1.9-3.67-3.72-5.49-5.51-2.83-2.79-5.68-5.55-8.52-8.33-.46-.45-.91-.92-1.38-1.36a6.47,6.47,0,0,0-5.12-2c-4.7.24-7.46-3.62-6.18-8.16a6.43,6.43,0,0,1,7.22-4.25c3.64.56,5.8,2.68,5.57,6.33-.07,1.09-.24,2.18-.4,3.54l17.33,17a68.15,68.15,0,0,1,17.9-11.83l-6.68-15.74c-2.1-.36-4.43-.34-5.72-2.32a8.34,8.34,0,0,1-1.28-3.56c-.34-3.29.94-5.47,3.52-6.53a7,7,0,0,1,7.88,1.7c1.92,2.38,1.71,5.75-.74,9.48l7,15.43a72.66,72.66,0,0,1,21.26-4V16.63a24.38,24.38,0,0,1-2.29-1.35,6.69,6.69,0,0,1-1.92-7.56c.92-2.48,3.09-3.78,6.18-3.71s5.17,1.46,5.91,4.07c.67,2.36.51,5.77-2.55,7.53a2.26,2.26,0,0,0-1.35,2.17c0,7.3,0,14.61.05,21.91a8,8,0,0,0,.29,1.35,70.42,70.42,0,0,1,21.16,4c1.52-3.61,3-7.15,4.3-10.66-2.82-3.56-3.28-6.78-1.42-9.47a6.85,6.85,0,0,1,7.74-2.15,6,6,0,0,1,4,6.27c-.13,3.46-1.83,5.24-6.13,6.25l-4.93,11.2a71,71,0,0,1,18.11,11.67c1.7-1.53,3.37-2.95,4.94-4.47,3.79-3.66,7.5-7.4,11.3-11A3.67,3.67,0,0,0,489.1,39c-.85-5.34,3.35-8.67,9.14-6.75,2.73.91,4,3.95,3.47,7.11s-3,5.46-6,4.87c-3.29-.64-4.88,1.08-6.78,3-4.64,4.63-9.36,9.18-14.24,14,5.08,5,8.53,11.21,12.23,17.55L509.8,69.5c.11-.54.19-1,.28-1.43.64-3.4,2-4.84,5.09-5.33,3.46-.55,5.89.6,7.42,3.51,1.78,3.39-.64,8.2-4.47,8.78a7.57,7.57,0,0,1-5.84-1.1,2.09,2.09,0,0,0-2.28-.3c-6.83,2.81-13.68,5.56-20.53,8.35a7.81,7.81,0,0,0-1.08.7,68.35,68.35,0,0,1,3.85,20.63h25.16c2.56-4,5.12-5.17,8.74-4.11,2.69.79,4.19,3,4.18,6.13s-1.5,5.21-4.32,6c-3.52,1-6.12-.23-8.57-4.1H492.28a67.23,67.23,0,0,1-4,20.67c.81.44,1.41.83,2.07,1.11,3.91,1.66,7.84,3.27,11.73,5a2.48,2.48,0,0,0,3-.3,6,6,0,0,1,4.75-1,6.29,6.29,0,0,1,4.61,10c-1.78,2.48-4.45,2.78-7.24,2.34a5.82,5.82,0,0,1-4.7-4.8c-.1-.54-.17-1.09-.29-1.88l-15.3-6.4c-3.75,6.13-7,12.38-12.32,17.46l17.56,17.18a31.26,31.26,0,0,1,4-.28c3.55.19,5.79,2.84,5.68,6.54a5.78,5.78,0,0,1-5.9,6c-4.89.17-7.39-2.55-6.81-7.45.12-1,.29-1.92-.61-2.78-5.48-5.23-10.91-10.51-16.37-15.77C472,152.7,471.79,152.69,471.42,152.57Zm17.31-47.83a56.14,56.14,0,0,0-5.31-23.23,64.07,64.07,0,0,0-8.9-14.27,62.52,62.52,0,0,0-38.46-21.74C418.53,42.58,402.7,47,388.4,57.14a60.19,60.19,0,0,0-17.57,20.06,55.91,55.91,0,0,0-7,24.3,57.53,57.53,0,0,0,8.84,34.83,61,61,0,0,0,19.09,19.35C405.51,164.4,420.41,168,436.5,165c24.18-4.45,40.57-18.47,49.23-41.4C487.93,117.78,488.69,111.6,488.73,104.74ZM346.49,138.79a3,3,0,0,0-2.86-2.51,3,3,0,0,0-2.55,2.8,3,3,0,0,0,2.7,2.37A3,3,0,0,0,346.49,138.79Zm149.07,36.27a3,3,0,0,0,2.53-2.51,3,3,0,0,0-2.75-2.59,3,3,0,0,0-2.7,2.67A3,3,0,0,0,495.57,175.06ZM389,188.85a3,3,0,0,0-2.46,2.59,2.77,2.77,0,0,0,2.74,2.52,2.91,2.91,0,0,0,2.65-2.66A3.25,3.25,0,0,0,389,188.85ZM498.09,38a2.87,2.87,0,0,0-2.78-2.52,3,3,0,0,0-2.66,2.39,3,3,0,0,0,2.94,2.72A3.14,3.14,0,0,0,498.09,38ZM394.43,24.29a2.8,2.8,0,0,0-2.4-2.58,2.85,2.85,0,0,0-2.94,2.63,3,3,0,0,0,2.85,2.47A2.93,2.93,0,0,0,394.43,24.29Zm66.38,4.54a2.72,2.72,0,0,0-5.43,0,3.08,3.08,0,0,0,2.86,2.47A2.92,2.92,0,0,0,460.81,28.84Zm65.76,76.38a2.66,2.66,0,0,0-5.31.29,2.89,2.89,0,0,0,2.95,2.33A2.8,2.8,0,0,0,526.57,105.22ZM426.4,186a3,3,0,0,0-2.6,2.47,3.09,3.09,0,0,0,2.48,2.61,3.38,3.38,0,0,0,3-2.49C429.27,187.44,427.67,186,426.4,186ZM343.92,71.17c-.9-1.43-1.62-2.79-3.41-2.58a2.8,2.8,0,0,0-2.14,2.57,2.62,2.62,0,0,0,2,2.37C342.21,74,342.91,72.53,343.92,71.17ZM465.58,191.35a2.89,2.89,0,0,0-2.52-2.51,3,3,0,0,0-2.57,2.78,2.86,2.86,0,0,0,2.69,2.32A2.8,2.8,0,0,0,465.58,191.35ZM425.95,12.75a3.36,3.36,0,0,0,2.9-2.46c.05-1.08-1.54-2.57-2.75-2.59a2.74,2.74,0,0,0-2.51,2.44A2.81,2.81,0,0,0,425.95,12.75ZM357.74,40.31a2.93,2.93,0,0,0,2.66-2.37,3,3,0,0,0-2.58-2.77,3,3,0,0,0-2.49,2.55A2.79,2.79,0,0,0,357.74,40.31Zm-26.2,64.91a3,3,0,0,0-2.59-2.48,2.76,2.76,0,0,0-2.54,2.75,2.85,2.85,0,0,0,2.68,2.35A3.06,3.06,0,0,0,331.54,105.22ZM514.08,69a2.86,2.86,0,0,0,2.58,2.43,3,3,0,0,0,2.48-2.57,2.53,2.53,0,1,0-5.06.14Zm-2.61,69.79a3,3,0,0,0-2.52-2.54,2.58,2.58,0,1,0,.11,5.16A2.92,2.92,0,0,0,511.47,138.81ZM360,172.78a2.54,2.54,0,1,0-2.67,2.3A2.76,2.76,0,0,0,360,172.78Z" transform="translate(0 0)"/><path class="cls-1" d="M361.76,560.83c-.52-1.61,0-2.58,1.37-3.52,8.73-6.05,17.39-12.22,26.09-18.32q14-9.78,27.95-19.52L446,499.31c1.59-1.11,3.21-2.17,4.81-3.27,1.93-1.33,2.75-1.39,4.74,0q9.23,6.37,18.42,12.81t18.38,12.88c.29.2.62.34,1.19.64a12.62,12.62,0,0,0,.32-1.89c0-3.79.14-7.59,0-11.37-.34-8.76,7.41-14.51,16.39-10.62l1.32.57a11.14,11.14,0,0,1,5.25-9.53A10.93,10.93,0,0,1,524,488a11.15,11.15,0,0,1,7.72,4.37c2.2,2.59,1.66,5.69,2.07,8.66C542.66,497,551.72,500.2,552,512c.71-.31,1.35-.6,2-.86,8.32-3.32,15.53,2.23,15.51,9.78-.06,20.06.05,40.13-.06,60.19a42.88,42.88,0,0,1-6.9,23.9A45.14,45.14,0,0,1,541,622.51,48.56,48.56,0,0,1,514,625c-.72-.13-1.46-.17-2.17-.25-.61,2.13-.67,15,0,17.95h6.77c1.39,0,2.77,0,4.16,0,2.54,0,2.72.34,1.94,3.17H362.06c-.71-2.79-.52-3.14,2-3.16,6.47,0,12.95,0,19.42,0h2.93c.69-2.31.79-93.43.11-96.56-2.42,1.62-4.79,3.15-7.09,4.76q-6.71,4.67-13.37,9.42C364.67,561.25,363.31,561.73,361.76,560.83Zm132.13-24.08c0-2.8-.08-4.92,0-7a3.28,3.28,0,0,0-1.69-3.19c-3.6-2.43-7.12-5-10.68-7.47q-11.79-8.29-23.6-16.57c-1.57-1.1-3.22-2.08-4.84-3.12-6.51,4.54-12.88,9-19.24,13.4q-20.45,14.29-40.9,28.57a4.39,4.39,0,0,0-2.2,4q.1,47.16.05,94.32c0,.89.1,1.78.16,2.75h19.23c0-1.39,0-2.57,0-3.75q0-25.24,0-50.49c0-3.19.08-3.26,3.26-3.26H439c4,0,4,0,4,4.14q0,25.24,0,50.49c0,1,.12,1.93.18,2.9h64.49V623.39c-1-.43-2-.89-3-1.29a42.5,42.5,0,0,1-14-9.24,6,6,0,0,0-4.63-1.85c-6.75.1-13.5.06-20.25,0-2.15,0-2.46-.23-2.47-2.06q-.07-11,0-21.91c0-1.8.32-2.05,2.17-2.09,3.05-.06,6.1,0,9.16,0,.79,0,1.57-.13,2.5-.22,0-1.1,0-1.92,0-2.75q0-22.05,0-44.11a15.39,15.39,0,0,1,.06-2.22,3.8,3.8,0,0,1,3.42-3.45,15.23,15.23,0,0,1,10.79,2.64C492.08,535.32,492.71,535.83,493.89,536.75Zm54.25,20.9c-.08-1.32-.2-2.49-.2-3.66q0-20.52,0-41a22,22,0,0,0-.33-4.13A7.27,7.27,0,0,0,541,503a7.17,7.17,0,0,0-6.78,4.81,13.27,13.27,0,0,0-.56,4.08q-.06,20.94,0,41.88c0,.74,0,1.48,0,2.22-.1,1.55-.62,2-2,2a1.64,1.64,0,0,1-1.79-1.94c0-.74,0-1.48,0-2.22q0-26.21,0-52.42a22.46,22.46,0,0,0-.15-3.6,7.31,7.31,0,0,0-6.59-6.13,7.13,7.13,0,0,0-7.07,5.16,11.14,11.14,0,0,0-.32,3c0,3.14.09,6.28.1,9.43q0,22.74,0,45.49c0,.65,0,1.3,0,1.94-.1,1.62-.52,2.05-1.93,2.08s-1.87-.39-2-2c-.05-.74,0-1.48,0-2.22q0-22.19,0-44.38c0-.83,0-1.67,0-2.5a7.26,7.26,0,0,0-6.57-6.74,7.15,7.15,0,0,0-7.26,6,25.56,25.56,0,0,0-.24,4.14q0,30,0,59.91c0,.92,0,1.85,0,2.77a1.53,1.53,0,0,1-1.79,1.63c-1,0-1.84-.41-2-1.55a20,20,0,0,1-.06-2.22q0-10.82,0-21.63c0-1,0-2-.06-3a12.09,12.09,0,0,0-10.48-11.2c-1.8-.22-2.4.23-2.57,2,0,.46,0,.92,0,1.39q0,20.39,0,40.77a44,44,0,0,0,.37,6.08,40,40,0,0,0,14.57,25.92c10.76,8.91,23,12.28,36.76,9.22s23.68-11.28,29.84-23.89a39.83,39.83,0,0,0,3.62-17.77q0-28.29,0-56.58a17.47,17.47,0,0,0-.14-2.77,7.32,7.32,0,0,0-6.58-6.15,7.15,7.15,0,0,0-7.09,5.12,13.67,13.67,0,0,0-.32,3.57c0,10.54,0,21.08,0,31.62,0,1.08-.16,2.16-.25,3.41ZM439.29,642.49V588.57H413.9v53.91Zm46.62-35c-4.66-5.93-6.76-12.36-8.3-19-3.65,0-7-.21-10.51.14,0,6.51-.07,12.63,0,18.9Z" transform="translate(0 0)"/><path class="cls-1" d="M159.39,419c-.38,3.11-1.54,3.7-3.87,1.92-1.76-1.34-3.37-2.88-5-4.38-4.29-3.94-8.54-7.91-12.83-11.84a34.79,34.79,0,0,0-4-3.39,5.91,5.91,0,0,0-2.84-.69c-4.89-.29-9.77-.5-14.55-1.78a53.56,53.56,0,0,1-20.73-10.75c-.49-.41-1-.79-1.64-1.3-.54.62-1,1.16-1.46,1.68-3.37,3.67-6.63,7.45-10.17,11a21.58,21.58,0,0,1-11.74,5.84,5.28,5.28,0,0,0-4,3c-2.76,4.91-5.71,9.71-8.58,14.55-.19.32-.36.65-.57,1a2,2,0,0,1-2.71.66c-.8-.32-1.13-2-.61-2.92,3.48-5.88,7-11.76,10.5-17.6a4.42,4.42,0,0,1,1.88-1.43,8.55,8.55,0,0,1,2.4-.66c5.61-.84,9.87-4,13.59-8,3-3.15,5.68-6.53,8.64-10l-2.47-2.54c-4.83-5-9.71-9.89-14.47-14.93-2.69-2.84-3.29-6.37-2.43-10.09,1.67-7.21,9-9.23,14.68-7.21a17,17,0,0,1,4.07,2.3c3.6,2.59,7.12,5.29,10.68,7.94a1.73,1.73,0,0,0,1.46.35c-1.45-2.07-2.9-4.15-4.36-6.22-.37-.53-.83-1-1.2-1.52Q89.44,341,81.83,330.1c-2.7-3.86-5.46-7.68-8.17-11.53a11.38,11.38,0,0,1-2.23-7,9.94,9.94,0,0,1,9.15-10.05c.72-.08,1.45-.09,2.42-.14-1.11-4.55-1.49-8.9,1.79-12.63s7.74-3.86,12.18-3.27c2.26-2.46,2.37-4.08.53-6.66-2.5-3.51-5.75-4.68-9.07-3a8.81,8.81,0,0,0-3.16,3c-4.62,7.13-9.11,14.35-13.67,21.53-1.43,2.25-2.94,4.44-4.45,6.71,1.87,3,2.87,6.16,2,9.6A15.75,15.75,0,0,1,67.93,320q-6.61,12.65-13.33,25.24c-.33.61-.84,1.37-1.42,1.54s-1.94.11-2.27-.34a2.86,2.86,0,0,1-.19-2.5c3.3-6.3,6.74-12.52,10.1-18.78,1.44-2.69,2.9-5.37,4.19-8.13,1.52-3.27.43-6.59-2.66-8.66a6.68,6.68,0,0,0-8.81,1.07A51.77,51.77,0,0,0,50,313.71c-4.25,5.59-8.52,11.17-12.66,16.83-4.52,6.18-7.89,12.89-9.12,20.57a46.36,46.36,0,0,0,.54,16.8,7.74,7.74,0,0,1-1.21,6.25c-4.64,7.12-9.14,14.33-13.69,21.51-1.06,1.67-1.53,1.77-3.91.92a3.43,3.43,0,0,1,.48-3.39L23,373.93c.45-.7.84-1.45,1.35-2.09a4.47,4.47,0,0,0,.7-3.89c-2.09-12.24-.79-24,5.67-34.81,3.07-5.13,7-9.77,10.54-14.59,2.35-3.17,4.93-6.17,7.17-9.42,3.28-4.75,8.32-6.57,14.37-4.89.35.1.71.16,1.2.27.33-.42.69-.82,1-1.27,4.16-6.55,8.29-13.12,12.45-19.67,1.64-2.57,3.29-5.13,5-7.63a10.83,10.83,0,0,1,13.81-3.42c5.28,2.64,7.34,7.36,5.73,12.9-.24.83-1.28,1.7,0,3,1.5-2.88,3-5.62,6.18-6.74a15.66,15.66,0,0,1,9.53-.18c3.37.91,4.72,3.88,6.61,6.26a46.85,46.85,0,0,1,3.15-3.53c4.16-3.84,12.6-3.93,16.45,2.3,3.06,4.95,6.37,9.74,9.6,14.58q10.85,16.24,21.72,32.46c2.2,3.31,4.28,6.69,6.43,10a55.06,55.06,0,0,1,4.13,6.52c3.47,7.62,2.94,15.46.73,23.31-.07.26-.13.53-.25,1.07,2.78,3.13,5.67,6.36,8.53,9.6.92,1,1.74,2.16,2.7,3.16a3.22,3.22,0,0,1,.69,3.8,2.78,2.78,0,0,1-3.61-.93c-3.83-4.5-7.8-8.88-11.77-13.26-1.1-1.22-1-2.44-.56-3.85.71-2.28,1.47-4.56,2-6.89a21,21,0,0,0-3.23-16.15c-5.67-8.76-11.51-17.41-17.29-26.11l-.46-.7q-7.81-11.95-15.63-23.89c-2.44-3.7-4.9-7.39-7.44-11a6.2,6.2,0,0,0-6.48-2.85,6.83,6.83,0,0,0-5.38,4.68c-.74,2-.06,3.65.91,5.25,1.93,3.15,3.92,6.27,5.93,9.38,1.65,2.56,3.38,5.07,5.06,7.61q3.89,5.9,7.75,11.82a5.94,5.94,0,0,1,1,2.22c.09.62-.18,1.68-.62,1.91a2.74,2.74,0,0,1-2.27-.09,6.22,6.22,0,0,1-1.8-2.05q-7.25-11.16-14.44-22.35c-3.26-5-6.51-10.09-9.81-15.1a9.6,9.6,0,0,0-2.15-2.51c-4.19-3.08-7.93-2.25-11.27,2-1.75,2.23-1.33,5.26.53,7.74,1.27,1.7,2.55,3.4,3.76,5.14,4.83,6.88,9.62,13.79,14.45,20.67,1.91,2.72,3.88,5.4,5.81,8.11a6.34,6.34,0,0,1,1,1.67c.29.91.32,1.91-.69,2.44a1.89,1.89,0,0,1-2.5-.5c-1.21-1.51-2.41-3-3.52-4.62-5.41-7.72-10.79-15.46-16.19-23.18-3.13-4.46-6.21-9-9.47-13.33-1.8-2.41-4.31-3.91-7.44-3.25A7.73,7.73,0,0,0,86,294.65a6.16,6.16,0,0,0,1.33,5.71c3.63,4.78,7.41,9.44,11.07,14.2,5.68,7.4,11.31,14.85,17,22.28a3.6,3.6,0,0,1,.45.69c.43,1,.67,2.07-.35,2.73a2.1,2.1,0,0,1-2.78-.41A10.62,10.62,0,0,1,112,339c-3.93-5.14-7.83-10.3-11.8-15.4-4.2-5.39-8.37-10.8-12.74-16.06-2.1-2.53-4.95-3-8.06-1.74-4,1.62-5.48,5.64-3.26,9.27,1.44,2.35,3.21,4.51,4.8,6.77,5.4,7.72,10.76,15.47,16.19,23.18,5.26,7.48,10.58,14.91,15.87,22.37a5.6,5.6,0,0,1,1.15,1.87c.16.82.21,2.06-.26,2.48a2.69,2.69,0,0,1-2.5.09,53.16,53.16,0,0,1-5.22-3.64c-5.25-3.93-10.48-7.9-15.73-11.83-1.4-1.05-2.84-2.07-4.3-3a6.84,6.84,0,0,0-9.24,1.17c-2.52,2.85-2.55,6.28.2,9.23,3.65,3.92,7.45,7.7,11.19,11.54,1.87,1.92,3.66,3.93,5.66,5.71a90.7,90.7,0,0,0,10,8.29,45.48,45.48,0,0,0,26.49,7.64,10.94,10.94,0,0,1,8.56,3.43c5.37,5.21,11,10.11,16.58,15.14C156.9,416.63,158.16,417.84,159.39,419Z" transform="translate(0 0)"/><path class="cls-1" d="M860.94,544.89a98.47,98.47,0,0,1-26,67.19A102.28,102.28,0,0,1,807,633.67a104.29,104.29,0,0,1-37.36,11.59,108.15,108.15,0,0,1-43.1-3.55A101.82,101.82,0,0,1,694,625.57a105.55,105.55,0,0,1-19.17-18.34,118.81,118.81,0,0,1-9.65-14.51c-4.66-7.89-7.27-16.49-9.56-25.28a98.35,98.35,0,0,1,7.73-66.6,118.15,118.15,0,0,1,9.62-15.53,100.68,100.68,0,0,1,30.8-27.07,105.75,105.75,0,0,1,44.91-13.74,109.72,109.72,0,0,1,38.95,4,99.45,99.45,0,0,1,24.75,11,103.11,103.11,0,0,1,30.09,27.86,118.21,118.21,0,0,1,9.18,15.76c4.92,9.7,7.32,20.08,8.63,30.76C860.7,537.48,860.72,541.2,860.94,544.89ZM829.08,612c6.32-5.8,11.09-12.7,15.43-19.9a97,97,0,0,0,8.94-20.83,83.29,83.29,0,0,0,3.7-21.8,88.22,88.22,0,0,0-5-34.58A104.13,104.13,0,0,0,842,493.77,101.58,101.58,0,0,0,822.84,472a98.75,98.75,0,0,0-28.64-17.1,99.9,99.9,0,0,0-52-6,102.29,102.29,0,0,0-51.32,23.24c-1,.87-2,1.82-3.13,2.83.81.86,1.4,1.56,2.05,2.19q4.56,4.45,9.15,8.87c1,1,2,1.89,3,2.85q6.37,6.17,12.74,12.34a2.73,2.73,0,0,1,.65,3.64c-2.46.93-3.71-.87-5.06-2.14-3.7-3.48-7.3-7.07-10.94-10.62q-6.64-6.49-13.28-13c-.38-.37-.83-.68-1.27-1-5.13,4.26-8.88,9.59-12.36,15a117.26,117.26,0,0,0-9,17.13,84.44,84.44,0,0,0-6.59,30.16A92.41,92.41,0,0,0,665,583.22a98.53,98.53,0,0,0,37.81,43.42,101.29,101.29,0,0,0,39.73,14.59c19.76,2.89,38.63-.1,56.79-8.2a97.68,97.68,0,0,0,16.55-9.52c3.58-2.53,6.88-5.46,10.48-8.36-1.27-1.18-2.3-2.09-3.27-3-5.28-5.17-10.54-10.37-15.83-15.53q-5.46-5.32-11-10.55c-1.52-1.43-2-2.79-1.11-3.77s2.47-.62,3.88.72q4.3,4.12,8.57,8.28c5.22,5.11,10.4,10.25,15.63,15.34C825.1,608.45,827.1,610.22,829.08,612Z" transform="translate(0 0)"/><path class="cls-1" d="M85,58.88c0-1.51,0-2.51,0-3.51,0-6.29.15-12.58,0-18.86-.2-6.57,4.49-9.31,9.34-9.13,4.16.15,8.32,0,12.48,0,.9,0,1.81-.08,2.89-.12V3.65c-1,0-2-.12-3-.12-6.47,0-12.95,0-19.42,0-1.61,0-2.3-.42-2.2-2A1.35,1.35,0,0,1,86.44.1c.65,0,1.29,0,1.94,0,22.47,0,44.95.07,67.42-.06a13.19,13.19,0,0,1,10.56,4.43c.93,1,2,2,2.93,2.95a9,9,0,0,1,1,1c.71,1,.69,2.51-.09,3a2.15,2.15,0,0,1-2.8-.26,58.39,58.39,0,0,1-4.64-4.36c-2.21-2.49-4.91-3.32-8.16-3.3-12.67.08-25.34,0-38,0-.9,0-1.8.09-2.89.14V27.21c.83.07,1.63.18,2.43.19,4.44,0,8.88,0,13.32,0,5.78,0,9,3.18,9,8.89,0,6.38,0,12.76,0,19.14,0,1,0,2,0,3.28,1.23.06,2.21.16,3.2.16,5,0,10,0,15,0a7.71,7.71,0,0,1,7,3.63A13.3,13.3,0,0,1,165,66.28a10.2,10.2,0,0,1,0,2.49c0,42.26-.05,84.51.07,126.77,0,5.27-2,6.27-6.4,6.26q-47-.1-94.05,0c-5.14,0-6.56-1-6.55-6.65q.13-63,0-125.93c0-.74,0-1.48,0-2.22.21-4.84,3.24-8,8.09-8.07,5.08-.11,10.17,0,15.26,0Zm76.31,72.87q0-31.33,0-62.67c0-4.78-2-6.77-6.72-6.77q-42.85,0-85.7,0c-4.75,0-6.77,2-6.87,6.7,0,.37,0,.74,0,1.11q0,62,0,123.95c0,4.18,0,4.22,4.15,4.22h91c.65,0,1.3,0,1.94,0,1.66-.13,2.09-.55,2.21-2.19.06-.74,0-1.48,0-2.22Q161.29,162.81,161.29,131.75Zm-26.86-73c.07-1,.16-1.75.16-2.48,0-6.28,0-12.55,0-18.83,0-4.42-2-6.45-6.44-6.47q-16.48-.09-33,0c-4.48,0-6.33,2-6.36,6.51,0,6.28,0,12.55,0,18.83a24.1,24.1,0,0,0,.26,2.44Z" transform="translate(0 0)"/><path class="cls-1" d="M96.71,490.64c-.19.73-.34,1.16-.4,1.6a19.09,19.09,0,0,1-18.66,16.21c-8.69.09-17.39.13-26.08,0-9.94-.15-17.56-7-19-16.81L32.3,490c-2.06,0-4.07,0-6.08,0-2.24-.06-2.55-.36-2.56-2.62,0-5.92-.07-11.84,0-17.75.15-10.69,8.27-18,18.24-18.74,1-.08,2,0,3.05,0q28.16.06,56.33.14c3.51,0,7,.18,10.53.4,6,.38,11.52,2.5,16.75,5.38l43.7,24.05q14,7.68,27.94,15.33c1.86,1,3.74,2,5.62,3,1.18.62,2.26,1.24,2,2.91s-1.6,1.2-2.35,1.63c-.94-.61-1.75-1.22-2.63-1.7q-13.36-7.33-26.74-14.63-24.3-13.32-48.61-26.63c-4.05-2.21-8.14-4.45-12.8-5.13a68.71,68.71,0,0,0-9.35-.95c-20.07-.13-40.14-.1-60.21-.22-6.52,0-11.7,2.43-15.37,7.77a13.19,13.19,0,0,0-2.19,5.33c-.91,6.14-.28,12.33-.45,18.87h3.53l67.14.64c2.77,0,5.55.15,8.32.17a25.76,25.76,0,0,1,12.9,3.59q21.88,12.54,43.84,24.95,14.46,8.2,29,16.29a2.13,2.13,0,0,1,1.3,2.67c-.37,1.32-1.58,1.11-2.55,1a6.12,6.12,0,0,1-2-.83q-16-9.09-32-18.21t-31.88-17.94c-3.14-1.77-6.3-3.49-9.39-5.34a19.35,19.35,0,0,0-9.76-2.63C102.68,490.6,99.82,490.64,96.71,490.64Zm-61-.7a41.4,41.4,0,0,0,2,5.77c3.4,6.25,8.87,9.22,15.87,9.32s14.23,0,21.35,0A18.34,18.34,0,0,0,89.06,499a12.37,12.37,0,0,0,3.52-8.42Z" transform="translate(0 0)"/><path class="cls-1" d="M449.47,391.37a3.55,3.55,0,0,1,2.27,3.68c-.07,2.76,0,5.52,0,8.2,2.17.67,71.07.86,75,.25.06-.73.19-1.53.19-2.32q0-46.32,0-92.65a13.13,13.13,0,0,0-.33-3,5,5,0,0,0-4.68-4.06,17.75,17.75,0,0,0-1.94,0H458.6c-.55,0-1.11,0-1.66,0a5.26,5.26,0,0,0-5.11,4.9,24.18,24.18,0,0,0-.1,2.77c0,6.47,0,12.95,0,19.42a6.29,6.29,0,0,1-.19,2.46c-.29.63-1.13,1.44-1.68,1.41s-1.2-.92-1.57-1.56c-.24-.42-.07-1.08-.07-1.64,0-7.49,0-15,0-22.47,0-5.72,2.91-8.72,8.64-8.91,2.86-.1,5.73,0,8.6,0h3.1c0-1.29,0-2.28,0-3.27,0-3.88.12-7.77,0-11.65-.18-4.8,2.55-8.78,8.69-8.92,2.87-.06,5.73,0,8.6,0a11.3,11.3,0,0,0,1.5-.23V249c-.77-.08-1.56-.23-2.34-.23q-24.42,0-48.83,0a7.65,7.65,0,0,0-6,2.42c-.94,1-2,1.88-3.06,2.8-.27.25-.55.67-.84.69-.87,0-2.06.25-2.53-.22a2.49,2.49,0,0,1-.09-2.46c2.95-3.43,5.83-6.77,11.12-6.74,24,.13,48.09.06,72.14.06.55,0,1.11,0,1.66.05,1,.1,1.37.81,1.34,1.75s-.43,1.6-1.48,1.63l-1.94,0c-4.16,0-8.32,0-12.49,0-.9,0-1.8.09-2.88.14v25c2.38,0,4.58,0,6.78,0a45,45,0,0,1,5.52.32,7.2,7.2,0,0,1,6.41,6.63,65.18,65.18,0,0,1,.19,6.65c0,3.3,0,6.6,0,10.26,1.49,0,2.67,0,3.84,0,3.23.07,6.49-.08,9.69.29,4.06.46,6.54,3.48,6.71,7.56,0,.65,0,1.29,0,1.94q0,48,0,96c0,3.82,0,3.83-3.76,3.83H451.91c-.55,0-1.11,0-1.66,0-1.36.07-2.06-.46-2-1.92,0-3.79-.06-7.58.07-11.37C448.29,393.22,449,392.37,449.47,391.37Zm57-93.68c0-5,.06-9.58,0-14.19-.06-3.83-2.2-5.91-6.13-5.95q-11.09-.09-22.17,0c-4.06,0-6.07,2.11-6.12,6.23s0,7.94,0,11.91a17.13,17.13,0,0,0,.25,2Z" transform="translate(0 0)"/><path class="cls-1" d="M56.92,593.85c1.75-1.36,3.09-2.34,4.37-3.4a13.53,13.53,0,0,1,8.6-3.31c8.69-.21,17.37-.56,26.06-.77a10.21,10.21,0,0,0,7-2.82,32.64,32.64,0,0,1,16.94-8.28c9.79-1.75,19.35-1,28.44,3.26a38,38,0,0,1,10.31,6.92l9.75,9.45c3.25,3.15,6.5,6.3,9.73,9.48a3.92,3.92,0,0,1,1.27,1.74,2.73,2.73,0,0,1-.5,2.22,1.91,1.91,0,0,1-2.71-.19c-1.63-1.64-3.32-3.2-5-4.82-4.82-4.72-9.45-9.66-14.47-14.15C144.3,578,130.08,575,114.35,581.1a34.69,34.69,0,0,0-8.6,5.45A14.26,14.26,0,0,1,96.66,590c-8,.07-16.09.38-24.13.58-3.85.1-7.35,1-9.81,4.25-2.26,3-3.28,6.13-1.56,9.78s4.38,5.91,8.37,6.49a27.3,27.3,0,0,0,3.88.11h27.74a19.17,19.17,0,0,1,2.22.07c1.15.14,1.5.92,1.43,2a1.45,1.45,0,0,1-1.55,1.56l-1.39,0q-15.54,0-31.07,0a14.64,14.64,0,0,1-9.47-3.31,12.06,12.06,0,0,1-4.74-10.14,4.66,4.66,0,0,0-2.52-4.68c-4.51-2.7-8.86-5.69-13.35-8.44a8.88,8.88,0,0,1-4-4.73A25.16,25.16,0,0,0,28.83,572c-5.92-4.73-12.53-6.51-20-4.8a10.69,10.69,0,0,0-2.36.8c-2.42,1.2-3.19,3.48-1.78,5.78,2.55,4.18,5.22,8.29,7.89,12.4,1.86,2.86,3.8,5.68,5.7,8.51a92.05,92.05,0,0,0,14.46,17.46c4.53,4.08,9.18,8,13.81,12,2.67,2.28,5.51,4.36,8.12,6.7a21.9,21.9,0,0,0,15.22,5.61q28.58,0,57.15,0c1.76,0,3.52,0,5.27,0a4.15,4.15,0,0,1,3.26,1.19c1.65,1.62,3.33,3.2,5,4.78a2.28,2.28,0,0,1,.3,3c-.42.78-2.05.76-3,0a36.05,36.05,0,0,1-3.85-3.58,5.54,5.54,0,0,0-4.6-1.92c-20.16.06-40.32,0-60.48,0a22,22,0,0,1-8.46-1.15,24.73,24.73,0,0,1-6.12-3.11c-6.94-5.51-13.72-11.24-20.55-16.89-7.84-6.49-14-14.35-19.52-22.88C10.23,589.56,5.94,583.32,1.7,577a9.13,9.13,0,0,1-1.57-6.84,6.6,6.6,0,0,1,4.61-5.7,27.64,27.64,0,0,1,23,1.94A23.35,23.35,0,0,1,38.95,579,13.25,13.25,0,0,0,45,586.2C49.29,588.75,53.4,591.57,56.92,593.85Z" transform="translate(0 0)"/><path class="cls-1" d="M397,368.46c-.73-3-.54-3.3,2.24-3.31q14.71,0,29.41,0a13,13,0,0,0,8.91-3.2,9.26,9.26,0,0,0,.11-13.94,12.24,12.24,0,0,0-8.31-3.29c-8-.2-15.9-.46-23.85-.57a14.85,14.85,0,0,1-10.11-3.73c-8.29-7.24-18.17-9.14-28.79-7.65a37.79,37.79,0,0,0-21.85,11.07c-6,6-12.18,11.87-18.27,17.79-.95.92-2.92,1.22-3.67.54s-.56-2.29.6-3.43c3.22-3.18,6.47-6.33,9.72-9.49,2.58-2.51,5.2-5,7.76-7.52,5.14-5.08,11-9.07,18-11.1,10.93-3.18,21.75-2.83,32.19,2a30,30,0,0,1,6.61,4.51,12.92,12.92,0,0,0,8.5,3.43c8,.11,15.9.44,23.85.67,2.81.08,5.62.39,8,2a63.5,63.5,0,0,1,5.61,4.94c2.74-1.73,5.76-3.63,8.76-5.54,2.34-1.49,5.08-2.61,6.88-4.59s2.35-4.75,3.67-7.06c4.36-7.62,10.89-12.18,19.63-13.35a29.51,29.51,0,0,1,11.83.73c5.56,1.54,8,7.13,4.83,12-7,10.67-13.35,21.77-21.64,31.49a131.82,131.82,0,0,1-12.21,12c-4.32,3.9-9,7.4-13.36,11.25a50,50,0,0,1-5.56,4.41,24.44,24.44,0,0,1-13.87,4.06c-19.89-.08-39.77,0-59.66-.1-2.54,0-4.46.56-6,2.56-.62.8-1.45,1.43-2.13,2.18-.94,1-2,1.72-3.42,1.13s-.68-1.91-1-2.72c1.77-1.65,3.48-3.08,5-4.71A5.65,5.65,0,0,1,370,390c13.87.06,27.75,0,41.62,0,6.2,0,12.39-.06,18.59,0a23,23,0,0,0,16.08-5.58c6.84-5.93,14.09-11.38,20.82-17.42a86.37,86.37,0,0,0,14.28-16.9c3.81-5.79,7.6-11.58,11.42-17.36,1-1.54,2.2-3,3.15-4.55,1.6-2.65.85-4.79-2-6a19,19,0,0,0-12-.87c-6.16,1.52-11.26,4.64-14.59,10.2a58,58,0,0,0-3.46,6.6,8.25,8.25,0,0,1-3.34,3.89c-4.78,3-9.47,6.1-14.25,9.08a3.46,3.46,0,0,0-2,3.54c.59,7.75-5.63,13.89-13.6,13.86-10.54,0-21.09,0-31.63,0C398.46,368.59,397.82,368.51,397,368.46Z" transform="translate(0 0)"/><path class="cls-1" d="M639.26,345.41c.06-1.7.05-3.42.19-5.14.11-1.4.67-1.77,2-1.68s1.48.88,1.48,1.91c0,2.5,0,5,0,7.49q0,27.6,0,55.21c0,.74.07,1.47.12,2.21.08,1.23-.41,1.9-1.72,2s-1.92-.47-1.95-1.74c0-.83,0-1.66,0-2.5q0-25.11,0-50.21v-3.49c-1.26-.14-2.25-.23-3.24-.36a10.33,10.33,0,0,1-9.17-9.59c-.09-1.2,0-2.4,0-3.6q0-23.86,0-47.72c0-3.77,1.18-7,4.44-9a18.26,18.26,0,0,1,4.83-1.88,12.61,12.61,0,0,1,3.31-.19c14.34,0,28.67,0,43,0,3.33,0,6.36.58,9,2.82a8.68,8.68,0,0,1,3.46,6.36c.19,4.06.17,8.13.1,12.2,0,.78-.72,1.55-1.09,2.29-2.59-1-2.61-1-2.63-3.07,0-2.77,0-5.55,0-8.32-.12-5.4-3.27-8.62-8.69-8.64-14.43-.06-28.86,0-43.29,0-3.77,0-6.75,1.33-8.2,4.94a12.76,12.76,0,0,0-.65,4.61c0,15.26,0,30.52,0,45.77,0,.55,0,1.11,0,1.66C630.73,342.66,633.78,345.44,639.26,345.41Z" transform="translate(0 0)"/><path class="cls-1" d="M821.76,349.39c0,19.38,0,38.55,0,57.76-1,.1-1.57.21-2.11.2-1.32,0-1.73-.81-1.65-2,.11-1.83.27-3.67.27-5.51q0-28.57,0-57.14v-3.83l3.21-.27.37,6.63a7.29,7.29,0,0,0,8.66-5.48,17.47,17.47,0,0,0,.42-4.12q0-22.47,0-44.94a18.79,18.79,0,0,0-.37-3.85,7.68,7.68,0,0,0-6.78-6c-1-.1-2-.13-3-.13H780.23c-.83,0-1.67,0-2.49.06a7.89,7.89,0,0,0-7.74,8.12c-.06,3-.08,5.92,0,8.88a2.71,2.71,0,0,1-1.93,3c-1.44-.38-1.95-1.33-1.92-2.84.08-3.42.18-6.85,0-10.26-.31-5.39,5.38-10.15,9.37-10.4,1.29-.08,2.59-.16,3.88-.16q20.81,0,41.62,0c1.11,0,2.22,0,3.33.1A10.91,10.91,0,0,1,834.61,287a21.1,21.1,0,0,1,.1,2.21q0,24,0,48a12.37,12.37,0,0,1-1.56,6.36,10.37,10.37,0,0,1-9.22,5.62C823.39,349.23,822.84,349.3,821.76,349.39Z" transform="translate(0 0)"/><path class="cls-1" d="M86.65,251.44c-7.82-3.74-20.16,2.29-22.6,10.19.82.71,1.81,1.54,2.76,2.41a7.37,7.37,0,0,1,1.07,1.27c.73,1.07.73,2.49.05,3a2.4,2.4,0,0,1-3-.51A24.52,24.52,0,0,0,59,262.92c-9.86-5.7-21.67-.7-26.1,8-2.13,4.19-3.1,8.42-1.47,12.8,2.65,7.12,7.55,12,15.3,13.37.55.1,1.1.18,1.64.3,1.62.37,2,.88,1.82,2.17C50,301,48.85,301,47.89,300.83c-3-.63-6.2-.86-8.79-2.24-13.86-7.38-14.75-22.74-8.4-32A21.32,21.32,0,0,1,47.42,257a24.55,24.55,0,0,1,12.21,1.83,3.39,3.39,0,0,0,.92.11c.38-.61.75-1.23,1.14-1.84,5.42-8.39,13.33-11.2,22.92-10.25a2.58,2.58,0,0,1,.54.11c2.08.68,3.43.15,4.81-1.78,5.41-7.56,16.39-9.35,24.61-4.73,10.39,5.84,10.51,20.36,4.39,27a22.83,22.83,0,0,1-3.11,2.72c-1.35,1-2.83,1-3.47.1s-.36-2.12,1-3.27c3-2.48,5.44-5.27,6-9.32a12.42,12.42,0,0,0-2.71-9.82,15.63,15.63,0,0,0-9.05-6c-8.45-1.76-17.14,4.87-17.39,13.48-.05,1.8.63,3.61.93,5.43.33,2-1,3.17-2.74,2.34a2.51,2.51,0,0,1-1.19-1.68c-.36-2.64-.56-5.3-.77-8A12.5,12.5,0,0,1,86.65,251.44Z" transform="translate(0 0)"/><path class="cls-1" d="M695.92,315.76c.84,2.52,4.62,3.33,2.91,6.54a3,3,0,0,1-3.52-.77c-1.92-1.94-4-3.74-5.9-5.67-1.31-1.32-1.31-2.49,0-3.83,2-2,4.07-3.93,6.11-5.88.13-.13.27-.35.41-.36.94,0,2.14-.41,2.77,0,.88.61.67,1.9,0,2.75-.83,1.07-1.84,2-3.1,3.33,1.2.1,2,.22,2.74.22,22.18,0,44.36.05,66.54,0,3.18,0,6.35.19,9.52.06a8.27,8.27,0,0,1,1.38,0c1,.13,1.75.62,1.79,1.74s-.68,1.67-1.7,1.8c-.73.09-1.48,0-2.21.05-5.66.36-11.32-.06-17,0s-11.46,0-17.19,0h-43.6Z" transform="translate(0 0)"/><path class="cls-1" d="M764.9,334.52h-4c-21.18,0-42.36,0-63.54,0-1.86,0-3.65.61-5.61.1-1.73-.45-3.67-.11-5.52-.13a12.24,12.24,0,0,1-1.66-.06c-.89-.13-1.6-.53-1.63-1.56a1.61,1.61,0,0,1,1.62-1.84c.83-.06,1.66,0,2.5,0,4.93-.17,9.85,0,14.78,0H765c-.92-1-1.43-1.64-2-2.23s-1.1-.87-1.28-1.43c-.27-.81-.55-2.24-.19-2.49.69-.48,2.34-.75,2.69-.34,1.43,1.67,3.82,2.15,4.86,4.27.43.87,1.41,1.44,2.09,2.2,1.17,1.33,1.12,2.27,0,3.66a61.35,61.35,0,0,1-6.23,6,2.61,2.61,0,0,1-3.27.34c-.73-.72-.57-2.09.41-3.24.42-.49.92-.91,1.35-1.39S764.1,335.5,764.9,334.52Z" transform="translate(0 0)"/><path class="cls-1" d="M679,246.82c.45,10.26-8,17.92-18.12,17.87-10.25,0-18.29-7.68-18.23-17.89.06-9.93,8.32-17.48,18.4-17.43C670.42,229.42,679.49,236.68,679,246.82Zm-32.34.29A14.19,14.19,0,0,0,661,261c8.25.12,14.44-8,14.42-14s-6.28-14.09-14.56-13.89A14.24,14.24,0,0,0,646.63,247.11Z" transform="translate(0 0)"/><path class="cls-1" d="M818.38,247c.46,9.74-8,17.59-17.76,17.71-10.12.12-18.35-7.18-18.54-17.21-.21-11.23,8.76-18,17.93-18.11C809.81,229.22,818.88,236.8,818.38,247Zm-18-13.93c-9,.05-14.41,7.85-14.65,13.85-.29,7,7,14,14.39,14.11,7.62.1,14.38-6.37,14.48-13.86S808,233.09,800.33,233.06Z" transform="translate(0 0)"/><path class="cls-1" d="M184.88,44.83c.37,6.57-6.56,12.71-11.58,13.18-3.79.35-7.42.2-10.68-1.89-5.79-3.71-7.64-10.62-4.91-17.65,2.59-6.69,6.58-12.58,10.51-18.51,1.28-1.94,3.13-2,4.5,0,2.25,3.26,4.34,6.65,6.31,10.09a76.43,76.43,0,0,1,4.33,8.66A40.55,40.55,0,0,1,184.88,44.83ZM170.37,24c-1.22,2-2.32,3.69-3.31,5.44-2.27,4-4.88,7.81-6.37,12.22-1.31,3.87-.18,7.11,2.59,9.81a12,12,0,0,0,4,2.45c3.83,1.48,7.31.46,10.2-2.26s4.29-6,2.67-9.74c-1.84-4.31-4-8.47-6.2-12.63A58.87,58.87,0,0,0,170.37,24Z" transform="translate(0 0)"/><path class="cls-1" d="M18.65,238c-.44-8.33,7.27-15.56,16.77-15.31A15.45,15.45,0,0,1,50.9,238.52c-.07,8.3-6,15.61-16.25,15.55C26.06,254,18.15,247.75,18.65,238ZM35,226.43c-7.27.22-12,5.07-12.58,11.94-.52,5.89,6,12.16,12.18,12,6.49-.13,12.41-4.87,12.46-11.94C47.13,231.58,41.32,226.68,35,226.43Z" transform="translate(0 0)"/><path class="cls-1" d="M424,298.2c-9.09.23-13-7.91-10.7-14.1a96.4,96.4,0,0,1,5.33-10.89,37.31,37.31,0,0,1,3.09-4.58,2.49,2.49,0,0,1,4.33,0,61.31,61.31,0,0,1,8,14.14,12.39,12.39,0,0,1,.57,7.87C433.33,295.43,429.4,298.17,424,298.2Zm-.13-25.52a88.52,88.52,0,0,0-6.67,11.85c-1.94,4.56.76,9,5.68,9.9,4,.75,10-3.7,8-9C429.25,281,426.54,277.14,423.91,272.68Z" transform="translate(0 0)"/><path class="cls-1" d="M798.5,381.09q0-11.92,0-23.83c0-2.43.38-3,1.87-2.92s1.67.51,1.67,2.84q0,22.31,0,44.61c0,1.29.13,2.58.12,3.87s-.55,1.79-2.17,1.73c-1.31,0-1.72-.71-1.71-1.94,0-8.12,0-16.24,0-24.36Z" transform="translate(0 0)"/><path class="cls-1" d="M778.87,407v-3.13q0-26.17,0-52.34c0-.92,0-1.85,0-2.77-.26-2.81,0-3.06,3.27-2.7.07,1.1.2,2.26.2,3.42q0,26.17,0,52.34c0,.92,0,1.85,0,2.77C782.48,407.25,782.21,407.48,778.87,407Z" transform="translate(0 0)"/><path class="cls-1" d="M682.32,376.64q0,13.57,0,27.15c0,.65,0,1.29,0,1.94,0,1.14-.54,1.65-1.71,1.66s-2-.53-2-1.76c0-1.38.16-2.76.16-4.14q0-25.76,0-51.52c0-.83,0-1.66,0-2.49,0-1.07.49-1.71,1.68-1.72a1.71,1.71,0,0,1,2,1.82c0,1.1-.14,2.2-.14,3.3Q682.31,363.75,682.32,376.64Z" transform="translate(0 0)"/><path class="cls-1" d="M78.63,235.15c0,6.21-3.9,10.14-10.2,10.21s-10.45-4-10.66-10.18c-.22-6.63,5.78-10.25,10.35-10.3C74.68,224.8,79,229.72,78.63,235.15Zm-10.25,6.92c3.61-.05,7-3.42,7-6.91s-3.49-6.9-7-6.93-7,3.49-7,6.94S64.94,242.12,68.38,242.07Z" transform="translate(0 0)"/><path class="cls-1" d="M662.75,381.09q0,12,0,24.09c0,1.66-.55,2.26-2.05,2.19-1.34-.07-1.68-.56-1.68-2.22q.05-23.4.08-46.81c0-.83,0-1.66,0-2.49a1.47,1.47,0,0,1,1.58-1.54,1.49,1.49,0,0,1,1.8,1.3,17.93,17.93,0,0,1,.12,2.48q0,11.5,0,23Z" transform="translate(0 0)"/><path class="cls-1" d="M37.73,546.79c.52-2.08,1.09-4.59,1.79-7.06,1.28-4.51,2.64-9,4-13.5.1-.35.08-.89.31-1a4.67,4.67,0,0,1,2.09-.91c.93,0,1.47.68,1.4,1.68a8.79,8.79,0,0,1-.26,1.63c-1.7,6.4-3.42,12.8-5.12,19.21-.3,1.13-.72,2.09-2.06,2.26S37.77,548.65,37.73,546.79Z" transform="translate(0 0)"/><path class="cls-1" d="M91.18,546.38c.09,1.66-.09,2.54-1.32,2.65s-2.2.06-2.57-1.41c-.75-2.94-1.59-5.87-2.38-8.8-.94-3.47-1.88-6.93-2.79-10.41a13.75,13.75,0,0,1-.35-2.18c-.1-1,.16-1.86,1.36-2a1.74,1.74,0,0,1,2.15,1.26c.41,1.42.83,2.83,1.23,4.25q2.13,7.43,4.24,14.86C91,545.4,91.14,546.21,91.18,546.38Z" transform="translate(0 0)"/><path class="cls-1" d="M62.54,536.71c0-3.51,0-7,0-10.52,0-1.56.81-2.17,2.27-2,.95.1,1.54.55,1.56,1.57,0,.09,0,.18,0,.28q0,10.65,0,21.31c0,1.33-.78,1.76-2,1.73-1.37,0-1.84-.48-1.86-2.12C62.5,543.54,62.54,540.13,62.54,536.71Z" transform="translate(0 0)"/><path class="cls-1" d="M798.54,314.86c-.06-2.27.43-3,2-2.72A2.27,2.27,0,0,1,802,313.4a6.61,6.61,0,0,1,.08,2.45,1.55,1.55,0,0,1-1.83,1.58,1.51,1.51,0,0,1-1.66-1.47C798.51,315.6,798.54,315.23,798.54,314.86Z" transform="translate(0 0)"/><path class="cls-1" d="M798.52,301.53c0-2.25.47-3,2-2.7a2.36,2.36,0,0,1,1.44,1.29,6,6,0,0,1,.09,2.18,1.61,1.61,0,0,1-1.87,1.83,1.57,1.57,0,0,1-1.66-1.77C798.52,302.08,798.52,301.8,798.52,301.53Z" transform="translate(0 0)"/><path class="cls-1" d="M802.06,328.48a5.12,5.12,0,0,1-.06,1,1.4,1.4,0,0,1-1.83,1.2,2.55,2.55,0,0,1-1.54-1.2,5.9,5.9,0,0,1-.11-2.17c0-1.2.44-1.91,1.76-1.92s1.8.69,1.78,1.9C802.06,327.56,802.06,327.83,802.06,328.48Z" transform="translate(0 0)"/><path class="cls-1" d="M659.11,327.32a3.47,3.47,0,0,1,.48-1.49,1.76,1.76,0,0,1,2.86.65,9.94,9.94,0,0,1,.11,2.73,1.73,1.73,0,0,1-3.45-.22C659.12,328.62,659.11,328.25,659.11,327.32Z" transform="translate(0 0)"/><path class="cls-1" d="M662.61,302a3.13,3.13,0,0,1-.06.75,1.51,1.51,0,0,1-1.72,1.39c-.95,0-1.61-.39-1.69-1.41-.05-.73,0-1.46,0-2.2,0-1.07.42-1.72,1.6-1.78s1.82.61,1.89,1.8C662.62,300.82,662.61,301.1,662.61,302Z" transform="translate(0 0)"/><path class="cls-1" d="M662.62,314.88c0,.37.08,1-.2,1.42a2.47,2.47,0,0,1-1.63,1,2.09,2.09,0,0,1-1.56-1.09,6.92,6.92,0,0,1-.12-2.42,1.51,1.51,0,0,1,1.63-1.74,1.54,1.54,0,0,1,1.82,1.55C662.6,314,662.6,314.35,662.62,314.88Z" transform="translate(0 0)"/><path class="cls-1" d="M692.11,151.6c-5.12,0-7.74-2.77-7.35-7.68a20.77,20.77,0,0,1,.92-4.31c1.29-4.27.8-5.28-3.6-6.57a36.33,36.33,0,0,1-8.37-3.58c-6.16-3.64-6.75-9.17-2.9-14.24,2.17-2.86,4.61-5.52,6.91-8.29,1.83-2.2,3.63-4.44,5.45-6.65,2-2.48,2.75-5.08,1.35-8.21-3.61-8.11,2.07-14.83,7.41-17.51,4.59-2.3,13.05-.22,14.07,8a28.1,28.1,0,0,1,.22,3.6,10.71,10.71,0,0,0,4.57,9,15.18,15.18,0,0,1,6.3,12.09,23.86,23.86,0,0,1-2,10.25,164.34,164.34,0,0,1-13.78,26.16c-1.06,1.62-2,3.33-3.18,4.86C696.56,150.6,694.6,151.91,692.11,151.6Zm21.44-42.77c-.22-3.42-.85-5.78-2.69-7.68l-4.45-4.56a11.94,11.94,0,0,1-3.58-7.88c-.08-1.48-.17-3-.32-4.42a8.13,8.13,0,0,0-3-5.44c-1.22-1-2.7-1.83-4.33-1.31-3.35,1.06-5.58,3.52-7.26,6.48-1.31,2.31-.78,4.58.22,6.9a10.58,10.58,0,0,1-.59,9.86,40.56,40.56,0,0,1-3.66,5.2c-3.38,4.15-6.85,8.23-10.27,12.34a8.18,8.18,0,0,0-1.09,1.59,2.92,2.92,0,0,0,.74,4,21.24,21.24,0,0,0,9,5.23,25.13,25.13,0,0,1,3.17,1c3.69,1.44,5.15,3.94,4.54,7.84a31.09,31.09,0,0,1-.92,3.47c-.22.8-.53,1.58-.68,2.39a3.48,3.48,0,0,0,1.85,3.72A3,3,0,0,0,694,147a10.32,10.32,0,0,0,2-2.29c2.91-4.82,5.9-9.59,8.57-14.54,2.58-4.79,4.94-9.7,7.12-14.68A41.54,41.54,0,0,0,713.56,108.83Z" transform="translate(0 0)"/><path class="cls-1" d="M788.6,84.23c-4.54,0-7.33-2.77-7.3-7.19s2.84-6.91,7.43-7a6.76,6.76,0,0,1,7.19,7C796,81.39,793,84.26,788.6,84.23Zm2.24-8.11a2.26,2.26,0,0,0-2.6,1.75,2.22,2.22,0,0,0,1.71,2.18c1,.15,2.45-1,2.21-1.91A6.73,6.73,0,0,0,790.84,76.13Z" transform="translate(0 0)"/><path class="cls-1" d="M794.43,60.67c-3.76,0-6-2-6-5.64s2.12-5.82,5.51-5.91c3.85-.1,6.26,2.11,6.26,5.75S798.22,60.64,794.43,60.67Zm2.06-5.83c-.71-1-1.31-2.31-2.74-1.74a2.78,2.78,0,0,0-1.39,2.05c0,.54.88,1.48,1.52,1.64C795.31,57.16,796,56,796.49,54.85Z" transform="translate(0 0)"/><path class="cls-1" d="M759.58,70.05c-3.7,0-6-2.15-6-5.69s2.35-5.82,6-5.81a5.55,5.55,0,0,1,5.88,5.91C765.37,67.9,763.14,70,759.58,70.05Zm-.12-7.66c-1.13.09-2.21,1.26-2,2.21a2.39,2.39,0,0,0,2.28,1.67,2.21,2.21,0,0,0,1.89-2A2.31,2.31,0,0,0,759.46,62.39Z" transform="translate(0 0)"/><path class="cls-1" d="M766.28,72.87c3,0,4.39,1.46,4.36,4.38s-1.59,4.3-4.53,4.29-4.42-1.65-4.36-4.46S763.27,72.83,766.28,72.87Zm-.34,4.58a1.19,1.19,0,0,0,.43-.21c.05-.06-.05-.25-.09-.39l-.58.2Z" transform="translate(0 0)"/><path class="cls-1" d="M778.2,49.5c-2.83,0-4.3-1.43-4.32-4.21s1.38-4.3,4.19-4.35,4.61,1.59,4.57,4.36S780.94,49.5,778.2,49.5Zm.27-4.11c0-.06,0-.15,0-.17a.62.62,0,0,0-.22,0l.07.3Z" transform="translate(0 0)"/><path class="cls-1" d="M467.6,102.78c.43,4.78-4.42,8.92-9.32,8.86-5.57-.07-9.18-3.67-9.14-9.21s3.76-9,9.38-9C463,93.43,468.2,97.26,467.6,102.78Zm-9.26-5.58c-2.87,0-5.73,2.69-5.69,5.38a5.57,5.57,0,1,0,5.69-5.38Z" transform="translate(0 0)"/><path class="cls-1" d="M433.7,142.37c0-5.53,3.62-9,9.34-9,5.5,0,9,3.54,9.11,8.94.1,5.21-3.06,9.08-9.21,9.11C437.58,151.48,433.42,148,433.7,142.37Zm9.18-5.29c-2.4,0-5.55,2.94-5.66,5.26s3.13,5.47,5.7,5.49,5.75-3,5.74-5.39S445.49,137.06,442.88,137.08Z" transform="translate(0 0)"/><path class="cls-1" d="M384.23,108c0-5.41,3.56-8.94,9-9a8.82,8.82,0,0,1,9.21,8.92c0,5.19-3.8,8.89-9.19,8.89C387.68,116.83,384.24,113.47,384.23,108Zm9.07-5.28c-2.87,0-5.68,2.67-5.61,5.37.07,2.53,2.92,5.17,5.58,5.18a5.28,5.28,0,0,0,0-10.55Z" transform="translate(0 0)"/><path class="cls-1" d="M407.09,133c0,4.06-2.47,6.39-6.65,6.35-3.91,0-6.44-2.51-6.48-6.34s2.57-6.47,6.61-6.47S407.12,128.94,407.09,133Zm-6.38,2.65a3,3,0,0,0,2.73-2.64,3.09,3.09,0,0,0-2.86-2.82,3.18,3.18,0,0,0-2.91,2.81A3.15,3.15,0,0,0,400.72,135.69Z" transform="translate(0 0)"/><path class="cls-1" d="M433,86.16c-4,0-6.33-2.38-6.44-6.28s3.18-6.23,6.62-6.13c4,.11,6.53,2.5,6.48,6.3S437,86.18,433,86.16Zm2.6-6.1A2.91,2.91,0,0,0,433,77.31a3.24,3.24,0,0,0-2.6,2.47,2.94,2.94,0,0,0,2.6,2.71A2.86,2.86,0,0,0,435.58,80.06Z" transform="translate(0 0)"/><path class="cls-1" d="M729.93,527.84a11,11,0,0,0,8.55,2.53c5.27-.58,9.9-2.88,14.32-5.62,3.87-2.4,3.84-2.44,7.56.11a98.71,98.71,0,0,0,19.12,10.55c1.37.55,2.78,1,4.19,1.44a14.29,14.29,0,0,0,8.16.17,110.29,110.29,0,0,0,18.34-6.22,4.19,4.19,0,0,1,1.82-.57c.64,0,1.71.42,1.78.81a4.31,4.31,0,0,1-.47,2.48c-.19.4-.92.55-1.43.78a92.73,92.73,0,0,1-20.52,6.62c-2.12.42-4.41,0-6.62,0a19.82,19.82,0,0,1-2.26-.33c1,1.78,12.71,13.28,15,14.55l4.39-4.81a7.06,7.06,0,0,1,5.93-2.43c1.66.1,3.33,0,5,0,1.16,0,1.65.56,1.69,1.69a1.5,1.5,0,0,1-1.63,1.76c-1.2,0-2.41.08-3.61,0a6.09,6.09,0,0,0-4.73,1.9c-1.5,1.5-3.05,2.94-4.64,4.46,1.87,3.15,2.48,6.24,1,9.43-1.57,3.39-4.65,4.22-8.26,4.21-.32,5.91-3.65,8.49-9.39,8.36-.36,2.71-1,5.16-3.27,6.81s-4.76,1.16-7.35,1.32c-.67,3.56-2.46,6.14-6.21,6.9-3.56.72-6.54-.48-9.28-3-2.34,2.52-4.75,4.68-8.4,4.1s-5.42-2.88-6.56-5.67c-2.17-.62-4.39-.81-6.08-1.87s-2.66-2.93-4.29-4.83c-2,0-4.52-.06-6.57-2.14a7.77,7.77,0,0,1-2.25-7.11c-3.36-1.22-5.93-3-6.55-6.63s1.44-5.94,4.21-8.3c-2.69-2.59-5.07-5.14-7.75-7.33-.95-.78-2.59-.89-3.93-1-2.3-.13-4.62.06-6.93,0-1.67,0-2.25-.55-2.25-1.77s.56-1.76,2.22-1.8q4.3-.1,8.6-.06A9,9,0,0,1,717,550.1c2.09,2.08,4.26,4.07,6.6,6.28,2.22-2.53,4.8-4,8.12-3.3s5,2.92,6.29,6c2.57.06,5.16.18,7.26,2.34a8.48,8.48,0,0,1,2.37,6.94c4.6,2.08,6.47,3.91,6.43,9.29,4.68,2.05,7.87,5.11,5.86,11.41l1.89,1.33c2.53,1.77,6.55.18,6.87-2.87a4.24,4.24,0,0,0-1.19-2.89c-2.78-3-5.7-5.8-8.58-8.68-.26-.26-.61-.43-.86-.69-.85-.9-1.1-2.54-.29-2.94a4.49,4.49,0,0,1,2.81-.19c.63.15,1.11.92,1.65,1.43,3.19,3.08,6.35,6.2,9.57,9.24,2,1.85,3.65,1.94,5.73.49,2.42-1.68,2.39-4.32,0-6.57-4.68-4.46-9.31-9-14-13.47a8.09,8.09,0,0,1-.77-.8,2.63,2.63,0,0,1-.24-3.05,2.42,2.42,0,0,1,3,.28c1.46,1.28,2.87,2.6,4.27,3.95,3.72,3.6,7.39,7.24,11.13,10.82,2.13,2,3.73,2.15,5.93.59s2.39-4.15.33-6.16L769,551.06a7.8,7.8,0,0,0-.61-.57,2.06,2.06,0,0,1-.66-2.92c.59-1,2.34-1,3.45.06,2.83,2.65,5.61,5.37,8.39,8.07,3.52,3.41,7,6.86,10.54,10.24,2.17,2.07,3.72,2.21,5.93.73s2.62-4.06.73-5.92c-6.47-6.34-13.17-12.45-19.45-19a57.71,57.71,0,0,0-14.19-10.42c-2.26-1.24-4.38-2.74-6.36-4-3.69,1.73-7.12,3.54-10.7,5a22,22,0,0,1-16,.4c-3-1.09-3.94-2.55-3.87-5.32a4.5,4.5,0,0,1,2.37-3.82l20.18-13.21c.77-.51,1.62-.91,2.34-1.48a9.2,9.2,0,0,1,6.49-2.27c-1.41-1.29-2-1.48-3.9-1-2.25.53-4.48,1.12-6.71,1.71-10.36,2.72-20.69,5.57-31.1,8.09-3.09.75-6.4.63-9.62.82-1.75.1-3.51,0-5.27,0-1.08,0-1.78-.4-1.8-1.59s.64-1.82,1.88-1.81c2.22,0,4.45.11,6.66,0a38.94,38.94,0,0,0,6.83-.92q18.39-4.66,36.73-9.54a13.89,13.89,0,0,1,7.64,0,31.05,31.05,0,0,1,11.17,5.34,4.85,4.85,0,0,0,2.23.88c7.21,1.11,14.42,2.29,21.65,3.21,5.95.75,11.94,1.18,17.91,1.73,1.64.15,2,.57,2,2s-1,1.69-2.06,1.62c-5-.35-10-.5-14.92-1.16-11.17-1.48-22.32-3.2-33.47-4.84a34.43,34.43,0,0,1-3.81-.73,5.9,5.9,0,0,0-5,.93l-22.65,15C731.41,526.67,730.85,527.15,729.93,527.84Zm10,34.86a8.18,8.18,0,0,0-1.25.43,4.82,4.82,0,0,0-1.11.81c-3.31,3.2-6.63,6.38-9.87,9.64a3.66,3.66,0,0,0-1.19,2.35c.1,1.69,1.5,2.69,2.83,3.51a2.56,2.56,0,0,0,3.27-.64q5.08-4.87,10.1-9.81c.86-.84,1.75-1.82,1-3.15A6.21,6.21,0,0,0,740,562.7Zm10.81,13.11c-1.08-1-2.05-2.09-3.12-3a2.07,2.07,0,0,0-3,.06c-2.61,2.45-5.22,4.9-7.72,7.46a2.84,2.84,0,0,0-.67,2.21,3.82,3.82,0,0,0,6.53,2c2.27-2.15,4.52-4.31,6.72-6.53A11.31,11.31,0,0,0,750.77,575.81Zm-16.37-15a5.72,5.72,0,0,0-3.06-3.93c-1.22-.73-2.31-.2-3.23.7q-3.44,3.38-6.84,6.8c-1.75,1.77-1.74,2.29,0,4,.33.32.64.66,1,1,1.55,1.3,2.33,1.38,3.84,0,2.38-2.15,4.69-4.39,7-6.65A10.81,10.81,0,0,0,734.4,560.86ZM757,585.24a28.26,28.26,0,0,0-2.39-2.84c-1.32-1.22-2.29-1.2-3.65,0s-2.77,2.43-4,3.76c-1.68,1.74-1.61,2.67.1,4.46s3.14,2.14,4.77.72a57.6,57.6,0,0,0,4.11-4.1A10.91,10.91,0,0,0,757,585.24Z" transform="translate(0 0)"/><path class="cls-2" d="M122.65,154.84h-21.9c-.77-4.44,0-8.8-.53-13.44l-13.34-.22c-.73-2.22-.93-17.36-.33-21.46,2.14-.71,4.46-.27,6.71-.34s4.57,0,7.21,0V106.18c2.31-.72,18.47-.89,22.1-.29.72,4.27-.1,8.71.51,13.3,1,.06,1.85.15,2.75.16,3,0,5.92,0,8.88,0,2.18,0,2.46.27,2.47,2.37q.06,8.6,0,17.2c0,1.93-.34,2.26-2.29,2.31-2.87.08-5.73,0-8.6,0h-3.23C122.55,145.9,123.2,150.32,122.65,154.84Z" transform="translate(0 0)"/></svg>