<svg height="496pt" viewBox="0 0 496 496" width="496pt" xmlns="http://www.w3.org/2000/svg" xmlns:xlink="http://www.w3.org/1999/xlink"><linearGradient id="a" gradientUnits="userSpaceOnUse" x1="248" x2="248" y1="496" y2="0"><stop offset="0" stop-color="#9f2fff"/><stop offset="1" stop-color="#0bb1d3"/></linearGradient><path d="m496 329.222656-96-16v-41.222656h-16v-32h-144v32h-16v224h256v-113.222656l16 2.664062zm-240-73.222656h112v16h-112zm32 224v-80h48v80zm96 0h-32v-96h-80v96h-32v-192h144zm16-48h32v48h-32zm64 48h-16v-64h-48v-46.558594l64 10.664063zm16-113.449219-80-13.328125v-23.78125l80 13.328125zm-112-62.550781h-112v64h112zm-96 16h32v32h-32zm80 32h-32v-32h32zm-128-352h-224v240h224zm-16 224h-192v-208h192zm-96-192h-80v80h80zm-16 64h-48v-48h48zm96-48h-64v-16h64zm0 32h-64v-16h64zm0 64h-160v-16h160zm-112 32h-48v-16h48zm16-16h96v16h-96zm80 32h16v16h-16zm-16 16h-128v-16h128zm-72 106.238281-35 28.007813-9.992188-12.492188 44.992188-35.992187 45 35.992187-9.992188 12.492188zm24 117.761719h80v16h-80c-26.472656 0-48-21.527344-48-48v-56h16v56c0 17.648438 14.351562 32 32 32zm0-88v56h32v16h-32c-8.824219 0-16-7.175781-16-16v-56zm48 72v-16h16v16zm32-16h16v16h-16zm168-218.238281 35-28.007813 9.992188 12.492188-44.992188 35.992187-45-35.992187 9.992188-12.492188zm-24-117.761719h-80v-16h80c26.472656 0 48 21.527344 48 48v56h-16v-56c0-17.648438-14.351562-32-32-32zm0 88v-56h-32v-16h32c8.824219 0 16 7.175781 16 16v56zm-64-56v-16h16v16zm-16 0h-16v-16h16zm0 0" fill="url(#a)"/></svg>